<svg width="16" height="16" viewBox="0 0 16 16" fill="none" xmlns="http://www.w3.org/2000/svg">
<path fill-rule="evenodd" clip-rule="evenodd" d="M15.375 7.375H8.625V0.625C8.625 0.279813 8.34519 0 8 0C7.65481 0 7.375 0.279813 7.375 0.625V7.375H0.625C0.279813 7.375 0 7.65481 0 8C0 8.34519 0.279813 8.625 0.625 8.625H7.375V15.375C7.375 15.7202 7.65481 16 8 16C8.34519 16 8.625 15.7202 8.625 15.375V8.625H15.375C15.7202 8.625 16 8.34519 16 8C16 7.65481 15.7202 7.375 15.375 7.375Z" fill="#2196F3"/>
</svg>
