<svg width="12" height="12" viewBox="0 0 12 12" fill="none" xmlns="http://www.w3.org/2000/svg">
<path fill-rule="evenodd" clip-rule="evenodd" d="M4.51966 11.1123L0.411225 6.99374C-0.136673 6.44584 -0.136673 5.55365 0.411623 5.00533L4.51963 0.887194C4.61123 0.795389 4.73139 0.749475 4.85153 0.749475C4.9713 0.749475 5.09111 0.795085 5.18261 0.886351C5.36589 1.06919 5.36624 1.366 5.18343 1.54928L1.075 5.66786C0.891834 5.85102 0.891834 6.14842 1.07458 6.33119L5.18343 10.4502C5.36626 10.6335 5.36589 10.9303 5.18261 11.1131C4.9993 11.2959 4.70251 11.2956 4.51966 11.1123ZM11.5312 6.4668L3.02299 6.4668C2.76408 6.4668 2.55422 6.25694 2.55422 5.99802C2.55422 5.73911 2.76408 5.52925 3.02299 5.52925L11.5312 5.52925C11.7901 5.52925 12 5.73913 12 5.99802C12 6.25691 11.7901 6.4668 11.5312 6.4668Z" fill="currentColor"/>
</svg>
