<svg width="20" height="20" viewBox="0 0 20 20" fill="none" xmlns="http://www.w3.org/2000/svg">
<path d="M6.1731 4.64643C6.06224 4.7402 6 4.86737 6 5C6 5.1326 6.06224 5.2598 6.1731 5.35354L9.12764 7.85355C9.35837 8.04882 9.73254 8.04882 9.96331 7.85355C10.194 7.65828 10.194 7.34168 9.96331 7.14645L8.01748 5.5L18.4091 5.5C18.7354 5.5 19 5.27613 19 5C19 4.72387 18.7354 4.5 18.4091 4.5L8.01748 4.5L9.96331 2.85355C10.1941 2.65832 10.1941 2.34175 9.96331 2.14645C9.73257 1.95118 9.35841 1.95118 9.12764 2.14645L6.1731 4.64643Z" fill="currentColor"/>
<path d="M18.8269 11.0875L15.8724 8.17086C15.6416 7.94305 15.2675 7.94305 15.0367 8.17086C14.806 8.39863 14.806 8.76799 15.0367 8.9958L16.9825 10.9167L13 10.9167C12.6737 10.9167 12.4091 11.1778 12.4091 11.5C12.4091 11.8222 12.6737 12.0833 13 12.0833L16.9825 12.0833L15.0367 14.0042C14.9214 14.1181 14.8636 14.2674 14.8636 14.4167C14.8636 14.5659 14.9214 14.7152 15.0367 14.8291C15.2675 15.057 15.6416 15.057 15.8724 14.8291L18.827 11.9125C19.0577 11.6847 19.0577 11.3153 18.8269 11.0875Z" fill="currentColor"/>
<path d="M5.41747 10.3789C5.8986 9.54557 7.10141 9.54557 7.58253 10.3789L11.4797 17.1289C11.9608 17.9622 11.3594 19.0039 10.3971 19.0039L2.60288 19.0039C1.64064 19.0039 1.03923 17.9622 1.52035 17.1289L5.41747 10.3789Z" stroke="currentColor" stroke-width="1.5"/>
</svg>
