<svg width="12" height="12" viewBox="0 0 12 12" fill="none" xmlns="http://www.w3.org/2000/svg">
<path d="M11.5887 5.178C12.1371 4.61634 12.1371 3.70578 11.5887 3.14412L11.5859 3.14128L9.40889 0.92018C8.86047 0.358522 7.97138 0.361359 7.4202 0.92018L2.72545 5.73115L1.22424 7.26578C0.675822 7.8246 0.675822 8.73517 1.22147 9.29683L2.55926 10.6669H0.35C0.197663 10.6669 0 10.7719 0 11.0903C0 11.3976 0.197663 11.5 0.35 11.5H8.51425C8.66659 11.5 8.85 11.3754 8.85 11.0903C8.85 10.7815 8.66659 10.6669 8.51425 10.6669H6.23197L6.89394 9.99464L11.5887 5.178ZM5 10.6669H3.75L2 8.93962C1.5 8.42755 1.6704 7.99983 2 7.65943L3.10669 6.52317L6.25 9.4517L5 10.6669ZM3.75 5.86717L7.75 1.77056C8.08237 1.43016 8.5 1.10486 8.9 1.61694L10.8 3.56283C11.4 4.0749 11.0824 4.49978 10.75 4.84302L6.89394 8.8309L3.75 5.86717Z" fill="currentColor"/>
</svg>
