<svg width="16" height="16" viewBox="0 0 16 16" fill="none" xmlns="http://www.w3.org/2000/svg">
<path d="M8 8.90625C8.34519 8.90625 8.625 8.62644 8.625 8.28125V0.625C8.625 0.279813 8.34519 0 8 0C7.65481 0 7.375 0.279813 7.375 0.625V8.28125C7.375 8.62644 7.65481 8.90625 8 8.90625Z" fill="currentColor"/>
<path d="M6.63977 11.4789C6.64083 11.48 6.64186 11.481 6.64292 11.4821C7.00858 11.8477 7.48883 12.0305 7.96908 12.0305C8.44895 12.0305 8.92877 11.8479 9.2937 11.483L12.7536 8.03659C12.9981 7.793 12.9989 7.39728 12.7553 7.15272C12.5117 6.90818 12.116 6.90737 11.8715 7.15097L8.4107 10.5982C8.29264 10.7162 8.1357 10.7813 7.96877 10.7813C7.80242 10.7813 7.64598 10.7167 7.52808 10.5995L4.13261 7.155C3.8903 6.90915 3.49455 6.90634 3.24874 7.14865C3.00292 7.39097 3.00008 7.78668 3.24239 8.03253L6.63977 11.4789Z" fill="currentColor"/>
<path d="M15.375 12.875C15.0298 12.875 14.75 13.1548 14.75 13.5C14.75 14.1892 14.1892 14.75 13.5 14.75H2.5C1.81075 14.75 1.25 14.1892 1.25 13.5C1.25 13.1548 0.970187 12.875 0.625 12.875C0.279813 12.875 0 13.1548 0 13.5C0 14.8785 1.1215 16 2.5 16H13.5C14.8785 16 16 14.8785 16 13.5C16 13.1548 15.7202 12.875 15.375 12.875Z" fill="currentColor"/>
</svg>
