<svg width="16" height="16" viewBox="0 0 16 16" fill="none" xmlns="http://www.w3.org/2000/svg">
<path d="M15.375 0H0.624999C0.279785 0 0 0.279785 0 0.624999C0 0.970213 0.279785 1.25 0.624999 1.25H1.25V3.11596C1.25 3.71484 1.46533 4.29443 1.85632 4.74816L5.82177 9.34923C6.01732 9.57603 6.12499 9.86583 6.12499 10.1653V13.6443C6.12499 13.8493 6.22557 14.0414 6.39427 14.1581L8.89427 15.8889C9.00071 15.9626 9.1251 16 9.24998 16C9.34923 16 9.44883 15.9764 9.54002 15.9286C9.74595 15.8206 9.87498 15.6074 9.87498 15.375V10.1653C9.87498 9.86583 9.98265 9.57603 10.1781 9.34923L11.0432 8.34556C11.2685 8.08409 11.2392 7.68944 10.9778 7.4641C10.7164 7.23876 10.3218 7.26805 10.0963 7.5294L9.23131 8.53319C8.84031 8.9868 8.62498 9.56639 8.62498 10.1653V14.1821L7.37499 13.3167V10.1653C7.37499 9.56639 7.15965 8.9868 6.76866 8.53306L3.21191 4.40624H12.7882L12.0086 5.31066C11.7833 5.57213 11.8126 5.96678 12.0741 6.19213C12.1921 6.29393 12.3373 6.34374 12.4818 6.34374C12.6573 6.34374 12.8319 6.27025 12.9554 6.12682L14.1436 4.74816C14.5346 4.29443 14.75 3.71484 14.75 3.11596V1.25H15.375C15.7202 1.25 16 0.970213 16 0.624999C16 0.279785 15.7202 0 15.375 0V0ZM13.5 3.11596C13.5 3.12939 13.4995 3.14282 13.4991 3.15624H2.50097C2.50048 3.14282 2.49999 3.12939 2.49999 3.11596V1.25H13.5V3.11596Z" fill="currentColor"/>
</svg>
