<svg width="24" height="24" viewBox="0 0 24 24" fill="none" xmlns="http://www.w3.org/2000/svg">
<path d="M22.5936 1.40653C21.6866 0.4995 20.4807 0 19.1981 0C17.9154 0 16.7095 0.4995 15.8025 1.40648L2.38246 14.8266C2.26827 14.9408 2.18554 15.0825 2.14222 15.2381L0.0343475 22.8111C-0.0565431 23.1377 0.0359413 23.488 0.276363 23.7271C0.454488 23.9043 0.693176 24 0.937582 24C1.02299 24 1.10914 23.9883 1.19366 23.9643L8.76665 21.8131C9.08615 21.7224 9.33383 21.4693 9.41765 21.1479C9.50146 20.8265 9.40893 20.4847 9.17441 20.2494L4.4001 15.4606L15.5242 4.33645L19.6613 8.47355L11.1454 16.9663C10.7788 17.3319 10.778 17.9255 11.1436 18.2921C11.5092 18.6588 12.1028 18.6595 12.4694 18.294L22.5935 8.19745C23.5005 7.29047 24 6.08461 24 4.80197C24 3.51933 23.5005 2.31347 22.5936 1.40653ZM6.72163 20.4449L2.28875 21.7041L3.53024 17.2438L6.72163 20.4449ZM21.2686 6.8707L20.989 7.14956L16.8501 3.01064L17.1284 2.7323C17.6812 2.17945 18.4162 1.875 19.1981 1.875C19.9799 1.875 20.7149 2.17945 21.2677 2.73234C21.8205 3.28514 22.125 4.02014 22.125 4.80197C22.125 5.5838 21.8205 6.3188 21.2686 6.8707Z" fill="currentColor"/>
</svg>
