<svg width="20" height="20" viewBox="0 0 20 20" fill="none" xmlns="http://www.w3.org/2000/svg">
<g clip-path="url(#clip0)">
<path fill-rule="evenodd" clip-rule="evenodd" d="M11.7456 19.3144L19.5045 11.5454C20.0265 11.0228 20.1809 10.2443 19.8982 9.56223C19.615 8.87924 18.954 8.43796 18.2141 8.43796H15.7809V6.17218C15.7809 5.74066 15.4312 5.39093 14.9997 5.39093C14.5681 5.39093 14.2184 5.74066 14.2184 6.17218V9.21936C14.2184 9.65088 14.5681 10.0006 14.9997 10.0006H18.2141C18.3658 10.0006 18.43 10.101 18.4547 10.1607C18.4848 10.2332 18.4994 10.3406 18.3989 10.4413L10.6408 18.2094C10.3349 18.5149 9.83731 18.5149 9.52893 18.2068L1.67813 10.4416C1.57743 10.3409 1.59192 10.2335 1.62198 10.161C1.6467 10.101 1.71094 10.0006 1.86261 10.0006H5.23343C5.66495 10.0006 6.01468 9.65088 6.01468 9.21936V6.17233C6.01468 5.74081 5.66495 5.39093 5.23343 5.39093C4.80191 5.39093 4.45203 5.74081 4.45203 6.17233V8.43811H1.86261C1.1221 8.43811 0.460941 8.87985 0.178043 9.56345C-0.104397 10.2464 0.0510901 11.0251 0.576755 11.55L8.4274 19.3152C8.88471 19.7717 9.48514 20 10.0859 20C10.6868 20 11.2878 19.7714 11.7456 19.3144ZM6.01468 0.78125C6.01468 1.21277 5.66495 1.56265 5.23343 1.56265C4.80191 1.56265 4.45203 1.21277 4.45203 0.78125C4.45203 0.349731 4.80191 0 5.23343 0C5.66495 0 6.01468 0.349731 6.01468 0.78125ZM6.01468 3.51578C6.01468 3.9473 5.66495 4.29718 5.23343 4.29718C4.80191 4.29718 4.45203 3.9473 4.45203 3.51578C4.45203 3.08441 4.80191 2.73453 5.23343 2.73453C5.66495 2.73453 6.01468 3.08441 6.01468 3.51578ZM15.7809 0.78125C15.7809 1.21277 15.4312 1.56265 14.9997 1.56265C14.5681 1.56265 14.2184 1.21277 14.2184 0.78125C14.2184 0.349731 14.5681 0 14.9997 0C15.4312 0 15.7809 0.349731 15.7809 0.78125ZM15.7809 3.51578C15.7809 3.9473 15.4312 4.29718 14.9997 4.29718C14.5681 4.29718 14.2184 3.9473 14.2184 3.51578C14.2184 3.08441 14.5681 2.73453 14.9997 2.73453C15.4312 2.73453 15.7809 3.08441 15.7809 3.51578ZM13.2252 8.17122C13.2252 9.46237 12.1807 10.5091 10.8873 10.5091H9.69494V11.0111H11.1227C11.244 11.0111 11.3424 11.1094 11.3424 11.2308V12.1722C11.3424 12.2935 11.244 12.3919 11.1227 12.3919H9.69496V13.1136C9.69496 13.235 9.59658 13.3333 9.47523 13.3333H8.53382C8.41247 13.3333 8.31409 13.235 8.31409 13.1136V12.3919H7.82776C7.70642 12.3919 7.60804 12.2936 7.60804 12.1722V11.2308C7.60804 11.1095 7.70642 11.0111 7.82776 11.0111H8.31409V10.5091H7.82776C7.70642 10.5091 7.60804 10.4107 7.60804 10.2894V9.34798C7.60804 9.22663 7.70642 9.12825 7.82776 9.12825H8.31409V6.05306C8.31409 5.93171 8.41247 5.83333 8.53382 5.83333H10.8873C12.1765 5.83333 13.2252 6.8821 13.2252 8.17122ZM10.8873 7.2142H9.69494V9.12825H10.8873C11.415 9.12825 11.8444 8.69892 11.8444 8.17122C11.8444 7.64353 11.415 7.2142 10.8873 7.2142Z" fill="currentColor"/>
</g>
<defs>
<clipPath id="clip0">
<rect width="20" height="20" fill="white"/>
</clipPath>
</defs>
</svg>
