<svg width="20" height="20" viewBox="0 0 20 20" fill="none" xmlns="http://www.w3.org/2000/svg">
<path d="M18.4375 3.24219H13.7109V2.34375C13.7109 1.05141 12.6595 0 11.3672 0H8.63281C7.34047 0 6.28906 1.05141 6.28906 2.34375V3.24219H1.5625C1.13102 3.24219 0.78125 3.59195 0.78125 4.02344C0.78125 4.45492 1.13102 4.80469 1.5625 4.80469H2.37156L3.32367 17.1479C3.32395 17.1515 3.32426 17.1552 3.32457 17.1588C3.39551 17.9371 3.75246 18.6559 4.32965 19.1829C4.90684 19.7098 5.65512 20 6.43664 20H13.5634C15.191 20 16.5289 18.7878 16.6754 17.1804C16.7146 16.7506 16.398 16.3705 15.9684 16.3314C15.5382 16.2922 15.1586 16.6087 15.1194 17.0384C15.0467 17.8361 14.3777 18.4375 13.5634 18.4375H6.43664C5.62504 18.4375 4.95715 17.8293 4.88105 17.0218L3.93871 4.80469H16.0613L15.394 13.4555C15.3609 13.8857 15.6827 14.2614 16.1129 14.2946C16.1334 14.2961 16.1536 14.2969 16.1738 14.2969C16.578 14.2969 16.9203 13.9854 16.9519 13.5757L17.6284 4.80469H18.4375C18.869 4.80469 19.2188 4.45492 19.2188 4.02344C19.2188 3.59195 18.869 3.24219 18.4375 3.24219ZM12.1484 3.24219H7.85156V2.34375C7.85156 1.91297 8.20203 1.5625 8.63281 1.5625H11.3672C11.798 1.5625 12.1484 1.91297 12.1484 2.34375V3.24219Z" fill="currentColor"/>
<path d="M6.45029 6.36799C6.01923 6.38682 5.68506 6.7515 5.70388 7.1826L6.09451 16.1253C6.11283 16.5447 6.45865 16.8725 6.87443 16.8725C6.88591 16.8725 6.89751 16.8722 6.90912 16.8717C7.34017 16.8529 7.67435 16.4882 7.65552 16.0571L7.2649 7.11436C7.24607 6.68334 6.88068 6.34861 6.45029 6.36799Z" fill="currentColor"/>
<path d="M12.7351 7.11435L12.3445 16.0571C12.3257 16.4881 12.6599 16.8529 13.0909 16.8717C13.1025 16.8722 13.1141 16.8725 13.1256 16.8725C13.5413 16.8725 13.8872 16.5447 13.9055 16.1253L14.2961 7.18259C14.315 6.75153 13.9808 6.38681 13.5497 6.36798C13.1194 6.34872 12.754 6.68329 12.7351 7.11435Z" fill="currentColor"/>
<path d="M9.21875 7.14844V16.0911C9.21875 16.5226 9.56852 16.8724 10 16.8724C10.4315 16.8724 10.7812 16.5226 10.7812 16.0911V7.14844C10.7812 6.71695 10.4315 6.36719 10 6.36719C9.56852 6.36719 9.21875 6.71695 9.21875 7.14844Z" fill="currentColor"/>
</svg>
