<svg width="215" height="141" viewBox="0 0 215 141" fill="none" xmlns="http://www.w3.org/2000/svg">
<path d="M38.1892 8.53718C21.5312 22.2806 43.7993 39.9214 32.2623 47.6225C20.7264 55.3237 -27.0516 70.343 21.0619 100.14C69.1754 129.937 70.4977 149.681 104.845 130.813C139.192 111.946 136.724 108.556 164.99 121.311C193.256 134.065 222.798 114.221 212.753 90.6709C202.709 67.1205 196.314 67.4142 207.783 52.3743C219.253 37.3343 201.316 -4.28502 161.834 27.879C122.352 60.043 97.6399 36.03 93.3039 24.0014C88.969 11.9718 64.5148 -13.1815 38.1892 8.53718Z" fill="#F3F8FD"/>
<path d="M148.211 42.0306L108.068 65.7067C107.36 66.1241 106.512 65.4415 106.771 64.6617L121.142 21.4895C121.96 19.0331 120.315 16.4382 117.739 16.1416C113.316 15.6309 108.445 15.6259 103.078 16.2152C91.5893 17.4783 54.0318 23.2849 54.7559 65.3345C55.4801 107.384 88.5895 113.555 117.435 111.846C146.28 110.137 162.31 73.7644 156.527 52.8354C155.67 49.7357 154.627 46.6703 153.363 43.7091C152.511 41.7104 150.084 40.9256 148.211 42.0306Z" fill="#42A5F5"/>
<path d="M109.301 108.163C94.4552 108.163 82.751 105.335 74.513 99.7603C69.697 96.5005 65.9385 92.2016 63.345 86.9814C60.4052 81.0658 58.8409 73.7604 58.6943 65.2666C58.4099 48.7849 64.388 36.5127 76.4611 28.7909C83.5942 24.2287 92.6941 21.3127 103.507 20.1243C106.081 19.8414 108.597 19.698 110.988 19.698C113.154 19.698 115.272 19.8159 117.285 20.0476C117.312 20.0506 117.349 20.0555 117.385 20.1125C117.427 20.1773 117.412 20.2225 117.403 20.25L103.033 63.4221C102.545 64.8885 102.792 66.51 103.694 67.7584C104.603 69.0165 106.069 69.7669 107.615 69.7669C108.474 69.7669 109.324 69.5341 110.071 69.0931L149.89 45.6076C150.967 48.1789 151.921 50.9604 152.729 53.8813C155.726 64.7264 152.057 80.338 143.807 91.845C140.448 96.5319 136.544 100.293 132.207 103.024C127.544 105.96 122.495 107.607 117.2 107.921C114.48 108.082 111.823 108.164 109.302 108.164C109.302 108.163 109.302 108.163 109.301 108.163Z" fill="#9EC8FF"/>
<path d="M161.864 24.8736C156.699 15.7237 148.911 8.19935 137.274 4.75882C135.479 4.22747 133.583 5.20963 132.992 6.98441L118.957 49.1499C118.411 50.7901 120.195 52.228 121.686 51.3489L160.989 28.1678C162.133 27.4921 162.517 26.0296 161.864 24.8736Z" fill="#9EC8FF"/>
<g opacity="0.54">
<path opacity="0.54" d="M131.233 22.0099C131.217 22.0099 131.2 22.0069 131.183 22.0011C131.107 21.9736 131.067 21.8891 131.095 21.8125C132.676 17.4281 134.628 12.0949 135.651 9.30555C136.137 7.97963 137.62 7.27247 138.955 7.72917C141.633 8.64554 146.771 10.8662 151.091 15.4529C151.147 15.5119 151.144 15.6052 151.084 15.6612C151.025 15.7171 150.932 15.7142 150.876 15.6543C146.599 11.1137 141.511 8.91465 138.858 8.00713C137.674 7.60149 136.358 8.2291 135.928 9.40573C134.904 12.1941 132.952 17.5273 131.372 21.9107C131.351 21.9726 131.293 22.0099 131.233 22.0099Z" fill="#91B3FA"/>
<path opacity="0.54" d="M128.778 29.0538C128.769 29.0538 128.761 29.0528 128.752 29.0519C128.671 29.0381 128.618 28.9615 128.632 28.881C128.643 28.8171 128.677 28.6236 129.38 26.6171C129.406 26.5405 129.491 26.5002 129.568 26.5267C129.644 26.5532 129.685 26.6377 129.658 26.7143C129.085 28.3545 128.941 28.826 128.922 28.933C128.91 29.0037 128.849 29.0538 128.778 29.0538Z" fill="#91B3FA"/>
</g>
<path d="M65.8461 47.5843C65.6759 47.5843 65.5057 47.5214 65.3719 47.3957L56.0123 38.5454C55.1986 37.7754 54.1321 37.3521 53.0115 37.3521H21.1536C20.7728 37.3521 20.4639 37.0437 20.4639 36.6636C20.4639 36.2835 20.7728 35.9751 21.1536 35.9751H53.0115C54.4873 35.9751 55.8893 36.533 56.9608 37.5456L66.3204 46.3959C66.5968 46.6571 66.6086 47.0932 66.3469 47.3682C66.2112 47.5116 66.0291 47.5843 65.8461 47.5843Z" fill="#9EC8FF"/>
<path d="M48.1206 33.0835H21.1545C20.7738 33.0835 20.4648 32.7751 20.4648 32.395C20.4648 32.0149 20.7738 31.7065 21.1545 31.7065H48.1206C48.5014 31.7065 48.8103 32.0149 48.8103 32.395C48.8093 32.7761 48.5014 33.0835 48.1206 33.0835Z" fill="#9EC8FF"/>
<path d="M43.7335 28.8162H21.1555C20.7748 28.8162 20.4658 28.5078 20.4658 28.1277C20.4658 27.7476 20.7748 27.4392 21.1555 27.4392H43.7335C44.1143 27.4392 44.4232 27.7476 44.4232 28.1277C44.4232 28.5078 44.1143 28.8162 43.7335 28.8162Z" fill="#9EC8FF"/>
<g opacity="0.19">
<path opacity="0.19" d="M68.6649 47.4195C68.6344 47.4195 68.6039 47.4107 68.5773 47.391C68.5114 47.3429 68.4976 47.2506 68.5458 47.1848L102.844 0.526906C102.892 0.461101 102.985 0.44735 103.05 0.495477C103.116 0.543603 103.13 0.635927 103.082 0.701732L68.7839 47.3596C68.7544 47.3989 68.7101 47.4195 68.6649 47.4195Z" fill="url(#paint0_linear)"/>
<path opacity="0.19" d="M73.5638 50.1422C73.5333 50.1422 73.5028 50.1333 73.4762 50.1137C73.4103 50.0656 73.3965 49.9732 73.4447 49.9074L107.743 3.25054C107.791 3.18473 107.883 3.17098 107.949 3.21911C108.015 3.26724 108.029 3.35956 107.981 3.42536L73.6828 50.0813C73.6543 50.1206 73.6091 50.1422 73.5638 50.1422Z" fill="url(#paint1_linear)"/>
<path opacity="0.19" d="M78.4632 52.8637C78.4327 52.8637 78.4022 52.8549 78.3756 52.8352C78.3097 52.7871 78.296 52.6948 78.3442 52.629L112.642 5.9721C112.69 5.90629 112.783 5.89254 112.849 5.94067C112.915 5.98879 112.928 6.08112 112.88 6.14692L78.5823 52.8038C78.5527 52.8431 78.5085 52.8637 78.4632 52.8637Z" fill="url(#paint2_linear)"/>
<path opacity="0.19" d="M83.3621 55.5863C83.3316 55.5863 83.3011 55.5774 83.2746 55.5578C83.2086 55.5097 83.1949 55.4173 83.2431 55.3515L117.541 8.69365C117.589 8.62785 117.682 8.6141 117.748 8.66222C117.814 8.71035 117.827 8.80267 117.779 8.86848L83.4812 55.5264C83.4526 55.5647 83.4074 55.5863 83.3621 55.5863Z" fill="url(#paint3_linear)"/>
<path opacity="0.19" d="M88.262 58.308C88.2315 58.308 88.201 58.2991 88.1745 58.2795C88.1086 58.2314 88.0948 58.139 88.143 58.0732L122.441 11.4153C122.489 11.3495 122.582 11.3358 122.648 11.3839C122.713 11.432 122.727 11.5244 122.679 11.5902L88.3811 58.2481C88.3526 58.2873 88.3073 58.308 88.262 58.308Z" fill="url(#paint4_linear)"/>
<path opacity="0.19" d="M93.1615 61.0306C93.131 61.0306 93.1005 61.0218 93.0739 61.0021C93.008 60.954 92.9942 60.8617 93.0424 60.7959L127.34 14.139C127.389 14.0732 127.481 14.0594 127.547 14.1075C127.613 14.1557 127.627 14.248 127.578 14.3138L93.2805 60.9707C93.251 61.01 93.2067 61.0306 93.1615 61.0306Z" fill="url(#paint5_linear)"/>
<path opacity="0.19" d="M98.0604 63.7519C98.0299 63.7519 97.9994 63.743 97.9728 63.7234C97.9069 63.6753 97.8931 63.583 97.9413 63.5172L132.239 16.8593C132.287 16.7935 132.38 16.7797 132.446 16.8279C132.512 16.876 132.525 16.9683 132.477 17.0341L98.1794 63.692C98.1509 63.7313 98.1056 63.7519 98.0604 63.7519Z" fill="url(#paint6_linear)"/>
</g>
<g opacity="0.19">
<path opacity="0.19" d="M74.7669 103.354C74.7364 103.354 74.7059 103.345 74.6794 103.325C74.6134 103.277 74.5997 103.185 74.6479 103.119L108.946 56.4614C108.994 56.3955 109.087 56.3818 109.152 56.4299C109.218 56.4781 109.232 56.5704 109.184 56.6362L74.886 103.294C74.8565 103.333 74.8122 103.354 74.7669 103.354Z" fill="white"/>
<path opacity="0.19" d="M79.6658 106.077C79.6353 106.077 79.6048 106.068 79.5783 106.048C79.5124 106 79.4986 105.908 79.5468 105.842L113.845 59.185C113.893 59.1192 113.986 59.1054 114.051 59.1536C114.117 59.2017 114.131 59.294 114.083 59.3598L79.7849 106.017C79.7564 106.056 79.7111 106.077 79.6658 106.077Z" fill="white"/>
<path opacity="0.19" d="M84.5653 108.798C84.5348 108.798 84.5043 108.789 84.4777 108.77C84.4118 108.722 84.398 108.629 84.4462 108.563L118.744 61.9065C118.792 61.8407 118.885 61.827 118.951 61.8751C119.017 61.9232 119.03 62.0156 118.982 62.0814L84.6843 108.738C84.6548 108.778 84.6105 108.798 84.5653 108.798Z" fill="white"/>
<path opacity="0.19" d="M89.4642 111.521C89.4337 111.521 89.4032 111.512 89.3766 111.492C89.3107 111.444 89.2969 111.352 89.3451 111.286L123.643 64.629C123.691 64.5632 123.784 64.5494 123.85 64.5975C123.916 64.6457 123.929 64.738 123.881 64.8038L89.5832 111.461C89.5547 111.5 89.5094 111.521 89.4642 111.521Z" fill="white"/>
<path opacity="0.19" d="M94.3636 114.242C94.3331 114.242 94.3026 114.234 94.276 114.214C94.2101 114.166 94.1963 114.073 94.2445 114.008L128.542 67.3498C128.591 67.284 128.683 67.2702 128.749 67.3184C128.815 67.3665 128.829 67.4588 128.781 67.5246L94.4826 114.183C94.4541 114.222 94.4089 114.242 94.3636 114.242Z" fill="white"/>
<path opacity="0.19" d="M99.2635 116.965C99.233 116.965 99.2025 116.956 99.1759 116.936C99.11 116.888 99.0962 116.796 99.1445 116.73L133.442 70.0722C133.491 70.0064 133.583 69.9926 133.649 70.0408C133.715 70.0889 133.729 70.1812 133.68 70.247L99.3825 116.905C99.353 116.944 99.3088 116.965 99.2635 116.965Z" fill="white"/>
<path opacity="0.19" d="M108.177 124.492C108.146 124.492 108.116 124.483 108.089 124.464C108.023 124.415 108.009 124.323 108.058 124.257L142.356 77.5994C142.404 77.5336 142.496 77.5199 142.562 77.568C142.628 77.6161 142.642 77.7084 142.594 77.7742L108.296 124.432C108.267 124.471 108.222 124.492 108.177 124.492Z" fill="white"/>
<path opacity="0.19" d="M112.633 128.256C112.603 128.256 112.572 128.247 112.546 128.227C112.48 128.179 112.466 128.087 112.514 128.021L146.812 81.3643C146.86 81.2985 146.953 81.2848 147.019 81.3329C147.085 81.381 147.098 81.4733 147.05 81.5391L112.752 128.196C112.724 128.235 112.678 128.256 112.633 128.256Z" fill="white"/>
<path opacity="0.19" d="M104.162 119.688C104.132 119.688 104.101 119.679 104.075 119.659C104.009 119.611 103.995 119.519 104.043 119.453L138.341 72.795C138.39 72.7292 138.482 72.7154 138.548 72.7635C138.614 72.8117 138.628 72.904 138.579 72.9698L104.281 119.628C104.253 119.666 104.208 119.688 104.162 119.688Z" fill="white"/>
</g>
<path opacity="0.61" d="M17.7791 78.7373C17.7308 78.7373 17.6846 78.7147 17.6561 78.6715C17.6108 78.6037 17.6295 78.5124 17.6974 78.4672L18.1883 78.1402C18.2562 78.095 18.3477 78.1136 18.393 78.1814C18.4382 78.2492 18.4196 78.3405 18.3517 78.3857L17.8607 78.7127C17.8361 78.7294 17.8076 78.7373 17.7791 78.7373Z" fill="white"/>
<path opacity="0.61" d="M19.2214 77.7785C19.1732 77.7785 19.127 77.7559 19.0984 77.7127C19.0532 77.6449 19.0719 77.5535 19.1398 77.5084L20.0902 76.8768C20.1581 76.8316 20.2496 76.8503 20.2948 76.9181C20.3401 76.9859 20.3214 77.0772 20.2535 77.1224L19.3031 77.7539C19.2785 77.7706 19.25 77.7785 19.2214 77.7785ZM21.1233 76.5144C21.0751 76.5144 21.0288 76.4918 21.0003 76.4486C20.955 76.3808 20.9737 76.2895 21.0416 76.2443L21.992 75.6128C22.0599 75.5676 22.1514 75.5863 22.1967 75.654C22.2419 75.7218 22.2232 75.8131 22.1554 75.8583L21.2049 76.4899C21.1793 76.5066 21.1508 76.5144 21.1233 76.5144ZM23.0241 75.2513C22.9759 75.2513 22.9297 75.2288 22.9011 75.1855C22.8559 75.1178 22.8746 75.0264 22.9425 74.9812L23.8929 74.3497C23.9608 74.3045 24.0523 74.3232 24.0975 74.391C24.1428 74.4587 24.1241 74.5501 24.0562 74.5952L23.1058 75.2268C23.0812 75.2425 23.0526 75.2513 23.0241 75.2513ZM24.9259 73.9873C24.8777 73.9873 24.8315 73.9647 24.803 73.9215C24.7577 73.8537 24.7764 73.7624 24.8443 73.7172L25.7947 73.0857C25.8626 73.0405 25.9541 73.0591 25.9994 73.1269C26.0446 73.1947 26.0259 73.286 25.958 73.3312L25.0076 73.9627C24.982 73.9794 24.9535 73.9873 24.9259 73.9873ZM26.8268 72.7232C26.7786 72.7232 26.7323 72.7006 26.7038 72.6574C26.6586 72.5897 26.6772 72.4983 26.7451 72.4531L27.6956 71.8216C27.7634 71.7764 27.8549 71.7951 27.9002 71.8629C27.9455 71.9306 27.9268 72.022 27.8589 72.0671L26.9085 72.6987C26.8839 72.7154 26.8553 72.7232 26.8268 72.7232ZM28.7286 71.4592C28.6804 71.4592 28.6342 71.4366 28.6056 71.3934C28.5604 71.3256 28.5791 71.2343 28.647 71.1891L29.5974 70.5575C29.6653 70.5124 29.7568 70.531 29.802 70.5988C29.8473 70.6666 29.8286 70.7579 29.7607 70.8031L28.8103 71.4346C28.7847 71.4513 28.7562 71.4592 28.7286 71.4592ZM30.6305 70.1961C30.5823 70.1961 30.536 70.1735 30.5075 70.1303C30.4622 70.0625 30.4809 69.9712 30.5488 69.926L31.4992 69.2945C31.5671 69.2493 31.6586 69.268 31.7039 69.3357C31.7491 69.4035 31.7304 69.4948 31.6625 69.54L30.7121 70.1716C30.6865 70.1873 30.658 70.1961 30.6305 70.1961ZM32.5313 68.9321C32.4831 68.9321 32.4369 68.9095 32.4083 68.8663C32.3631 68.7985 32.3818 68.7071 32.4497 68.662L33.4001 68.0304C33.468 67.9852 33.5595 68.0039 33.6047 68.0717C33.65 68.1394 33.6313 68.2308 33.5634 68.276L32.613 68.9075C32.5874 68.9242 32.5598 68.9321 32.5313 68.9321ZM34.4331 67.668C34.3859 67.668 34.3387 67.6454 34.3102 67.6022C34.2649 67.5344 34.2836 67.4431 34.3515 67.3979L35.3019 66.7664C35.3698 66.7212 35.4613 66.7399 35.5066 66.8076C35.5518 66.8754 35.5331 66.9667 35.4652 67.0119L34.5148 67.6435C34.4892 67.6601 34.4607 67.668 34.4331 67.668Z" fill="white"/>
<path opacity="0.61" d="M37.203 66.5308C37.1607 66.5308 37.1184 66.5131 37.0899 66.4777L36.7967 66.1261L36.4159 66.3795C36.348 66.4247 36.2565 66.406 36.2112 66.3383C36.166 66.2705 36.1847 66.1791 36.2526 66.134L36.7435 65.8069C36.8065 65.7647 36.8911 65.7774 36.9383 65.8354L37.3161 66.2882C37.3683 66.351 37.3594 66.4433 37.2974 66.4954C37.2699 66.519 37.2364 66.5308 37.203 66.5308Z" fill="white"/>
<path opacity="0.61" d="M61.9219 96.1855C61.8796 96.1855 61.8373 96.1678 61.8087 96.1324L61.0364 95.2053C60.9843 95.1424 60.9931 95.0501 61.0551 94.998C61.1181 94.946 61.2105 94.9548 61.2627 95.0167L62.035 95.9439C62.0872 96.0067 62.0783 96.0991 62.0163 96.1511C61.9888 96.1737 61.9553 96.1855 61.9219 96.1855ZM60.3772 94.3321C60.3349 94.3321 60.2926 94.3145 60.2641 94.2791L59.4917 93.3519C59.4396 93.2891 59.4484 93.1967 59.5104 93.1447C59.5734 93.0926 59.6659 93.1015 59.718 93.1634L60.4904 94.0905C60.5425 94.1534 60.5336 94.2457 60.4717 94.2978C60.4441 94.3203 60.4107 94.3321 60.3772 94.3321ZM58.8325 92.4778C58.7902 92.4778 58.7479 92.4601 58.7194 92.4248L57.947 91.4976C57.8949 91.4347 57.9037 91.3424 57.9657 91.2904C58.0287 91.2383 58.1212 91.2471 58.1733 91.309L58.9457 92.2362C58.9978 92.299 58.989 92.3914 58.927 92.4434C58.8994 92.467 58.865 92.4778 58.8325 92.4778ZM57.2869 90.6245C57.2445 90.6245 57.2022 90.6068 57.1737 90.5714L56.4014 89.6443C56.3492 89.5814 56.3581 89.4891 56.4201 89.437C56.483 89.385 56.5755 89.3938 56.6277 89.4557L57.4 90.3828C57.4521 90.4457 57.4433 90.538 57.3813 90.5901C57.3538 90.6137 57.3203 90.6245 57.2869 90.6245ZM55.7422 88.7711C55.6999 88.7711 55.6576 88.7534 55.629 88.7181L54.8567 87.7909C54.8045 87.7281 54.8134 87.6357 54.8754 87.5837C54.9383 87.5316 55.0308 87.5405 55.083 87.6023L55.8553 88.5295C55.9075 88.5924 55.8986 88.6847 55.8366 88.7367C55.8091 88.7603 55.7756 88.7711 55.7422 88.7711ZM54.1975 86.9178C54.1552 86.9178 54.1129 86.9001 54.0843 86.8647L53.312 85.9376C53.2598 85.8747 53.2687 85.7824 53.3307 85.7303C53.3937 85.6783 53.4861 85.6871 53.5383 85.749L54.3106 86.6761C54.3628 86.739 54.3539 86.8313 54.2919 86.8834C54.2644 86.907 54.2309 86.9178 54.1975 86.9178ZM52.6528 85.0644C52.6105 85.0644 52.5682 85.0467 52.5397 85.0114L51.7673 84.0852C51.7152 84.0223 51.724 83.93 51.786 83.878C51.849 83.8259 51.9415 83.8347 51.9936 83.8966L52.7659 84.8238C52.8181 84.8866 52.8092 84.979 52.7472 85.031C52.7197 85.0536 52.6863 85.0644 52.6528 85.0644ZM51.1081 83.2111C51.0658 83.2111 51.0235 83.1934 50.995 83.158L50.2226 82.2309C50.1705 82.168 50.1793 82.0757 50.2413 82.0236C50.3043 81.9716 50.3968 81.9804 50.4489 82.0423L51.2213 82.9695C51.2734 83.0323 51.2645 83.1246 51.2026 83.1767C51.174 83.2003 51.1406 83.2111 51.1081 83.2111ZM49.5624 81.3577C49.5201 81.3577 49.4778 81.34 49.4493 81.3047L48.677 80.3775C48.6248 80.3147 48.6337 80.2223 48.6956 80.1703C48.7586 80.1182 48.8511 80.1271 48.9032 80.1889L49.6756 81.1151C49.7277 81.178 49.7189 81.2703 49.6569 81.3224C49.6293 81.3469 49.5959 81.3577 49.5624 81.3577ZM48.0178 79.5044C47.9755 79.5044 47.9331 79.4867 47.9046 79.4513L47.1323 78.5242C47.0801 78.4613 47.089 78.369 47.151 78.3169C47.2139 78.2649 47.3064 78.2737 47.3586 78.3356L48.1309 79.2628C48.1831 79.3256 48.1742 79.4179 48.1122 79.47C48.0847 79.4936 48.0512 79.5044 48.0178 79.5044ZM46.4731 77.651C46.4308 77.651 46.3885 77.6334 46.3599 77.598L45.5876 76.6708C45.5354 76.608 45.5443 76.5156 45.6063 76.4636C45.6692 76.4115 45.7617 76.4204 45.8139 76.4823L46.5862 77.4084C46.6384 77.4713 46.6295 77.5636 46.5675 77.6157C46.54 77.6402 46.5065 77.651 46.4731 77.651ZM44.9284 75.7977C44.8861 75.7977 44.8438 75.78 44.8152 75.7446L44.0429 74.8175C43.9908 74.7546 43.9996 74.6623 44.0616 74.6102C44.1246 74.5582 44.217 74.567 44.2692 74.6289L45.0415 75.5561C45.0937 75.6189 45.0848 75.7113 45.0228 75.7633C44.9943 75.7869 44.9609 75.7977 44.9284 75.7977ZM43.3827 73.9443C43.3404 73.9443 43.2981 73.9267 43.2696 73.8913L42.4972 72.9651C42.4451 72.9023 42.4539 72.8099 42.5159 72.7579C42.5789 72.7058 42.6714 72.7147 42.7235 72.7765L43.4959 73.7037C43.548 73.7666 43.5392 73.8589 43.4772 73.9109C43.4496 73.9335 43.4162 73.9443 43.3827 73.9443ZM41.838 72.091C41.7957 72.091 41.7534 72.0733 41.7249 72.038L40.9525 71.1108C40.9004 71.0479 40.9093 70.9556 40.9712 70.9036C41.0342 70.8515 41.1267 70.8603 41.1788 70.9222L41.9512 71.8494C42.0033 71.9122 41.9945 72.0046 41.9325 72.0566C41.9049 72.0802 41.8715 72.091 41.838 72.091ZM40.2933 70.2376C40.251 70.2376 40.2087 70.22 40.1802 70.1846L39.4079 69.2574C39.3557 69.1946 39.3646 69.1023 39.4266 69.0502C39.4895 68.9982 39.582 69.007 39.6342 69.0689L40.4065 69.9951C40.4586 70.0579 40.4498 70.1502 40.3878 70.2023C40.3603 70.2268 40.3268 70.2376 40.2933 70.2376ZM38.7487 68.3843C38.7064 68.3843 38.6641 68.3666 38.6355 68.3313L37.8632 67.4041C37.811 67.3412 37.8199 67.2489 37.8819 67.1969C37.9448 67.1448 38.0373 67.1536 38.0895 67.2155L38.8618 68.1427C38.914 68.2055 38.9051 68.2979 38.8431 68.3499C38.8146 68.3725 38.7811 68.3843 38.7487 68.3843Z" fill="white"/>
<path opacity="0.61" d="M63.0719 97.5646C63.0286 97.5646 62.9863 97.5449 62.9588 97.5115L62.5809 97.0587C62.5288 96.9959 62.5377 96.9035 62.5996 96.8515C62.6626 96.7994 62.7551 96.8083 62.8072 96.8702L63.0296 97.1373L63.1644 96.8171C63.1959 96.7425 63.2825 96.7071 63.3572 96.7385C63.432 96.77 63.4674 96.8564 63.4359 96.9311L63.2067 97.4742C63.187 97.5214 63.1437 97.5548 63.0926 97.5626C63.0867 97.5646 63.0788 97.5646 63.0719 97.5646Z" fill="white"/>
<path opacity="0.61" d="M63.7527 95.9518C63.734 95.9518 63.7144 95.9478 63.6957 95.94C63.6209 95.9086 63.5855 95.8221 63.617 95.7475L64.0686 94.6769C64.1 94.6023 64.1866 94.5669 64.2614 94.5983C64.3362 94.6298 64.3716 94.7162 64.3401 94.7908L63.8885 95.8614C63.8649 95.9174 63.8108 95.9518 63.7527 95.9518ZM64.6569 93.8106C64.6382 93.8106 64.6186 93.8067 64.5999 93.7989C64.5251 93.7674 64.4897 93.681 64.5212 93.6063L64.9727 92.5358C65.0042 92.4611 65.0908 92.4258 65.1656 92.4572C65.2404 92.4886 65.2758 92.5751 65.2443 92.6497L64.7927 93.7203C64.7691 93.7773 64.714 93.8106 64.6569 93.8106ZM65.5601 91.6705C65.5414 91.6705 65.5218 91.6666 65.5031 91.6587C65.4283 91.6273 65.3929 91.5409 65.4243 91.4662L65.8759 90.3956C65.9074 90.321 65.994 90.2856 66.0688 90.3171C66.1436 90.3485 66.179 90.4349 66.1475 90.5096L65.6959 91.5801C65.6733 91.6361 65.6182 91.6705 65.5601 91.6705ZM66.4643 89.5294C66.4456 89.5294 66.4259 89.5254 66.4072 89.5176C66.3325 89.4862 66.297 89.3997 66.3285 89.3251L66.7801 88.2545C66.8116 88.1799 66.8982 88.1445 66.973 88.1759C67.0477 88.2074 67.0832 88.2938 67.0517 88.3684L66.6001 89.439C66.5765 89.496 66.5214 89.5294 66.4643 89.5294ZM67.3685 87.3892C67.3498 87.3892 67.3301 87.3853 67.3114 87.3774C67.2366 87.346 67.2012 87.2596 67.2327 87.1849L67.6843 86.1144C67.7158 86.0397 67.8024 86.0044 67.8772 86.0358C67.9519 86.0672 67.9873 86.1537 67.9559 86.2283L67.5043 87.2989C67.4806 87.3549 67.4255 87.3892 67.3685 87.3892ZM68.2717 85.2481C68.253 85.2481 68.2333 85.2442 68.2146 85.2363C68.1398 85.2049 68.1044 85.1185 68.1359 85.0438L68.5875 83.9732C68.619 83.8986 68.7056 83.8632 68.7803 83.8947C68.8551 83.9261 68.8905 84.0125 68.8591 84.0872L68.4075 85.1577C68.3838 85.2147 68.3297 85.2481 68.2717 85.2481ZM69.1759 83.108C69.1572 83.108 69.1375 83.104 69.1188 83.0962C69.044 83.0647 69.0086 82.9783 69.0401 82.9037L69.4917 81.8331C69.5232 81.7585 69.6098 81.7231 69.6845 81.7545C69.7593 81.786 69.7947 81.8724 69.7632 81.947L69.3116 83.0176C69.288 83.0736 69.2329 83.108 69.1759 83.108ZM70.0791 80.9668C70.0604 80.9668 70.0407 80.9629 70.022 80.955C69.9472 80.9236 69.9118 80.8372 69.9433 80.7625L70.3949 79.692C70.4264 79.6173 70.513 79.582 70.5877 79.6134C70.6625 79.6448 70.6979 79.7313 70.6664 79.8059L70.2148 80.8765C70.1912 80.9334 70.1371 80.9668 70.0791 80.9668ZM70.9832 78.8267C70.9646 78.8267 70.9449 78.8228 70.9262 78.8149C70.8514 78.7835 70.816 78.697 70.8475 78.6224L71.2991 77.5518C71.3306 77.4772 71.4171 77.4418 71.4919 77.4733C71.5667 77.5047 71.6021 77.5911 71.5706 77.6658L71.119 78.7363C71.0954 78.7923 71.0403 78.8267 70.9832 78.8267ZM71.8864 76.6856C71.8678 76.6856 71.8481 76.6816 71.8294 76.6738C71.7546 76.6424 71.7192 76.5559 71.7507 76.4813L72.2023 75.4107C72.2338 75.3361 72.3203 75.3007 72.3951 75.3321C72.4699 75.3636 72.5053 75.45 72.4738 75.5246L72.0222 76.5952C71.9996 76.6522 71.9445 76.6856 71.8864 76.6856ZM72.7906 74.5454C72.7719 74.5454 72.7523 74.5415 72.7336 74.5336C72.6588 74.5022 72.6234 74.4158 72.6549 74.3411L73.1064 73.2706C73.1379 73.1959 73.2245 73.1606 73.2993 73.192C73.3741 73.2234 73.4095 73.3099 73.378 73.3845L72.9264 74.4551C72.9028 74.511 72.8477 74.5454 72.7906 74.5454ZM73.6948 72.4043C73.6761 72.4043 73.6564 72.4004 73.6377 72.3925C73.563 72.3611 73.5276 72.2746 73.559 72.2L74.0106 71.1294C74.0421 71.0548 74.1287 71.0194 74.2035 71.0509C74.2782 71.0823 74.3137 71.1687 74.2822 71.2434L73.8306 72.3139C73.807 72.3709 73.7519 72.4043 73.6948 72.4043ZM74.598 70.2642C74.5793 70.2642 74.5596 70.2602 74.5409 70.2524C74.4662 70.2209 74.4307 70.1345 74.4622 70.0599L74.9138 68.9893C74.9453 68.9147 75.0319 68.8793 75.1067 68.9107C75.1814 68.9422 75.2169 69.0286 75.1854 69.1032L74.7338 70.1738C74.7102 70.2298 74.6561 70.2642 74.598 70.2642ZM75.5022 68.123C75.4835 68.123 75.4638 68.1191 75.4451 68.1112C75.3703 68.0798 75.3349 67.9934 75.3664 67.9187L75.818 66.8482C75.8495 66.7735 75.9361 66.7382 76.0109 66.7696C76.0856 66.801 76.121 66.8875 76.0896 66.9621L75.638 68.0327C75.6144 68.0896 75.5593 68.123 75.5022 68.123ZM76.4054 65.9829C76.3867 65.9829 76.367 65.979 76.3483 65.9711C76.2735 65.9397 76.2381 65.8532 76.2696 65.7786L76.7212 64.708C76.7527 64.6334 76.8393 64.598 76.9141 64.6295C76.9888 64.6609 77.0242 64.7473 76.9928 64.822L76.5412 65.8925C76.5176 65.9485 76.4634 65.9829 76.4054 65.9829ZM77.3096 63.8418C77.2909 63.8418 77.2712 63.8378 77.2525 63.83C77.1777 63.7985 77.1423 63.7121 77.1738 63.6375L77.6254 62.5669C77.6569 62.4923 77.7435 62.4569 77.8182 62.4883C77.893 62.5198 77.9284 62.6062 77.8969 62.6808L77.4453 63.7514C77.4217 63.8084 77.3666 63.8418 77.3096 63.8418ZM78.2128 61.7016C78.1941 61.7016 78.1744 61.6977 78.1557 61.6898C78.0809 61.6584 78.0455 61.572 78.077 61.4973L78.5286 60.4268C78.5601 60.3521 78.6467 60.3168 78.7214 60.3482C78.7962 60.3796 78.8316 60.466 78.8001 60.5407L78.3485 61.6113C78.3259 61.6672 78.2708 61.7016 78.2128 61.7016ZM79.117 59.5605C79.0983 59.5605 79.0786 59.5566 79.0599 59.5487C78.9851 59.5173 78.9497 59.4308 78.9812 59.3562L79.4328 58.2856C79.4643 58.211 79.5508 58.1756 79.6256 58.2071C79.7004 58.2385 79.7358 58.3249 79.7043 58.3996L79.2527 59.4701C79.2291 59.5271 79.174 59.5605 79.117 59.5605ZM80.0211 57.4203C80.0024 57.4203 79.9828 57.4164 79.9641 57.4086C79.8893 57.3771 79.8539 57.2907 79.8854 57.2161L80.337 56.1455C80.3684 56.0708 80.455 56.0355 80.5298 56.0669C80.6046 56.0984 80.64 56.1848 80.6085 56.2594L80.1569 57.33C80.1333 57.386 80.0782 57.4203 80.0211 57.4203ZM80.9243 55.2792C80.9056 55.2792 80.886 55.2753 80.8673 55.2674C80.7925 55.236 80.7571 55.1496 80.7886 55.0749L81.2402 54.0044C81.2716 53.9297 81.3582 53.8944 81.433 53.9258C81.5078 53.9572 81.5432 54.0437 81.5117 54.1183L81.0601 55.1889C81.0365 55.2458 80.9824 55.2792 80.9243 55.2792ZM81.8285 53.1391C81.8098 53.1391 81.7901 53.1351 81.7714 53.1273C81.6967 53.0959 81.6613 53.0094 81.6927 52.9348L82.1443 51.8642C82.1758 51.7896 82.2624 51.7542 82.3372 51.7856C82.4119 51.8171 82.4474 51.9035 82.4159 51.9782L81.9643 53.0487C81.9407 53.1047 81.8856 53.1391 81.8285 53.1391Z" fill="white"/>
<path opacity="0.61" d="M82.7318 50.9979C82.7131 50.9979 82.6934 50.994 82.6747 50.9861C82.5999 50.9547 82.5645 50.8682 82.596 50.7936L82.8252 50.2504C82.8429 50.2092 82.8784 50.1778 82.9216 50.166C82.9649 50.1542 83.0112 50.162 83.0476 50.1886L83.5248 50.5353C83.5907 50.5834 83.6055 50.6757 83.5573 50.7415C83.509 50.8073 83.4175 50.8221 83.3506 50.7739L83.024 50.5363L82.8665 50.9085C82.8439 50.9645 82.7898 50.9979 82.7318 50.9979Z" fill="white"/>
<path opacity="0.61" d="M120.268 77.5392C120.237 77.5392 120.208 77.5303 120.181 77.5107L119.212 76.8075C119.146 76.7593 119.131 76.667 119.179 76.6012C119.228 76.5354 119.319 76.5207 119.386 76.5688L120.355 77.272C120.421 77.3202 120.436 77.4125 120.388 77.4783C120.358 77.5186 120.313 77.5392 120.268 77.5392ZM118.329 76.1317C118.299 76.1317 118.269 76.1229 118.243 76.1033L117.274 75.4C117.208 75.3519 117.193 75.2596 117.241 75.1938C117.289 75.128 117.381 75.1132 117.448 75.1614L118.417 75.8646C118.483 75.9127 118.498 76.005 118.449 76.0708C118.42 76.1111 118.375 76.1317 118.329 76.1317ZM116.391 74.7243C116.361 74.7243 116.331 74.7154 116.304 74.6958L115.335 73.9926C115.269 73.9444 115.255 73.8521 115.303 73.7863C115.351 73.7205 115.443 73.7058 115.51 73.7539L116.479 74.4571C116.545 74.5053 116.559 74.5976 116.511 74.6634C116.482 74.7037 116.436 74.7243 116.391 74.7243ZM114.453 73.3178C114.422 73.3178 114.393 73.309 114.366 73.2893L113.397 72.5861C113.331 72.538 113.316 72.4457 113.365 72.3798C113.413 72.314 113.504 72.2993 113.571 72.3474L114.54 73.0507C114.606 73.0988 114.621 73.1911 114.573 73.2569C114.543 73.2962 114.498 73.3178 114.453 73.3178ZM112.514 71.9104C112.483 71.9104 112.454 71.9015 112.427 71.8819L111.458 71.1787C111.392 71.1305 111.377 71.0382 111.425 70.9724C111.474 70.9066 111.565 70.8919 111.632 70.94L112.601 71.6432C112.667 71.6913 112.682 71.7837 112.634 71.8495C112.604 71.8888 112.56 71.9104 112.514 71.9104ZM110.575 70.5029C110.545 70.5029 110.515 70.4941 110.489 70.4744L109.52 69.7712C109.454 69.7231 109.439 69.6308 109.487 69.565C109.535 69.4991 109.627 69.4844 109.694 69.5325L110.663 70.2358C110.729 70.2839 110.744 70.3762 110.695 70.442C110.666 70.4823 110.622 70.5029 110.575 70.5029ZM108.637 69.0955C108.607 69.0955 108.577 69.0866 108.551 69.067L107.581 68.3638C107.516 68.3156 107.501 68.2233 107.549 68.1575C107.597 68.0917 107.689 68.077 107.756 68.1251L108.725 68.8283C108.791 68.8765 108.805 68.9688 108.757 69.0346C108.728 69.0749 108.683 69.0955 108.637 69.0955ZM106.699 67.688C106.668 67.688 106.639 67.6792 106.612 67.6595L105.643 66.9563C105.577 66.9082 105.563 66.8159 105.611 66.7501C105.659 66.6842 105.75 66.6695 105.817 66.7176L106.786 67.4209C106.852 67.469 106.867 67.5613 106.819 67.6271C106.789 67.6674 106.744 67.688 106.699 67.688ZM104.761 66.2816C104.73 66.2816 104.701 66.2727 104.674 66.2531L103.705 65.5498C103.639 65.5017 103.624 65.4094 103.672 65.3436C103.721 65.2778 103.812 65.2631 103.879 65.3112L104.848 66.0144C104.914 66.0625 104.929 66.1549 104.881 66.2207C104.851 66.26 104.806 66.2816 104.761 66.2816ZM102.822 64.8741C102.792 64.8741 102.762 64.8653 102.736 64.8456L101.767 64.1424C101.701 64.0943 101.686 64.002 101.734 63.9361C101.782 63.8703 101.874 63.8556 101.941 63.9037L102.91 64.607C102.976 64.6551 102.991 64.7474 102.942 64.8132C102.913 64.8535 102.868 64.8741 102.822 64.8741ZM100.884 63.4667C100.854 63.4667 100.824 63.4578 100.798 63.4382L99.8285 62.7349C99.7626 62.6868 99.7478 62.5945 99.796 62.5287C99.8442 62.4629 99.9357 62.4482 100.003 62.4963L100.972 63.1995C101.038 63.2476 101.052 63.34 101.004 63.4058C100.975 63.446 100.929 63.4667 100.884 63.4667ZM98.9459 62.0592C98.9154 62.0592 98.8859 62.0504 98.8594 62.0307L97.8902 61.3275C97.8243 61.2794 97.8096 61.187 97.8578 61.1212C97.906 61.0554 97.9975 61.0407 98.0644 61.0888L99.0335 61.7921C99.0994 61.8402 99.1142 61.9325 99.066 61.9983C99.0365 62.0386 98.9912 62.0592 98.9459 62.0592ZM97.0067 60.6528C96.9762 60.6528 96.9467 60.6439 96.9201 60.6243L95.951 59.921C95.8851 59.8729 95.8703 59.7806 95.9186 59.7148C95.9668 59.649 96.0583 59.6342 96.1252 59.6824L97.0943 60.3856C97.1602 60.4337 97.175 60.526 97.1267 60.5919C97.0972 60.6311 97.053 60.6528 97.0067 60.6528ZM95.0685 59.2453C95.038 59.2453 95.0085 59.2365 94.9819 59.2168L94.0128 58.5136C93.9469 58.4655 93.9321 58.3731 93.9803 58.3073C94.0285 58.2415 94.12 58.2268 94.1869 58.2749L95.156 58.9782C95.222 59.0263 95.2367 59.1186 95.1885 59.1844C95.159 59.2237 95.1147 59.2453 95.0685 59.2453ZM93.1302 57.8379C93.0997 57.8379 93.0702 57.829 93.0437 57.8094L92.0745 57.1061C92.0086 57.058 91.9939 56.9657 92.0421 56.8999C92.0903 56.8341 92.1828 56.8193 92.2487 56.8675L93.2178 57.5707C93.2837 57.6188 93.2985 57.7112 93.2503 57.777C93.2208 57.8172 93.1755 57.8379 93.1302 57.8379ZM91.192 56.4304C91.1615 56.4304 91.132 56.4216 91.1054 56.4019L90.1363 55.6987C90.0704 55.6506 90.0556 55.5582 90.1038 55.4924C90.152 55.4266 90.2435 55.4119 90.3105 55.46L91.2796 56.1633C91.3455 56.2114 91.3602 56.3037 91.312 56.3695C91.2825 56.4098 91.2373 56.4304 91.192 56.4304ZM89.2538 55.023C89.2233 55.023 89.1938 55.0141 89.1672 54.9945L88.1981 54.2912C88.1321 54.2431 88.1174 54.1508 88.1656 54.085C88.2138 54.0192 88.3053 54.0045 88.3722 54.0526L89.3413 54.7558C89.4073 54.8039 89.422 54.8963 89.3738 54.9621C89.3443 55.0023 89.299 55.023 89.2538 55.023ZM87.3155 53.6165C87.285 53.6165 87.2555 53.6077 87.229 53.588L86.2598 52.8848C86.1939 52.8367 86.1792 52.7443 86.2274 52.6785C86.2756 52.6127 86.3671 52.598 86.434 52.6461L87.4031 53.3493C87.469 53.3975 87.4838 53.4898 87.4356 53.5556C87.406 53.5949 87.3608 53.6165 87.3155 53.6165ZM85.3773 52.209C85.3468 52.209 85.3173 52.2002 85.2907 52.1806L84.3216 51.4773C84.2557 51.4292 84.2409 51.3369 84.2891 51.2711C84.3373 51.2053 84.4288 51.1905 84.4957 51.2387L85.4649 51.9419C85.5308 51.99 85.5455 52.0823 85.4973 52.1482C85.4678 52.1874 85.4226 52.209 85.3773 52.209Z" fill="white"/>
<path opacity="0.61" d="M121.714 78.5891C121.683 78.5891 121.653 78.5802 121.627 78.5606L121.15 78.2138C121.084 78.1657 121.07 78.0734 121.118 78.0076C121.166 77.9418 121.257 77.927 121.324 77.9752L121.691 78.2423L121.987 77.8985C122.041 77.8367 122.134 77.8298 122.196 77.8828C122.258 77.9359 122.265 78.0292 122.212 78.0911L121.827 78.538C121.798 78.5714 121.756 78.5891 121.714 78.5891Z" fill="white"/>
<path opacity="0.61" d="M122.862 77.2582C122.827 77.2582 122.794 77.2465 122.765 77.2229C122.703 77.1699 122.696 77.0765 122.75 77.0147L123.513 76.1297C123.566 76.0679 123.66 76.061 123.722 76.114C123.784 76.1671 123.791 76.2604 123.737 76.3222L122.974 77.2072C122.944 77.2406 122.903 77.2582 122.862 77.2582ZM124.388 75.4884C124.353 75.4884 124.32 75.4766 124.291 75.453C124.229 75.4 124.222 75.3067 124.276 75.2448L125.039 74.3599C125.092 74.298 125.186 74.2911 125.248 74.3442C125.31 74.3972 125.317 74.4905 125.263 74.5524L124.5 75.4373C124.47 75.4707 124.429 75.4884 124.388 75.4884ZM125.914 73.7185C125.879 73.7185 125.846 73.7067 125.817 73.6832C125.755 73.6301 125.748 73.5368 125.802 73.4749L126.565 72.59C126.618 72.5281 126.712 72.5213 126.774 72.5743C126.836 72.6273 126.843 72.7206 126.789 72.7825L126.026 73.6674C125.996 73.7008 125.955 73.7185 125.914 73.7185ZM127.44 71.9487C127.405 71.9487 127.372 71.9369 127.343 71.9133C127.281 71.8603 127.274 71.767 127.328 71.7051L128.091 70.8201C128.144 70.7583 128.238 70.7514 128.3 70.8044C128.362 70.8575 128.368 70.9508 128.315 71.0127L127.552 71.8976C127.522 71.931 127.482 71.9487 127.44 71.9487ZM128.966 70.1788C128.931 70.1788 128.898 70.167 128.869 70.1434C128.807 70.0904 128.8 69.9971 128.854 69.9352L129.616 69.0503C129.669 68.9884 129.763 68.9815 129.825 69.0346C129.887 69.0876 129.894 69.1809 129.84 69.2428L129.077 70.1277C129.049 70.1611 129.008 70.1788 128.966 70.1788ZM130.492 68.4089C130.457 68.4089 130.424 68.3971 130.395 68.3736C130.333 68.3205 130.326 68.2272 130.38 68.1654L131.143 67.2804C131.196 67.2185 131.29 67.2117 131.352 67.2647C131.414 67.3177 131.42 67.411 131.367 67.4729L130.604 68.3579C130.575 68.3912 130.534 68.4089 130.492 68.4089ZM132.019 66.6391C131.984 66.6391 131.951 66.6273 131.922 66.6037C131.86 66.5507 131.853 66.4574 131.907 66.3955L132.669 65.5106C132.722 65.4487 132.816 65.4418 132.878 65.4948C132.94 65.5479 132.946 65.6412 132.893 65.7031L132.13 66.588C132.101 66.6214 132.06 66.6391 132.019 66.6391ZM133.545 64.8692C133.51 64.8692 133.477 64.8574 133.448 64.8338C133.386 64.7808 133.379 64.6875 133.432 64.6256L134.196 63.7407C134.249 63.6788 134.343 63.6719 134.405 63.725C134.467 63.778 134.473 63.8713 134.42 63.9332L133.657 64.8181C133.627 64.8515 133.586 64.8692 133.545 64.8692ZM135.071 63.0993C135.036 63.0993 135.003 63.0875 134.974 63.064C134.912 63.0109 134.905 62.9176 134.958 62.8558L135.721 61.9708C135.774 61.9089 135.868 61.9021 135.93 61.9551C135.992 62.0081 135.998 62.1014 135.945 62.1633L135.183 63.0483C135.153 63.0817 135.112 63.0993 135.071 63.0993ZM136.597 61.3295C136.562 61.3295 136.529 61.3177 136.5 61.2941C136.438 61.2411 136.431 61.1478 136.484 61.0859L137.248 60.201C137.301 60.1391 137.395 60.1322 137.457 60.1852C137.519 60.2383 137.525 60.3316 137.472 60.3935L136.709 61.2784C136.679 61.3118 136.638 61.3295 136.597 61.3295ZM138.123 59.5596C138.088 59.5596 138.055 59.5478 138.026 59.5242C137.964 59.4712 137.957 59.3779 138.01 59.316L138.774 58.4311C138.827 58.3692 138.921 58.3623 138.983 58.4154C139.045 58.4684 139.051 58.5617 138.998 58.6236L138.235 59.5085C138.205 59.5419 138.164 59.5596 138.123 59.5596ZM139.649 57.7897C139.614 57.7897 139.581 57.778 139.552 57.7544C139.49 57.7013 139.483 57.608 139.536 57.5462L140.3 56.6612C140.353 56.5994 140.447 56.5925 140.509 56.6455C140.571 56.6985 140.577 56.7919 140.524 56.8537L139.761 57.7387C139.731 57.7721 139.69 57.7897 139.649 57.7897Z" fill="white"/>
<path opacity="0.61" d="M141.175 56.0199C141.14 56.0199 141.107 56.0082 141.078 55.9846C141.016 55.9315 141.009 55.8382 141.063 55.7764L141.447 55.3295C141.499 55.2686 141.59 55.2607 141.653 55.3118L142.11 55.684C142.173 55.7351 142.183 55.8284 142.131 55.8913C142.08 55.9541 141.986 55.964 141.923 55.9119L141.577 55.63L141.286 55.9679C141.257 56.0023 141.216 56.0199 141.175 56.0199Z" fill="white"/>
<path opacity="0.61" d="M177.853 85.1273C177.82 85.1273 177.787 85.1165 177.759 85.0939L176.863 84.3641C176.8 84.3131 176.79 84.2198 176.842 84.1569C176.894 84.094 176.987 84.0842 177.05 84.1363L177.946 84.866C178.009 84.9171 178.019 85.0104 177.967 85.0733C177.938 85.1086 177.896 85.1273 177.853 85.1273ZM176.061 83.6678C176.029 83.6678 175.995 83.657 175.968 83.6344L175.071 82.9046C175.008 82.8536 174.999 82.7603 175.051 82.6974C175.102 82.6345 175.195 82.6247 175.258 82.6768L176.155 83.4065C176.218 83.4576 176.227 83.5509 176.175 83.6138C176.147 83.6501 176.104 83.6678 176.061 83.6678ZM174.27 82.2093C174.237 82.2093 174.204 82.1985 174.176 82.1759L173.28 81.4461C173.217 81.395 173.207 81.3017 173.259 81.2389C173.31 81.176 173.404 81.1662 173.467 81.2183L174.363 81.948C174.426 81.9991 174.436 82.0924 174.384 82.1552C174.355 82.1906 174.313 82.2093 174.27 82.2093ZM172.478 80.7498C172.445 80.7498 172.412 80.739 172.384 80.7164L171.488 79.9866C171.425 79.9356 171.415 79.8422 171.467 79.7794C171.519 79.7165 171.612 79.7067 171.675 79.7588L172.571 80.4885C172.634 80.5396 172.644 80.6329 172.592 80.6957C172.563 80.7311 172.52 80.7498 172.478 80.7498ZM170.686 79.2912C170.654 79.2912 170.62 79.2804 170.593 79.2579L169.696 78.5281C169.633 78.477 169.624 78.3837 169.676 78.3209C169.727 78.258 169.82 78.2482 169.883 78.3002L170.78 79.03C170.843 79.0811 170.852 79.1744 170.8 79.2372C170.771 79.2726 170.729 79.2912 170.686 79.2912ZM168.895 77.8318C168.862 77.8318 168.829 77.8209 168.801 77.7984L167.905 77.0686C167.842 77.0175 167.832 76.9242 167.884 76.8614C167.935 76.7985 168.029 76.7887 168.092 76.8407L168.988 77.5705C169.051 77.6216 169.061 77.7149 169.009 77.7777C168.979 77.8131 168.937 77.8318 168.895 77.8318ZM167.102 76.3732C167.069 76.3732 167.036 76.3624 167.008 76.3398L166.112 75.6101C166.049 75.559 166.039 75.4657 166.092 75.4029C166.143 75.34 166.236 75.3302 166.299 75.3822L167.195 76.112C167.258 76.163 167.268 76.2564 167.216 76.3192C167.188 76.3546 167.145 76.3732 167.102 76.3732ZM165.31 74.9137C165.278 74.9137 165.244 74.9029 165.217 74.8803L164.321 74.1506C164.258 74.0995 164.248 74.0062 164.3 73.9434C164.351 73.8805 164.445 73.8707 164.507 73.9227L165.404 74.6525C165.467 74.7036 165.477 74.7969 165.424 74.8597C165.396 74.8951 165.354 74.9137 165.31 74.9137ZM163.519 73.4542C163.486 73.4542 163.453 73.4434 163.425 73.4208L162.529 72.6911C162.466 72.64 162.456 72.5467 162.508 72.4839C162.559 72.421 162.653 72.4112 162.716 72.4632L163.612 73.193C163.675 73.2441 163.685 73.3374 163.633 73.4002C163.604 73.4356 163.562 73.4542 163.519 73.4542ZM161.727 71.9957C161.695 71.9957 161.661 71.9849 161.634 71.9623L160.737 71.2326C160.674 71.1815 160.664 71.0882 160.717 71.0253C160.768 70.9625 160.861 70.9527 160.924 71.0047L161.821 71.7345C161.883 71.7855 161.893 71.8788 161.841 71.9417C161.813 71.9771 161.769 71.9957 161.727 71.9957ZM159.935 70.5362C159.903 70.5362 159.869 70.5254 159.842 70.5028L158.946 69.7731C158.883 69.722 158.873 69.6287 158.925 69.5658C158.976 69.503 159.07 69.4932 159.133 69.5452L160.029 70.275C160.092 70.326 160.102 70.4193 160.05 70.4822C160.02 70.5176 159.978 70.5362 159.935 70.5362ZM158.144 69.0777C158.111 69.0777 158.078 69.0669 158.05 69.0443L157.154 68.3146C157.091 68.2635 157.081 68.1702 157.133 68.1073C157.184 68.0445 157.278 68.0346 157.341 68.0867L158.237 68.8165C158.3 68.8675 158.31 68.9608 158.258 69.0237C158.228 69.059 158.186 69.0777 158.144 69.0777ZM156.351 67.6182C156.319 67.6182 156.285 67.6074 156.258 67.5848L155.361 66.8551C155.298 66.804 155.289 66.7107 155.341 66.6478C155.392 66.585 155.485 66.5751 155.548 66.6272L156.445 67.3569C156.508 67.408 156.517 67.5013 156.465 67.5642C156.437 67.5995 156.394 67.6182 156.351 67.6182ZM154.56 66.1587C154.527 66.1587 154.494 66.1479 154.466 66.1253L153.57 65.3956C153.507 65.3445 153.497 65.2512 153.549 65.1883C153.6 65.1255 153.694 65.1156 153.757 65.1677L154.653 65.8975C154.716 65.9485 154.726 66.0418 154.674 66.1047C154.645 66.141 154.603 66.1587 154.56 66.1587ZM152.768 64.7002C152.735 64.7002 152.702 64.6894 152.674 64.6668L151.778 63.937C151.715 63.886 151.705 63.7927 151.757 63.7298C151.809 63.667 151.902 63.6571 151.965 63.7092L152.861 64.4389C152.924 64.49 152.934 64.5833 152.882 64.6462C152.853 64.6815 152.811 64.7002 152.768 64.7002ZM150.976 63.2407C150.944 63.2407 150.91 63.2299 150.883 63.2073L149.986 62.4776C149.923 62.4265 149.914 62.3332 149.966 62.2703C150.017 62.2075 150.11 62.1976 150.173 62.2497L151.07 62.9794C151.133 63.0305 151.143 63.1238 151.09 63.1867C151.062 63.222 151.019 63.2407 150.976 63.2407ZM149.185 61.7822C149.152 61.7822 149.119 61.7714 149.091 61.7488L148.195 61.019C148.132 60.968 148.122 60.8747 148.174 60.8118C148.225 60.7489 148.319 60.7391 148.382 60.7912L149.278 61.5209C149.341 61.572 149.351 61.6653 149.299 61.7282C149.269 61.7635 149.227 61.7822 149.185 61.7822ZM147.393 60.3227C147.36 60.3227 147.327 60.3119 147.299 60.2893L146.403 59.5595C146.34 59.5085 146.33 59.4152 146.383 59.3523C146.434 59.2894 146.527 59.2796 146.59 59.3317L147.486 60.0614C147.549 60.1125 147.559 60.2058 147.507 60.2687C147.478 60.304 147.435 60.3227 147.393 60.3227ZM145.6 58.8632C145.568 58.8632 145.534 58.8524 145.507 58.8298L144.611 58.1C144.548 58.049 144.538 57.9557 144.59 57.8928C144.641 57.8299 144.735 57.8201 144.797 57.8722L145.694 58.6019C145.757 58.653 145.767 58.7463 145.714 58.8092C145.686 58.8455 145.644 58.8632 145.6 58.8632ZM143.809 57.4047C143.776 57.4047 143.743 57.3939 143.715 57.3713L142.819 56.6415C142.756 56.5905 142.746 56.4971 142.798 56.4343C142.849 56.3714 142.943 56.3616 143.006 56.4137L143.902 57.1434C143.965 57.1945 143.975 57.2878 143.923 57.3506C143.894 57.386 143.852 57.4047 143.809 57.4047Z" fill="white"/>
<path opacity="0.61" d="M179.207 86.2292C179.173 86.2292 179.141 86.2184 179.113 86.1958L178.656 85.8235C178.593 85.7725 178.583 85.6792 178.635 85.6163C178.686 85.5534 178.78 85.5436 178.843 85.5957L179.208 85.8933L179.577 85.6006C179.641 85.5495 179.733 85.5603 179.784 85.6242C179.836 85.688 179.825 85.7803 179.761 85.8314L179.298 86.1978C179.272 86.2184 179.239 86.2292 179.207 86.2292Z" fill="white"/>
<path opacity="0.61" d="M180.603 85.1214C180.559 85.1214 180.516 85.1028 180.487 85.0654C180.436 85.0016 180.447 84.9093 180.511 84.8582L181.445 84.1167C181.509 84.0656 181.601 84.0764 181.652 84.1402C181.703 84.2041 181.693 84.2964 181.629 84.3475L180.695 85.089C180.666 85.1106 180.634 85.1214 180.603 85.1214ZM182.469 83.6393C182.426 83.6393 182.382 83.6207 182.354 83.5833C182.303 83.5195 182.313 83.4272 182.377 83.3761L183.311 82.6346C183.375 82.5835 183.468 82.5943 183.519 82.6581C183.57 82.722 183.559 82.8143 183.495 82.8654L182.561 83.6069C182.534 83.6285 182.501 83.6393 182.469 83.6393ZM184.336 82.1572C184.293 82.1572 184.25 82.1386 184.221 82.1013C184.17 82.0374 184.181 81.9451 184.245 81.894L185.179 81.1525C185.242 81.1014 185.335 81.1122 185.386 81.1761C185.437 81.2399 185.426 81.3322 185.363 81.3833L184.429 82.1248C184.401 82.1464 184.369 82.1572 184.336 82.1572ZM186.204 80.6742C186.16 80.6742 186.117 80.6555 186.089 80.6182C186.037 80.5543 186.048 80.462 186.112 80.4109L187.046 79.6694C187.11 79.6183 187.202 79.6291 187.254 79.693C187.305 79.7568 187.294 79.8491 187.23 79.9002L186.296 80.6418C186.269 80.6643 186.236 80.6742 186.204 80.6742ZM188.071 79.1921C188.028 79.1921 187.985 79.1734 187.956 79.1361C187.905 79.0723 187.916 78.9799 187.98 78.9289L188.913 78.1873C188.977 78.1362 189.07 78.1471 189.121 78.2109C189.172 78.2747 189.161 78.3671 189.097 78.4181L188.164 79.1597C188.136 79.1823 188.104 79.1921 188.071 79.1921ZM189.939 77.71C189.895 77.71 189.852 77.6913 189.823 77.654C189.772 77.5902 189.783 77.4978 189.847 77.4468L190.781 76.7052C190.845 76.6542 190.937 76.665 190.988 76.7288C191.039 76.7926 191.029 76.885 190.965 76.936L190.031 77.6776C190.003 77.6992 189.971 77.71 189.939 77.71ZM191.806 76.2279C191.763 76.2279 191.719 76.2092 191.691 76.1719C191.64 76.1081 191.65 76.0157 191.714 75.9647L192.648 75.2231C192.712 75.1721 192.805 75.1829 192.856 75.2467C192.907 75.3106 192.896 75.4029 192.832 75.4539L191.898 76.1955C191.87 76.2171 191.837 76.2279 191.806 76.2279ZM193.673 74.7458C193.63 74.7458 193.587 74.7271 193.558 74.6898C193.507 74.626 193.518 74.5337 193.582 74.4826L194.516 73.741C194.579 73.69 194.672 73.7008 194.723 73.7646C194.774 73.8285 194.763 73.9208 194.699 73.9719L193.766 74.7134C193.737 74.735 193.705 74.7458 193.673 74.7458ZM195.54 73.2637C195.496 73.2637 195.453 73.2451 195.425 73.2077C195.373 73.1439 195.384 73.0516 195.448 73.0005L196.382 72.259C196.446 72.2079 196.538 72.2187 196.59 72.2825C196.641 72.3464 196.63 72.4387 196.566 72.4898L195.632 73.2313C195.605 73.2529 195.572 73.2637 195.54 73.2637ZM197.407 71.7806C197.364 71.7806 197.321 71.762 197.292 71.7247C197.241 71.6608 197.252 71.5685 197.316 71.5174L198.249 70.7759C198.313 70.7248 198.406 70.7356 198.457 70.7995C198.508 70.8633 198.497 70.9556 198.433 71.0067L197.5 71.7482C197.472 71.7708 197.44 71.7806 197.407 71.7806ZM199.275 70.2986C199.231 70.2986 199.188 70.2799 199.159 70.2426C199.108 70.1787 199.119 70.0864 199.183 70.0353L200.117 69.2938C200.181 69.2427 200.273 69.2535 200.324 69.3174C200.375 69.3812 200.365 69.4735 200.301 69.5246L199.367 70.2661C199.339 70.2887 199.307 70.2986 199.275 70.2986ZM201.142 68.8165C201.099 68.8165 201.055 68.7978 201.027 68.7605C200.976 68.6966 200.986 68.6043 201.05 68.5532L201.984 67.8117C202.048 67.7606 202.141 67.7714 202.192 67.8353C202.243 67.8991 202.232 67.9914 202.168 68.0425L201.234 68.7841C201.207 68.8057 201.174 68.8165 201.142 68.8165ZM203.009 67.3344C202.966 67.3344 202.923 67.3157 202.894 67.2784C202.843 67.2146 202.854 67.1222 202.918 67.0712L203.851 66.3296C203.915 66.2785 204.008 66.2894 204.059 66.3532C204.11 66.417 204.099 66.5094 204.035 66.5604L203.102 67.302C203.073 67.3236 203.042 67.3344 203.009 67.3344ZM204.877 65.8523C204.833 65.8523 204.79 65.8336 204.762 65.7963C204.71 65.7325 204.721 65.6401 204.785 65.5891L205.719 64.8475C205.783 64.7965 205.875 64.8073 205.926 64.8711C205.978 64.9349 205.967 65.0273 205.903 65.0783L204.969 65.8199C204.941 65.8415 204.908 65.8523 204.877 65.8523ZM206.743 64.3692C206.7 64.3692 206.657 64.3506 206.628 64.3132C206.577 64.2494 206.588 64.1571 206.652 64.106L207.585 63.3645C207.649 63.3134 207.742 63.3242 207.793 63.388C207.844 63.4519 207.833 63.5442 207.769 63.5953L206.836 64.3368C206.808 64.3594 206.776 64.3692 206.743 64.3692ZM208.61 62.8871C208.567 62.8871 208.524 62.8685 208.495 62.8311C208.444 62.7673 208.455 62.675 208.519 62.6239L209.453 61.8824C209.517 61.8313 209.609 61.8421 209.66 61.9059C209.711 61.9698 209.701 62.0621 209.637 62.1132L208.703 62.8547C208.675 62.8773 208.643 62.8871 208.61 62.8871Z" fill="white"/>
<path opacity="0.61" d="M210.478 61.405C210.435 61.405 210.391 61.3864 210.363 61.3491C210.312 61.2852 210.323 61.1929 210.386 61.1418L210.849 60.7754C210.913 60.7244 211.005 60.7352 211.056 60.799C211.108 60.8629 211.097 60.9552 211.033 61.0063L210.57 61.3726C210.543 61.3942 210.51 61.405 210.478 61.405Z" fill="white"/>
<path d="M36.825 70.0291C38.5916 70.0291 40.0236 68.5996 40.0236 66.8361C40.0236 65.0726 38.5916 63.6431 36.825 63.6431C35.0585 63.6431 33.6265 65.0726 33.6265 66.8361C33.6265 68.5996 35.0585 70.0291 36.825 70.0291Z" fill="#42A5F5"/>
<g opacity="0.38">
<path opacity="0.38" d="M35.6424 68.04C35.6424 66.6738 36.7522 65.565 38.1217 65.565C38.4375 65.565 38.7386 65.6258 39.0161 65.7339C38.657 64.8087 37.7597 64.1516 36.7059 64.1516C35.3364 64.1516 34.2266 65.2595 34.2266 66.6267C34.2266 67.6786 34.8848 68.5743 35.8116 68.9328C35.7034 68.6549 35.6424 68.3553 35.6424 68.04Z" fill="url(#paint7_linear)"/>
</g>
<path d="M63.0719 101.564C65.3666 101.564 67.2268 99.7074 67.2268 97.4167C67.2268 95.126 65.3666 93.269 63.0719 93.269C60.7772 93.269 58.917 95.126 58.917 97.4167C58.917 99.7074 60.7772 101.564 63.0719 101.564Z" fill="#42A5F5"/>
<path opacity="0.4" d="M61.5342 98.9812C61.5342 97.2054 62.9756 95.7666 64.7544 95.7666C65.1647 95.7666 65.5553 95.8461 65.9164 95.9856C65.45 94.7844 64.2841 93.9309 62.9155 93.9309C61.1367 93.9309 59.6953 95.3698 59.6953 97.1455C59.6953 98.5117 60.5503 99.6756 61.7536 100.141C61.6139 99.7807 61.5342 99.3907 61.5342 98.9812Z" fill="white"/>
<path d="M82.9608 53.5003C84.7273 53.5003 86.1594 52.0707 86.1594 50.3073C86.1594 48.5438 84.7273 47.1143 82.9608 47.1143C81.1943 47.1143 79.7622 48.5438 79.7622 50.3073C79.7622 52.0707 81.1943 53.5003 82.9608 53.5003Z" fill="#42A5F5"/>
<path opacity="0.4" d="M81.7771 51.5112C81.7771 50.144 82.8869 49.0361 84.2565 49.0361C84.5723 49.0361 84.8734 49.097 85.1508 49.2051C84.7917 48.2799 83.8944 47.6228 82.8407 47.6228C81.4721 47.6228 80.3613 48.7307 80.3613 50.0979C80.3613 51.1498 81.0195 52.0455 81.9464 52.404C81.8391 52.127 81.7771 51.8265 81.7771 51.5112Z" fill="white"/>
<path d="M121.714 81.6343C123.48 81.6343 124.912 80.2048 124.912 78.4413C124.912 76.6779 123.48 75.2483 121.714 75.2483C119.947 75.2483 118.515 76.6779 118.515 78.4413C118.515 80.2048 119.947 81.6343 121.714 81.6343Z" fill="#42A5F5"/>
<path opacity="0.4" d="M120.53 79.6464C120.53 78.2802 121.64 77.1714 123.009 77.1714C123.325 77.1714 123.626 77.2323 123.904 77.3403C123.545 76.4151 122.647 75.7581 121.594 75.7581C120.225 75.7581 119.114 76.8659 119.114 78.2331C119.114 79.285 119.772 80.1807 120.699 80.5392C120.592 80.2612 120.53 79.9607 120.53 79.6464Z" fill="white"/>
<path d="M141.559 58.6185C143.326 58.6185 144.758 57.1889 144.758 55.4255C144.758 53.662 143.326 52.2324 141.559 52.2324C139.793 52.2324 138.361 53.662 138.361 55.4255C138.361 57.1889 139.793 58.6185 141.559 58.6185Z" fill="#42A5F5"/>
<path opacity="0.4" d="M140.376 56.6294C140.376 55.2622 141.486 54.1543 142.855 54.1543C143.171 54.1543 143.472 54.2152 143.749 54.3232C143.39 53.398 142.493 52.741 141.439 52.741C140.071 52.741 138.96 53.8489 138.96 55.216C138.96 56.2679 139.618 57.1637 140.545 57.5222C140.438 57.2452 140.376 56.9446 140.376 56.6294Z" fill="white"/>
<path d="M179.206 89.275C180.973 89.275 182.405 87.8454 182.405 86.0819C182.405 84.3185 180.973 82.8889 179.206 82.8889C177.44 82.8889 176.008 84.3185 176.008 86.0819C176.008 87.8454 177.44 89.275 179.206 89.275Z" fill="#42A5F5"/>
<g opacity="0.38">
<path opacity="0.38" d="M178.023 87.2859C178.023 85.9197 179.133 84.8108 180.502 84.8108C180.818 84.8108 181.119 84.8717 181.396 84.9797C181.037 84.0545 180.14 83.3975 179.086 83.3975C177.718 83.3975 176.607 84.5053 176.607 85.8725C176.607 86.9244 177.265 87.8202 178.192 88.1786C178.084 87.9017 178.023 87.6011 178.023 87.2859Z" fill="url(#paint8_linear)"/>
</g>
<path opacity="0.78" d="M38 73H35V140H38V73Z" fill="#C8E0FE"/>
<path opacity="0.78" d="M84 55H82V140H84V55Z" fill="#C8E0FE"/>
<path opacity="0.78" d="M123 85H121V140H123V85Z" fill="#C8E0FE"/>
<path opacity="0.78" d="M143 61H140V140H143V61Z" fill="#C8E0FE"/>
<path opacity="0.78" d="M180 93H178V140H180V93Z" fill="#C8E0FE"/>
<path opacity="0.78" d="M64 106H62V140H64V106Z" fill="#C8E0FE"/>
<path d="M131.031 129.796L160 72.8849L146.679 74.9779C145.596 74.9779 145.001 73.7208 145.688 72.8849L176.237 35.7158C177.561 34.105 180.176 35.1265 180.053 37.2067L177.906 73.5538C177.783 75.635 175.935 77.1849 173.86 76.9482L165.5 73.5538L141.326 137.964C140.586 139.565 138.981 140.59 137.214 140.59H134.5L131.031 129.796Z" fill="#FF7043"/>
<path d="M104.497 91.3485L124.733 136.222C125.931 138.88 128.58 140.589 131.5 140.589H137.626C139.01 140.589 140.285 139.839 140.956 138.631L141.327 137.963C140.207 137.963 139.18 137.336 138.671 136.34L112 84.0001L104.497 91.3485Z" fill="#FF7043"/>
<path d="M114.432 88.9307C112.403 87.3307 107.596 87.8012 106.163 89.9501L76.4107 134.573C74.0278 138.147 70.0126 140.294 65.7111 140.294H63.3667L63.9999 134.573C63.9999 134.573 93.3707 88.1587 100.5 81.7549C100.5 81.7549 104 78.1706 111 82.9999C112 84.0002 112.5 84.5002 112.959 85.3683L114.432 88.9307Z" fill="#FF7043"/>
<path d="M27.6008 104.146C27.6008 104.146 23.349 104.467 32.9999 103.5C32.9999 103.5 42.9999 102.5 53.6155 118.5C64.5414 134 67.2067 138.641 74.3192 134.573L73.7298 135.549C71.7896 138.766 68.3028 140.733 64.5414 140.733C60.2104 140.733 56.144 138.655 53.6155 135.145C46.5079 125.281 31.9663 105.677 27.6008 104.146Z" fill="#FF7043"/>
<defs>
<linearGradient id="paint0_linear" x1="68.517" y1="23.9435" x2="103.11" y2="23.9435" gradientUnits="userSpaceOnUse">
<stop stop-color="#53D8FF"/>
<stop offset="1" stop-color="#3840F7"/>
</linearGradient>
<linearGradient id="paint1_linear" x1="73.4165" y1="26.6657" x2="108.009" y2="26.6657" gradientUnits="userSpaceOnUse">
<stop stop-color="#53D8FF"/>
<stop offset="1" stop-color="#3840F7"/>
</linearGradient>
<linearGradient id="paint2_linear" x1="78.3155" y1="29.3878" x2="112.909" y2="29.3878" gradientUnits="userSpaceOnUse">
<stop stop-color="#53D8FF"/>
<stop offset="1" stop-color="#3840F7"/>
</linearGradient>
<linearGradient id="paint3_linear" x1="83.215" y1="32.1099" x2="117.808" y2="32.1099" gradientUnits="userSpaceOnUse">
<stop stop-color="#53D8FF"/>
<stop offset="1" stop-color="#3840F7"/>
</linearGradient>
<linearGradient id="paint4_linear" x1="88.1145" y1="34.8321" x2="122.708" y2="34.8321" gradientUnits="userSpaceOnUse">
<stop stop-color="#53D8FF"/>
<stop offset="1" stop-color="#3840F7"/>
</linearGradient>
<linearGradient id="paint5_linear" x1="93.0135" y1="37.5544" x2="127.606" y2="37.5544" gradientUnits="userSpaceOnUse">
<stop stop-color="#53D8FF"/>
<stop offset="1" stop-color="#3840F7"/>
</linearGradient>
<linearGradient id="paint6_linear" x1="97.913" y1="40.2762" x2="132.506" y2="40.2762" gradientUnits="userSpaceOnUse">
<stop stop-color="#53D8FF"/>
<stop offset="1" stop-color="#3840F7"/>
</linearGradient>
<linearGradient id="paint7_linear" x1="34.2261" y1="66.5421" x2="39.015" y2="66.5421" gradientUnits="userSpaceOnUse">
<stop stop-color="#9CFFFB"/>
<stop offset="1" stop-color="#9BFFFA"/>
</linearGradient>
<linearGradient id="paint8_linear" x1="176.607" y1="85.7884" x2="181.396" y2="85.7884" gradientUnits="userSpaceOnUse">
<stop stop-color="#9CFFFB"/>
<stop offset="1" stop-color="#9BFFFA"/>
</linearGradient>
</defs>
</svg>
