<svg width="207" height="120" viewBox="0 0 207 120" fill="none" xmlns="http://www.w3.org/2000/svg">
  <g clip-path="url(#clip0)">
    <path
      d="M28.398 119.958C28.398 119.958 7.05475 98.1699 28.6967 66.6299C48.0394 38.442 33.5941 24.9782 53.4564 11.2513C73.5266 -2.62794 90.6089 5.82152 109.822 16.5565C129.034 27.2915 155.574 1.59679 184.231 15.2544C212.9 28.9121 208.782 49.7864 201.69 71.2563C195.701 89.3742 213.901 102.464 203.976 120C203.989 119.986 27.8004 119.307 28.398 119.958Z"
      fill="#F3F8FD"
    />
    <path
      d="M65.3705 92.647C65.3705 92.647 61.0797 74.6828 46.7772 72.7376C46.7772 72.7376 43.9882 72.4086 43.0729 75.4694C42.1575 78.5302 47.6926 78.5445 51.1109 79.7746C54.5435 81.0046 62.5243 86.2108 65.3705 92.647Z"
      fill="#CDE0FB"
    />
    <path
      d="M65.8968 95.6174C65.8968 95.6174 55.5135 80.3354 41.4514 83.5879C41.4514 83.5879 38.7291 84.2636 38.9643 87.4507C39.1854 90.6398 44.3744 88.6881 48.0036 88.6246C51.6328 88.561 60.9505 90.6063 65.8968 95.6174Z"
      fill="#DFEBFD"
    />
    <path
      d="M156.158 104.436C156.158 104.436 167.748 91.6131 180.373 96.4286C180.373 96.4286 182.809 97.3987 182.182 100.331C181.554 103.263 177.009 100.785 173.646 100.255C170.296 99.7315 161.386 100.428 156.158 104.436Z"
      fill="#CDE0FB"
    />
    <path
      d="M159.18 99.8119C159.18 99.8119 165.478 83.7287 179.004 83.7732C179.004 83.7732 181.635 83.823 182.089 86.7749C182.543 89.7269 177.413 89.031 174.082 89.7236C170.751 90.4163 162.655 94.2124 159.18 99.8119Z"
      fill="#DFEBFD"
    />
    <path
      d="M193.419 51.4515C192.15 46.0605 183.065 47.4275 183.065 47.4275C183.065 47.4275 176.618 56.5558 174.829 56.7212C173.041 56.8866 178.815 47.8354 178.815 47.8354C175.37 47.3834 166.418 51.3192 166.418 51.3192C166.418 51.3192 166.605 62.2335 164.828 61.9468C163.051 61.6602 165.159 52.2783 165.159 52.2783C161.781 53.1713 158.525 56.9527 158.525 56.9527C154.407 63.1595 162.609 68.1095 162.609 68.1095C162.609 68.1095 162.598 71.8909 160.103 76.1464C160.103 76.1464 159.551 76.9291 158.966 78.2741L159.883 78.3072C159.96 78.0647 160.059 77.8332 160.159 77.6127V77.6016C160.225 77.4583 160.324 77.2709 160.446 77.0284C160.744 76.4992 160.942 76.1023 161.075 75.8157C161.969 74.1399 163.249 71.9571 164.066 71.5161C164.066 71.5161 163.967 71.3728 163.89 71.0972C163.945 71.2295 164.011 71.3728 164.066 71.5161C165.512 74.9006 173.295 75.7275 177.677 74.9778C182.06 74.2392 180.205 72.9493 177.931 70.8877C175.657 68.8261 170.734 69.1789 169.31 68.3521C167.886 67.5252 170.027 66.8197 172.92 67.1394C175.812 67.4591 177.159 70.4026 181.828 70.998C186.498 71.6043 190.361 62.939 190.361 62.939C187.094 63.832 181.353 61.8586 181.177 60.7341C180.989 59.6096 189.567 60.0175 190.924 59.7309C192.26 59.4222 194.689 56.8314 193.419 51.4515Z"
      fill="#DFEBFD"
    />
    <path
      d="M51.1159 14.7354C53.4287 9.39331 62.5804 12.466 62.5804 12.466C62.5804 12.466 67.5558 23.1085 69.3771 23.5989C71.1984 24.0894 66.9047 13.6637 66.9047 13.6637C70.5493 13.8285 79.0844 19.5417 79.0844 19.5417C79.0844 19.5417 76.862 30.8193 78.755 30.8421C80.6459 30.8767 80.2108 20.7617 80.2108 20.7617C83.5378 22.2991 86.1993 26.8166 86.1993 26.8166C89.3092 33.995 79.9063 37.6258 79.9063 37.6258C79.9063 37.6258 79.2161 41.5501 81.0104 46.4184C81.0104 46.4184 81.4348 47.334 81.7922 48.8261L80.8432 48.6941C80.8055 48.4353 80.7561 48.1744 80.693 47.9231L80.6951 47.9115C80.6503 47.7595 80.583 47.5314 80.5104 47.2664C80.3078 46.6542 80.1712 46.2098 80.0836 45.8941C79.4745 43.9972 78.5539 41.4929 77.7855 40.8886C77.7855 40.8886 77.9174 40.7559 78.0509 40.4793C77.9677 40.6087 77.8824 40.7497 77.7855 40.8886C75.6552 44.1377 67.4515 43.5502 63.0617 41.9807C58.6719 40.4112 60.8317 39.4127 63.5638 37.699C66.298 35.9736 71.3289 37.2483 72.9474 36.6583C74.5679 36.0566 72.4879 34.932 69.4365 34.7401C66.3871 34.5365 64.4448 37.3386 59.5024 37.1122C54.5601 36.8858 52.1761 27.1943 52.1761 27.1943C55.3867 28.7111 61.6867 27.725 62.0928 26.5962C62.4873 25.4653 53.544 24.3146 52.2015 23.7648C50.8358 23.2109 48.8031 20.0774 51.1159 14.7354Z"
      fill="#DFEBFD"
    />
    <g opacity="0.7">
      <path
        d="M158.219 20.9064L164.612 45.3355C164.898 46.4082 164.24 47.5238 163.168 47.8099L120.303 59.0089C119.23 59.295 118.115 58.6371 117.829 57.5644L111.435 33.1353C111.149 32.0626 111.807 30.9469 112.88 30.6609L155.745 19.4618C156.817 19.1758 157.933 19.8194 158.219 20.9064Z"
        fill="#DFEBFD"
      />
      <g opacity="0.5">
        <path
          opacity="0.5"
          d="M140.441 48.5251L129.013 51.5143C128.527 51.6431 128.026 51.3427 127.898 50.8707L127.869 50.7563C127.74 50.27 128.041 49.7694 128.513 49.655L139.94 46.6657C140.427 46.537 140.927 46.8373 141.042 47.3093L141.07 47.4237C141.228 47.8957 140.927 48.3963 140.441 48.5251Z"
          fill="#0069FF"
        />
        <g opacity="0.5">
          <path
            opacity="0.5"
            d="M134.477 37.3689C134.591 37.7837 134.605 38.1412 134.52 38.4559C134.42 38.8421 134.191 39.0852 133.805 39.1853C133.418 39.2854 133.104 39.1853 132.832 38.8993C132.617 38.6704 132.46 38.3558 132.346 37.9267C132.231 37.4976 132.217 37.1543 132.288 36.854C132.389 36.4678 132.617 36.2247 133.004 36.1245C133.39 36.0244 133.719 36.1245 133.99 36.4106C134.205 36.6394 134.362 36.9541 134.477 37.3689ZM133.948 37.5119C133.876 37.2545 133.79 37.0399 133.69 36.8826C133.533 36.6394 133.347 36.5393 133.132 36.5965C132.918 36.6537 132.803 36.8254 132.789 37.1114C132.775 37.3117 132.803 37.5405 132.875 37.798C133.061 38.5131 133.333 38.8135 133.704 38.7276C133.919 38.6704 134.033 38.4988 134.048 38.2127C134.048 37.9982 134.019 37.7694 133.948 37.5119Z"
            fill="#0069FF"
          />
          <path
            opacity="0.5"
            d="M136.822 36.7682C136.937 37.1829 136.951 37.5405 136.865 37.8552C136.765 38.2413 136.536 38.4845 136.15 38.5846C135.764 38.6847 135.449 38.5846 135.178 38.2986C134.963 38.0697 134.806 37.7551 134.691 37.326C134.577 36.9112 134.563 36.5536 134.634 36.2533C134.734 35.8671 134.963 35.624 135.349 35.5238C135.735 35.4237 136.064 35.5238 136.336 35.8099C136.551 36.0244 136.708 36.3391 136.822 36.7682ZM136.293 36.8969C136.222 36.6394 136.136 36.4249 136.036 36.2676C135.878 36.0244 135.692 35.9243 135.478 35.9815C135.263 36.0387 135.149 36.2104 135.135 36.4964C135.12 36.6967 135.149 36.9255 135.22 37.1829C135.406 37.8981 135.678 38.1984 136.05 38.1126C136.265 38.0554 136.379 37.8838 136.393 37.5977C136.393 37.3975 136.365 37.1686 136.293 36.8969Z"
            fill="#0069FF"
          />
          <path
            opacity="0.5"
            d="M140.369 35.8385C140.484 36.2533 140.498 36.6108 140.412 36.9255C140.312 37.3117 140.083 37.5548 139.697 37.6549C139.311 37.755 138.996 37.6549 138.725 37.3689C138.51 37.14 138.353 36.8254 138.238 36.3963C138.124 35.9815 138.11 35.6239 138.181 35.3236C138.281 34.9374 138.51 34.6943 138.896 34.5941C139.282 34.494 139.611 34.5941 139.883 34.8802C140.098 35.0947 140.255 35.4094 140.369 35.8385ZM139.84 35.9672C139.769 35.7098 139.683 35.4952 139.583 35.3379C139.425 35.0947 139.239 34.9946 139.025 35.0518C138.81 35.109 138.696 35.2807 138.682 35.5667C138.667 35.767 138.696 35.9958 138.767 36.2533C138.953 36.9684 139.225 37.2688 139.597 37.1829C139.812 37.1257 139.926 36.9541 139.94 36.668C139.94 36.4678 139.912 36.239 139.84 35.9672Z"
            fill="#0069FF"
          />
          <path
            opacity="0.5"
            d="M142.715 35.2234C142.83 35.6382 142.844 35.9958 142.758 36.3104C142.658 36.6966 142.429 36.9398 142.043 37.0399C141.657 37.14 141.342 37.0399 141.07 36.7538C140.856 36.525 140.698 36.2103 140.584 35.7812C140.47 35.3665 140.455 35.0089 140.527 34.7085C140.627 34.3224 140.856 34.0792 141.242 33.9791C141.628 33.879 141.957 33.9791 142.229 34.2652C142.443 34.4797 142.601 34.8087 142.715 35.2234ZM142.186 35.3522C142.114 35.0947 142.029 34.8802 141.928 34.7228C141.771 34.4797 141.585 34.3796 141.371 34.4368C141.156 34.494 141.042 34.6656 141.027 34.9517C141.013 35.1519 141.042 35.3808 141.113 35.6382C141.299 36.3533 141.571 36.6537 141.943 36.5679C142.157 36.5107 142.272 36.339 142.286 36.053C142.286 35.8528 142.257 35.6239 142.186 35.3522Z"
            fill="#0069FF"
          />
          <path
            opacity="0.5"
            d="M145.061 34.6085C145.175 35.0233 145.189 35.3809 145.104 35.6955C145.003 36.0817 144.775 36.3248 144.388 36.425C144.002 36.5251 143.688 36.425 143.416 36.1389C143.201 35.9101 143.044 35.5954 142.93 35.1663C142.815 34.7515 142.801 34.394 142.872 34.0936C142.973 33.7074 143.201 33.4643 143.588 33.3642C143.974 33.2641 144.303 33.3642 144.574 33.6502C144.789 33.8648 144.946 34.1937 145.061 34.6085ZM144.531 34.7372C144.46 34.4798 144.374 34.2652 144.274 34.1079C144.117 33.8648 143.931 33.7646 143.716 33.8219C143.502 33.8791 143.387 34.0507 143.373 34.3368C143.359 34.537 143.387 34.7658 143.459 35.0233C143.645 35.7384 143.916 36.0388 144.288 35.953C144.503 35.8958 144.617 35.7241 144.632 35.4381C144.632 35.2378 144.603 35.009 144.531 34.7372Z"
            fill="#0069FF"
          />
          <path
            opacity="0.5"
            d="M147.406 33.9935C147.52 34.4083 147.535 34.7658 147.449 35.0805C147.349 35.4666 147.12 35.7098 146.734 35.8099C146.348 35.91 146.033 35.8099 145.761 35.5239C145.547 35.295 145.389 34.9804 145.275 34.5513C145.16 34.1365 145.146 33.7789 145.218 33.4786C145.318 33.0924 145.547 32.8493 145.933 32.7492C146.319 32.649 146.648 32.7492 146.92 33.0352C147.134 33.2497 147.292 33.5787 147.406 33.9935ZM146.877 34.1222C146.805 33.8648 146.719 33.6502 146.619 33.4929C146.462 33.2497 146.276 33.1496 146.061 33.2068C145.847 33.264 145.733 33.4357 145.718 33.7217C145.704 33.922 145.733 34.1508 145.804 34.4083C145.99 35.1234 146.262 35.4237 146.634 35.3379C146.848 35.2807 146.963 35.1091 146.977 34.823C146.977 34.6228 146.948 34.394 146.877 34.1222Z"
            fill="#0069FF"
          />
          <path
            opacity="0.5"
            d="M150.967 33.0638C151.082 33.4786 151.096 33.8362 151.01 34.1508C150.91 34.537 150.681 34.7801 150.295 34.8802C149.909 34.9804 149.594 34.8802 149.323 34.5942C149.108 34.3654 148.951 34.0507 148.836 33.6216C148.722 33.2068 148.708 32.8493 148.779 32.5489C148.879 32.1627 149.108 31.9196 149.494 31.8195C149.88 31.7194 150.209 31.8195 150.481 32.1055C150.696 32.3201 150.853 32.649 150.967 33.0638ZM150.438 33.1925C150.367 32.9351 150.281 32.7205 150.181 32.5632C150.023 32.3201 149.837 32.2199 149.623 32.2772C149.408 32.3344 149.294 32.506 149.28 32.7921C149.265 32.9923 149.294 33.2211 149.366 33.4786C149.551 34.1937 149.823 34.4941 150.195 34.4083C150.41 34.351 150.524 34.1794 150.538 33.8934C150.538 33.6931 150.51 33.4643 150.438 33.1925Z"
            fill="#0069FF"
          />
          <path
            opacity="0.5"
            d="M153.313 32.4487C153.428 32.8634 153.442 33.221 153.356 33.5357C153.256 33.9218 153.027 34.165 152.641 34.2651C152.255 34.3652 151.94 34.2651 151.668 33.9791C151.454 33.7502 151.296 33.4356 151.182 33.0065C151.068 32.5917 151.053 32.2341 151.125 31.9338C151.225 31.5476 151.454 31.3044 151.84 31.2043C152.226 31.1042 152.555 31.2043 152.827 31.4904C153.041 31.7192 153.199 32.0339 153.313 32.4487ZM152.784 32.5917C152.712 32.3342 152.627 32.1197 152.526 31.9624C152.369 31.7192 152.183 31.6191 151.969 31.6763C151.754 31.7335 151.64 31.9052 151.625 32.1912C151.611 32.3914 151.64 32.6203 151.711 32.8777C151.897 33.5929 152.169 33.8932 152.541 33.8074C152.755 33.7502 152.87 33.5786 152.884 33.2925C152.884 33.078 152.855 32.8491 152.784 32.5917Z"
            fill="#0069FF"
          />
          <path
            opacity="0.5"
            d="M155.659 31.8337C155.773 32.2484 155.788 32.606 155.702 32.9207C155.602 33.3068 155.373 33.55 154.987 33.6501C154.6 33.7502 154.286 33.6501 154.014 33.364C153.799 33.1352 153.642 32.8205 153.528 32.3915C153.413 31.9767 153.399 31.6191 153.471 31.3188C153.571 30.9326 153.799 30.6894 154.186 30.5893C154.572 30.4892 154.901 30.5893 155.173 30.8754C155.387 31.1042 155.544 31.4189 155.659 31.8337ZM155.13 31.9767C155.058 31.7192 154.972 31.5047 154.872 31.3474C154.715 31.1042 154.529 31.0041 154.314 31.0613C154.1 31.1185 153.985 31.2901 153.971 31.5762C153.957 31.7764 153.985 32.0053 154.057 32.2627C154.243 32.9779 154.515 33.2782 154.886 33.1924C155.101 33.1352 155.215 32.9636 155.23 32.6775C155.23 32.463 155.201 32.2341 155.13 31.9767Z"
            fill="#0069FF"
          />
          <path
            opacity="0.5"
            d="M158.005 31.2187C158.119 31.6335 158.133 31.991 158.047 32.3057C157.947 32.6919 157.718 32.935 157.332 33.0351C156.946 33.1353 156.631 33.0351 156.36 32.7491C156.145 32.5202 155.988 32.2056 155.873 31.7765C155.759 31.3617 155.745 31.0042 155.816 30.7038C155.916 30.3176 156.145 30.0745 156.531 29.9744C156.918 29.8742 157.246 29.9744 157.518 30.2604C157.733 30.4893 157.89 30.8039 158.005 31.2187ZM157.475 31.3617C157.404 31.1043 157.318 30.8897 157.218 30.7324C157.061 30.4893 156.875 30.3891 156.66 30.4463C156.446 30.5036 156.331 30.6752 156.317 30.9612C156.303 31.1615 156.331 31.3903 156.403 31.6478C156.589 32.3629 156.86 32.6633 157.232 32.5775C157.447 32.5202 157.561 32.3486 157.575 32.0626C157.575 31.848 157.547 31.6192 157.475 31.3617Z"
            fill="#0069FF"
          />
        </g>
        <path
          opacity="0.5"
          d="M127.068 30.947L115.898 33.8648C115.412 33.9935 114.911 33.6932 114.782 33.2212C114.654 32.7349 114.954 32.2343 115.426 32.1198L126.61 29.2021C127.097 29.0734 127.597 29.3737 127.712 29.8457C127.84 30.3177 127.554 30.8183 127.068 30.947Z"
          fill="#0069FF"
        />
        <g opacity="0.5">
          <g opacity="0.5">
            <path
              opacity="0.5"
              d="M154.114 25.8695C154.028 25.5548 153.842 25.2831 153.599 25.0971C153.528 25.0399 153.428 25.0685 153.385 25.14L153.342 25.2116C153.299 25.2831 153.328 25.3546 153.385 25.3975C153.556 25.5262 153.699 25.7265 153.757 25.9553C153.814 26.1841 153.799 26.4273 153.699 26.6275C153.671 26.699 153.699 26.7706 153.757 26.8135L153.828 26.8564C153.9 26.8993 154 26.8707 154.043 26.7849C154.157 26.5131 154.2 26.1841 154.114 25.8695Z"
              fill="#0069FF"
            />
          </g>
          <g opacity="0.5">
            <path
              opacity="0.5"
              d="M154.843 25.6836C154.7 25.1544 154.386 24.7254 153.971 24.4536C153.899 24.4107 153.799 24.425 153.756 24.5108L153.728 24.5537C153.685 24.6252 153.714 24.7111 153.771 24.754C154.114 24.9971 154.386 25.3547 154.5 25.7838C154.615 26.2272 154.557 26.6705 154.371 27.0424C154.343 27.1139 154.357 27.1997 154.429 27.2426L154.472 27.2713C154.543 27.3142 154.643 27.2856 154.686 27.214C154.901 26.7421 154.972 26.1985 154.843 25.6836Z"
              fill="#0069FF"
            />
          </g>
          <g opacity="0.5">
            <path
              opacity="0.5"
              d="M155.473 25.5119C155.287 24.8111 154.858 24.2389 154.286 23.8671C154.214 23.8242 154.114 23.8385 154.071 23.9243C154.028 23.9958 154.057 24.0816 154.114 24.1245C154.615 24.4535 155.015 24.9684 155.172 25.5834C155.33 26.2127 155.244 26.842 154.972 27.3856C154.929 27.4571 154.958 27.5429 155.029 27.5858C155.101 27.6287 155.201 27.6001 155.244 27.5286C155.559 26.9279 155.659 26.2127 155.473 25.5119Z"
              fill="#0069FF"
            />
          </g>
          <g opacity="0.5">
            <path
              opacity="0.5"
              d="M156.16 25.3403C155.931 24.4535 155.373 23.7241 154.644 23.2664C154.572 23.2235 154.472 23.2378 154.429 23.3236L154.386 23.3951C154.343 23.4666 154.372 23.5525 154.429 23.5954C155.073 24.0101 155.573 24.6538 155.788 25.4547C156.002 26.2557 155.874 27.0566 155.516 27.7289C155.473 27.8004 155.502 27.8862 155.573 27.9291L155.645 27.972C155.716 28.0149 155.816 27.9863 155.859 27.9148C156.26 27.1281 156.388 26.2271 156.16 25.3403Z"
              fill="#0069FF"
            />
          </g>
        </g>
      </g>
    </g>
    <path
      d="M137.603 120.792H67.57C64.4734 120.772 61.9806 118.24 62.0001 115.144L62.448 42.1304C62.4675 39.0338 64.9993 36.5409 68.0958 36.5604L137.563 36.9889C140.66 37.0083 143.153 39.5402 143.133 42.6367L142.685 115.65C142.666 118.747 140.7 120.811 137.603 120.792Z"
      fill="#A9CBFF"
    />
    <path
      d="M135.991 55.2992L69.4442 54.8902C68.081 54.8902 66.9904 53.7801 66.9904 52.4168L67.0488 43.9645C67.0488 42.6012 68.1589 41.5106 69.5221 41.5106L136.069 41.9195C137.432 41.9195 138.522 43.0296 138.522 44.3929L138.464 52.8452C138.464 54.2085 137.354 55.3186 135.991 55.2992Z"
      fill="#E3F0FF"
    />
    <path
      d="M91.7058 87.842L85.9995 87.803C84.5779 87.803 83.4288 86.6345 83.4288 85.2128L83.4678 79.5065C83.4678 78.0848 84.6363 76.9357 86.058 76.9357L91.7642 76.9747C93.1859 76.9747 94.3349 78.1432 94.3349 79.5649L94.2959 85.2712C94.2959 86.7124 93.1274 87.8614 91.7058 87.842Z"
      fill="#1565C0"
    />
    <path
      d="M91.6279 101.163L85.9217 101.124C84.5 101.124 83.351 99.9556 83.351 98.5339L83.3899 92.8276C83.3899 91.4059 84.5584 90.2569 85.9801 90.2569L91.6863 90.2958C93.108 90.2958 94.257 91.4643 94.257 92.886L94.218 98.5923C94.218 100.014 93.0495 101.163 91.6279 101.163Z"
      fill="#1565C0"
    />
    <path
      d="M91.5491 114.484L85.8429 114.445C84.4212 114.445 83.2722 113.277 83.2722 111.855L83.3111 106.149C83.3111 104.727 84.4796 103.578 85.9013 103.578L91.6075 103.617C93.0292 103.617 94.1782 104.785 94.1782 106.207L94.1393 111.913C94.1198 113.335 92.9708 114.484 91.5491 114.484Z"
      fill="#1565C0"
    />
    <path
      d="M106.058 87.9391L100.352 87.9002C98.9305 87.9002 97.7814 86.7316 97.7814 85.3099L97.8204 79.6036C97.8204 78.1819 98.9889 77.0329 100.411 77.0329L106.117 77.0718C107.538 77.0718 108.688 78.2403 108.688 79.6621L108.649 85.3684C108.629 86.7901 107.48 87.9391 106.058 87.9391Z"
      fill="#1565C0"
    />
    <path
      d="M105.961 101.241L100.255 101.202C98.8329 101.202 97.6838 100.034 97.6838 98.6121L97.7228 92.9057C97.7228 91.484 98.8913 90.335 100.313 90.335L106.019 90.3739C107.441 90.3739 108.59 91.5424 108.59 92.9642L108.551 98.6705C108.551 100.112 107.382 101.261 105.961 101.241Z"
      fill="#1565C0"
    />
    <path
      d="M105.883 114.562L100.177 114.523C98.7554 114.523 97.6064 113.355 97.6064 111.933L97.6453 106.227C97.6453 104.805 98.8138 103.656 100.236 103.656L105.942 103.695C107.363 103.695 108.512 104.864 108.512 106.285L108.473 111.992C108.473 113.433 107.305 114.582 105.883 114.562Z"
      fill="#1565C0"
    />
    <path
      d="M119.789 101.338L114.083 101.299C112.661 101.299 111.512 100.131 111.512 98.7091L111.551 93.0028C111.551 91.5811 112.719 90.4321 114.141 90.4321L119.847 90.471C121.269 90.471 122.418 91.6396 122.418 93.0613L122.379 98.7676C122.379 100.189 121.23 101.338 119.789 101.338Z"
      fill="#2B478B"
    />
    <path
      d="M119.71 114.66L114.004 114.621C112.582 114.621 111.433 113.452 111.433 112.03L111.472 106.324C111.472 104.902 112.641 103.753 114.062 103.753L119.768 103.792C121.19 103.792 122.339 104.961 122.339 106.383L122.3 112.089C122.3 113.511 121.132 114.66 119.71 114.66Z"
      fill="#1565C0"
    />
    <path
      opacity="0.5"
      d="M78.0925 72.1256L72.3863 72.0866C70.9646 72.0866 69.8156 70.9181 69.8156 69.4964L69.8351 66.1077C69.8351 64.686 71.0036 63.5369 72.4253 63.5369L78.1315 63.5759C79.5532 63.5759 80.7022 64.7444 80.7022 66.1661L80.6827 69.5548C80.6827 70.9765 79.5337 72.1256 78.0925 72.1256Z"
      fill="#FBFDFF"
    />
    <path
      opacity="0.5"
      d="M78.0137 86.0892L72.3075 86.0503C70.8858 86.0503 69.7368 84.8817 69.7368 83.46L69.7563 80.0713C69.7563 78.6496 70.9248 77.5006 72.3465 77.5006L78.0527 77.5395C79.4744 77.5395 80.6234 78.708 80.6234 80.1297L80.6039 83.5185C80.6039 84.9402 79.4354 86.0892 78.0137 86.0892Z"
      fill="#FBFDFF"
    />
    <path
      opacity="0.5"
      d="M77.9354 100.053L72.2292 100.014C70.8075 100.014 69.6584 98.8456 69.6584 97.4239L69.6779 94.0352C69.6779 92.6135 70.8464 91.4644 72.2681 91.4644L77.9743 91.5034C79.396 91.5034 80.545 92.6719 80.545 94.0936L80.5256 97.4823C80.5061 98.9041 79.357 100.053 77.9354 100.053Z"
      fill="#FBFDFF"
    />
    <path
      opacity="0.5"
      d="M77.8383 114.017L72.1321 113.978C70.7104 113.978 69.5613 112.81 69.5613 111.388L69.5808 107.999C69.5808 106.578 70.7493 105.429 72.171 105.429L77.8772 105.468C79.2989 105.468 80.4479 106.636 80.4479 108.058L80.4284 111.447C80.4284 112.868 79.2599 114.017 77.8383 114.017Z"
      fill="#FBFDFF"
    />
    <path
      d="M91.7821 74.521L86.0759 74.4821C84.6543 74.4821 83.5052 73.3136 83.5052 71.8919L83.5442 66.1856C83.5442 64.7639 84.7127 63.6148 86.1344 63.6148L91.8406 63.6538C93.2622 63.6538 94.4113 64.8223 94.4113 66.244L94.3723 71.9503C94.3723 73.3915 93.2038 74.5405 91.7821 74.521Z"
      fill="#1565C0"
    />
    <path
      d="M106.136 74.6184L100.429 74.5794C99.0078 74.5794 97.8588 73.4109 97.8588 71.9892L97.8977 66.2829C97.8977 64.8612 99.0662 63.7122 100.488 63.7122L106.194 63.7511C107.616 63.7511 108.765 64.9196 108.765 66.3414L108.726 72.0476C108.726 73.4693 107.557 74.6184 106.136 74.6184Z"
      fill="#1565C0"
    />
    <path
      d="M119.963 74.6963L114.257 74.6573C112.835 74.6573 111.686 73.4888 111.686 72.0671L111.725 66.3608C111.725 64.9391 112.893 63.7901 114.315 63.7901L120.021 63.829C121.443 63.829 122.592 64.9975 122.592 66.4192L122.553 72.1255C122.553 73.5667 121.384 74.7157 119.963 74.6963Z"
      fill="#1565C0"
    />
    <path
      d="M132.875 88.154L127.168 88.115C125.747 88.115 124.598 86.9465 124.598 85.5248L124.637 79.8184C124.637 78.3967 125.805 77.2477 127.227 77.2477L132.933 77.2866C134.355 77.2866 135.504 78.4552 135.504 79.8769L135.465 85.5832C135.465 87.0244 134.296 88.1734 132.875 88.154Z"
      fill="#F99746"
    />
    <path
      d="M132.953 74.8525L127.247 74.8136C125.825 74.8136 124.676 73.645 124.676 72.2233L124.715 66.517C124.715 65.0953 125.883 63.9463 127.305 63.9463L133.011 63.9852C134.433 63.9852 135.582 65.1537 135.582 66.5755L135.543 72.2817C135.543 73.7035 134.375 74.8525 132.953 74.8525Z"
      fill="#1565C0"
    />
    <path
      d="M132.719 114.796L127.013 114.757C125.591 114.757 124.442 113.589 124.442 112.167L124.559 93.1588C124.559 91.7371 125.728 90.588 127.149 90.588L132.856 90.627C134.277 90.627 135.426 91.7955 135.426 93.2172L135.309 112.225C135.29 113.666 134.141 114.815 132.719 114.796Z"
      fill="#F99746"
    />
    <path
      d="M90.3412 48.2298L90.3607 46.3991L90.6333 45.698C90.867 45.7565 91.0034 45.9123 91.0618 46.1265L91.0423 48.5609L90.867 48.7362L90.3412 48.2298ZM90.8476 48.9115L91.0228 49.0868L91.0034 51.5212C90.9449 51.7549 90.7891 51.8912 90.5749 51.9497L90.3217 51.2485L90.3412 49.4179L90.8476 48.9115Z"
      fill="#FF7043"
    />
    <path
      d="M93.3791 46.5936L93.3596 48.2491L92.8338 48.7749L92.6585 48.5996L92.678 46.3405L93.3791 46.5936ZM92.6585 51.3651L92.678 49.106L92.8533 48.9307L93.3791 49.4565L93.3596 51.112L92.6585 51.3651ZM95.6966 51.9883L93.087 51.9689C92.8533 51.9104 92.7169 51.7546 92.6585 51.5404L93.3596 51.2872L95.4434 51.3067L95.6966 51.9883ZM95.4824 46.4184L93.3986 46.3989L92.6975 46.1262C92.7559 45.8925 92.9117 45.7562 93.1259 45.6978L95.7161 45.7172L95.4824 46.4184ZM95.6382 48.2491L95.6577 46.4184L95.9303 45.7172C96.164 45.7757 96.3003 45.9315 96.3588 46.1457L96.3393 48.5801L96.164 48.7554L95.6382 48.2491ZM96.164 48.9502L96.3393 49.1255L96.3198 51.5599C96.2614 51.7936 96.1056 51.9299 95.8914 51.9883L95.6382 51.2872L95.6577 49.4565L96.164 48.9502Z"
      fill="#FF7043"
    />
    <path
      d="M98.6963 46.6136L98.6768 48.269L98.151 48.7948L97.9757 48.6195L97.9952 46.3604L98.6963 46.6136ZM97.9562 51.4045L97.9757 49.1454L98.151 48.9701L98.6768 49.4959L98.6573 51.1513L97.9562 51.4045ZM100.994 52.0277L98.3847 52.0083C98.151 51.9498 98.0147 51.794 97.9562 51.5798L98.6573 51.3266L100.741 51.3461L100.994 52.0277ZM100.78 46.4578L98.6963 46.4383L97.9952 46.1656C98.0536 45.9319 98.2094 45.7956 98.4236 45.7372L101.014 45.7566L100.78 46.4578ZM100.936 48.2884L100.955 46.4578L101.228 45.7566C101.462 45.8151 101.598 45.9709 101.657 46.1851L101.637 48.6195L101.462 48.7948L100.936 48.2884ZM101.462 48.9896L101.637 49.1648L101.618 51.5993C101.559 51.833 101.403 51.9693 101.189 52.0277L100.936 51.3266L100.955 49.4959L101.462 48.9896Z"
      fill="#FF7043"
    />
    <path
      d="M103.993 46.6523L103.974 48.3077L103.448 48.8335L103.273 48.6582L103.292 46.3991L103.993 46.6523ZM103.273 51.4237L103.292 49.1646L103.468 48.9893L103.993 49.5151L103.974 51.1705L103.273 51.4237ZM106.311 52.0664L103.701 52.0469C103.468 51.9885 103.331 51.8327 103.273 51.6185L103.974 51.3653L106.058 51.3848L106.311 52.0664ZM106.077 46.4965L103.993 46.477L103.292 46.2043C103.351 45.9706 103.507 45.8343 103.721 45.7759L106.311 45.7953L106.077 46.4965ZM106.233 48.3271L106.253 46.4965L106.525 45.7953C106.759 45.8538 106.895 46.0096 106.954 46.2238L106.934 48.6582L106.759 48.8335L106.233 48.3271ZM106.759 49.0283L106.934 49.2035L106.915 51.6379C106.856 51.8717 106.7 52.008 106.486 52.0664L106.233 51.3653L106.253 49.5346L106.759 49.0283Z"
      fill="#FF7043"
    />
    <path
      d="M109.291 46.691L109.272 48.3464L108.746 48.8722L108.571 48.697L108.59 46.4378L109.291 46.691ZM108.571 51.4625L108.59 49.2033L108.765 49.028L109.291 49.5539L109.272 51.2093L108.571 51.4625ZM111.609 52.0857L108.999 52.0662C108.765 52.0078 108.629 51.852 108.571 51.6377L109.272 51.3846L111.355 51.404L111.609 52.0857ZM111.375 46.5352L109.291 46.5157L108.59 46.2431C108.648 46.0093 108.804 45.873 109.018 45.8146L111.609 45.8341L111.375 46.5352ZM111.55 48.3464L111.57 46.5157L111.842 45.8146C112.076 45.873 112.212 46.0288 112.271 46.2431L112.251 48.6775L112.076 48.8528L111.55 48.3464ZM112.057 49.0475L112.232 49.2228L112.212 51.6572C112.154 51.8909 111.998 52.0272 111.784 52.0857L111.531 51.3846L111.55 49.5539L112.057 49.0475Z"
      fill="#FF7043"
    />
    <path
      d="M114.588 46.7299L114.568 48.3854L114.043 48.9112L113.867 48.7359L113.887 46.4768L114.588 46.7299ZM113.867 51.5014L113.887 49.2423L114.062 49.067L114.588 49.5928L114.568 51.2483L113.867 51.5014ZM116.905 52.1247L114.296 52.1052C114.062 52.0468 113.926 51.891 113.867 51.6767L114.568 51.4235L116.652 51.443L116.905 52.1247ZM116.691 46.5547L114.607 46.5352L113.906 46.2625C113.965 46.0288 114.121 45.8925 114.335 45.8341L116.925 45.8535L116.691 46.5547ZM116.847 48.3854L116.867 46.5547L117.139 45.8535C117.373 45.912 117.509 46.0678 117.568 46.282L117.548 48.7164L117.373 48.8917L116.847 48.3854ZM117.353 49.0865L117.529 49.2618L117.509 51.6962C117.451 51.9299 117.295 52.0662 117.081 52.1247L116.828 51.4235L116.847 49.5928L117.353 49.0865Z"
      fill="#FF7043"
    />
    <path
      d="M119.904 46.7496L119.885 48.405L119.359 48.9309L119.184 48.7556L119.203 46.4964L119.904 46.7496ZM119.164 51.5211L119.184 49.262L119.359 49.0867L119.885 49.6125L119.865 51.2679L119.164 51.5211ZM122.202 52.1638L119.593 52.1443C119.359 52.0859 119.223 51.9301 119.164 51.7159L119.865 51.4627L121.949 51.4822L122.202 52.1638ZM121.988 46.5938L119.904 46.5743L119.203 46.3017C119.262 46.068 119.417 45.9317 119.632 45.8732L122.222 45.8927L121.988 46.5938ZM122.144 48.4245L122.163 46.5938L122.436 45.8927C122.67 45.9511 122.806 46.1069 122.864 46.3212L122.845 48.7556L122.67 48.9309L122.144 48.4245ZM122.67 49.1256L122.845 49.3009L122.825 51.7354C122.767 51.9691 122.611 52.1054 122.397 52.1638L122.144 51.4627L122.163 49.632L122.67 49.1256Z"
      fill="#FF7043"
    />
    <path
      d="M125.202 46.7888L125.183 48.4442L124.657 48.97L124.482 48.7947L124.501 46.5356L125.202 46.7888ZM124.482 51.5602L124.501 49.3011L124.676 49.1258L125.202 49.6517L125.183 51.3071L124.482 51.5602ZM127.52 52.1835L124.91 52.164C124.676 52.1056 124.54 51.9497 124.482 51.7355L125.183 51.4823L127.267 51.5018L127.52 52.1835ZM127.286 46.633L125.202 46.6135L124.501 46.3409C124.56 46.1072 124.715 45.9708 124.93 45.9124L127.52 45.9319L127.286 46.633ZM127.442 48.4442L127.461 46.6135L127.734 45.9124C127.968 45.9708 128.104 46.1266 128.162 46.3409L128.143 48.7753L127.968 48.9505L127.442 48.4442ZM127.968 49.1453L128.143 49.3206L128.124 51.755C128.065 51.9887 127.909 52.125 127.695 52.1835L127.442 51.4823L127.461 49.6517L127.968 49.1453Z"
      fill="#FF7043"
    />
    <path
      d="M130.499 46.8277L130.48 48.4832L129.954 49.009L129.779 48.8337L129.798 46.5746L130.499 46.8277ZM129.779 51.5992L129.798 49.3401L129.973 49.1648L130.499 49.6906L130.48 51.3461L129.779 51.5992ZM132.817 52.2225L130.207 52.203C129.973 52.1446 129.837 51.9887 129.779 51.7745L130.48 51.5213L132.563 51.5408L132.817 52.2225ZM132.583 46.6525L130.499 46.633L129.798 46.3603C129.856 46.1266 130.012 45.9903 130.226 45.9319L132.817 45.9513L132.583 46.6525ZM132.758 48.4832L132.778 46.6525L133.05 45.9513C133.284 46.0098 133.42 46.1656 133.479 46.3798L133.459 48.8142L133.284 48.9895L132.758 48.4832ZM133.265 49.1843L133.44 49.3596L133.42 51.794C133.362 52.0277 133.206 52.164 132.992 52.2225L132.739 51.5213L132.758 49.6906L133.265 49.1843Z"
      fill="#FF7043"
    />
    <path
      d="M157.689 112.969C167.987 102.671 167.987 85.9747 157.689 75.6768C147.391 65.3789 130.695 65.3789 120.398 75.6768C110.1 85.9747 110.1 102.671 120.398 112.969C130.695 123.267 147.391 123.267 157.689 112.969Z"
      fill="#2196F3"
    />
    <path
      d="M150.745 117.948C150.414 118.142 150.083 118.337 149.752 118.532C149.635 118.59 149.518 118.649 149.401 118.707C149.148 118.843 148.876 118.98 148.622 119.116C136.061 125.29 120.753 120.557 113.918 108.171C107.413 96.3493 110.899 81.7233 121.591 74.05C122.448 73.4462 123.344 72.862 124.278 72.3556C124.61 72.1608 124.96 71.9856 125.291 71.8298C125.622 71.6545 125.953 71.4987 126.304 71.3624C127.336 70.895 128.388 70.5054 129.439 70.1938C131.017 69.7264 132.614 69.3953 134.211 69.2395C139.177 68.7137 144.182 69.6291 148.603 71.7908C153.296 74.0889 157.367 77.8087 160.093 82.736C166.968 95.1224 162.742 110.644 150.745 117.948Z"
      fill="#64B5F6"
    />
    <path
      d="M137.21 119.35C135.009 119.35 132.789 119.038 130.608 118.415C124.551 116.662 119.527 112.65 116.489 107.119C113.451 101.588 112.73 95.2004 114.483 89.1435C116.235 83.0866 120.247 78.062 125.778 75.0238C137.191 68.7333 151.583 72.901 157.873 84.3136C164.164 95.7262 159.996 110.119 148.584 116.409C145.039 118.357 141.144 119.35 137.21 119.35ZM137.132 72.7062C133.374 72.7062 129.576 73.6216 126.07 75.5497C120.695 78.5099 116.781 83.3982 115.086 89.2993C113.373 95.2003 114.074 101.413 117.034 106.788C119.994 112.163 124.882 116.078 130.783 117.772C136.684 119.486 142.897 118.785 148.272 115.825C159.373 109.71 163.424 95.6872 157.308 84.5863C153.121 77.0103 145.253 72.7062 137.132 72.7062Z"
      fill="#1976D2"
    />
    <path
      opacity="0.4"
      d="M148.797 98.005C148.739 97.8686 148.681 97.7518 148.642 97.6349C148.213 96.7001 147.687 95.9406 147.045 95.3563C146.324 94.6941 145.487 94.2072 144.532 93.8762C143.578 93.5451 142.507 93.3503 141.338 93.2724C140.17 93.1945 138.885 93.1751 137.502 93.214C136.645 93.2335 135.924 93.2335 135.301 93.1751C134.697 93.1166 134.172 92.9998 133.763 92.844C133.334 92.6687 133.003 92.435 132.731 92.1429C132.458 91.8507 132.244 91.4807 132.068 91.0717C131.893 90.6432 131.796 90.2148 131.776 89.8058C131.757 89.3968 131.815 88.9878 131.971 88.6178C132.127 88.2478 132.36 87.8972 132.711 87.5856C133.042 87.274 133.49 87.0013 134.055 86.7676C135.087 86.3586 136.041 86.3587 136.937 86.7871C137.833 87.2156 138.554 88.1309 139.118 89.5137L144.493 87.3324C144.026 86.1834 143.442 85.2096 142.741 84.4111C142.04 83.6126 141.241 83.0089 140.365 82.5804C139.488 82.152 138.515 81.8988 137.482 81.8209C136.45 81.743 135.36 81.8598 134.25 82.152L132.731 78.4127L129.751 79.6202L131.25 83.3205C130.179 83.8853 129.264 84.528 128.524 85.268C127.784 86.0081 127.2 86.8066 126.81 87.6635C126.401 88.5204 126.206 89.4358 126.187 90.3706C126.167 91.3249 126.362 92.2792 126.752 93.253C127.219 94.3825 127.803 95.2784 128.524 95.9406C129.244 96.6027 130.082 97.0896 131.036 97.4207C131.99 97.7518 133.062 97.9465 134.23 98.005C135.418 98.0634 136.703 98.0634 138.086 98.005C138.885 97.966 139.586 97.966 140.189 98.0244C140.774 98.0829 141.3 98.1997 141.728 98.375C142.156 98.5503 142.526 98.784 142.799 99.0956C143.091 99.4072 143.325 99.8162 143.52 100.284C143.695 100.712 143.773 101.141 143.773 101.549C143.773 101.978 143.675 102.367 143.481 102.757C143.286 103.146 143.013 103.497 142.624 103.828C142.254 104.159 141.767 104.432 141.183 104.666C140.676 104.88 140.151 105.016 139.605 105.075C139.06 105.133 138.534 105.094 138.008 104.919C137.482 104.743 137.015 104.432 136.548 103.984C136.1 103.536 135.71 102.893 135.379 102.075L130.004 104.257C130.569 105.639 131.27 106.73 132.107 107.548C132.964 108.366 133.88 108.931 134.892 109.281C135.905 109.632 136.957 109.788 138.047 109.729C139.138 109.69 140.228 109.515 141.3 109.184L142.682 112.612L145.642 111.404L144.24 107.976C145.311 107.412 146.227 106.769 147.006 106.048C147.707 105.367 148.272 104.646 148.661 103.867C148.7 103.809 148.72 103.75 148.759 103.672C149.167 102.815 149.382 101.92 149.401 100.985C149.401 99.9915 149.206 99.0177 148.797 98.005Z"
      fill="white"
    />
  </g>
  <defs>
    <clipPath id="clip0">
      <rect width="207" height="120" fill="white" />
    </clipPath>
  </defs>
</svg>
