<svg width="64" height="74" viewBox="0 0 64 74" fill="none" xmlns="http://www.w3.org/2000/svg">
<path d="M63.8296 18.1998C63.6875 15.968 62.3603 13.9904 60.3723 13.0302L34.6072 0.597176C32.9574 -0.199059 31.0426 -0.199059 29.392 0.597176L3.6277 13.0302C1.63888 13.9896 0.312484 15.9672 0.170426 18.1998C-2.24611 56.1571 21.7062 69.9865 29.558 73.4805C31.1152 74.1732 32.884 74.1732 34.4412 73.4805C42.2938 69.9873 66.2461 56.1571 63.8296 18.1998Z" fill="#F44336"/>
<path d="M57.599 19.6822C57.5705 19.1166 57.2393 18.6114 56.7351 18.3682L32.65 6.74553C32.2385 6.54706 31.7614 6.54706 31.3499 6.74553L7.26482 18.3682C6.76144 18.6114 6.42946 19.1166 6.40089 19.6822C5.68829 33.841 8.90699 45.6551 15.9744 54.8114C21.3626 61.7924 27.6656 65.5335 31.3592 67.279C31.766 67.4712 32.2347 67.4712 32.6416 67.279C36.3351 65.5335 42.6381 61.7924 48.0263 54.8114C55.0922 45.6551 58.3109 33.841 57.599 19.6822Z" fill="#FF7043"/>
<path d="M24.8786 34.8942H22.4783V25.1747C22.4783 21.3567 25.2909 18.1309 29.0207 17.6704L33.9286 17.0641C36.041 16.8028 38.1665 17.4759 39.7592 18.9099C41.352 20.3439 42.2661 22.4063 42.2661 24.5691V33.0546H39.8658V24.5683C39.8658 23.1037 39.2466 21.7065 38.168 20.7354C37.0887 19.7642 35.6488 19.3084 34.2182 19.4849L29.3102 20.0913C26.784 20.4035 24.8786 22.5883 24.8786 25.1747V34.8942Z" fill="white"/>
<path d="M21.7687 32.7118L42.8111 31.5272C43.6657 31.4794 44.3845 32.1705 44.3845 33.0397V49.9779C44.3845 50.815 43.7167 51.4927 42.8937 51.4927H22.357C21.5525 51.4927 20.8931 50.844 20.8669 50.0273L20.3612 34.2737C20.3342 33.4508 20.9595 32.7573 21.7687 32.7118Z" fill="white"/>
<path d="M35.8023 46.6408L34.5284 42.9201C34.3756 42.473 34.4798 41.9725 34.8072 41.6359C35.4595 40.9636 35.8487 40.027 35.8023 38.9978C35.7213 37.1833 34.2621 35.7116 32.4755 35.6418C30.4983 35.5649 28.8716 37.1707 28.8716 39.1625C28.8716 40.2678 29.3726 41.2531 30.1563 41.8987C30.5624 42.2337 30.7299 42.7844 30.5578 43.2864L29.4097 46.6408C29.1302 47.4567 29.7262 48.3086 30.5771 48.3086H34.6358C35.4858 48.3086 36.0818 47.4567 35.8023 46.6408Z" fill="#FF7043"/>
</svg>
