<svg width="320" height="140" viewBox="0 0 320 140" fill="none" xmlns="http://www.w3.org/2000/svg">
  <path
    d="M144.248 139.957C144.248 139.957 123.245 117.605 144.542 85.2496C163.576 56.3327 149.361 42.5208 168.907 28.4389C188.656 14.2007 205.466 22.8686 224.372 33.8812C243.279 44.8938 269.394 18.5346 297.594 32.5455C325.806 46.5564 321.754 67.9705 314.774 89.9957C308.881 108.582 326.791 122.01 317.024 140C317.037 139.986 143.66 139.29 144.248 139.957Z"
    fill="#F3F8FD"
  />
  <path d="M303.748 87H283.905V106.958H303.748V87Z" fill="#64B5F6" />
  <path d="M309.87 87H290.027V106.958H309.87V87Z" fill="#A9CBFF" />
  <path
    d="M300.157 100.305C299.357 100.305 298.714 100.966 298.714 101.771C298.714 102.575 299.371 103.222 300.171 103.222C300.971 103.222 301.614 102.562 301.614 101.757C301.607 100.952 300.957 100.305 300.157 100.305Z"
    fill="#EBF2F9"
  />
  <path
    d="M300.171 93.4255C300.971 93.4255 301.614 92.7651 301.614 91.9602C301.614 91.1553 300.957 90.5086 300.157 90.5086C299.357 90.5086 298.714 91.1691 298.714 91.974C298.714 92.7789 299.371 93.4255 300.171 93.4255Z"
    fill="#EBF2F9"
  />
  <path d="M306.343 95.4917L293.928 95.5435L293.94 98.4604L306.355 98.4086L306.343 95.4917Z" fill="#EBF2F9" />
  <path d="M274.125 139.994H306.979V106.952H274.125V139.994Z" fill="#64B5F6" />
  <path d="M296.854 106.958H264V140H296.854V106.958Z" fill="#A9CBFF" />
  <path
    d="M290.383 121.06H282.496V113.135H277.701V121.06H269.814V125.89H277.701V133.815H282.496V125.89H290.383V121.06Z"
    fill="#EBF2F9"
  />
  <path d="M296.854 106.957L306.984 111.917V106.957H296.854Z" fill="#2196F3" /> 
  <path
    d="M179.139 92.4612C179.139 92.4612 171.115 75.8257 156.727 76.9762C156.727 76.9762 153.932 77.2498 153.691 80.4354C153.449 83.621 158.86 82.4542 162.462 82.9268C166.078 83.3963 174.986 86.7803 179.139 92.4612Z"
    fill="#CDE0FB"
  />
  <path
    d="M180.287 95.2511C180.287 95.2511 166.883 82.5357 153.838 88.713C153.838 88.713 151.323 89.9539 152.233 93.0175C153.129 96.086 157.782 93.0724 161.314 92.2361C164.846 91.3999 174.386 91.4105 180.287 95.2511Z"
    fill="#DFEBFD"
  />
  <path
    d="M212.521 78.4795L207.638 136.333C207.638 136.333 207.125 139.836 209.744 139.843C214.047 139.857 231.168 139.843 231.168 139.843C231.168 139.843 227.926 139.114 227.967 137.471C228.015 135.535 233.672 77.9274 233.672 77.9274L212.521 78.4795Z"
    fill="#1976D2"
  />
  <path
    d="M211.419 59.7396C211.419 59.7396 215.044 42.8398 228.386 40.6974C228.386 40.6974 230.981 40.3193 231.904 43.1726C232.826 46.0259 227.651 46.1522 224.474 47.3743C221.311 48.596 213.943 53.6546 211.419 59.7396Z"
    fill="#CDE0FB"
  />
  <path
    d="M211.724 54.2239C211.724 54.2239 209.136 37.1466 220.873 30.4219C220.873 30.4219 223.176 29.1496 225.045 31.4791C226.915 33.8085 222.123 35.7711 219.585 38.0363C217.047 40.3016 211.933 47.6374 211.724 54.2239Z"
    fill="#DFEBFD"
  />
  <path
    d="M232.557 138.8C231.709 138.8 215.36 138.855 211.167 138.8C209.341 138.78 209.02 137.185 209.006 136.149C208.999 135.651 209.061 135.29 209.061 135.29L209.191 133.783L209.512 129.952L209.799 126.564L210.169 122.215L210.476 118.541L213.944 77.4297L235.094 76.8843C235.094 76.8843 232.707 100.995 231.025 118.541C230.833 120.497 230.655 122.372 230.491 124.124C230.436 124.683 230.388 125.228 230.334 125.76C230.176 127.423 230.033 128.943 229.91 130.293C229.841 131.002 229.786 131.663 229.732 132.263C229.52 134.628 229.39 136.142 229.39 136.428C229.39 136.598 229.403 136.748 229.431 136.898C229.78 138.739 232.242 138.8 232.557 138.8Z"
    fill="#64B5F6"
  />
  <path
    d="M306.599 51.7127C305.169 45.6329 294.938 47.1746 294.938 47.1746C294.938 47.1746 287.678 57.4693 285.664 57.6558C283.65 57.8423 290.152 47.6346 290.152 47.6346C286.273 47.1248 276.191 51.5635 276.191 51.5635C276.191 51.5635 276.402 63.8724 274.401 63.5491C272.399 63.2259 274.774 52.6452 274.774 52.6452C270.97 53.6523 267.302 57.9169 267.302 57.9169C262.665 64.9168 271.902 70.4993 271.902 70.4993C271.902 70.4993 271.89 74.7639 269.08 79.5631C269.08 79.5631 268.458 80.4459 267.8 81.9627L268.831 82C268.918 81.7265 269.03 81.4654 269.142 81.2167V81.2043C269.217 81.0426 269.329 80.8313 269.465 80.5578C269.801 79.961 270.025 79.5134 270.174 79.1901C271.181 77.3002 272.623 74.8385 273.543 74.3411C273.543 74.3411 273.431 74.1795 273.344 73.8687C273.406 74.0179 273.481 74.1795 273.543 74.3411C275.171 78.1581 283.936 79.0906 288.871 78.2452C293.807 77.4121 291.718 75.9575 289.157 73.6324C286.596 71.3074 281.052 71.7053 279.448 70.7728C277.844 69.8403 280.256 69.0446 283.513 69.4052C286.77 69.7657 288.287 73.0854 293.545 73.7568C298.804 74.4406 303.155 64.6681 303.155 64.6681C299.475 65.6752 293.011 63.4496 292.812 62.1815C292.601 60.9133 302.26 61.3733 303.789 61.05C305.293 60.7019 308.028 57.7801 306.599 51.7127Z"
    fill="#DFEBFD"
  />
  <path
    d="M262.708 47H161.151L173.047 94.6077L174.675 101.124L180.215 123.299H283.127L262.708 47Z"
    fill="#64B5F6"
  />
  <path d="M161.151 47L159.503 47.5453L178.026 124.956L180.215 123.299L161.151 47Z" fill="#64B5F6" />
  <path d="M178.026 124.956H280.301L283.127 123.299H180.215L178.026 124.956Z" fill="#1976D2" />
  <path d="M213.946 139.87H236.087V138.821H213.946V139.87Z" fill="#64B5F6" />
  <path
    opacity="0.5"
    d="M230.457 124.955L230.34 125.76L209.519 129.952L209.799 126.564L209.936 124.955H230.457Z"
    fill="#1976D2"
  />
  <path
    opacity="0.3"
    d="M232.557 138.8C231.709 138.8 215.36 138.855 211.167 138.8C209.341 138.78 209.019 137.185 209.006 136.148L229.732 132.263C229.52 134.628 229.39 136.142 229.39 136.428C229.39 136.598 229.403 136.748 229.431 136.898C229.78 138.739 232.242 138.8 232.557 138.8Z"
    fill="#1976D2"
  />
  <path d="M224.082 108.309L180.215 123.299L176.467 108.302L224.082 108.309Z" fill="#42A5F5" />
  <path opacity="0.5" d="M262.708 47H161.151L176.46 108.302L279.186 108.323L262.708 47Z" fill="#1976D2" />
  <path
    d="M234.397 116.074C234.103 114.567 232.646 113.354 231.134 113.354C229.622 113.354 228.637 114.574 228.931 116.074C229.225 117.58 230.682 118.793 232.194 118.793C233.706 118.8 234.691 117.58 234.397 116.074Z"
    fill="#2B478B"
  />
  <path
    d="M274.398 105.664H179.312L168.546 62.917L167.718 59.6381L167.013 56.8433L165.358 50.2857H259.076L260.889 56.8433L261.662 59.6381L262.571 62.917L274.398 105.664Z"
    fill="#E9F3FE"
  />
  <path d="M259.076 50.2857H165.358L167.013 56.8433H260.889L259.076 50.2857Z" fill="#CDE0FB" />
  <path d="M198.875 67.2455H208.356L209.587 71.9763H200.107L198.875 67.2455Z" fill="#FF7043" />
  <path d="M181.262 71.9763H190.742L191.912 76.4958H182.459L181.262 71.9763Z" fill="#FF7043" />
  <path d="M227.413 67.2455H236.894L238.118 71.9763H228.644L227.413 67.2455Z" fill="#FF7043" />
  <path d="M229.814 76.823H239.294L240.471 81.3425H231.018L229.814 76.823Z" fill="#FF7043" />
  <path d="M222.754 86.1823H241.764L242.947 90.9199H223.986L222.754 86.1823Z" fill="#FF7043" />
  <path d="M263.905 67.1092H169.49V67.3819H263.905V67.1092Z" fill="#AFCDFB" />
  <path d="M265.191 71.8401H170.844V72.1127H265.191V71.8401Z" fill="#AFCDFB" />
  <path d="M266.47 76.5776H171.781V76.8503H266.47V76.5776Z" fill="#AFCDFB" />
  <path d="M267.757 81.3152H173.177V81.5879H267.757V81.3152Z" fill="#AFCDFB" />
  <path d="M269.042 86.0459H174.38V86.3186H269.042V86.0459Z" fill="#AFCDFB" />
  <path d="M270.321 90.7835H175.509V91.0562H270.321V90.7835Z" fill="#AFCDFB" />
  <path d="M271.607 95.5211H176.678V95.7938H271.607V95.5211Z" fill="#AFCDFB" />
  <path d="M272.887 100.252H177.951V100.525H272.887V100.252Z" fill="#AFCDFB" />
  <path
    d="M169.852 52.426C169.401 52.426 169.12 52.7941 169.237 53.244C169.353 53.6939 169.811 54.062 170.263 54.062C170.714 54.062 170.995 53.6939 170.878 53.244C170.769 52.7941 170.311 52.426 169.852 52.426Z"
    fill="#E9F3FE"
  />
  <path
    d="M172.588 52.426C172.137 52.426 171.857 52.7941 171.973 53.244C172.089 53.6939 172.547 54.062 172.999 54.062C173.45 54.062 173.731 53.6939 173.614 53.244C173.505 52.7941 173.04 52.426 172.588 52.426Z"
    fill="#E9F3FE"
  />
  <path
    d="M176.556 53.2508C176.439 52.8009 175.981 52.4328 175.53 52.4328C175.078 52.4328 174.798 52.8009 174.914 53.2508C175.03 53.7007 175.488 54.0688 175.94 54.0688C176.398 54.0688 176.672 53.7007 176.556 53.2508Z"
    fill="#E9F3FE"
  />
  <path
    d="M265.602 105.698L265.869 105.63L254.774 62.917H262.572L261.662 59.6381H253.926L253.912 59.6041L253.782 59.6381H244.445L244.431 59.6041L244.301 59.6381H234.964L234.951 59.6041L234.821 59.6381H225.484L225.477 59.6041L225.34 59.6381H216.003L215.997 59.6041L215.86 59.6381H206.523L206.516 59.6041L206.379 59.6381H197.042L197.035 59.6041L196.899 59.6381H187.562L187.555 59.6041L187.425 59.6381H178.088L178.074 59.6041L177.944 59.6381H167.718L168.546 62.917H178.649L189.764 105.698L190.031 105.63L178.936 62.917H188.129L199.245 105.698L199.512 105.63L188.417 62.917H197.61L208.725 105.698L208.992 105.63L197.897 62.917H207.091L218.199 105.698L218.466 105.63L207.378 62.917H216.571L227.68 105.698L227.946 105.63L216.852 62.917H226.052L237.16 105.698L237.427 105.63L226.332 62.917H235.532L246.641 105.698L246.908 105.63L235.813 62.917H245.006L256.121 105.698L256.388 105.63L245.293 62.917H254.487L265.602 105.698Z"
    fill="#CDE0FB"
  />
  <path d="M173.964 101H157V118.125H173.964V101Z" fill="#2B478B" />
  <path d="M179.196 101H162.233V118.125H179.196V101Z" fill="#5C6BC0" />
  <path d="M176.187 108.305H165.571V110.805H176.187V108.305Z" fill="#EBF2F9" />
  <path d="M180.564 118.118H158.888V140H180.564V118.118Z" fill="#64B5F6" />
  <path d="M187.247 118.118H165.571V140H187.247V118.118Z" fill="#A9CBFF" />
  <path
    d="M182.603 132.674L178.861 129.021L182.48 125.251L180.209 123.027L176.59 126.797L172.855 123.152L170.653 125.444L174.388 129.097L170.769 132.867L173.047 135.09L176.665 131.32L180.4 134.973L182.603 132.674Z"
    fill="#EBF2F9"
  />
  <path d="M165.571 118.118L158.888 122.213V118.118H165.571Z" fill="#2196F3" />
</svg>
