<svg width="171" height="137" viewBox="0 0 171 137" fill="none"  xmlns="http://www.w3.org/2000/svg">
<path d="M8.54814 136.951C8.54814 136.951 -10.8651 111.218 8.81991 73.9681C26.4135 40.6772 13.2744 24.776 31.3407 8.56408C49.596 -7.82782 65.1336 2.15128 82.6091 14.8296C100.085 27.508 124.224 -2.83827 150.29 13.2919C176.367 29.422 172.621 54.0753 166.17 79.432C160.723 100.83 177.277 116.289 168.249 137C168.261 136.984 8.00462 136.182 8.54814 136.951Z" fill="#F3F8FD"/>
<path d="M141.152 35.105H104.317C103.368 35.105 102.602 34.3285 102.602 33.3902V20.2324C102.602 19.2833 103.378 18.5176 104.317 18.5176H141.163C142.112 18.5176 142.878 19.2941 142.878 20.2324V33.3902C142.878 34.3285 142.101 35.105 141.152 35.105Z" fill="#64B5F6"/>
<path d="M107.467 32.6029V41.7594L118.019 31.2116C118.019 31.2008 107.683 32.6029 107.467 32.6029Z" fill="#64B5F6"/>
<path d="M139.339 33.455H106.141C105.342 33.455 104.684 32.7971 104.684 31.999V21.613C104.684 20.8149 105.342 20.157 106.141 20.157H139.339C140.138 20.157 140.796 20.8149 140.796 21.613V31.999C140.796 32.8078 140.138 33.455 139.339 33.455Z" fill="white"/>
<path d="M124.342 23.4463H108.039C107.651 23.4463 107.327 23.1228 107.327 22.7345C107.327 22.3463 107.651 22.0227 108.039 22.0227H124.353C124.741 22.0227 125.065 22.3463 125.065 22.7345C125.065 23.1228 124.741 23.4463 124.342 23.4463Z" fill="#64B5F6"/>
<path d="M137.969 26.175H107.715C107.5 26.175 107.316 25.9916 107.316 25.7759V25.7651C107.316 25.5494 107.5 25.3661 107.715 25.3661H137.969C138.184 25.3661 138.368 25.5494 138.368 25.7651V25.7759C138.368 26.0024 138.184 26.175 137.969 26.175Z" fill="#64B5F6"/>
<path d="M137.969 27.7388H107.715C107.5 27.7388 107.316 27.5555 107.316 27.3398V27.329C107.316 27.1133 107.5 26.9299 107.715 26.9299H137.969C138.184 26.9299 138.368 27.1133 138.368 27.329V27.3398C138.368 27.5555 138.184 27.7388 137.969 27.7388Z" fill="#64B5F6"/>
<path d="M131.722 32.8833H130.729C130.524 32.8833 130.351 32.7108 130.351 32.5059V31.6862C130.351 31.4813 130.524 31.3087 130.729 31.3087H131.722C131.927 31.3087 132.099 31.4813 132.099 31.6862V32.5059C132.099 32.7108 131.927 32.8833 131.722 32.8833Z" fill="#64B5F6"/>
<path d="M134.894 32.8833H133.901C133.696 32.8833 133.524 32.7108 133.524 32.5059V31.6862C133.524 31.4813 133.696 31.3087 133.901 31.3087H134.894C135.099 31.3087 135.271 31.4813 135.271 31.6862V32.5059C135.271 32.7108 135.11 32.8833 134.894 32.8833Z" fill="#64B5F6"/>
<path d="M138.077 32.8833H137.084C136.879 32.8833 136.706 32.7108 136.706 32.5059V31.6862C136.706 31.4813 136.879 31.3087 137.084 31.3087H138.077C138.282 31.3087 138.454 31.4813 138.454 31.6862V32.5059C138.454 32.7108 138.282 32.8833 138.077 32.8833Z" fill="#64B5F6"/>
<path opacity="0.5" d="M112.592 81.5024C113.283 79.0219 113.79 76.455 114.092 73.8235L106.162 70.2536C106.205 69.4986 106.227 68.7437 106.227 67.9887C106.227 65.8749 106.065 63.8041 105.774 61.7765L113.326 57.4733C112.776 54.8957 112.031 52.3935 111.104 49.9777L102.429 50.5062C101.242 47.9177 99.7964 45.4588 98.124 43.1831L102.817 35.8708C101.145 33.8648 99.3216 31.9882 97.358 30.2626L89.9242 34.76C87.6908 33.0344 85.274 31.5245 82.7169 30.2626L83.4722 21.6022C81.077 20.61 78.5954 19.8011 76.0384 19.1756L71.5285 26.628C69.1548 26.2074 66.7056 25.9917 64.2133 25.9917C63.8249 25.9917 63.4365 26.0025 63.0589 26.0133L59.7034 18C57.0708 18.2373 54.4922 18.6687 51.9891 19.2942L51.4604 27.9654C48.7307 28.8282 46.1197 29.9714 43.6705 31.3519L36.9704 25.8192C34.7694 27.2428 32.6978 28.8282 30.7558 30.5646L34.327 38.4916C32.3418 40.5084 30.5508 42.7194 28.9971 45.1028L20.4844 43.3125C19.2004 45.5666 18.0999 47.9393 17.172 50.3983L24.0232 55.7477C23.214 58.4224 22.653 61.2049 22.3941 64.0738L14.0216 66.4465C14.0108 66.9642 14 67.4711 14 67.9887C14 70.1134 14.1295 72.2057 14.3884 74.2549L22.9335 75.8187C23.4622 78.6444 24.2822 81.3622 25.3503 83.9614L19.0494 89.9363C20.193 92.2983 21.5309 94.5415 23.0198 96.677L31.3168 94.0886C33.0862 96.3103 35.0715 98.3487 37.2401 100.171L34.4349 108.4C36.528 109.943 38.7506 111.334 41.0703 112.542L47.2202 106.405C49.7881 107.538 52.4854 108.433 55.3014 109.037L56.6392 117.622C59.11 117.999 61.6455 118.193 64.2241 118.193C64.2996 118.193 64.3752 118.193 64.4399 118.193L67.0293 109.899C69.9101 109.705 72.7153 109.231 75.4018 108.487L80.5807 115.465C83.0622 114.613 85.4574 113.566 87.7555 112.348L86.1803 103.795C88.6079 102.307 90.8628 100.581 92.9236 98.6507L100.757 102.425C102.548 100.527 104.188 98.4889 105.666 96.3319L100.314 89.4941C101.76 87.0783 102.968 84.5007 103.907 81.8044L112.592 81.5024ZM64.2133 88.6529C52.7983 88.6529 43.5518 79.4101 43.5518 67.9995C43.5518 56.5889 52.809 47.3354 64.2133 47.3354C75.6176 47.3354 84.8748 56.5782 84.8748 67.9887C84.8748 79.3993 75.6284 88.6529 64.2133 88.6529Z" fill="#9EC8FF"/>
<path d="M34.9527 90.4972C34.7908 90.4972 34.629 90.4217 34.5211 90.2815C33.3451 88.6961 32.2877 87.0136 31.3814 85.2772C31.2412 85.0184 31.3491 84.684 31.608 84.5546C31.867 84.4144 32.2014 84.5223 32.3309 84.7811C33.2156 86.4744 34.2406 88.1137 35.3842 89.6452C35.5569 89.8824 35.5137 90.2168 35.2764 90.4001C35.1793 90.4648 35.0606 90.4972 34.9527 90.4972Z" fill="white"/>
<path d="M59.7248 105.078C59.7033 105.078 59.6817 105.078 59.6493 105.078C53.1758 104.226 47.0151 101.681 41.8147 97.7014C41.5773 97.5181 41.5341 97.1837 41.7175 96.9465C41.901 96.7092 42.2354 96.6661 42.4728 96.8494C47.5222 100.71 53.5102 103.191 59.7896 104.021C60.0809 104.065 60.2967 104.334 60.2535 104.625C60.2319 104.884 59.9946 105.078 59.7248 105.078Z" fill="white"/>
<path opacity="0.5" d="M154.213 111.152C154.321 110.171 154.385 109.168 154.385 108.154C154.385 107.614 154.364 107.086 154.331 106.558L149.379 104.951C149.077 102.858 148.473 100.874 147.62 99.0188L150.9 94.9744C150.145 93.6371 149.271 92.3752 148.3 91.1889L143.348 92.8066C141.902 91.3291 140.251 90.0564 138.439 89.0426L138.719 83.8442C137.338 83.2187 135.892 82.701 134.393 82.3128L131.35 86.5405C130.163 86.3356 128.933 86.2385 127.682 86.2385C126.83 86.2385 125.988 86.2924 125.168 86.3787L122.341 82C120.82 82.3128 119.353 82.7442 117.939 83.305L117.95 88.5142C116.083 89.4417 114.368 90.628 112.857 92.0193L108.002 90.1427C106.966 91.2751 106.028 92.4831 105.208 93.7773L108.272 97.9834C107.323 99.7953 106.621 101.747 106.2 103.818L101.173 105.155C101.065 106.137 101 107.14 101 108.154C101 108.693 101.022 109.221 101.054 109.75L106.006 111.357C106.308 113.449 106.913 115.434 107.765 117.289L104.485 121.333C105.24 122.67 106.114 123.932 107.085 125.119L112.037 123.501C113.483 124.978 115.134 126.251 116.936 127.265L116.655 132.463C118.036 133.089 119.482 133.606 120.982 133.995L124.035 129.778C125.222 129.983 126.452 130.08 127.703 130.08C128.556 130.08 129.397 130.026 130.217 129.939L133.044 134.318C134.565 134.005 136.033 133.574 137.446 133.013L137.435 127.804C139.302 126.877 141.017 125.69 142.528 124.299L147.383 126.176C148.419 125.043 149.357 123.835 150.177 122.541L147.113 118.335C148.063 116.523 148.764 114.571 149.185 112.5L154.213 111.152ZM127.693 118.615C121.91 118.615 117.227 113.924 117.227 108.154C117.227 102.373 121.92 97.6814 127.693 97.6814C133.476 97.6814 138.158 102.373 138.158 108.154C138.158 113.935 133.476 118.615 127.693 118.615Z" fill="#9EC8FF"/>
<path d="M141.967 120.233C141.848 120.233 141.719 120.19 141.621 120.103C141.395 119.909 141.363 119.575 141.557 119.349C144.168 116.21 145.603 112.23 145.603 108.143C145.603 106.191 145.279 104.26 144.653 102.427C144.556 102.146 144.707 101.834 144.988 101.736C145.268 101.639 145.581 101.79 145.678 102.071C146.347 104.012 146.692 106.061 146.692 108.132C146.692 112.468 145.171 116.695 142.398 120.028C142.28 120.168 142.129 120.233 141.967 120.233Z" fill="white"/>
<path d="M140.456 95.5352C140.327 95.5352 140.187 95.4813 140.09 95.3842C138.331 93.7341 136.303 92.483 134.048 91.6634C133.767 91.5663 133.627 91.2535 133.724 90.9731C133.821 90.6927 134.134 90.5525 134.414 90.6496C136.81 91.5124 138.957 92.8497 140.823 94.5969C141.039 94.8018 141.05 95.1469 140.845 95.3626C140.737 95.4705 140.597 95.5352 140.456 95.5352Z" fill="white"/>
<path d="M123.625 91.1674C123.388 91.1674 123.161 91.0056 123.107 90.7576C123.032 90.4664 123.204 90.1752 123.495 90.0997C124.984 89.7222 126.516 89.5388 128.07 89.5388C128.372 89.5388 128.61 89.7761 128.61 90.0781C128.61 90.3801 128.372 90.6174 128.07 90.6174C126.614 90.6174 125.168 90.8007 123.765 91.1459C123.711 91.1674 123.668 91.1674 123.625 91.1674Z" fill="white"/>
<path d="M163 43.0537H64.9146V97.4535H163V43.0537Z" fill="#64B5F6"/>
<path d="M160.195 44.2401H65.9935V93.7866H160.195V44.2401Z" fill="white"/>
<g opacity="0.5">
<g opacity="0.5">
<path opacity="0.5" d="M156.818 89.8931H67.4826C67.3639 89.8931 67.2668 89.7961 67.2668 89.6774V44.941C67.2668 44.8224 67.3639 44.7253 67.4826 44.7253H156.818C156.937 44.7253 157.034 44.8224 157.034 44.941V89.6774C157.034 89.7961 156.937 89.8931 156.818 89.8931ZM67.6984 89.4617H156.602V45.1567H67.6984V89.4617Z" fill="#9EC8FF"/>
</g>
<g opacity="0.5">
<path opacity="0.5" d="M156.818 82.4407H67.4826C67.3639 82.4407 67.2668 82.3436 67.2668 82.225C67.2668 82.1063 67.3639 82.0093 67.4826 82.0093H156.818C156.937 82.0093 157.034 82.1063 157.034 82.225C157.034 82.3436 156.937 82.4407 156.818 82.4407Z" fill="#9EC8FF"/>
</g>
<g opacity="0.5">
<path opacity="0.5" d="M156.818 74.9774H67.4826C67.3639 74.9774 67.2668 74.8804 67.2668 74.7617C67.2668 74.6431 67.3639 74.546 67.4826 74.546H156.818C156.937 74.546 157.034 74.6431 157.034 74.7617C157.034 74.8804 156.937 74.9774 156.818 74.9774Z" fill="#9EC8FF"/>
</g>
<g opacity="0.5">
<path opacity="0.5" d="M156.818 67.525H67.4826C67.3639 67.525 67.2668 67.428 67.2668 67.3093C67.2668 67.1907 67.3639 67.0936 67.4826 67.0936H156.818C156.937 67.0936 157.034 67.1907 157.034 67.3093C157.034 67.428 156.937 67.525 156.818 67.525Z" fill="#9EC8FF"/>
</g>
<g opacity="0.5">
<path opacity="0.5" d="M156.818 60.0724H67.4826C67.3639 60.0724 67.2668 59.9753 67.2668 59.8567C67.2668 59.7381 67.3639 59.641 67.4826 59.641H156.818C156.937 59.641 157.034 59.7381 157.034 59.8567C157.034 59.9753 156.937 60.0724 156.818 60.0724Z" fill="#9EC8FF"/>
</g>
<g opacity="0.5">
<path opacity="0.5" d="M156.818 52.6093H67.4826C67.3639 52.6093 67.2668 52.5122 67.2668 52.3936C67.2668 52.2749 67.3639 52.1779 67.4826 52.1779H156.818C156.937 52.1779 157.034 52.2749 157.034 52.3936C157.034 52.5122 156.937 52.6093 156.818 52.6093Z" fill="#9EC8FF"/>
</g>
<g opacity="0.5">
<path opacity="0.5" d="M141.929 89.8931C141.81 89.8931 141.713 89.7961 141.713 89.6774V44.941C141.713 44.8224 141.81 44.7253 141.929 44.7253C142.047 44.7253 142.144 44.8224 142.144 44.941V89.6774C142.144 89.7961 142.047 89.8931 141.929 89.8931Z" fill="#9EC8FF"/>
</g>
<g opacity="0.5">
<path opacity="0.5" d="M127.039 89.8931C126.921 89.8931 126.824 89.7961 126.824 89.6774V44.941C126.824 44.8224 126.921 44.7253 127.039 44.7253C127.158 44.7253 127.255 44.8224 127.255 44.941V89.6774C127.255 89.7961 127.158 89.8931 127.039 89.8931Z" fill="#9EC8FF"/>
</g>
<g opacity="0.5">
<path opacity="0.5" d="M112.15 89.8931C112.032 89.8931 111.934 89.7961 111.934 89.6774V44.941C111.934 44.8224 112.032 44.7253 112.15 44.7253C112.269 44.7253 112.366 44.8224 112.366 44.941V89.6774C112.366 89.7961 112.269 89.8931 112.15 89.8931Z" fill="#9EC8FF"/>
</g>
<g opacity="0.5">
<path opacity="0.5" d="M97.261 89.8931C97.1423 89.8931 97.0452 89.7961 97.0452 89.6774V44.941C97.0452 44.8224 97.1423 44.7253 97.261 44.7253C97.3797 44.7253 97.4769 44.8224 97.4769 44.941V89.6774C97.4769 89.7961 97.3797 89.8931 97.261 89.8931Z" fill="#9EC8FF"/>
</g>
<g opacity="0.5">
<path opacity="0.5" d="M82.3718 89.8931C82.2532 89.8931 82.1561 89.7961 82.1561 89.6774V44.941C82.1561 44.8224 82.2532 44.7253 82.3718 44.7253C82.4905 44.7253 82.5876 44.8224 82.5876 44.941V89.6774C82.5876 89.7961 82.4905 89.8931 82.3718 89.8931Z" fill="#9EC8FF"/>
</g>
</g>
<path d="M67.4823 90.109C67.3205 90.109 67.1695 90.0228 67.0939 89.8718C66.986 89.6561 67.0724 89.3972 67.2881 89.2894L82.1234 81.8585L89.773 74.503L96.8724 59.6628C96.8939 59.6089 96.9371 59.5657 96.9695 59.5226L105.04 52.3289C105.137 52.2427 105.277 52.1995 105.417 52.2319C105.547 52.2642 105.666 52.3505 105.72 52.4692L112.528 67.1045L120.62 81.4702L126.716 74.4707C126.791 74.3844 126.91 74.3305 127.028 74.3197C127.147 74.3089 127.266 74.3628 127.352 74.4491L134.279 81.4055L141.518 59.6951C141.54 59.6304 141.572 59.5765 141.626 59.5226L156.516 44.6068C156.688 44.4343 156.958 44.4343 157.131 44.6068C157.303 44.7794 157.303 45.049 157.131 45.2216L142.317 60.0618L134.883 82.333C134.84 82.4732 134.721 82.5811 134.57 82.6134C134.43 82.6458 134.268 82.6026 134.171 82.4948L127.072 75.3659L120.879 82.4732C120.781 82.5811 120.652 82.635 120.512 82.6242C120.371 82.6134 120.253 82.5271 120.177 82.4085L111.783 67.4928C111.772 67.482 111.772 67.4712 111.772 67.4604L105.202 53.3427L97.6168 60.1158L90.5175 74.956C90.4959 74.9992 90.4635 75.0423 90.4312 75.0854L82.6737 82.5379C82.6413 82.5703 82.6089 82.5918 82.5658 82.6134L67.6766 90.0659C67.6118 90.0983 67.5471 90.109 67.4823 90.109Z" fill="#FF7043"/>
<path d="M67.4825 90.1089C67.3746 90.1089 67.2667 90.0658 67.1804 89.9903C67.0078 89.8285 67.0078 89.5481 67.1696 89.3756L89.0071 67.0074C89.169 66.8348 89.4387 66.8348 89.6113 66.9966L97.2501 74.1686L111.848 59.5549C112.01 59.3931 112.28 59.3823 112.452 59.5441L119.886 66.7054L126.726 59.5657C126.802 59.4794 126.921 59.4363 127.029 59.4363C127.136 59.4363 127.255 59.4794 127.341 59.5657L141.81 74.05L156.44 44.747C156.548 44.5313 156.807 44.4451 157.023 44.5529C157.239 44.6608 157.325 44.9196 157.217 45.1353L142.328 74.9667C142.263 75.0962 142.144 75.1824 142.015 75.204C141.875 75.2256 141.734 75.1824 141.637 75.0854L127.061 60.4824L120.21 67.6113C120.134 67.6976 120.026 67.7408 119.908 67.7408C119.8 67.7408 119.681 67.6976 119.595 67.6221L112.15 60.4608L97.563 75.0746C97.4012 75.2364 97.1315 75.2472 96.9588 75.0854L89.32 67.9133L67.7954 89.9795C67.7091 90.0658 67.5904 90.1089 67.4825 90.1089Z" fill="#42A5F5"/>
<path d="M68.1947 70.6851H41.5452V22.5406C41.5452 21.9582 42.0199 21.4729 42.6133 21.4729H74.1719C74.7546 21.4729 75.2401 21.9474 75.2401 22.5406V63.6424C75.2401 67.5358 72.0788 70.6851 68.1947 70.6851Z" fill="#64B5F6"/>
<path d="M67.4071 69.3262H41.9228V23.3171C41.9228 22.7563 42.3759 22.3033 42.937 22.3033H73.093C73.6541 22.3033 74.1072 22.7563 74.1072 23.3171V62.6287C74.0964 66.3279 71.1078 69.3262 67.4071 69.3262Z" fill="white"/>
<path d="M60.858 59.6737V58.8217C60.858 58.153 60.3941 57.6138 59.8115 57.6138H27.5407C26.9581 57.6138 26.4941 58.153 26.4941 58.8217V59.6737C26.4941 65.681 30.702 70.5558 35.9024 70.5558H68.8745C63.6848 70.5558 60.7933 66.231 60.858 59.6737Z" fill="#64B5F6"/>
<path d="M60.0705 60.5257V59.8354C60.0705 59.2962 59.6281 58.854 59.0887 58.854H28.8679C28.3284 58.854 27.886 59.2962 27.886 59.8354V60.5257C27.886 65.3897 31.8241 69.3263 36.6901 69.3263H68.8637C64.0086 69.3263 60.0705 66.9751 60.0705 60.5257Z" fill="white"/>
<path d="M70.7192 41.9214H47.738C47.0152 41.9214 46.4218 41.3282 46.4218 40.6056V28.1273C46.4218 27.4047 47.0152 26.8115 47.738 26.8115H70.7192C71.4421 26.8115 72.0355 27.4047 72.0355 28.1273V40.6056C72.0463 41.3282 71.4529 41.9214 70.7192 41.9214ZM47.738 27.2429C47.2525 27.2429 46.8533 27.642 46.8533 28.1273V40.6056C46.8533 41.0909 47.2525 41.49 47.738 41.49H70.7192C71.2047 41.49 71.6039 41.0909 71.6039 40.6056V28.1273C71.6039 27.642 71.2047 27.2429 70.7192 27.2429H47.738Z" fill="#64B5F6"/>
<path d="M63.0806 47.9826H37.8229C37.4668 47.9826 37.1755 47.6914 37.1755 47.3355C37.1755 46.9796 37.4668 46.6884 37.8229 46.6884H63.0914C63.4474 46.6884 63.7387 46.9796 63.7387 47.3355C63.7387 47.6914 63.4474 47.9826 63.0806 47.9826Z" fill="#64B5F6"/>
<path d="M63.0806 50.366H37.8229C37.4668 50.366 37.1755 50.0748 37.1755 49.7189C37.1755 49.363 37.4668 49.0718 37.8229 49.0718H63.0914C63.4474 49.0718 63.7387 49.363 63.7387 49.7189C63.7387 50.0748 63.4474 50.366 63.0806 50.366Z" fill="#64B5F6"/>
<path d="M63.0806 52.6633H37.8229C37.4668 52.6633 37.1755 52.3722 37.1755 52.0162C37.1755 51.6603 37.4668 51.3691 37.8229 51.3691H63.0914C63.4474 51.3691 63.7387 51.6603 63.7387 52.0162C63.7387 52.3722 63.4474 52.6633 63.0806 52.6633Z" fill="#64B5F6"/>
<path d="M64.4508 30.1333H63.6093C63.4258 30.1333 63.2856 29.993 63.2856 29.8097V29.1195C63.2856 28.9361 63.4258 28.7959 63.6093 28.7959H64.4508C64.6342 28.7959 64.7745 28.9361 64.7745 29.1195V29.8097C64.7745 29.993 64.6342 30.1333 64.4508 30.1333Z" fill="#64B5F6"/>
<path d="M67.1588 30.1333H66.3173C66.1339 30.1333 65.9936 29.993 65.9936 29.8097V29.1195C65.9936 28.9361 66.1339 28.7959 66.3173 28.7959H67.1588C67.3423 28.7959 67.4825 28.9361 67.4825 29.1195V29.8097C67.4825 29.993 67.3423 30.1333 67.1588 30.1333Z" fill="#64B5F6"/>
<path d="M69.8669 30.1333H69.0253C68.8419 30.1333 68.7017 29.993 68.7017 29.8097V29.1195C68.7017 28.9361 68.8419 28.7959 69.0253 28.7959H69.8669C70.0503 28.7959 70.1906 28.9361 70.1906 29.1195V29.8097C70.1906 29.993 70.0503 30.1333 69.8669 30.1333Z" fill="#64B5F6"/>
<path d="M52.3345 34.3611H48.9359V39.9801H52.3345V34.3611Z" fill="#64B5F6"/>
<path d="M61.7105 34.8356H58.3118V39.98H61.7105V34.8356Z" fill="#64B5F6"/>
<path d="M67.1372 32.5385H63.7386V39.9801H67.1372V32.5385Z" fill="#64B5F6"/>
<path d="M56.9306 36.5828H53.532V39.9801H56.9306V36.5828Z" fill="#64B5F6"/>
<path d="M37.6762 74.6538C39.9388 72.3921 39.9388 68.7251 37.6762 66.4634C35.4136 64.2016 31.7452 64.2016 29.4826 66.4634C27.22 68.7251 27.22 72.3921 29.4826 74.6538C31.7452 76.9155 35.4136 76.9155 37.6762 74.6538Z" fill="#42A5F5"/>
<path d="M33.0103 72.5832H32.9996C32.9132 72.5832 32.8269 72.54 32.773 72.4753L31.1977 70.685C31.0791 70.5556 31.0899 70.3507 31.2301 70.232C31.3596 70.1134 31.5646 70.1242 31.6833 70.2644L33.0319 71.7959L36.15 68.7437C36.2795 68.6143 36.4845 68.6251 36.6032 68.7437C36.7326 68.8731 36.7219 69.078 36.6032 69.1967L33.2369 72.4861C33.1722 72.5508 33.0967 72.5832 33.0103 72.5832Z" fill="white"/>
</svg>
