<svg width="190" height="131" viewBox="0 0 190 131" fill="none" xmlns="http://www.w3.org/2000/svg">
<path d="M19.5481 130.962C19.5481 130.962 0.134908 111.24 19.8199 82.6909C37.4135 57.1759 24.2744 44.9889 42.3407 32.5637C60.596 20.0006 76.1336 27.6488 93.6091 37.3658C111.085 47.0828 135.224 23.8247 161.29 36.1872C187.367 48.5497 183.621 67.4446 177.17 86.8786C171.723 103.278 188.277 115.127 179.249 131C179.261 130.987 19.0046 130.373 19.5481 130.962Z" fill="#F3F8FD"/>
<path opacity="0.5" d="M98.5925 70.5024C99.283 68.0219 99.7901 65.455 100.092 62.8235L92.1621 59.2536C92.2052 58.4986 92.2268 57.7437 92.2268 56.9887C92.2268 54.8749 92.0649 52.8041 91.7736 50.7765L99.3261 46.4733C98.7759 43.8957 98.0314 41.3935 97.1035 38.9777L88.429 39.5062C87.2421 36.9177 85.7964 34.4588 84.124 32.1831L88.8174 24.8708C87.145 22.8648 85.3216 20.9882 83.358 19.2626L75.9242 23.76C73.6908 22.0344 71.274 20.5245 68.7169 19.2626L69.4722 10.6022C67.077 9.60998 64.5954 8.8011 62.0384 8.17557L57.5285 15.628C55.1548 15.2074 52.7056 14.9917 50.2133 14.9917C49.8249 14.9917 49.4365 15.0025 49.0589 15.0133L45.7034 7C43.0708 7.23727 40.4922 7.66867 37.9891 8.29421L37.4604 16.9654C34.7307 17.8282 32.1197 18.9714 29.6705 20.3519L22.9704 14.8192C20.7694 16.2428 18.6978 17.8282 16.7558 19.5646L20.327 27.4916C18.3418 29.5084 16.5508 31.7194 14.9971 34.1028L6.48436 32.3125C5.20043 34.5666 4.09993 36.9393 3.17205 39.3983L10.0232 44.7477C9.21405 47.4224 8.653 50.2049 8.39406 53.0738L0.0215786 55.4465C0.0107893 55.9642 0 56.4711 0 56.9887C0 59.1134 0.129471 61.2057 0.388414 63.2549L8.93353 64.8187C9.4622 67.6444 10.2822 70.3622 11.3503 72.9614L5.04938 78.9363C6.19305 81.2983 7.53092 83.5415 9.01984 85.677L17.3168 83.0886C19.0862 85.3103 21.0715 87.3487 23.2401 89.1714L20.4349 97.4004C22.528 98.9426 24.7506 100.334 27.0703 101.542L33.2202 95.4051C35.7881 96.5375 38.4854 97.4327 41.3014 98.0367L42.6392 106.622C45.11 106.999 47.6455 107.193 50.2241 107.193C50.2996 107.193 50.3752 107.193 50.4399 107.193L53.0293 98.8995C55.9101 98.7053 58.7153 98.2308 61.4018 97.4866L66.5807 104.465C69.0622 103.613 71.4574 102.566 73.7555 101.348L72.1803 92.7951C74.6079 91.3068 76.8628 89.5812 78.9236 87.6507L86.7566 91.4254C88.5476 89.5273 90.1876 87.4889 91.6657 85.3319L86.3143 78.4941C87.76 76.0783 88.9684 73.5007 89.9071 70.8044L98.5925 70.5024ZM50.2133 77.6529C38.7983 77.6529 29.5518 68.4101 29.5518 56.9995C29.5518 45.5889 38.809 36.3354 50.2133 36.3354C61.6176 36.3354 70.8748 45.5782 70.8748 56.9887C70.8748 68.3993 61.6284 77.6529 50.2133 77.6529Z" fill="#9EC8FF"/>
<path d="M20.9527 79.4972C20.7908 79.4972 20.629 79.4217 20.5211 79.2815C19.3451 77.6961 18.2877 76.0136 17.3814 74.2772C17.2412 74.0184 17.3491 73.684 17.608 73.5546C17.867 73.4144 18.2014 73.5223 18.3309 73.7811C19.2156 75.4744 20.2406 77.1137 21.3842 78.6452C21.5569 78.8824 21.5137 79.2168 21.2764 79.4001C21.1793 79.4648 21.0606 79.4972 20.9527 79.4972Z" fill="#A9CBFF"/>
<path d="M45.7249 94.0784C45.7033 94.0784 45.6818 94.0784 45.6494 94.0784C39.1758 93.2264 33.0151 90.6811 27.8147 86.7014C27.5773 86.5181 27.5342 86.1837 27.7176 85.9465C27.901 85.7092 28.2355 85.6661 28.4729 85.8494C33.5222 89.7105 39.5103 92.191 45.7896 93.0215C46.081 93.0646 46.2967 93.3342 46.2536 93.6254C46.232 93.8843 45.9946 94.0784 45.7249 94.0784Z" fill="#A9CBFF"/>
<path opacity="0.5" d="M189.213 105.152C189.321 104.171 189.385 103.168 189.385 102.154C189.385 101.614 189.364 101.086 189.331 100.558L184.379 98.9506C184.077 96.8583 183.473 94.8738 182.62 93.0188L185.9 88.9744C185.145 87.6371 184.271 86.3752 183.3 85.1889L178.348 86.8066C176.902 85.3291 175.251 84.0564 173.439 83.0426L173.719 77.8442C172.338 77.2187 170.892 76.701 169.393 76.3128L166.35 80.5405C165.163 80.3356 163.933 80.2385 162.682 80.2385C161.83 80.2385 160.988 80.2924 160.168 80.3787L157.341 76C155.82 76.3128 154.353 76.7442 152.939 77.305L152.95 82.5142C151.083 83.4417 149.368 84.628 147.857 86.0193L143.002 84.1427C141.966 85.2751 141.028 86.4831 140.208 87.7773L143.272 91.9834C142.323 93.7953 141.621 95.7474 141.2 97.8181L136.173 99.1555C136.065 100.137 136 101.14 136 102.154C136 102.693 136.022 103.221 136.054 103.75L141.006 105.357C141.308 107.449 141.913 109.434 142.765 111.289L139.485 115.333C140.24 116.67 141.114 117.932 142.085 119.119L147.037 117.501C148.483 118.978 150.134 120.251 151.936 121.265L151.655 126.463C153.036 127.089 154.482 127.606 155.982 127.995L159.035 123.778C160.222 123.983 161.452 124.08 162.703 124.08C163.556 124.08 164.397 124.026 165.217 123.939L168.044 128.318C169.565 128.005 171.033 127.574 172.446 127.013L172.435 121.804C174.302 120.877 176.017 119.69 177.528 118.299L182.383 120.176C183.419 119.043 184.357 117.835 185.177 116.541L182.113 112.335C183.063 110.523 183.764 108.571 184.185 106.5L189.213 105.152ZM162.693 112.615C156.91 112.615 152.227 107.924 152.227 102.154C152.227 96.3729 156.92 91.6814 162.693 91.6814C168.476 91.6814 173.158 96.3729 173.158 102.154C173.158 107.935 168.476 112.615 162.693 112.615Z" fill="#9EC8FF"/>
<path d="M176.967 114.233C176.848 114.233 176.719 114.19 176.621 114.103C176.395 113.909 176.363 113.575 176.557 113.349C179.168 110.21 180.603 106.23 180.603 102.143C180.603 100.191 180.279 98.2602 179.653 96.4267C179.556 96.1463 179.707 95.8335 179.988 95.7365C180.268 95.6394 180.581 95.7904 180.678 96.0708C181.347 98.0121 181.692 100.061 181.692 102.132C181.692 106.468 180.171 110.695 177.398 114.028C177.28 114.168 177.129 114.233 176.967 114.233Z" fill="#A9CBFF"/>
<path d="M175.456 89.5352C175.327 89.5352 175.187 89.4813 175.089 89.3842C173.331 87.7341 171.302 86.483 169.047 85.6634C168.767 85.5663 168.627 85.2535 168.724 84.9731C168.821 84.6927 169.134 84.5525 169.414 84.6496C171.81 85.5124 173.957 86.8497 175.823 88.5969C176.039 88.8018 176.05 89.1469 175.845 89.3626C175.737 89.4705 175.597 89.5352 175.456 89.5352Z" fill="#A9CBFF"/>
<path d="M158.625 85.1674C158.388 85.1674 158.161 85.0056 158.107 84.7576C158.032 84.4664 158.204 84.1752 158.495 84.0997C159.984 83.7222 161.516 83.5388 163.07 83.5388C163.372 83.5388 163.61 83.7761 163.61 84.0781C163.61 84.3801 163.372 84.6174 163.07 84.6174C161.614 84.6174 160.168 84.8007 158.765 85.1459C158.711 85.1674 158.668 85.1674 158.625 85.1674Z" fill="#A9CBFF"/>
<path d="M161.632 0H102.831C98.4125 0 94.8308 3.58172 94.8308 8V104.841C94.8308 109.259 98.4125 112.841 102.831 112.841H161.632C166.05 112.841 169.632 109.259 169.632 104.841V8C169.632 3.58172 166.05 0 161.632 0Z" fill="#A9CAFF"/>
<path d="M154.287 6.31189H110.059C105.641 6.31189 102.059 9.89361 102.059 14.3119V65.4557C102.059 69.874 105.641 73.4557 110.059 73.4557H154.287C158.705 73.4557 162.287 69.874 162.287 65.4557V14.3119C162.287 9.89361 158.705 6.31189 154.287 6.31189Z" fill="white"/>
<path d="M103.338 94.9118C103.338 88.9322 108.183 84.0762 114.171 84.0762C120.149 84.0762 125.003 88.9224 125.003 94.9118C125.003 100.891 120.158 105.747 114.171 105.747C108.193 105.747 103.338 100.901 103.338 94.9118Z" fill="#E9F3FF"/>
<path d="M123.323 94.9122C123.323 89.851 119.221 85.7571 114.171 85.7571C109.111 85.7571 105.019 89.8607 105.019 94.9122C105.019 99.9733 109.121 104.067 114.171 104.067C115.534 104.067 116.826 103.768 117.986 103.235C119.003 102.767 119.169 101.47 118.49 100.579C117.251 98.9538 118.927 96.7261 120.836 97.4543C121.881 97.8528 123.077 97.3304 123.233 96.223C123.293 95.7952 123.323 95.3573 123.323 94.9122Z" fill="#64B5F6"/>
<path d="M140.241 94.9118C140.241 88.9322 145.086 84.0762 151.073 84.0762C157.051 84.0762 161.906 88.9224 161.906 94.9118C161.906 100.891 157.061 105.747 151.073 105.747C145.096 105.747 140.241 100.901 140.241 94.9118Z" fill="#E9F3FF"/>
<path d="M151.073 85.7571C146.014 85.7571 141.921 89.8607 141.921 94.9122C141.921 95.433 141.965 95.9437 142.048 96.4409C142.56 99.4793 146.333 99.5828 148.528 97.4202C150.078 95.8923 152.378 95.4098 154.412 96.1856L156.513 96.9867C158.236 97.6438 160.226 96.756 160.226 94.9122C160.235 89.8607 156.133 85.7571 151.073 85.7571Z" fill="#FF7043"/>
<path d="M149.735 90.261H145.838C145.682 90.261 145.555 90.388 145.555 90.5443C145.555 90.7007 145.682 90.8179 145.838 90.8179H149.735C149.892 90.8179 150.019 90.6909 150.019 90.5443C150.019 90.388 149.892 90.261 149.735 90.261Z" fill="white"/>
<path d="M149.735 91.1506H145.838C145.682 91.1506 145.555 91.2776 145.555 91.434C145.555 91.5903 145.682 91.7075 145.838 91.7075H149.735C149.892 91.7075 150.019 91.5805 150.019 91.434C150.019 91.2679 149.892 91.1506 149.735 91.1506Z" fill="white"/>
<path d="M147.45 92.0297H145.838C145.682 92.0297 145.555 92.1567 145.555 92.3032C145.555 92.4596 145.682 92.5866 145.838 92.5866H147.45C147.606 92.5866 147.723 92.4596 147.723 92.3032C147.733 92.1567 147.606 92.0297 147.45 92.0297Z" fill="white"/>
<path d="M112.755 90.261H108.857C108.701 90.261 108.584 90.388 108.584 90.5443C108.584 90.7007 108.711 90.8179 108.857 90.8179H112.755C112.911 90.8179 113.038 90.6909 113.038 90.5443C113.038 90.388 112.911 90.261 112.755 90.261Z" fill="white"/>
<path d="M112.755 91.1506H108.857C108.701 91.1506 108.584 91.2776 108.584 91.434C108.584 91.5903 108.711 91.7075 108.857 91.7075H112.755C112.911 91.7075 113.038 91.5805 113.038 91.434C113.038 91.2679 112.911 91.1506 112.755 91.1506Z" fill="white"/>
<path d="M110.469 92.0297H108.857C108.701 92.0297 108.584 92.1567 108.584 92.3032C108.584 92.4596 108.711 92.5866 108.857 92.5866H110.469C110.625 92.5866 110.752 92.4596 110.752 92.3032C110.752 92.1567 110.625 92.0297 110.469 92.0297Z" fill="white"/>
<path d="M110.987 68.1257V32.0904C110.987 31.1059 110.188 30.3079 109.204 30.3079C108.219 30.3079 107.421 31.1059 107.421 32.0904V68.1257C107.421 69.1102 108.219 69.9082 109.204 69.9082C110.188 69.9082 110.987 69.1102 110.987 68.1257Z" fill="#64B5F6"/>
<path d="M121.688 68.126V21.0499C121.688 20.0654 120.89 19.2673 119.905 19.2673C118.921 19.2673 118.123 20.0654 118.123 21.0499V68.126C118.123 69.1105 118.921 69.9085 119.905 69.9085C120.89 69.9085 121.688 69.1105 121.688 68.126Z" fill="#64B5F6"/>
<path d="M132.92 68.126V41.666C132.92 40.6815 132.122 39.8834 131.138 39.8834C130.153 39.8834 129.355 40.6815 129.355 41.666V68.126C129.355 69.1105 130.153 69.9086 131.138 69.9086C132.122 69.9086 132.92 69.1105 132.92 68.126Z" fill="#64B5F6"/>
<path d="M144.239 68.1261V27.8114C144.239 26.8269 143.441 26.0288 142.456 26.0288C141.472 26.0288 140.674 26.8269 140.674 27.8114V68.1262C140.674 69.1106 141.472 69.9087 142.456 69.9087C143.441 69.9087 144.239 69.1106 144.239 68.1261Z" fill="#64B5F6"/>
<path d="M154.823 68.1262V47.5481C154.823 46.5636 154.025 45.7655 153.04 45.7655C152.056 45.7655 151.258 46.5636 151.258 47.5481V68.1262C151.258 69.1107 152.056 69.9087 153.04 69.9087C154.025 69.9087 154.823 69.1107 154.823 68.1262Z" fill="#64B5F6"/>
<path d="M146.307 20.323H140.925C140.622 20.323 140.368 20.577 140.368 20.8799C140.368 21.1828 140.622 21.4368 140.925 21.4368H146.307C146.609 21.4368 146.863 21.1828 146.863 20.8799C146.863 20.577 146.609 20.323 146.307 20.323Z" fill="#64B5F6"/>
<path d="M142.146 22.3455H140.925C140.622 22.3455 140.368 22.5995 140.368 22.9024C140.368 23.2053 140.622 23.4593 140.925 23.4593H142.146C142.448 23.4593 142.702 23.2053 142.702 22.9024C142.702 22.5995 142.458 22.3455 142.146 22.3455Z" fill="#64B5F6"/>
<path d="M124.124 11.6956H118.742C118.44 11.6956 118.186 11.9496 118.186 12.2525C118.186 12.5554 118.44 12.8094 118.742 12.8094H124.124C124.427 12.8094 124.681 12.5554 124.681 12.2525C124.681 11.9496 124.437 11.6956 124.124 11.6956Z" fill="#64B5F6"/>
<path d="M119.973 13.7277H118.752C118.449 13.7277 118.195 13.9817 118.195 14.2846C118.195 14.5875 118.449 14.8415 118.752 14.8415H119.973C120.276 14.8415 120.53 14.5875 120.53 14.2846C120.53 13.9719 120.276 13.7277 119.973 13.7277Z" fill="#64B5F6"/>
<path d="M113.407 23.2932H108.025C107.722 23.2932 107.469 23.5472 107.469 23.8501C107.469 24.153 107.722 24.4071 108.025 24.4071H113.407C113.71 24.4071 113.964 24.153 113.964 23.8501C113.964 23.5472 113.72 23.2932 113.407 23.2932Z" fill="#64B5F6"/>
<path d="M109.256 25.3252H108.035C107.732 25.3252 107.478 25.5792 107.478 25.8821C107.478 26.185 107.732 26.439 108.035 26.439H109.256C109.559 26.439 109.813 26.185 109.813 25.8821C109.813 25.5695 109.559 25.3252 109.256 25.3252Z" fill="#64B5F6"/>
<path d="M135.064 33.9725H129.682C129.379 33.9725 129.125 34.2266 129.125 34.5295C129.125 34.8324 129.379 35.0864 129.682 35.0864H135.064C135.367 35.0864 135.621 34.8324 135.621 34.5295C135.621 34.2266 135.367 33.9725 135.064 33.9725Z" fill="#64B5F6"/>
<path d="M130.913 36.0046H129.692C129.389 36.0046 129.135 36.2587 129.135 36.5616C129.135 36.8645 129.389 37.1185 129.692 37.1185H130.913C131.216 37.1185 131.47 36.8645 131.47 36.5616C131.47 36.2489 131.216 36.0046 130.913 36.0046Z" fill="#64B5F6"/>
<path d="M157.227 39.8838H151.845C151.542 39.8838 151.288 40.1378 151.288 40.4407C151.288 40.7436 151.542 40.9976 151.845 40.9976H157.227C157.53 40.9976 157.784 40.7436 157.784 40.4407C157.784 40.1378 157.54 39.8838 157.227 39.8838Z" fill="#64B5F6"/>
<path d="M153.076 41.9158H151.855C151.552 41.9158 151.298 42.1698 151.298 42.4727C151.298 42.7756 151.552 43.0296 151.855 43.0296H153.076C153.379 43.0296 153.633 42.7756 153.633 42.4727C153.633 42.16 153.379 41.9158 153.076 41.9158Z" fill="#64B5F6"/>
<path d="M80.5186 42.7759H37.8486C34.5349 42.7759 31.8486 45.4622 31.8486 48.7759V67.5632C31.8486 70.8769 34.5349 73.5632 37.8486 73.5632H80.5186C83.8323 73.5632 86.5186 70.8769 86.5186 67.5632V48.7759C86.5186 45.4622 83.8323 42.7759 80.5186 42.7759Z" fill="#A9CAFF"/>
<path d="M53.7824 64.4663C57.6427 60.6049 57.6427 54.3443 53.7824 50.4829C49.9221 46.6215 43.6634 46.6215 39.8031 50.4829C35.9428 54.3443 35.9428 60.6049 39.8031 64.4663C43.6634 68.3278 49.9221 68.3278 53.7824 64.4663Z" fill="#E9F3FF"/>
<path d="M80.3746 51.9502H63.9941C63.3983 51.9502 62.9197 52.4387 62.9197 53.025C62.9197 53.621 63.4081 54.0997 63.9941 54.0997H80.3746C80.9704 54.0997 81.4491 53.6112 81.4491 53.025C81.4491 52.4387 80.9607 51.9502 80.3746 51.9502Z" fill="#C8E0FE"/>
<path d="M80.3746 56.396H63.9941C63.3983 56.396 62.9197 56.8845 62.9197 57.4708C62.9197 58.0668 63.4081 58.5455 63.9941 58.5455H80.3746C80.9704 58.5455 81.4491 58.057 81.4491 57.4708C81.4491 56.8748 80.9607 56.396 80.3746 56.396Z" fill="#C8E0FE"/>
<path d="M80.3746 60.8416H63.9941C63.3983 60.8416 62.9197 61.3301 62.9197 61.9163C62.9197 62.5123 63.4081 62.9911 63.9941 62.9911H80.3746C80.9704 62.9911 81.4491 62.5026 81.4491 61.9163C81.4491 61.3203 80.9607 60.8416 80.3746 60.8416Z" fill="#C8E0FE"/>
<path d="M38.8547 52.9875C37.6553 55.1784 39.7731 57.3242 42.2707 57.3242C44.7684 57.3242 46.7932 55.2986 46.7932 52.8009C46.7932 50.2987 44.6407 48.1786 42.4488 49.3854C40.9351 50.2188 39.6845 51.472 38.8547 52.9875Z" fill="#FF7043"/>
<path d="M51.6881 65.2387C55.8926 62.5313 51.794 57.6174 46.7932 57.6174C41.7924 57.6174 37.6938 62.5313 41.8983 65.2387C43.3096 66.1476 44.9898 66.6748 46.7932 66.6748C48.5966 66.6748 50.2768 66.1476 51.6881 65.2387Z" fill="#64B5F6"/>
<path d="M45.2304 52.6735H40.3172C40.034 52.6735 39.8093 52.8982 39.8093 53.1815C39.8093 53.4649 40.034 53.6896 40.3172 53.6896H45.2304C45.5137 53.6896 45.7383 53.4649 45.7383 53.1815C45.7383 52.908 45.5137 52.6735 45.2304 52.6735Z" fill="#A9CAFF"/>
<path d="M41.4405 54.5203H40.3172C40.034 54.5203 39.8093 54.745 39.8093 55.0283C39.8093 55.3117 40.034 55.5364 40.3172 55.5364H41.4405C41.7238 55.5364 41.9485 55.3117 41.9485 55.0283C41.9485 54.7548 41.7238 54.5203 41.4405 54.5203Z" fill="#A9CAFF"/>
<path d="M52.527 59.8353H47.6139C47.3306 59.8353 47.106 60.06 47.106 60.3434C47.106 60.6267 47.3306 60.8515 47.6139 60.8515H52.527C52.8103 60.8515 53.035 60.6267 53.035 60.3434C53.035 60.06 52.8103 59.8353 52.527 59.8353Z" fill="#A9CAFF"/>
<path d="M48.7372 61.6819H47.6139C47.3306 61.6819 47.106 61.9066 47.106 62.19C47.106 62.4733 47.3306 62.698 47.6139 62.698H48.7372C49.0204 62.698 49.2451 62.4733 49.2451 62.19C49.2451 61.9164 49.0107 61.6819 48.7372 61.6819Z" fill="#A9CAFF"/>
<path d="M34.1045 79.0938C30.7908 79.0938 28.1045 81.78 28.1045 85.0938V104.575C28.1045 107.888 30.7908 110.575 34.1045 110.575H76.7745C80.0882 110.575 82.7745 107.888 82.7745 104.575V85.0938C82.7745 81.78 80.0882 79.0938 76.7745 79.0938H34.1045Z" fill="#A9CAFF"/>
<path d="M51.915 98.2466C54.3351 93.3514 52.3298 87.4206 47.4361 84.9998C42.5424 82.579 36.6134 84.5848 34.1933 89.48C31.7732 94.3752 33.7784 100.306 38.6721 102.727C43.5659 105.148 49.4949 103.142 51.915 98.2466Z" fill="#E9F3FF"/>
<path d="M60.2501 90.4962H76.6208C77.2167 90.4962 77.6953 90.0077 77.6953 89.4214C77.6953 88.8254 77.2069 88.3467 76.6208 88.3467H60.2501C59.6543 88.3467 59.1757 88.8352 59.1757 89.4214C59.1659 90.0175 59.6543 90.4962 60.2501 90.4962Z" fill="#C8E0FE"/>
<path d="M76.6209 92.783H60.2502C59.6544 92.783 59.1758 93.2715 59.1758 93.8577C59.1758 94.4537 59.6642 94.9325 60.2502 94.9325H76.6209C77.2168 94.9325 77.6954 94.444 77.6954 93.8577C77.7052 93.2715 77.2168 92.783 76.6209 92.783Z" fill="#C8E0FE"/>
<path d="M76.6209 97.2285H60.2502C59.6544 97.2285 59.1758 97.7171 59.1758 98.3033C59.1758 98.8993 59.6642 99.3781 60.2502 99.3781H76.6209C77.2168 99.3781 77.6954 98.8895 77.6954 98.3033C77.7052 97.7171 77.2168 97.2285 76.6209 97.2285Z" fill="#C8E0FE"/>
<path d="M44.7408 96.684C43.6854 95.024 41.8632 94.0092 39.8963 93.9858L34.1214 93.9172C34.0569 93.9164 34.0042 93.9685 34.0042 94.033C34.0042 99.0356 38.0578 103.09 43.0588 103.09C45.8919 103.09 46.683 99.7385 45.1629 97.3477L44.7408 96.684Z" fill="#64B5F6"/>
<path d="M43.381 96.8765H38.4679C38.1846 96.8765 37.96 97.1012 37.96 97.3845C37.96 97.6679 38.1846 97.8926 38.4679 97.8926H43.381C43.6643 97.8926 43.889 97.6679 43.889 97.3845C43.889 97.1012 43.6643 96.8765 43.381 96.8765Z" fill="#A9CAFF"/>
<path d="M39.5912 98.7231H38.4679C38.1846 98.7231 37.96 98.9479 37.96 99.2312C37.96 99.5146 38.1846 99.7393 38.4679 99.7393H39.5912C39.8744 99.7393 40.0991 99.5146 40.0991 99.2312C40.0991 98.9576 39.8744 98.7231 39.5912 98.7231Z" fill="#A9CAFF"/>
<path d="M76.67 9.19434H34C30.6863 9.19434 28 11.8806 28 15.1943V31.7246C28 35.0383 30.6863 37.7246 34 37.7246H76.67C79.9837 37.7246 82.67 35.0383 82.67 31.7246V15.1943C82.67 11.8806 79.9837 9.19434 76.67 9.19434Z" fill="#A9CAFF"/>
<path d="M45.9614 33.2959C51.1602 31.6292 54.0241 26.0623 52.3579 20.8619C50.6917 15.6614 45.1265 12.7967 39.9276 14.4634C34.7287 16.1301 31.8649 21.697 33.531 26.8974C35.1972 32.0979 40.7625 34.9626 45.9614 33.2959Z" fill="#E9F3FF"/>
<path d="M42.9446 14.832C37.9435 14.832 33.8899 18.8868 33.8899 23.8796C33.8899 26.1553 34.7285 28.233 36.1118 29.8217C37.2729 31.1552 39.6397 29.8985 40.4888 28.3476C41.7003 26.1347 44.523 26.8144 45.718 29.0362C46.5532 30.5893 48.553 31.1994 49.7227 29.8797C51.1378 28.2832 51.9993 26.1815 51.9993 23.8796C51.9993 18.8868 47.9457 14.832 42.9446 14.832Z" fill="#64B5F6"/>
<path d="M76.5164 18.3591H60.1457C59.5499 18.3591 59.0713 18.8477 59.0713 19.4339C59.0713 20.0299 59.5597 20.5087 60.1457 20.5087H76.5262C77.122 20.5087 77.6007 20.0201 77.6007 19.4339C77.6007 18.8477 77.1123 18.3591 76.5164 18.3591Z" fill="#C8E0FE"/>
<path d="M76.5164 22.8046H60.1457C59.5499 22.8046 59.0713 23.2931 59.0713 23.8793C59.0713 24.4753 59.5597 24.9541 60.1457 24.9541H76.5262C77.122 24.9541 77.6007 24.4656 77.6007 23.8793C77.6007 23.2931 77.1123 22.8046 76.5164 22.8046Z" fill="#C8E0FE"/>
<path d="M76.5164 27.2502H60.1457C59.5499 27.2502 59.0713 27.7388 59.0713 28.325C59.0713 28.921 59.5597 29.3998 60.1457 29.3998H76.5262C77.122 29.3998 77.6007 28.9113 77.6007 28.325C77.6007 27.729 77.1123 27.2502 76.5164 27.2502Z" fill="#C8E0FE"/>
<path d="M43.2768 19.5612H38.3636C38.0804 19.5612 37.8557 19.7859 37.8557 20.0692C37.8557 20.3526 38.0804 20.5773 38.3636 20.5773H43.2768C43.5601 20.5773 43.7847 20.3526 43.7847 20.0692C43.7847 19.7859 43.5601 19.5612 43.2768 19.5612Z" fill="#A9CAFF"/>
<path d="M39.4869 21.408H38.3636C38.0804 21.408 37.8557 21.6327 37.8557 21.916C37.8557 22.1994 38.0804 22.4241 38.3636 22.4241H39.4869C39.7702 22.4241 39.9948 22.1994 39.9948 21.916C39.9948 21.6425 39.7702 21.408 39.4869 21.408Z" fill="#A9CAFF"/>
</svg>
