<svg width="187" height="151" viewBox="0 0 187 151" fill="none"  xmlns="http://www.w3.org/2000/svg">
  <path
    d="M10.5384 150.006C10.5384 150.006 -5.59904 114.405 2.06485 72.4012C7.25271 43.9736 35.7781 23.7825 53.6841 32.7247C63.2738 37.5171 74.7578 40.8559 89.5904 18.6741C114.343 -18.3376 190.07 -0.758629 175.85 75.224C168.973 111.993 196.791 113.331 182.618 150.08L10.5384 150.006Z"
    fill="#F3F8FD"
  />
  <path
    d="M122.075 133.939C122.075 133.939 134.266 120.468 147.548 125.527C147.548 125.527 150.111 126.546 149.45 129.627C148.79 132.707 144.008 130.103 140.471 129.546C136.948 128.997 127.575 129.729 122.075 133.939Z"
    fill="#CDE0FB"
  />
  <path
    d="M61.2748 109.077C61.2748 109.077 44.7376 90.8035 26.7219 97.6658C26.7219 97.6658 23.2452 99.0483 24.1409 103.227C25.0366 107.406 31.5226 103.874 36.3205 103.118C41.1004 102.373 53.8145 103.366 61.2748 109.077Z"
    fill="#CDE0FB"
  />
  <path
    d="M125.253 129.082C125.253 129.082 131.878 112.185 146.107 112.232C146.107 112.232 148.874 112.284 149.352 115.386C149.83 118.487 144.433 117.756 140.929 118.483C137.425 119.211 128.908 123.199 125.253 129.082Z"
    fill="#DFEBFD"
  />
  <path
    d="M56.963 102.487C56.963 102.487 47.9763 79.5676 28.675 79.631C28.675 79.631 24.9211 79.7018 24.2732 83.9086C23.6253 88.1153 30.9461 87.1236 35.699 88.1106C40.452 89.0977 52.0049 94.5074 56.963 102.487Z"
    fill="#DFEBFD"
  />
  <path
    d="M155.332 34.4279C153.579 27.0684 141.036 28.9346 141.036 28.9346C141.036 28.9346 132.135 41.3962 129.666 41.6219C127.197 41.8477 135.168 29.4914 135.168 29.4914C130.413 28.8744 118.052 34.2473 118.052 34.2473C118.052 34.2473 118.311 49.147 115.857 48.7557C113.404 48.3644 116.315 35.5567 116.315 35.5567C111.651 36.7757 107.155 41.938 107.155 41.938C101.47 50.4112 112.794 57.1688 112.794 57.1688C112.794 57.1688 112.779 62.331 109.334 68.1404C109.334 68.1404 108.572 69.209 107.764 71.0451L109.029 71.0902C109.136 70.7591 109.273 70.4431 109.41 70.1421V70.127C109.502 69.9314 109.639 69.6755 109.807 69.3444C110.218 68.622 110.492 68.0802 110.675 67.6889C111.91 65.4012 113.678 62.4213 114.806 61.8193C114.806 61.8193 114.669 61.6236 114.562 61.2474C114.638 61.428 114.73 61.6236 114.806 61.8193C116.802 66.4397 127.547 67.5685 133.598 66.5451C139.649 65.5367 137.088 63.7758 133.949 60.9614C130.809 58.147 124.011 58.6287 122.045 57.4999C120.079 56.3711 123.036 55.4079 127.029 55.8444C131.022 56.2808 132.882 60.2992 139.329 61.1119C145.776 61.9397 151.11 50.1102 151.11 50.1102C146.599 51.3293 138.673 48.6353 138.43 47.1002C138.17 45.5651 150.013 46.1219 151.888 45.7306C153.732 45.3092 157.085 41.7724 155.332 34.4279Z"
    fill="#DFEBFD"
  />
  <path
    d="M11.732 127.278C10.9937 122.339 18.947 120.526 18.947 120.526C18.947 120.526 27.294 126.086 28.8252 125.642C30.3564 125.198 22.5909 119.483 22.5909 119.483C25.2845 117.981 33.9797 118.367 33.9797 118.367C33.9797 118.367 37.4412 127.589 38.8135 126.769C40.1858 125.949 35.3364 118.761 35.3364 118.761C38.421 118.41 42.3625 120.523 42.3625 120.523C47.8184 124.39 42.6874 131.218 42.6874 131.218C42.6874 131.218 43.9495 134.389 47.4192 137.148C47.4192 137.148 48.1342 137.625 49.0629 138.563L48.3174 138.889C48.1733 138.711 48.0145 138.549 47.8594 138.396L47.8558 138.387C47.7536 138.288 47.6095 138.163 47.4289 137.999C47.0075 137.652 46.7119 137.384 46.5076 137.187C45.2141 136.071 43.4337 134.657 42.6132 134.553C42.6132 134.553 42.6477 134.4 42.6202 134.143C42.6184 134.272 42.6112 134.414 42.6132 134.553C42.5408 137.865 36.3898 141.095 32.5233 141.894C28.6605 142.703 29.7642 141.015 30.9584 138.544C32.1527 136.072 36.3342 134.764 37.2359 133.606C38.1375 132.448 36.1357 132.553 33.8539 133.764C31.5721 134.975 31.4357 137.885 27.7779 139.906C24.1239 141.937 18.0629 135.923 18.0629 135.923C21.0563 135.608 25.1415 132.081 24.9147 131.079C24.697 130.074 17.751 133.212 16.5351 133.414C15.33 133.59 12.4666 132.207 11.732 127.278Z"
    fill="#DFEBFD"
  />
  <path d="M135.28 101.906H69.2729V150.187H135.28V101.906Z" fill="#2196F3" />
  <path d="M99.8867 101.906H47.5546V150.187H99.8867V101.906Z" fill="#64B5F6" />
  <path
    d="M77.5298 109.801H63.9735C63.1454 109.801 62.4357 109.122 62.4357 108.278V108.091C62.4357 107.271 63.1218 106.592 63.9735 106.592H77.5298C78.3578 106.592 79.0676 107.271 79.0676 108.091V108.278C79.0439 109.122 78.3578 109.801 77.5298 109.801Z"
    fill="#1565C0"
  />
  <path d="M99.9109 93.6852H45V104.321H99.9109V93.6852Z" fill="#42A5F5" />
  <path d="M136.936 93.6844H99.9109V104.32H136.936V93.6844Z" fill="#1E88E5" />
  <path d="M92.9367 111.989L76.1411 116.358L80.5536 132.989L97.3492 128.62L92.9367 111.989Z" fill="#FF7043" />
  <path d="M92.9392 111.986L76.1434 116.356L76.8588 119.052L93.6546 114.683L92.9392 111.986Z" fill="#F44336" />
  <path d="M81.5294 72.0152L95.2986 61.052L115.716 63.5117V72.0152H81.5294Z" fill="#2196F3" />
  <path d="M95.2993 72.0805V61L61.1131 61V72.0805H95.2993Z" fill="#64B5F6" />
  <path
    d="M91.0168 64.8005C91.9868 64.8005 92.7912 65.5735 92.7912 66.5574C92.7912 67.5179 92.0104 68.3144 91.0168 68.3144C90.0468 68.3144 89.2424 67.5413 89.2424 66.5574C89.2424 65.597 90.0468 64.8005 91.0168 64.8005Z"
    fill="#DDE7FE"
  />
  <path
    d="M91.0165 65.5732C91.5606 65.5732 92.0102 66.0183 92.0102 66.5571C92.0102 67.0959 91.5606 67.541 91.0165 67.541C90.4723 67.541 90.0228 67.0959 90.0228 66.5571C90.0228 66.0183 90.4723 65.5732 91.0165 65.5732Z"
    fill="#0B0755"
  />
  <path d="M86.7596 69.0696V64.1268H76.1844V69.0696H86.7596Z" fill="#A9CBFF" />
  <path d="M97.0252 82.8848H63.1466V93.7076H97.0252V82.8848Z" fill="#DDE7FE" />
  <path d="M130.904 82.8847H97.0249V93.7074H130.904V82.8847Z" fill="#A9CBFF" />
  <path d="M71.5923 88.1793H63.1464V88.4136H71.5923V88.1793Z" fill="#8C9DF4" />
  <path d="M97.0242 84.8525H73.6735V85.0868H97.0242V84.8525Z" fill="#8C9DF4" />
  <path d="M78.0984 91.0839H63.1464V91.3181H78.0984V91.0839Z" fill="#8C9DF4" />
  <path d="M86.5213 72.0633H52.6427V82.886H86.5213V72.0633Z" fill="#E9F0FF" />
  <path d="M120.4 72.0631H86.5212V82.8859H120.4V72.0631Z" fill="#64B5F6" />
  <path d="M61.0883 77.3577H52.6423V77.592H61.0883V77.3577Z" fill="#8FADEF" />
  <path d="M86.5202 74.031H63.1694V74.2653H86.5202V74.031Z" fill="#8FADEF" />
  <path d="M67.5943 80.2623H52.6423V80.4966H67.5943V80.2623Z" fill="#8FADEF" />
  <path
    opacity="0.5"
    d="M148.431 104.979C148.431 104.979 163.712 103.771 175.972 85.5648L166.612 65.3454C166.612 65.3454 154.113 81.509 143.617 82.7615L148.431 104.979Z"
    fill="#9EC8FF"
  />
  <path
    d="M148.669 143.029C148.512 143.433 148.196 145.591 147.52 147.367C147.114 148.445 146.596 149.389 145.897 149.771C144.049 150.76 140.759 149.412 140.759 149.412C140.759 149.412 135.305 150.356 134.741 150.131C134.201 149.906 133.209 141.703 133.209 141.703C133.209 141.703 137.243 137.028 137.604 136.893C137.987 136.736 141.21 138.219 141.728 138.197C142.269 138.174 145.289 135.949 146.145 136.421C147.024 136.893 148.94 142.377 148.669 143.029Z"
    fill="white"
  />
  <path
    d="M141.75 138.196C141.75 138.196 140.916 140.399 140.668 140.601C140.42 140.804 137.625 136.893 137.625 136.893C137.986 136.758 141.209 138.241 141.75 138.196Z"
    fill="#F2F7FE"
  />
  <path
    d="M146.212 138.579C146.212 138.579 142.516 142.4 142.583 142.737C142.651 143.074 146.956 145.254 147.113 145.164C147.271 145.074 146.077 142.377 146.099 141.928C146.099 141.433 146.212 138.579 146.212 138.579Z"
    fill="#F2F7FE"
  />
  <path
    d="M148.669 143.029C148.511 143.433 148.195 145.591 147.519 147.366L147.767 143.321L146.167 136.421C147.023 136.893 148.939 142.377 148.669 143.029Z"
    fill="#F2F7FE"
  />
  <path
    d="M140.758 149.434C140.758 149.434 135.305 150.378 134.741 150.153C134.2 149.929 133.209 141.725 133.209 141.725C133.209 141.725 134.628 145.883 134.674 146.085C134.719 146.288 136.386 145.748 136.386 145.748L140.758 149.434Z"
    fill="#F2F7FE"
  />
  <path d="M134.651 141.635L135.373 143.793L136.635 143.726L135.643 142.849L134.651 141.635Z" fill="#F2F7FE" />
  <path
    d="M125.425 145.077C125.283 145.36 125.023 146.894 124.502 148.168C124.171 148.946 123.745 149.631 123.178 149.89C121.663 150.622 118.99 149.701 118.99 149.701C118.99 149.701 114.542 150.433 114.093 150.268C113.643 150.126 112.839 144.322 112.839 144.322C112.839 144.322 116.127 140.972 116.435 140.854C116.742 140.736 119.369 141.75 119.794 141.727C120.22 141.703 122.681 140.099 123.39 140.405C124.1 140.736 125.638 144.605 125.425 145.077Z"
    fill="white"
  />
  <path
    d="M119.794 141.726C119.794 141.726 119.108 143.307 118.895 143.449C118.682 143.59 116.411 140.853 116.411 140.853C116.718 140.759 119.344 141.773 119.794 141.726Z"
    fill="#C4D9E8"
  />
  <path
    d="M123.437 141.939C123.437 141.939 120.409 144.699 120.48 144.935C120.527 145.171 124.052 146.658 124.17 146.587C124.289 146.516 123.319 144.629 123.342 144.298C123.342 143.968 123.437 141.939 123.437 141.939Z"
    fill="#DFEBF5"
  />
  <path
    d="M125.425 145.077C125.283 145.36 125.022 146.894 124.502 148.168L124.691 145.29L123.39 140.406C124.1 140.736 125.638 144.605 125.425 145.077Z"
    fill="#C4D9E8"
  />
  <path
    d="M118.99 149.701C118.99 149.701 114.542 150.433 114.092 150.268C113.643 150.126 112.838 144.322 112.838 144.322C112.838 144.322 113.998 147.248 114.021 147.389C114.045 147.531 115.417 147.13 115.417 147.13L118.99 149.701Z"
    fill="#DFEBF5"
  />
  <path d="M113.998 144.252L114.589 145.785L115.63 145.714L114.826 145.101L113.998 144.252Z" fill="#DFEBF5" />
  <path
    opacity="0.5"
    d="M47.2201 68.623C47.2201 68.623 33.7762 67.5497 22.9788 51.5384L31.218 33.75C31.218 33.75 42.2095 47.9842 51.4544 49.0751L47.2201 68.623Z"
    fill="#9EC8FF"
  />
</svg>
