<svg width="213" height="106" viewBox="0 0 213 106" fill="none" xmlns="http://www.w3.org/2000/svg">
<path d="M4.27466 105.922C4.27466 105.922 -8.54077 66.1432 10.2075 42.3913C34.3892 11.7556 65.6387 37.3627 77.3648 36.6166C89.0908 35.8704 89.7505 6.47419 124.786 2.96372C151.875 0.248836 196.362 0.0353261 186.871 48.0615C179.655 84.5754 219.802 65.6622 211.985 106L4.27466 105.922Z" fill="#F3F8FD"/>
<path d="M34.896 84.3743C34.896 84.3743 31.5287 80.4543 34.6884 77.9646C34.6884 77.9646 36.9969 76.5699 38.8793 76.6833C38.8793 76.6833 36.2119 81.1458 37.075 81.5887C37.9381 82.0326 39.687 76.4031 39.687 76.4031C39.687 76.4031 44.9397 75.8951 46.6293 76.705C46.6293 76.705 42.1388 80.3714 43.085 80.5894C44.0311 80.8074 48.8814 77.209 48.8814 77.209C48.8814 77.209 53.7703 78.0396 53.5093 81.0146C53.2483 83.9906 51.5636 84.9089 50.8241 84.83C50.0836 84.7511 45.7523 83.1018 45.6584 83.7065C45.5645 84.3121 48.1706 86.2899 49.9966 86.3826C49.9966 86.3826 46.5502 90.1753 44.2595 89.0804C41.9688 87.9855 41.773 86.2504 40.3454 85.6004C38.9178 84.9493 37.6988 84.9513 38.288 85.6152C38.8773 86.279 41.4616 86.9241 42.2782 88.3653C43.0948 89.8064 43.8274 90.778 41.4576 90.4229C39.0879 90.0668 35.2351 88.3367 35.066 86.356C34.896 84.3743 34.896 84.3743 34.896 84.3743Z" fill="#9EC8FF"/>
<path d="M51.1068 81.0965C51.1068 81.0965 37.8283 80.5856 34.896 84.3753C34.896 84.3753 34.2474 86.3136 32.2523 88.0783L31.9409 88.9246C31.9409 88.9246 34.2415 86.504 35.065 86.358C35.065 86.356 33.7778 81.6617 51.1068 81.0965Z" fill="#9EC8FF"/>
<path d="M32.2523 88.0773C32.2523 88.0773 29.4021 90.1803 29.2043 93.9375L29.7214 93.9839C29.7214 93.9839 30.6319 90.0984 32.277 88.5794C33.9221 87.0603 32.2523 88.0773 32.2523 88.0773Z" fill="#9EC8FF"/>
<path d="M23.1213 79.4454C23.1213 79.4454 28.4787 76.4526 25.9785 72.3896C25.9785 72.3896 23.9784 69.895 21.836 69.2538C21.836 69.2538 22.9789 75.3113 21.836 75.4544C20.6932 75.5974 21.0501 68.6127 21.0501 68.6127C21.0501 68.6127 15.4069 65.904 13.1923 66.1181C13.1923 66.1181 16.6921 72.0335 15.5492 71.8905C14.4064 71.7475 10.4775 65.762 10.4775 65.762C10.4775 65.762 4.69191 64.6927 3.76357 68.1136C2.83523 71.5344 4.33501 73.2448 5.19217 73.4589C6.04932 73.6729 11.5492 73.6019 11.4068 74.3141C11.2644 75.0273 7.55009 76.1675 5.47789 75.5254C5.47789 75.5254 7.76364 81.1558 10.7632 80.8707C13.7627 80.5856 14.6921 78.7332 16.5487 78.5901C18.4054 78.4471 19.7628 78.9462 18.8345 79.4454C17.9062 79.9445 14.7633 79.6091 13.2635 80.8816C11.7637 82.154 10.5496 82.9382 13.3347 83.5084C16.1207 84.0785 21.1202 83.7224 22.1208 81.5839C23.1213 79.4454 23.1213 79.4454 23.1213 79.4454Z" fill="#BFDBFE"/>
<path d="M6.40723 69.1827C6.40723 69.1827 21.407 74.0289 23.1213 79.4453C23.1213 79.4453 23.0501 81.8679 24.5499 84.6476V85.7168C24.5499 85.7168 22.9789 82.0819 22.1218 81.5828C22.1218 81.5828 25.4782 76.8796 6.40723 69.1827Z" fill="#BFDBFE"/>
<path d="M24.5499 84.6474C24.5499 84.6474 26.8634 88.1521 25.5445 92.4183L24.9493 92.2585C24.9493 92.2585 25.5267 87.5593 24.3166 85.1959C23.1065 82.8334 24.5499 84.6474 24.5499 84.6474Z" fill="#BFDBFE"/>
<path d="M31.6443 75.3171C31.6443 75.3171 24.5824 71.3715 27.8775 66.0163C27.8775 66.0163 30.5143 62.7286 33.3388 61.8823C33.3388 61.8823 31.8321 69.8672 33.3388 70.0556C34.8455 70.244 34.3749 61.037 34.3749 61.037C34.3749 61.037 41.8135 57.4672 44.732 57.7493C44.732 57.7493 40.118 65.5468 41.6247 65.3584C43.1314 65.171 48.3099 57.2788 48.3099 57.2788C48.3099 57.2788 55.9363 55.8692 57.1602 60.379C58.3842 64.8879 56.4069 67.1428 55.2769 67.4249C54.1469 67.707 46.8971 67.6133 47.085 68.5524C47.2728 69.4924 52.1696 70.9947 54.9002 70.1493C54.9002 70.1493 51.8868 77.571 47.9322 77.1952C43.9776 76.8194 42.7537 74.3771 40.3058 74.1887C37.8579 74.0012 36.0685 74.6582 37.2924 75.3161C38.5164 75.974 42.6588 75.5312 44.6371 77.209C46.6144 78.8859 48.215 79.9197 44.5431 80.6713C40.8713 81.4229 34.28 80.9534 32.9621 78.1353C31.6443 75.3171 31.6443 75.3171 31.6443 75.3171Z" fill="#BFDBFE"/>
<path d="M53.6773 61.7886C53.6773 61.7886 33.9044 68.1765 31.6444 75.3161C31.6444 75.3161 31.7383 78.5101 29.761 82.1736V83.5831C29.761 83.5831 31.8322 78.7922 32.9622 78.1342C32.9622 78.1352 28.537 71.9347 53.6773 61.7886Z" fill="#9EC8FF"/>
<path d="M29.761 82.1746C29.761 82.1746 26.712 86.7949 28.45 92.4184L29.235 92.2083C29.235 92.2083 28.4738 86.0137 30.0685 82.8986C31.6641 79.7836 29.761 82.1746 29.761 82.1746Z" fill="#9EC8FF"/>
<path d="M31.4061 104.614C39.0454 104.614 45.2393 98.4355 45.2393 90.8126H17.573C17.573 98.4355 23.7669 104.614 31.4061 104.614Z" fill="#9EC8FF"/>
<path d="M34.8099 104.509C34.2474 104.579 33.674 104.614 33.0917 104.614C25.4524 104.614 19.2595 98.4346 19.2595 90.8126H22.6961C22.6961 97.8546 27.9814 103.664 34.8099 104.509Z" fill="#BFDBFE"/>
<path d="M45.43 105.317H17.3821C17.3821 104.377 18.1463 103.614 19.0885 103.614H43.7236C44.6658 103.614 45.43 104.377 45.43 105.317Z" fill="#9EC8FF"/>
<path d="M45.5536 90.8126H17.1182V91.2358H45.5536V90.8126Z" fill="#BFDBFE"/>
<path d="M168.245 100.645C168.245 100.645 168.531 105.258 169.426 105.324C169.545 105.333 173.963 105.333 173.963 105.333L179.603 105.301C179.603 105.301 179.567 103.945 177.918 103.658C176.269 103.371 173.509 102.215 172.511 100.041C171.461 97.7536 168.245 100.645 168.245 100.645Z" fill="#2A2E33"/>
<path d="M165.235 46.0858C165.235 46.0858 167.898 47.596 168.643 47.596C169.389 47.596 172.314 47.0318 173.13 47.4471C173.945 47.8633 175.421 49.5362 175.698 50.0817C176.196 51.0642 173.693 50.6302 172.51 49.7937C172.338 49.6724 172.124 49.627 171.919 49.6724C171.306 49.8055 170.032 50.0364 169.418 49.8095C168.592 49.5037 164.238 49.1654 164.238 49.1654L165.235 46.0858Z" fill="#FC9290"/>
<path d="M144.977 25.5114C144.977 25.5114 147.737 45.0846 152.308 46.8374C154.563 47.7025 164.529 49.6635 167.478 49.8608C167.478 49.8608 168.2 49.2758 168.024 46.8966C168.024 46.8966 157.582 43.0713 156.099 40.992C153.892 37.8967 157.47 28.3453 154.699 25.4374C151.928 22.5295 147.263 21.2797 144.977 25.5114Z" fill="#F44336"/>
<path d="M145.907 66.748C146.712 68.1112 147.643 69.3876 148.603 70.597C151.57 74.3335 154.799 77.414 155.362 80.3268C155.474 80.9068 155.651 81.5322 155.884 82.1911C156.119 82.8579 156.409 83.5593 156.744 84.2843C158.002 87.0127 159.885 90.0695 161.765 92.8482C165.015 97.652 168.07 101.661 168.07 101.661L173.674 101.422C173.449 100.862 171.005 94.2292 167.736 86.1229C166.408 82.8323 164.996 79.3325 163.635 75.9571C163.453 75.5063 163.272 75.0575 163.092 74.6126C162.676 73.5798 162.266 72.5629 161.866 71.5725C158.796 63.9614 156.351 57.901 156.351 57.901C156.351 57.901 144.082 53.2639 142.808 56.2685C141.756 58.7463 142.612 61.1739 145.907 66.748Z" fill="#2A2E33"/>
<path d="M155.27 87.4656C155.27 87.4656 151.372 89.9641 151.75 90.7759C151.801 90.8835 153.954 94.7324 153.954 94.7324L156.732 99.6299C156.732 99.6299 157.901 98.9365 157.348 97.3612C156.795 95.7849 156.461 92.8178 157.877 90.8884C159.367 88.8574 155.27 87.4656 155.27 87.4656Z" fill="#060632"/>
<path d="M157.177 91.8569C157.177 91.8569 154.741 89.7134 154.312 88.1411C154.312 88.1411 164.349 76.1435 166.526 73.4536C166.625 73.3303 166.6 73.1951 166.468 73.0462C164.825 71.1967 146.563 67.4385 144.176 63.7336C143.354 62.4572 142.888 61.2449 142.634 60.1864C142.093 57.9256 142.52 56.3641 142.52 56.3641L160.758 55.8374C160.758 55.8374 175.942 65.2714 177.663 71.7027C179.382 78.136 157.177 91.8569 157.177 91.8569Z" fill="#222429"/>
<path d="M166.468 73.0463C164.825 71.1968 146.563 67.4386 144.176 63.7337C143.354 62.4573 142.888 61.245 142.634 60.1866V57.8834L150.385 56.6671C150.385 56.6671 152.583 63.4161 159.093 65.9462C165.191 68.3165 166.346 72.5226 166.468 73.0463Z" fill="#010117"/>
<path d="M155.768 24.2784C152.078 25.2303 145.963 21.8193 145.963 21.8193C145.963 21.8193 148.337 20.2263 149.217 16.7285C149.262 16.552 149.301 16.3714 149.338 16.186C149.724 16.1041 150.453 15.9493 151.233 15.7855L154.051 18.3048C154.051 18.3048 153.986 19.3504 153.634 21.1486C153.572 21.4623 153.502 21.7986 153.421 22.1577C154.935 23.0918 155.768 24.2784 155.768 24.2784Z" fill="#FC9290"/>
<path d="M142.056 39.5371C142.583 46.6284 141.888 57.4147 142.489 59.2819C143.006 60.8937 148.901 59.9349 151.255 59.3973C152.126 59.1981 153.181 58.914 154.27 58.5776C157.309 57.6386 160.621 56.2981 160.976 55.3028C160.99 55.2633 161.002 55.2258 161.009 55.1884C161.042 55.0434 161.035 54.9082 161.002 54.7711C160.883 54.2641 160.428 53.7147 160.373 52.459C160.313 51.0563 160.322 49.4051 160.269 47.6286C160.266 47.4283 160.264 47.2103 160.243 47.0111L160.242 46.9381C160.241 46.8996 160.24 46.8631 160.239 46.8246C160.187 44.844 160.084 42.7617 159.964 40.6961C159.888 39.399 159.799 38.1147 159.697 36.8837C159.432 33.7065 159.075 30.8814 158.602 29.096C157.829 26.1852 156.125 24.2863 154.575 22.8945L153.454 21.9348C152.202 22.207 150.723 22.0265 149.384 21.3942C147.936 20.7077 147.436 20.2164 147.184 20.4019C143.837 22.9764 141.432 30.8676 142.056 39.5371Z" fill="#FF7043"/>
<path d="M154.269 58.5776C157.308 57.6386 160.62 56.2981 160.975 55.3028C160.989 55.2633 161.001 55.2258 161.008 55.1883C161.006 55.0493 161.004 54.9102 161.001 54.7711C160.882 54.2641 160.427 53.7147 160.372 52.459C160.312 51.0563 160.321 49.4051 160.268 47.6286C160.266 47.4283 160.264 47.2103 160.242 47.0111L160.241 46.9381C160.24 46.8996 160.239 46.8631 160.238 46.8246L147.951 31.2069C147.952 31.2069 139.693 48.3664 154.269 58.5776Z" fill="#F44336"/>
<path d="M154.051 18.3038C154.051 18.3038 153.987 19.3494 153.634 21.1476C150.881 20.2598 149.634 17.78 149.216 16.7285C149.261 16.552 149.3 16.3714 149.337 16.186C149.723 16.1041 150.452 15.9493 151.232 15.7855L154.051 18.3038Z" fill="#EA8888"/>
<path d="M154.42 19.8892C154.42 19.8892 148.419 18.89 149.101 15.1703C149.782 11.4515 149.466 8.81683 153.326 9.2982C157.187 9.77858 157.669 11.3331 157.744 12.6303C157.82 13.9274 155.999 20.0539 154.42 19.8892Z" fill="#FC9290"/>
<path d="M178.052 51.7221L178.581 51.8937L183.083 38.0684L182.554 37.8968L178.052 51.7221Z" fill="#2A2E33"/>
<path d="M163.278 51.5662L178.565 51.8911L178.585 50.9789L163.297 50.6539L163.278 51.5662Z" fill="#2A2E33"/>
<path d="M163.592 52.2865C163.592 52.2865 168.504 53.5787 170.346 53.4425C172.187 53.3064 173.72 52.4325 173.951 51.9767C174.182 51.52 174.67 50.7112 173.416 50.8601C172.163 51.0091 170.45 51.2754 170.397 51.0347C170.344 50.794 171.419 50.8177 171.419 50.8177C171.419 50.8177 171.744 50.3462 171.335 50.3294C170.926 50.3127 169.732 49.9891 169.289 50.2101C168.845 50.431 168.435 51.2478 168.112 51.2142C167.788 51.1807 164.001 49.5127 164.001 49.5127L163.592 52.2865Z" fill="#FC9290"/>
<path d="M146.195 26.3154C146.195 26.3154 146.775 46.073 151.124 48.3181C153.27 49.4258 162.96 52.4708 165.868 52.9917C165.868 52.9917 166.65 52.4896 166.738 50.1055C166.738 50.1055 156.782 45.1557 155.538 42.9244C153.685 39.6042 158.297 30.5046 155.865 27.3107C153.434 24.1157 148.935 22.3599 146.195 26.3154Z" fill="#FF7043"/>
<path d="M149.217 16.7286C149.217 16.7286 149.148 15.4522 149.938 14.7213C149.938 14.7213 149.663 13.4419 150.17 13.2308C150.678 13.0197 150.783 14.0959 151.016 13.9272C151.248 13.7586 152.284 12.9576 152.728 11.7759C153.172 10.5952 157.234 12.0255 157.708 12.2375C158.181 12.4506 159.703 11.6703 160 11.0371C160 11.0371 159.154 10.3624 158.774 9.85635C158.393 9.35033 155.73 5.93343 152.009 6.90405C148.289 7.87368 147.782 9.64526 147.993 11.1643C148.204 12.6824 147.694 16.2186 149.217 16.7286Z" fill="#2A2E33"/>
<path d="M36.4038 24.313L39.6061 24.0082C39.8631 23.9835 40.1053 24.1295 40.2052 24.3672L42.6224 30.1732C42.7737 30.5372 42.5295 30.9446 42.135 30.9821L38.8033 31.2997C38.5423 31.3243 38.2961 31.1734 38.2002 30.9298L35.9125 25.112C35.7701 24.748 36.0153 24.3505 36.4038 24.313Z" fill="#222429"/>
<path d="M77.0038 101.022L75.3043 101.922C75.3043 101.922 66.1178 92.2031 63.9092 82.8766C63.5157 81.2116 63.3556 79.5692 63.5246 78.0107C63.5246 78.0107 63.3911 77.5885 63.1578 76.8418C63.1479 76.8093 63.1371 76.7757 63.1272 76.7422C63.0253 76.4147 62.9028 76.029 62.7663 75.593C62.3224 74.1835 61.7134 72.255 61.0194 70.0593C59.4207 65.006 55.7637 53.611 54.2007 48.8704L65.4327 44.8163C65.4327 44.8163 66.7081 47.7193 68.542 55.6085C68.8238 56.6383 69.1075 57.7766 69.3715 59.0175C69.671 60.4231 69.9508 61.959 70.1831 63.6191C70.5766 66.4313 70.8406 69.5947 70.8564 73.0659C70.8623 74.4774 70.8277 75.9412 70.7437 77.4514C70.6824 78.5591 70.8475 80.0348 71.157 81.7137C72.5707 89.3889 77.0038 101.022 77.0038 101.022Z" fill="#222429"/>
<path d="M83.1531 105.316H74.0724C74.0724 105.316 73.7333 103.871 74.3294 102.888C74.8574 102.018 74.6547 101.522 74.2642 100.803C74.6754 100.97 75.2073 101.123 75.7936 101.09C76.2464 101.064 76.7249 100.859 77.1441 100.616C77.5346 101.061 79.2084 102.953 79.7314 103.328C80.3246 103.753 82.9702 103.602 83.1531 105.316Z" fill="#0D0D38"/>
<path d="M70.1812 63.6182L63.1262 76.7413C63.0244 76.4139 62.9018 76.0282 62.7653 75.5922C62.3214 74.1826 61.7124 72.2542 61.0184 70.0585C59.4198 65.0051 55.7628 53.6102 54.1997 48.8695L65.4317 44.8154C65.4317 44.8154 66.7071 47.7184 68.541 55.6077C68.8228 56.6375 69.1065 57.7758 69.3705 59.0167C69.6691 60.4223 69.9488 61.9591 70.1812 63.6182Z" fill="#222429"/>
<path d="M39.6002 34.6781C39.5439 34.7265 36.8528 31.9813 35.4153 30.4603L36.8548 29.5853L44.7155 34.5095L39.6002 34.6781Z" fill="#FDB3B1"/>
<path d="M54.0157 102.48C54.0157 102.48 53.8042 104.019 54.3964 105.316H58.1592C58.1592 105.316 58.1878 104.196 57.2289 102.789C56.2709 101.383 54.0157 102.48 54.0157 102.48Z" fill="#2A2E33"/>
<path d="M61.4305 2.33399C61.4809 2.0943 62.1226 -0.476268 66.1196 0.0780905C66.1196 0.0780905 64.1256 -0.028441 63.6382 0.769559C63.6382 0.769559 65.1528 -0.0580331 66.177 0.470679C67.2012 0.99939 67.5067 3.00376 67.4049 3.62717C67.3031 4.25156 66.351 6.15433 65.6332 6.20562C65.3614 6.22535 65.0648 6.15532 64.7998 6.06161C64.9333 6.37824 65.0578 6.72348 65.1676 7.10522C66.1869 10.6277 63.998 13.5168 62.7167 12.9329C61.8952 12.559 61.3959 13.9814 61.3959 13.9814L54.2114 5.77457C54.2124 5.77555 58.3894 -0.0323866 61.4305 2.33399Z" fill="#2A2E33"/>
<path d="M54.0779 24.3416C55.0151 24.9907 56.1906 25.5253 57.6657 25.8646C63.1952 27.1391 65.3148 22.4763 66.1107 19.2755C65.3563 18.8454 64.6465 18.7497 64.2372 18.7014C63.8378 18.654 63.4166 18.6235 63.0686 18.6057C62.4478 18.1312 61.5224 16.189 61.3177 13.1736L61.0577 13.2436L56.6998 14.4342C56.6998 14.4342 56.8995 15.8162 56.9974 17.1231C57.0725 18.1451 57.0853 19.1226 56.8906 19.3613C56.5505 19.4353 56.3458 19.4826 56.3458 19.4826C56.3458 19.4826 56.3458 19.4836 56.3439 19.4866C56.2855 19.5822 55.021 21.6566 54.0779 24.3416Z" fill="#FDB3B1"/>
<path d="M56.6987 14.4342C56.6987 14.4342 56.8994 15.8152 56.9963 17.1232C59.4659 16.8766 60.6118 14.5309 61.0577 13.2446L56.6987 14.4342Z" fill="#FC9492"/>
<path d="M55.9623 15.7322C55.9623 15.7322 61.823 15.4096 61.5649 11.7708C61.3079 8.13294 61.8902 5.6403 58.1373 5.69258C54.3844 5.74486 53.7566 7.18402 53.546 8.41998C53.3364 9.65496 54.4308 15.7223 55.9623 15.7322Z" fill="#FDB3B1"/>
<path d="M53.5757 6.38421C54.4022 5.22519 55.1032 5.41655 55.5095 5.7174C58.5832 3.73375 60.8314 6.18101 60.8314 6.18101C61.4107 8.76341 63.4048 10.1237 63.4048 10.1237C63.4048 10.1237 62.3855 10.8575 59.8803 10.4028C59.1151 10.2637 58.4063 9.77941 57.7893 9.17376C58.9045 10.7678 60.345 11.8696 60.345 11.8696C57.3098 10.7254 55.8368 6.73241 55.6885 6.30924C55.3543 6.65547 54.6998 7.40119 54.5337 8.09858C54.3083 9.04553 54.3142 10.9621 53.7527 10.9374C53.7527 10.9374 52.336 8.12225 53.5757 6.38421Z" fill="#2A2E33"/>
<path d="M55.0131 19.1896C55.0131 19.1896 64.5605 16.8764 68.7118 20.2933L66.6377 49.1624L47.9651 44.6614C47.9651 44.6614 48.4901 42.8346 52.0709 37.9766C55.6518 33.1195 54.0937 25.9948 55.0131 19.1896Z" fill="#FDB3B1"/>
<path d="M60.5792 45.9489C60.5792 45.9489 60.5683 46.0465 60.5486 46.2329C60.5397 46.3128 60.5288 46.4105 60.5169 46.5229C60.4369 47.2716 60.2846 48.7068 60.0879 50.5741C59.5757 55.4696 58.771 63.3342 58.2233 69.5406C57.7942 74.3937 57.5223 78.2348 57.6696 78.8513C58.1116 80.7067 57.6696 102.893 57.6696 102.893C56.0829 103.652 53.6765 102.893 53.6765 102.893C53.6765 102.893 49.449 82.9005 50.0412 80.1218C50.6334 77.3431 49.6458 74.9708 49.6458 74.9708C46.3635 59.72 46.7233 51.2675 47.3749 47.2203C47.5647 46.0435 47.7792 45.2396 47.9364 44.7494C48.0689 44.3331 48.1608 44.1418 48.1608 44.1418C55.4017 42.1985 60.5792 45.9489 60.5792 45.9489Z" fill="#2A2E33"/>
<path d="M66.6378 49.1615C64.4104 50.0946 62.1909 50.503 60.089 50.574C58.1671 50.6381 56.343 50.4201 54.6999 50.064C51.119 49.2867 48.3923 47.8485 47.375 47.2212C47.5648 46.0444 47.7794 45.2405 47.9366 44.7502C50.1412 43.1848 55.5907 44.6832 60.0435 46.3443C60.2027 46.4044 60.3609 46.4636 60.5181 46.5238C63.9279 47.8239 66.6378 49.1615 66.6378 49.1615Z" fill="#222429"/>
<path d="M70 28.5269C69.5393 32.0001 67.6955 36.2495 67.037 38.5379C67.037 38.5379 68.1374 46.4804 67.0865 48.6604C66.9668 48.909 66.8195 49.0836 66.6386 49.1615C62.7453 50.8532 47.5824 49.2108 46.9418 44.3301C46.7095 42.5565 52.7175 36.3195 53.0675 35.5629C53.2128 35.2503 53.368 34.2352 52.6631 32.1322C51.6646 35.2039 49.8207 38.75 47.966 39.3547C45.9275 40.0205 37.867 34.0271 37.867 34.0271C37.867 34.0271 37.8206 33.2992 38.8398 32.6106C39.4953 32.1677 41 32.0188 41 32.0188L46.1539 34.3201C46.8004 33.2163 48.4119 25.5766 50.2113 22.1281C51.5637 19.5359 55.1762 19.1601 55.1762 19.1601C55.1762 19.1601 56.68 21.5393 60.3152 21.2019C63.9505 20.8646 64.6158 18.6442 64.6158 18.6442C64.6158 18.6442 67.8398 19.0723 68.8334 19.8713C69.0054 20.0113 70.6041 23.9767 70 28.5269Z" fill="#FF7043"/>
<path d="M67.0361 38.538C67.0361 38.538 68.1365 46.4805 67.0856 48.6604C64.2491 47.24 60.5516 44.1733 61.6767 39.3823C63.3109 32.4213 69.9991 28.527 69.9991 28.527C69.5394 32.0001 67.6946 36.2505 67.0361 38.538Z" fill="#F44336"/>
<path d="M64.615 33.1996C64.615 33.1996 60.5774 33.7835 60.2551 34.0844C59.9328 34.3852 58.8186 36.1322 58.956 36.7408C59.0934 37.3484 59.0796 37.9748 59.3258 37.9323C59.5729 37.8889 60.3797 36.3442 60.6842 36.2732C60.9887 36.2022 61.2398 35.9941 61.2774 36.1302C61.3149 36.2663 60.6575 36.9154 60.6901 37.1008C60.7227 37.2853 61.2398 37.0692 61.4721 36.7102C61.7044 36.3511 62.2838 36.1746 62.3708 35.9507C62.4578 35.7277 62.8582 34.9879 63.4019 35.0215C63.9447 35.054 64.615 33.1996 64.615 33.1996Z" fill="#FDB3B1"/>
<path d="M68.5439 33.0406L64.6151 33.1995L63.2705 35.0273L68.6141 35.2058L68.5439 33.0406Z" fill="#FDB3B1"/>
<path d="M64.615 18.6451C64.615 18.6451 69.2982 19.1995 70.5874 21.2029C72.2177 23.736 77.9775 32.1372 77.853 34.6791C77.853 34.6791 74.2652 36.1055 64.6189 35.341C64.6189 35.341 64.444 33.8851 66.4727 32.7172C66.4727 32.7172 71.6512 32.0099 72.2216 31.5078L68.3768 27.431L64.615 18.6451Z" fill="#FF7043"/>
<path d="M35.706 24.3761L38.9083 24.0713C39.1653 24.0466 39.4075 24.1926 39.5074 24.4304L41.9246 30.2363C42.0759 30.6003 41.8317 31.0077 41.4382 31.0452L38.1065 31.3628C37.8455 31.3875 37.5993 31.2365 37.5034 30.9929L35.2157 25.1751C35.0723 24.8111 35.3175 24.4136 35.706 24.3761Z" fill="#798599"/>
<path d="M35.4153 30.4602C35.4153 30.4602 34.57 29.0052 34.6333 28.6462C34.6965 28.2871 35.5715 26.625 36.0213 26.4603C36.8241 26.1654 37.9522 25.9819 37.6417 26.8263C37.4371 27.3826 36.6274 28.1905 36.7678 28.443C36.9091 28.6965 36.8548 29.5862 36.8548 29.5862L35.4153 30.4602Z" fill="#FDB3B1"/>
<path d="M163.028 93.2114C161.88 100.547 154.377 105.219 146.682 105.219H131.44L132.632 62.4623C132.632 62.4623 147.175 57.8045 150.828 62.2354C154.028 66.1169 162.707 81.4801 163.162 90.5738C163.209 91.4862 163.161 92.367 163.028 93.2114Z" fill="#DDE8FD"/>
<path d="M122.566 66.9889C122.566 66.9889 143.128 56.5173 147.024 63.358C149.092 66.9899 154.782 81.4792 155.203 90.5728C155.611 99.408 147.939 105.218 140.047 105.218H126.03L122.566 66.9889Z" fill="#64B5F6"/>
<path d="M126.432 72.7969C126.259 73.6866 124.594 74.5122 122.124 75.2431C121.689 75.3724 121.228 75.4976 120.746 75.6209C112.338 77.7634 97.4451 78.9599 96.0254 78.3276C94.0639 77.4546 82.0242 34.775 82.0242 34.775C82.0242 34.775 93.5172 34.3439 102.643 34.1338C105.766 34.0628 108.611 34.0174 110.625 34.0233C110.87 34.0243 111.101 34.0401 111.317 34.0717C112.189 34.196 112.835 34.559 113.347 35.1084C114.817 36.6847 115.181 39.7958 116.542 43.2363C117.887 46.6375 119.538 50.8829 121.104 55.0949C121.508 56.1809 121.906 57.264 122.292 58.3313C122.4 58.6321 122.508 58.932 122.616 59.2299C124.929 65.6908 126.712 71.3557 126.432 72.7969Z" fill="#C8E0FE"/>
<path d="M163.028 93.2116C161.88 100.547 154.377 105.219 146.682 105.219H139.206C144.191 101.848 148.7 91.4558 163.028 93.2116Z" fill="#BED2FA"/>
<path opacity="0.2" d="M122.616 59.2298C122.233 59.1677 121.741 59.0868 121.182 58.9921C121.065 58.8728 120.974 58.7534 120.918 58.6341C120.694 58.1409 120.847 56.7224 121.105 55.0958C119.539 50.8829 117.888 46.6384 116.543 43.2373C115.182 39.7967 114.818 36.6856 113.348 35.1093C112.836 34.5599 112.19 34.1969 111.318 34.0726C110.105 34.0894 108.823 34.1111 107.503 34.1348C107.033 35.064 106.224 35.9399 104.826 36.6738C98.5909 39.9486 103.217 46.6976 103.217 46.6976C103.261 46.7282 105.691 51.5468 105.691 51.5468C105.682 51.2104 106.01 50.6077 106.57 49.8413C106.983 52.7216 107.657 55.663 108.461 57.769C108.02 59.9933 106.89 63.3066 106.285 65.8407C105.8 67.8618 105.651 69.3849 106.451 69.4608C106.541 69.4697 106.64 69.4687 106.747 69.4608C106.698 70.1651 106.835 70.9079 107.234 71.6773C108.797 74.6917 116.313 75.2342 122.124 75.2451C124.594 74.5141 126.259 73.6885 126.432 72.7988C126.712 71.3557 124.929 65.6908 122.616 59.2298Z" fill="#64B5F6"/>
<path d="M151.026 98.6493C148.084 102.728 143.57 105.342 138.543 105.261L116.931 105.272L106.576 105.277L118.226 66.9947C118.226 66.9947 147.714 64.068 151.349 67.9712C153.038 69.7832 153.985 77.9891 154.517 86.2611C154.815 90.9248 153.455 95.2857 151.026 98.6493Z" fill="#C8E0FE"/>
<path d="M151.026 98.6495C148.083 102.728 143.57 105.342 138.543 105.261L116.931 105.272C119.474 103.143 127.472 97.0979 136.037 97.384C142.527 97.601 147.683 97.5073 151.026 98.6495Z" fill="#64B5F6"/>
<path d="M124.456 40.2013C124.456 40.2013 126.251 42.8527 127.275 48.4259C128.172 53.3076 128.959 55.1088 130.254 56.11C131.549 57.1112 138.766 60.0665 138.766 60.0665L138.227 61.3281C138.227 61.3281 127.648 59.8909 126.46 58.1262C125.271 56.3625 120.741 45.9402 121.093 43.5403C121.446 41.1404 124.456 40.2013 124.456 40.2013Z" fill="#FCA09E"/>
<path d="M150.36 98.4237C150.265 99.4535 151.702 99.7031 153.365 99.7859C155.029 99.8688 154.525 100.208 156.805 100.62C159.085 101.033 159.999 100.41 160.164 100.103C160.311 99.8303 159.251 99.4032 158.121 98.9218C157.979 98.8617 157.836 98.7995 157.694 98.7374C156.423 98.1801 155.71 97.0418 154.718 95.9873C153.779 94.9881 152.888 91.7902 152.888 91.7902L149.791 91.1302C149.791 91.1302 150.661 94.0086 150.962 95.2376C151.14 95.9607 150.877 96.7685 150.645 97.384C150.519 97.7184 150.393 98.0617 150.36 98.4237Z" fill="#FDB3B1"/>
<path d="M153.365 99.7862C155.029 99.869 154.525 100.208 156.805 100.621C159.085 101.033 159.999 100.411 160.164 100.103C160.311 99.8305 159.251 99.4034 158.121 98.9221L158.103 98.9408C158.103 98.9408 156.501 99.4843 154.65 98.9822C153.142 98.5739 151.684 97.6743 150.645 97.3843C150.519 97.7187 150.393 98.0619 150.36 98.4239C150.264 99.4537 151.701 99.7043 153.365 99.7862Z" fill="#FF7043"/>
<path d="M119.511 61.7708C119.511 61.7708 140.096 60.2251 143.972 62.6654C147.847 65.1058 154.063 93.531 154.063 93.531C154.063 93.531 153.679 93.8377 152.822 93.9305C152.025 94.0163 150.27 93.5487 150.27 93.5487C150.27 93.5487 141.338 80.83 140.708 77.6262C140.079 74.4224 140.233 71.5628 138.8 71.4868C137.368 71.4099 119.507 73.653 116.806 68.9044C114.104 64.1559 116.337 59.4557 116.337 59.4557L119.511 61.7708Z" fill="black"/>
<path d="M142.483 101.723C142.388 102.753 143.823 103.003 145.487 103.085C147.151 103.168 146.648 103.508 148.928 103.92C151.208 104.331 152.121 103.71 152.286 103.402C152.434 103.13 151.373 102.703 150.244 102.221C150.101 102.161 149.959 102.099 149.817 102.037C148.545 101.48 147.832 100.341 146.841 99.2867C145.902 98.2875 145.011 95.0896 145.011 95.0896L141.912 94.4297C141.912 94.4297 142.782 97.308 143.084 98.5371C143.262 99.2601 142.999 100.068 142.767 100.683C142.642 101.018 142.515 101.36 142.483 101.723Z" fill="#FDB3B1"/>
<path d="M145.487 103.085C147.151 103.168 146.648 103.507 148.928 103.92C151.208 104.331 152.121 103.71 152.286 103.402C152.433 103.13 151.373 102.702 150.244 102.221L150.226 102.241C150.226 102.241 148.623 102.783 146.772 102.282C145.265 101.874 143.807 100.974 142.767 100.684C142.642 101.019 142.515 101.362 142.483 101.724C142.388 102.752 143.823 103.002 145.487 103.085Z" fill="#FF7043"/>
<path d="M115.478 63.0435C115.478 63.0435 133.765 63.9075 137.543 66.4959C141.32 69.0852 146.422 97.7303 146.422 97.7303C146.422 97.7303 146.026 98.0223 145.166 98.0814C144.366 98.1367 142.631 97.6011 142.631 97.6011C142.631 97.6011 134.201 84.545 133.698 81.3195C133.193 78.093 133.458 75.2423 132.03 75.1101C130.601 74.9779 112.667 76.5256 110.153 71.6755C107.64 66.8263 115.478 63.0435 115.478 63.0435Z" fill="#2A2E33"/>
<path d="M121.995 22.8928C121.183 22.3582 120.176 22.2388 119.466 22.2339C119.661 22.0583 120.024 22.0139 120.024 22.0139C119.59 21.9192 118.582 22.2881 118.582 22.2881C112.64 19.538 111.083 28.4334 111.072 30.5236C111.061 32.6138 110.916 35.0098 107.747 36.6748C101.511 39.9497 106.137 46.6977 106.137 46.6977C106.183 46.7282 108.613 51.5468 108.613 51.5468C108.571 49.8541 116.943 41.4954 121.178 39.1073C122.263 37.7224 122.786 35.1814 122.826 34.9821C122.519 37.0033 122.095 38.1199 121.74 38.7413C125.386 35.8137 124.145 24.3093 121.995 22.8928Z" fill="#FF7043"/>
<path d="M114.71 37.1473C114.71 37.1473 116.324 37.2174 118.027 37.3782C119.183 37.4876 120.419 37.6149 121.071 37.8871C122.682 38.5599 122.513 41.4066 119.131 40.8789C115.75 40.3522 114.472 37.9917 114.71 37.1473Z" fill="#FDB3B1"/>
<path d="M120.928 39.2238C120.948 39.2346 121.411 41.673 119.196 41.5753C117.743 41.5112 114.608 39.7564 114.884 38.5145C115.015 37.9247 116.114 36.3928 116.335 32.897L116.6 32.968L121.05 34.1586C121.05 34.1586 120.852 35.5672 120.76 36.9008C120.682 38.0203 120.679 39.0866 120.928 39.2238Z" fill="#FDB3B1"/>
<path d="M121.05 34.1575C121.05 34.1575 120.852 35.5661 120.76 36.8997C118.242 36.661 117.062 34.2759 116.6 32.9669L121.05 34.1575Z" fill="#FCA09E"/>
<path d="M116.167 32.446C116.167 32.446 114.984 30.2739 114.786 28.4698C114.645 27.1825 115.609 22.508 120.314 23.5043C120.314 23.5043 121.686 23.7321 122.923 24.6919C123.908 25.4554 125.297 27.0553 123.357 31.0601L122.832 32.4213L116.167 32.446Z" fill="#FF7043"/>
<path d="M121.808 35.4763C121.808 35.4763 115.832 35.1775 116.076 31.4666C116.32 27.7558 115.712 25.2187 119.538 25.2523C123.364 25.2858 124.012 26.7506 124.232 28.0083C124.453 29.2679 123.368 35.4586 121.808 35.4763Z" fill="#FDB3B1"/>
<path d="M122.263 25.3441C122.263 25.3441 120.338 29.5876 117.786 30.065C115.235 30.5415 114.192 29.7987 114.192 29.7987C114.192 29.7987 116.217 28.402 116.795 25.7663C116.795 25.7653 121.169 23.1898 122.263 25.3441Z" fill="#FF7043"/>
<path d="M121.834 25.6697C121.834 25.6697 122.99 26.7221 123.224 27.6868C123.458 28.6515 123.462 30.6056 124.035 30.577C124.035 30.577 125.464 27.7007 124.192 25.935C122.843 24.0628 121.834 25.6697 121.834 25.6697Z" fill="#FF7043"/>
<path d="M127.788 62.0805C127.304 62.6576 125.793 62.8341 124.18 63.0995C122.911 63.3086 121.576 63.571 120.628 64.1273C118.474 65.3889 111.434 69.6541 109.372 69.4598C108.572 69.3848 108.722 67.8608 109.206 65.8397C109.968 62.6477 111.565 58.2148 111.565 56.2874C111.565 55.2359 111.916 52.7462 112.384 49.8994C112.422 49.6696 112.462 49.4388 112.5 49.205C113.426 43.6713 114.711 37.1462 114.711 37.1462C114.711 37.1462 116.142 40.2623 118.931 40.2623C121.719 40.2623 121.072 37.886 121.072 37.886C121.072 37.886 123.616 38.1849 124.218 38.831C124.82 39.4771 126.344 42.2706 126.647 43.0321C126.647 43.0321 126.708 44.0017 124.304 44.4624C124.304 44.4624 124.89 47.0931 124.959 48.8469C125.01 50.1421 124.073 54.1982 123.803 56.7204C123.707 57.6141 123.695 58.3144 123.841 58.633C124.027 59.0404 124.629 59.4458 125.314 59.8443C126.671 60.6345 128.362 61.395 127.788 62.0805Z" fill="white"/>
<path d="M125.312 59.8454C126.856 62.4712 121.125 63.2613 120.177 63.8166C118.023 65.0782 111.434 69.6542 109.372 69.4598C108.572 69.3849 108.722 67.8609 109.206 65.8397C109.968 62.6477 111.565 58.2148 111.565 56.2874C111.565 55.2359 111.916 52.7462 112.384 49.8995L114.868 47.5203C114.868 47.5203 117.528 54.3817 120.065 55.5062C121.394 56.0951 122.783 56.4837 123.803 56.7204C123.707 57.6141 123.695 58.3145 123.841 58.6331C124.025 59.0415 124.627 59.4469 125.312 59.8454Z" fill="#F8FAFD"/>
<path d="M113.947 39.2011C113.947 39.2011 111.823 37.9148 109.771 40.3551C107.718 42.7955 111.23 60.24 114.271 61.1367C117.649 62.132 127.41 60.9769 127.41 60.9769L127.222 59.4549C127.222 59.4549 116.832 57.4673 116.4 56.9129C115.968 56.3595 115.026 39.4832 113.947 39.2011Z" fill="#FDB3B1"/>
<path d="M114.71 37.1473C114.71 37.1473 110.35 37.5399 109.083 38.9702C107.817 40.4015 107.447 44.278 107.447 44.278C107.447 44.278 111.287 47.3704 115.913 46.171L114.71 37.1473Z" fill="#F8FAFD"/>
<path d="M134.188 61.7927H128.429V62.4714H134.188V61.7927Z" fill="#222429"/>
<path d="M132.965 62.3788C133.021 62.1539 138.259 53.948 138.259 53.948H149.914L144.069 62.1588L132.965 62.3788Z" fill="#222429"/>
<path d="M133.456 62.4714C133.512 62.2465 138.767 53.9469 138.767 53.9469H149.914L144.352 62.4714H133.456Z" fill="#798599"/>
<path d="M126.375 59.3651C126.375 59.3651 129.758 58.7121 130.14 58.8748C130.521 59.0386 132.65 60.9433 132.431 61.325C132.213 61.7058 131.34 61.978 130.358 61.6515C129.376 61.325 127.248 61.1613 126.866 60.672C126.484 60.1818 126.375 59.3651 126.375 59.3651Z" fill="#FDB3B1"/>
<path d="M133.115 93.5951C131.88 100.71 125.096 105.219 118.144 105.219H104.127L105.224 62.4623C105.224 62.4623 118.598 57.8045 121.956 62.2354C124.9 66.1169 132.88 81.4801 133.3 90.5738C133.349 91.6253 133.284 92.6343 133.115 93.5951Z" fill="#DDE8FD"/>
<path d="M133.116 93.5953C131.88 100.71 125.097 105.219 118.144 105.219H106.927C112.178 101.668 119.248 91.8572 133.116 93.5953Z" fill="#BED2FA"/>
<path d="M111.386 105.187C111.281 105.195 111.176 105.202 111.071 105.208C110.85 105.22 110.628 105.228 110.404 105.231C110.33 105.232 110.256 105.233 110.182 105.233H96.1647L96.1637 105.226C95.8968 105.229 95.6269 105.233 95.355 105.236C93.9116 105.253 92.4039 105.27 91.0059 105.282C90.7716 105.285 90.5403 105.286 90.3139 105.288C90.2289 105.289 90.1448 105.289 90.0618 105.29C88.6806 105.299 87.4587 105.304 86.5867 105.298C85.3618 105.289 84.207 105.203 83.1205 105.032C81.7196 104.811 80.4334 104.448 79.2579 103.929C78.8337 103.742 78.4254 103.535 78.029 103.306C77.4971 103.001 76.9899 102.656 76.5084 102.272C75.2647 101.28 74.1891 100.027 73.2746 98.4828C72.6379 97.4086 72.0783 96.1943 71.5948 94.8292C70.9858 93.1177 70.4965 91.1696 70.1208 88.967C69.582 85.8233 69.2745 82.1618 69.1816 77.9291C69.144 76.2246 69.142 74.4274 69.1727 72.5335C69.2221 69.5082 69.3595 66.2373 69.578 62.707C69.8855 57.7493 70.3571 52.2807 70.9789 46.2607C71.5464 40.7625 72.2009 36.9194 73.153 36.0435C74.5568 34.7523 77.4862 34.2325 79.5238 34.0243C79.5248 34.0243 79.5248 34.0243 79.5258 34.0243C80.7902 33.8951 81.7097 33.8853 81.7097 33.8853C84.1991 33.8853 86.4117 35.6687 87.2105 38.3181C88.8368 43.7138 91.7415 53.3598 94.7638 63.4497C94.7786 63.5 94.7944 63.5513 94.8093 63.6016C94.9823 64.1816 95.1573 64.7626 95.3313 65.3446C95.358 65.4334 95.3846 65.5221 95.4113 65.6109C95.5814 65.535 95.7584 65.4561 95.9403 65.3752C95.9462 65.3722 95.9521 65.3693 95.9591 65.3673C96.6837 65.0467 97.5033 64.6955 98.3892 64.3385H98.3901C98.8489 64.153 99.3244 63.9646 99.8148 63.7772C101.198 63.2485 102.691 62.7257 104.204 62.2749C104.876 62.0737 105.552 61.8873 106.224 61.7225C107.087 61.5095 107.943 61.3289 108.778 61.1948C108.807 61.1899 108.83 61.1859 108.851 61.183C108.95 61.1672 109.048 61.1524 109.147 61.1386C112.745 60.6118 115.869 60.9778 117.161 63.2514C119.229 66.8942 124.918 81.4259 125.339 90.5462C125.727 98.9533 118.834 104.63 111.386 105.187Z" fill="#64B5F6"/>
<path d="M88.9012 67.3183C88.9012 67.3183 81.7068 38.0744 81.1878 35.6163C80.9565 34.5204 80.2436 34.1248 79.5249 34.0232C80.7894 33.894 81.7098 33.8842 81.7098 33.8842C84.1992 33.8842 86.4108 35.6617 87.2106 38.3042C88.9526 44.0668 92.1618 54.6933 95.4114 65.5171C95.2454 65.5132 88.9012 67.3183 88.9012 67.3183Z" fill="#DDE8FD"/>
<path d="M115.409 81.3814C113.484 78.2062 115.1 77.6104 114.805 70.4974C114.51 63.3855 111.19 63.9724 109.813 62.5973C109.561 62.3448 109.347 61.8279 109.145 61.1365C109.047 61.1513 108.949 61.1651 108.849 61.1809C108.828 61.1838 108.806 61.1878 108.776 61.1927C107.941 61.3269 107.085 61.5074 106.222 61.7204C105.55 61.8861 104.874 62.0726 104.202 62.2728C102.689 62.7236 101.196 63.2464 99.8128 63.7751C99.3224 63.9625 98.8469 64.1509 98.3882 64.3364C97.1968 71.7975 95.354 105.235 95.354 105.235C95.3688 105.25 95.3837 105.266 95.3985 105.281C96.9032 105.267 98.5305 105.249 100.078 105.232C100.298 105.228 100.518 105.226 100.735 105.223L100.736 105.23H111.314C111.328 105.222 111.342 105.213 111.357 105.204C111.366 105.198 111.377 105.192 111.386 105.186C114.226 103.428 113.593 99.9011 112.924 97.6906C112.654 95.3262 111.608 92.5563 110.752 89.9818C111.018 89.1986 111.391 88.7498 112.991 88.1609C114.77 87.507 115.236 84.7154 115.236 84.7154C115.711 85.9642 114.625 87.6875 114.596 87.7328C114.657 87.6608 117.313 84.5191 115.409 81.3814Z" fill="#42A5F5"/>
<path d="M91.778 66.9673C91.778 66.9673 81.1066 71.6053 79.1698 71.5215C77.2331 71.4367 65.2971 67.8945 65.2971 67.8945L65.6006 69.9433C65.6006 69.9433 74.8119 75.2294 78.0329 75.5293C81.2035 75.8242 92.0449 72.6904 93.0909 72.0285C94.1369 71.3657 94.8191 67.6371 91.778 66.9673Z" fill="#FC9492"/>
<path d="M93.3817 49.9025C93.3817 49.9025 97.3184 49.1567 99.2789 50.5851C102.83 53.1724 103.021 62.0944 104.353 63.4231C105.683 64.7518 108.893 64.1846 109.178 71.0618C109.464 77.938 107.901 78.5131 109.763 81.5827C111.624 84.6524 108.975 87.7251 108.975 87.7251C108.975 87.7251 110.06 86.0304 109.594 84.8073C109.594 84.8073 109.143 87.5071 107.423 88.1394C105.705 88.7726 105.45 89.2362 105.176 90.1644C105.176 90.1644 90.5126 82.6678 90.4968 77.3511C90.481 72.0334 87.6109 66.767 89.0207 64.4628C89.0207 64.4628 88.3929 65.4482 88.3158 66.545C88.3158 66.545 87.4705 64.9283 88.9357 63.4241C90.4009 61.9198 87.2164 58.8057 87.688 55.1994C88.0123 52.7226 89.7533 50.011 93.3817 49.9025Z" fill="#2A2E33"/>
<path d="M90.481 72.0333C91.4182 72.6823 92.5937 73.217 94.0688 73.5563C99.5983 74.8307 101.718 70.168 102.514 66.9671C101.759 66.5361 101.05 66.4414 100.64 66.393C100.241 66.3457 99.8197 66.3151 99.4717 66.2974C98.8508 65.8229 97.9255 63.8807 97.7208 60.8652L97.4608 60.9353L93.1028 62.1259C93.1028 62.1259 93.3026 63.5078 93.4004 64.8148C93.4766 65.8367 93.4874 66.8142 93.2937 67.0529C92.9536 67.1269 92.7499 67.1743 92.7499 67.1743C92.7499 67.1743 92.7499 67.1752 92.7479 67.1782C92.6886 67.2739 91.4241 69.3483 90.481 72.0333Z" fill="#FDB3B1"/>
<path d="M93.1028 62.126C93.1028 62.126 93.3035 63.507 93.4004 64.8149C95.869 64.5683 97.0149 62.2227 97.4617 60.9364L93.1028 62.126Z" fill="#FC9492"/>
<path d="M92.3653 63.4231C92.3653 63.4231 98.226 63.1006 97.969 59.4617C97.7109 55.8239 98.2942 53.3312 94.5413 53.3835C90.7884 53.4358 90.1606 54.8749 89.951 56.1109C89.7404 57.3469 90.8339 63.4132 92.3653 63.4231Z" fill="#FDB3B1"/>
<path d="M89.9788 54.0759C90.8053 52.9168 91.5063 53.1082 91.9126 53.4091C94.9863 51.4254 97.2345 53.8727 97.2345 53.8727C97.8138 56.4551 99.8079 57.8153 99.8079 57.8153C99.8079 57.8153 98.7886 58.5492 96.2834 58.0945C95.5182 57.9554 94.8093 57.4711 94.1924 56.8654C95.3076 58.4594 96.748 59.5612 96.748 59.5612C93.7129 58.416 92.2398 54.4241 92.0915 54.0009C91.7574 54.3461 91.1029 55.0928 90.9368 55.7892C90.7114 56.7362 89.7395 58.2178 89.178 58.1931C89.179 58.1931 88.74 55.8139 89.9788 54.0759Z" fill="#2A2E33"/>
<path d="M104.183 83.9225C104.712 81.2227 106.438 70.4383 104.712 66.9672C104.092 65.7204 101.66 65.6079 98.9913 65.7174C98.1608 66.252 94.9971 68.2732 93.698 68.0207C93.6842 68.0177 93.6585 68.0118 93.6249 68.0039C93.0129 67.851 92.7816 67.4219 93.2927 67.053C93.2937 67.052 91.9709 66.9258 90.3297 67.2345C89.4024 67.4091 86.9031 68.6993 86.9031 68.6993C86.9031 68.6993 88.1626 70.969 90.0183 71.7522C89.7029 74.5694 90.1715 75.8132 93.1019 82.3205C95.5775 87.8217 92.7677 92.7744 92.7677 92.7744C92.7677 92.7744 107.34 104.464 107.421 98.5123C107.484 94.0301 103.506 87.3719 104.183 83.9225Z" fill="#F8FAFD"/>
<path d="M92.047 105.484C91.2541 105.395 90.5412 104.962 90.0983 104.301C90.0281 104.195 89.953 104.083 89.8729 103.962C88.214 101.457 87.5684 93.7835 83.8372 85.6102C82.9287 83.6206 79.6661 83.2626 78.7764 81.0126C78.7764 81.0126 76.5865 73.7211 82.9672 73.5061C89.347 73.291 100.054 93.7944 100.223 95.9447C100.386 98.027 104.441 106.879 92.047 105.484Z" fill="#F44336"/>
<path d="M66.6882 105.317H75.7689C75.7689 105.317 76.108 103.871 75.5119 102.888C74.9839 102.018 75.1866 101.522 75.5771 100.803C75.1659 100.97 74.634 101.123 74.0477 101.09C73.5949 101.064 73.1174 100.859 72.6972 100.616C72.3067 101.061 70.6329 102.953 70.1099 103.328C69.5177 103.753 66.8711 103.602 66.6882 105.317Z" fill="#2A2E33"/>
<path d="M103.226 69.7942C103.226 69.7942 104.408 80.5223 96.743 82.7703C89.078 85.0183 86.902 72.8994 93.0909 72.0274C99.2788 71.1564 103.226 69.7942 103.226 69.7942Z" fill="#E1E5EB"/>
<path d="M78.5688 75.613C78.0221 79.7026 75.8866 92.6127 72.1199 98.9109C70.9058 100.942 75.1798 102.079 75.2025 102.073C75.7759 101.923 76.7309 101.012 77.1709 100.616C80.2288 97.8663 86.4365 90.0806 86.4365 83.8376C86.4365 80.7936 86.4899 74.9807 84.2714 73.5031C82.906 72.5936 78.7853 73.9884 78.5688 75.613Z" fill="#F44336"/>
<path d="M97.4618 105.317C97.4618 105.317 97.1256 104.849 96.5384 103.962C95.8404 102.907 95.0672 100.83 94.13 98.1681C93.1453 95.3736 91.9767 91.935 90.5165 88.3573C90.0657 87.2525 89.5872 86.1349 89.078 85.0193C88.1695 83.0297 85.6692 83.304 84.7794 81.055C84.7794 81.055 81.3083 73.2565 87.689 73.0414C94.0687 72.8264 106.192 93.9039 106.889 95.9447C107.651 98.1779 111.372 107.457 97.4618 105.317Z" fill="#FF7043"/>
<path d="M73.3547 105.317H82.4354C82.4354 105.317 82.7746 103.871 82.1784 102.888C81.6505 102.018 81.8531 101.522 82.2437 100.803C81.8324 100.97 81.3005 101.123 80.7142 101.09C80.2614 101.064 79.7829 100.859 79.3637 100.616C78.9732 101.061 77.2994 102.953 76.7764 103.328C76.1832 103.753 73.5376 103.602 73.3547 105.317Z" fill="#2A2E33"/>
<path d="M94.1291 98.1672C93.1444 95.3728 91.9759 91.9342 90.5156 88.3565C90.8972 85.6459 91.7198 83.2745 93.1029 82.3187C93.1029 82.3197 96.4584 92.6917 94.1291 98.1672Z" fill="#F44336"/>
<path d="M83.869 75.323C83.3223 79.4126 82.5522 92.6126 78.7854 98.9108C77.5714 100.942 81.8453 102.079 81.868 102.073C82.4414 101.923 83.3965 101.012 83.8364 100.616C86.8943 97.8662 93.102 90.0805 93.102 83.8376C93.102 80.7935 89.5221 75.2243 87.3036 73.7477C85.9383 72.8372 84.0865 73.6984 83.869 75.323Z" fill="#FF7043"/>
<path d="M64.2127 62.623L73.5119 61.6376C73.7828 61.609 74.0388 61.7659 74.1367 62.0204L77.4645 70.7431C77.6098 71.1258 77.3379 71.5381 76.9277 71.5549L67.6996 71.9268C67.4495 71.9367 67.2181 71.7907 67.1213 71.5599L63.7223 63.4506C63.5671 63.0797 63.8132 62.6655 64.2127 62.623Z" fill="#222429"/>
<path d="M63.4049 62.7089L72.7041 61.7234C72.975 61.6948 73.231 61.8517 73.3289 62.1062L76.6557 70.8289C76.802 71.2116 76.5282 71.624 76.1189 71.6407L66.8909 72.0116C66.6397 72.0215 66.4094 71.8755 66.3125 71.6447L62.9135 63.5355C62.7593 63.1656 63.0045 62.7513 63.4049 62.7089Z" fill="#798599"/>
<path d="M68.8949 66.7805C68.7812 66.4688 68.9423 66.2173 69.2537 66.2173C69.5662 66.2173 69.9112 66.4698 70.0249 66.7805C70.1386 67.0922 69.9774 67.3447 69.665 67.3447C69.3526 67.3447 69.0076 67.0922 68.8949 66.7805Z" fill="#222429"/>
<path d="M64.0177 63.5325C63.9623 63.3797 64.0414 63.2554 64.1946 63.2554C64.3479 63.2554 64.5179 63.3797 64.5733 63.5325C64.6286 63.6854 64.5496 63.8097 64.3963 63.8097C64.2431 63.8097 64.074 63.6854 64.0177 63.5325Z" fill="#222429"/>
<path d="M102.514 66.9673C102.514 66.9673 89.6248 71.703 87.6881 71.6053C86.4364 71.5422 76.0319 67.8935 76.0319 67.8935L75.0977 69.6562C75.0977 69.6562 85.2244 76.1507 88.0084 76.1181C93.5043 76.055 102.779 72.6884 103.826 72.0265C104.873 71.3656 105.555 67.6371 102.514 66.9673Z" fill="#FDB3B1"/>
<path d="M76.032 67.8944C76.032 67.8944 75.0977 66.4602 74.1684 66.4188C73.2381 66.3764 71.6315 67.0511 71.0828 67.1566C70.5331 67.2622 68.9691 67.7682 69.4337 68.5277C69.8984 69.2872 72.0546 69.4559 72.985 69.2872C73.9153 69.1186 75.0987 69.6581 75.0987 69.6581L76.032 67.8944Z" fill="#FDB3B1"/>
<path d="M74.4215 66.4623C74.4215 66.4623 72.9425 65.7857 72.5193 65.6594C72.0962 65.5331 72.1812 65.6614 72.3078 66.0609C72.4343 66.4604 73.1956 66.8421 73.1956 66.9674C73.1956 67.0926 74.4215 66.4623 74.4215 66.4623Z" fill="#FDB3B1"/>
<path d="M64.363 67.1349C64.363 67.1349 65.2953 65.6632 65.6008 65.603C66.5311 65.4195 66.5311 66.6417 66.3334 67.4298C66.1218 68.2751 65.4051 69.0741 65.2073 69.0041C65.0086 68.935 64.1436 67.9131 64.363 67.1349Z" fill="#FDB3B1"/>
<path d="M64.3273 67.4298C64.3273 67.4298 64.0287 69.081 65.6007 69.9422L64.3273 67.4298Z" fill="#FDB3B1"/>
<path d="M91.2678 61.3309C91.2678 61.3309 91.8215 61.1119 93.3805 61.2382C93.3805 61.2382 93.2975 61.8448 92.1477 61.905C91.4972 61.9395 91.2678 61.3309 91.2678 61.3309Z" fill="white"/>
<path d="M95.873 69.3029C95.873 69.3029 97.0258 72.9437 100.984 73.7723C100.984 73.7723 107.522 71.763 104.267 67.3193C104.268 67.3183 101.049 64.9332 95.873 69.3029Z" fill="#F8FAFD"/>
</svg>
