<svg width="353" height="206" viewBox="0 0 353 206" fill="none" xmlns="http://www.w3.org/2000/svg">
<path d="M15.0375 205.999C15.0375 205.999 -11.2313 179.47 5.66995 141.709C19.9053 109.904 60.5521 130.348 49.4213 90.1416C39.3238 53.6699 49.5985 22.0603 143.469 5.60387C204.06 -5.0186 298.601 -8.67264 277.385 71.7173C269.832 100.338 391.023 76.5456 340.212 206H15.0375V205.999Z" fill="#FBFDFF"/>
<path d="M258.156 169.345C256.829 162.13 244.73 163.345 244.73 163.345C244.73 163.345 235.61 175.021 233.232 175.119C230.854 175.217 239.078 163.616 239.078 163.616C234.553 162.796 222.466 167.417 222.466 167.417C222.466 167.417 222.002 181.883 219.673 181.394C217.344 180.904 220.738 168.606 220.738 168.606C216.213 169.562 211.666 174.365 211.666 174.365C205.819 182.316 216.341 189.405 216.341 189.405C216.341 189.405 216.072 194.415 212.506 199.891C212.506 199.891 211.72 200.892 210.862 202.632L212.066 202.731C212.191 202.417 212.325 202.115 212.47 201.825C212.47 201.823 212.471 201.822 212.473 201.82C212.475 201.817 212.478 201.812 212.479 201.808C212.577 201.629 212.717 201.375 212.892 201.065C212.892 201.065 212.892 201.064 212.893 201.064C212.893 201.063 212.894 201.063 212.894 201.063C213.322 200.374 213.615 199.864 213.804 199.493C213.804 199.492 213.805 199.491 213.805 199.49C215.094 197.325 216.926 194.515 218.036 193.986C218.036 193.986 217.918 193.788 217.824 193.412C217.892 193.595 217.962 193.786 218.036 193.986C219.728 198.566 229.967 200.156 235.802 199.458C241.638 198.758 239.271 196.934 236.4 194.053C233.528 191.172 226.996 191.327 225.17 190.138C223.343 188.95 226.225 188.154 230.025 188.766C233.826 189.377 235.421 193.358 241.551 194.458C247.682 195.56 253.356 184.339 253.356 184.339C248.979 185.307 241.524 182.32 241.352 180.825C241.18 179.331 252.497 180.419 254.299 180.124C256.098 179.831 259.482 176.559 258.156 169.345Z" fill="#CDE0FB"/>
<path d="M43.8935 189.048C38.1976 180.41 51.7061 169.852 51.7061 169.852C51.7061 169.852 72.3941 172.85 74.9114 170.631C77.43 168.414 57.7253 164.618 57.7253 164.618C61.532 159.373 78.3518 152.295 78.3518 152.295C78.3518 152.295 92.9506 166.573 94.8447 163.804C96.7388 161.035 81.2723 151.82 81.2723 151.82C86.8121 148.384 96.1329 148.841 96.1329 148.841C109.85 151.237 106.062 168.712 106.062 168.712C106.062 168.712 111.228 173.552 120.208 175.65C120.208 175.65 121.986 175.903 124.558 176.839L123.431 178.114C122.997 177.916 122.565 177.738 122.135 177.586C122.132 177.583 122.13 177.583 122.127 177.583C122.121 177.581 122.115 177.578 122.109 177.577C121.835 177.49 121.443 177.368 120.963 177.222C120.962 177.222 120.962 177.222 120.961 177.222C120.959 177.221 120.959 177.222 120.958 177.222C119.851 176.937 119.054 176.703 118.5 176.51C118.499 176.51 118.496 176.509 118.495 176.507C115.067 175.559 102.692 192.94 96.0665 197.917C89.4413 202.894 90.0694 198.729 90.1788 192.997C90.2894 187.265 97.0892 181.055 97.7898 178.064C98.4904 175.074 94.7783 177.071 91.5063 181.398C88.2331 185.726 90.4972 191.334 85.331 198.431C80.1648 205.527 63.4273 199.633 63.4273 199.633C68.8295 196.353 73.5028 186.044 72.2183 184.355C70.9338 182.667 60.4737 194.806 58.3509 196.262C56.2281 197.718 49.5894 197.685 43.8935 189.048Z" fill="#CDE0FB"/>
<path d="M215.392 95.7091C215.392 95.7091 227.077 71.9057 233.613 74.0191C240.148 76.13 215.392 95.7091 215.392 95.7091Z" fill="#CDE0FB"/>
<path d="M206.988 106.476C206.988 106.476 234.979 79.0652 245.858 84.0631C256.736 89.0623 239.227 94.4225 232.549 95.8825C225.871 97.3438 206.988 106.476 206.988 106.476Z" fill="#CDE0FB"/>
<path d="M121.065 101.235C121.065 101.235 109.38 77.4315 102.844 79.5448C96.3088 81.657 121.065 101.235 121.065 101.235Z" fill="#DFEBFD"/>
<path d="M129.469 112.004C129.469 112.004 101.478 84.593 90.5996 89.591C79.7216 94.5901 97.2297 99.9503 103.908 101.41C110.587 102.872 129.469 112.004 129.469 112.004Z" fill="#DFEBFD"/>
<path d="M99.663 38.5445C103.66 29.6244 118.941 35.0165 118.941 35.0165C118.941 35.0165 127.055 53.009 130.102 53.887C133.15 54.7651 126.172 37.1508 126.172 37.1508C132.289 37.5179 146.476 47.3148 146.476 47.3148C146.476 47.3148 142.5 66.1878 145.67 66.2897C148.84 66.3917 148.338 49.4 148.338 49.4C153.891 52.0659 158.26 59.7188 158.26 59.7188C163.314 71.8562 147.452 77.7137 147.452 77.7137C147.452 77.7137 146.215 84.2835 149.101 92.4987C149.101 92.4987 149.802 94.0423 150.362 96.5658L148.773 96.3153C148.71 95.8696 148.633 95.4349 148.536 95.0149C148.536 95.0112 148.536 95.01 148.533 95.0075C148.532 95.0014 148.531 94.9952 148.53 94.9891C148.459 94.7263 148.357 94.353 148.23 93.8962V93.895C148.23 93.8937 148.228 93.8937 148.228 93.8925C147.893 92.8659 147.675 92.1131 147.547 91.5741C147.547 91.5728 147.546 91.5704 147.546 91.5692C146.562 88.3592 145.079 84.1447 143.81 83.1095C143.81 83.1095 144.025 82.8897 144.264 82.4354C144.119 82.6503 143.968 82.875 143.81 83.1095C140.17 88.5053 126.413 87.3326 119.08 84.5843C111.747 81.8373 115.388 80.2225 120.015 77.3994C124.643 74.5762 133.049 76.837 135.79 75.8767C138.532 74.9164 135.053 72.9749 129.94 72.5672C124.826 72.1595 121.503 76.8087 113.218 76.2991C104.934 75.7895 101.137 59.4719 101.137 59.4719C106.496 62.1072 117.091 60.5931 117.787 58.713C118.483 56.833 103.488 54.6693 101.249 53.7188C99.0103 52.7671 95.6657 47.4646 99.663 38.5445Z" fill="#DFEBFD"/>
<path d="M233.051 69.9738V203.653C233.051 204.948 231.904 206 230.488 206H118.048C116.633 206 115.485 204.948 115.485 203.653V69.9738C115.485 68.6769 116.633 67.6263 118.048 67.6263H230.488C231.904 67.6263 233.051 68.6757 233.051 69.9738Z" fill="#42A5F5"/>
<path d="M138.37 122.769V114.117H139.931V119.86C140.214 119.41 140.534 118.927 140.892 118.411C141.258 117.887 141.633 117.367 142.016 116.851C142.407 116.335 142.794 115.839 143.177 115.365C143.56 114.882 143.918 114.466 144.25 114.117H145.536V122.769H143.988V116.576C143.639 116.992 143.268 117.462 142.877 117.987C142.494 118.503 142.116 119.04 141.741 119.597C141.366 120.147 141.004 120.696 140.655 121.245C140.305 121.786 139.989 122.294 139.706 122.769H138.37Z" fill="white"/>
<path d="M152.943 114.117H154.516V122.769H152.943V118.936H149.185V122.769H147.612V114.117H149.185V117.575H152.943V114.117Z" fill="white"/>
<path d="M160.431 122.956C159.781 122.956 159.199 122.856 158.683 122.656C158.167 122.456 157.73 122.165 157.372 121.782C157.014 121.391 156.739 120.917 156.548 120.359C156.356 119.801 156.261 119.16 156.261 118.436C156.261 117.712 156.369 117.071 156.585 116.514C156.81 115.956 157.114 115.486 157.497 115.103C157.88 114.712 158.329 114.416 158.845 114.216C159.361 114.017 159.915 113.917 160.506 113.917C160.863 113.917 161.188 113.946 161.479 114.004C161.771 114.054 162.025 114.112 162.241 114.179C162.457 114.246 162.636 114.316 162.778 114.391C162.919 114.466 163.019 114.52 163.077 114.553L162.615 115.839C162.416 115.715 162.129 115.598 161.754 115.49C161.388 115.373 160.988 115.315 160.555 115.315C160.181 115.315 159.831 115.382 159.507 115.515C159.182 115.64 158.899 115.831 158.658 116.089C158.425 116.347 158.242 116.672 158.108 117.063C157.975 117.454 157.909 117.908 157.909 118.424C157.909 118.882 157.959 119.302 158.059 119.685C158.167 120.068 158.329 120.401 158.545 120.684C158.762 120.958 159.037 121.175 159.369 121.333C159.702 121.483 160.102 121.557 160.568 121.557C161.126 121.557 161.579 121.503 161.929 121.395C162.278 121.279 162.549 121.17 162.74 121.071L163.165 122.357C163.065 122.423 162.928 122.49 162.753 122.556C162.586 122.623 162.387 122.689 162.154 122.756C161.921 122.814 161.658 122.86 161.367 122.893C161.076 122.935 160.764 122.956 160.431 122.956Z" fill="white"/>
<path d="M170.76 114.117V115.477H168.101V122.769H166.515V115.477H163.856V114.117H170.76Z" fill="white"/>
<path d="M174.407 114.029C175.664 114.029 176.625 114.258 177.291 114.716C177.965 115.174 178.302 115.889 178.302 116.863C178.302 117.371 178.21 117.808 178.027 118.174C177.853 118.532 177.595 118.827 177.253 119.061C176.912 119.285 176.496 119.452 176.005 119.56C175.514 119.668 174.952 119.722 174.319 119.722H173.533V122.769H171.96V114.241C172.326 114.158 172.73 114.104 173.171 114.079C173.62 114.046 174.032 114.029 174.407 114.029ZM174.519 115.39C174.12 115.39 173.791 115.402 173.533 115.427V118.374H174.294C175.052 118.374 175.634 118.27 176.042 118.062C176.45 117.845 176.654 117.442 176.654 116.851C176.654 116.568 176.6 116.33 176.492 116.139C176.384 115.948 176.234 115.798 176.042 115.69C175.851 115.581 175.622 115.506 175.356 115.465C175.098 115.415 174.819 115.39 174.519 115.39Z" fill="white"/>
<path d="M183.971 120.184C183.763 120.65 183.546 121.058 183.322 121.408C183.105 121.749 182.864 122.032 182.597 122.257C182.339 122.481 182.048 122.648 181.723 122.756C181.407 122.864 181.049 122.918 180.65 122.918C180.408 122.918 180.155 122.893 179.888 122.843C179.63 122.793 179.418 122.731 179.251 122.656L179.539 121.358C179.697 121.424 179.863 121.478 180.038 121.52C180.213 121.553 180.392 121.57 180.575 121.57C180.958 121.57 181.274 121.483 181.524 121.308C181.782 121.133 182.019 120.846 182.235 120.446C181.886 119.88 181.549 119.31 181.224 118.736C180.908 118.162 180.612 117.604 180.338 117.063C180.063 116.514 179.809 115.989 179.576 115.49C179.351 114.99 179.147 114.533 178.964 114.117H180.725C180.858 114.458 181.008 114.824 181.174 115.215C181.349 115.606 181.532 116.01 181.723 116.426C181.923 116.842 182.131 117.267 182.348 117.7C182.564 118.132 182.781 118.565 182.997 118.998C183.297 118.257 183.584 117.467 183.858 116.626C184.133 115.785 184.391 114.949 184.632 114.117H186.33C186.131 114.732 185.931 115.315 185.731 115.864C185.531 116.405 185.332 116.926 185.132 117.425C184.94 117.916 184.745 118.39 184.545 118.848C184.354 119.298 184.162 119.743 183.971 120.184Z" fill="white"/>
<path d="M192.6 122.769C192.384 122.436 192.134 122.086 191.851 121.72C191.568 121.354 191.269 121 190.952 120.659C190.644 120.317 190.324 119.993 189.991 119.685C189.658 119.377 189.329 119.11 189.005 118.886V122.769H187.432V114.117H189.005V117.687C189.279 117.413 189.567 117.121 189.866 116.813C190.166 116.497 190.461 116.181 190.753 115.864C191.052 115.54 191.335 115.228 191.602 114.928C191.868 114.628 192.109 114.358 192.326 114.117H194.211C193.936 114.433 193.645 114.762 193.337 115.103C193.029 115.444 192.713 115.789 192.388 116.139C192.064 116.48 191.735 116.822 191.402 117.163C191.077 117.504 190.757 117.829 190.441 118.137C190.79 118.403 191.144 118.715 191.502 119.073C191.868 119.423 192.226 119.801 192.575 120.209C192.925 120.609 193.258 121.029 193.574 121.47C193.899 121.903 194.194 122.336 194.461 122.769H192.6Z" fill="white"/>
<path d="M203.704 121.433V125.078H202.193V122.769H195.564V114.117H197.137V121.433H200.832V114.117H202.406V121.433H203.704Z" fill="white"/>
<path d="M204.952 122.769V114.117H206.513V119.86C206.796 119.41 207.116 118.927 207.474 118.411C207.84 117.887 208.215 117.367 208.597 116.851C208.989 116.335 209.376 115.839 209.759 115.365C210.141 114.882 210.499 114.466 210.832 114.117H212.118V122.769H210.57V116.576C210.221 116.992 209.85 117.462 209.459 117.987C209.076 118.503 208.697 119.04 208.323 119.597C207.948 120.147 207.586 120.696 207.237 121.245C206.887 121.786 206.571 122.294 206.288 122.769H204.952Z" fill="white"/>
<path d="M217.952 114.029C218.293 114.029 218.68 114.046 219.113 114.079C219.545 114.104 219.953 114.158 220.336 114.241V122.769H218.763V119.522H217.852C217.743 119.522 217.631 119.522 217.515 119.522C217.398 119.514 217.29 119.502 217.19 119.485C217.024 119.685 216.857 119.914 216.691 120.172C216.524 120.421 216.358 120.692 216.191 120.983C216.033 121.266 215.871 121.562 215.704 121.87C215.546 122.169 215.392 122.469 215.242 122.769H213.569C213.719 122.444 213.881 122.115 214.056 121.782C214.231 121.449 214.406 121.129 214.581 120.821C214.764 120.505 214.943 120.213 215.118 119.947C215.301 119.672 215.467 119.439 215.617 119.248C215.051 119.04 214.635 118.732 214.368 118.324C214.102 117.916 213.969 117.413 213.969 116.813C213.969 116.347 214.06 115.939 214.244 115.59C214.435 115.24 214.701 114.953 215.043 114.728C215.392 114.495 215.812 114.32 216.304 114.204C216.795 114.087 217.344 114.029 217.952 114.029ZM217.839 115.39C217.523 115.39 217.227 115.415 216.953 115.465C216.686 115.506 216.453 115.581 216.254 115.69C216.054 115.798 215.896 115.943 215.779 116.127C215.671 116.31 215.617 116.534 215.617 116.801C215.617 117.084 215.671 117.317 215.779 117.5C215.896 117.683 216.058 117.829 216.266 117.937C216.483 118.045 216.741 118.12 217.04 118.162C217.348 118.203 217.694 118.224 218.076 118.224H218.763V115.427C218.472 115.402 218.164 115.39 217.839 115.39Z" fill="white"/>
<path d="M126.955 67.575V205.54H118.212C116.917 205.54 115.868 204.491 115.868 203.199V69.9155C115.868 68.6224 116.917 67.575 118.212 67.575H126.955Z" fill="#64B5F6"/>
<g opacity="0.7">
<path opacity="0.7" d="M156.526 162.535L158.405 161.5C158.562 161.415 158.754 161.426 158.9 161.527C159.087 161.657 159.281 161.78 159.482 161.896C159.855 162.112 160.235 162.296 160.622 162.444C160.804 162.514 160.925 162.684 160.927 162.877L160.969 165.118C160.971 165.357 161.159 165.555 161.402 165.571L163.448 165.71C163.68 165.724 163.885 165.565 163.926 165.338L164.289 163.305C164.32 163.106 164.482 162.954 164.687 162.927C165.552 162.81 166.398 162.556 167.191 162.173C167.383 162.081 167.617 162.133 167.754 162.296L168.56 163.259C168.715 163.44 168.983 163.481 169.185 163.349L170.875 162.215C170.909 162.191 170.941 162.167 170.967 162.135C171.095 161.993 171.122 161.779 171.025 161.606L170.252 160.202L170.062 159.861C170.298 159.561 170.517 159.239 170.713 158.902C170.977 158.446 171.193 157.973 171.36 157.497C171.425 157.315 171.593 157.19 171.786 157.189L173.592 157.157C173.839 157.151 174.042 156.96 174.057 156.715L174.164 155.151L174.193 154.703C174.211 154.459 174.04 154.239 173.799 154.197L172.099 153.894C171.901 153.861 171.747 153.707 171.719 153.512C171.626 152.931 171.471 152.36 171.257 151.815C171.242 151.766 171.224 151.723 171.204 151.676C171.197 151.661 171.192 151.646 171.188 151.63C171.133 151.449 171.194 151.255 171.341 151.133L172.903 149.823C172.921 149.81 172.937 149.791 172.952 149.775C173.092 149.618 173.111 149.38 172.993 149.201L171.863 147.516C171.727 147.312 171.459 147.247 171.241 147.365L169.281 148.445C169.116 148.539 168.911 148.518 168.764 148.399C168.439 148.138 168.088 147.898 167.713 147.68C167.514 147.565 167.314 147.461 167.11 147.364C166.945 147.284 166.837 147.119 166.834 146.937L166.794 144.783C166.79 144.546 166.605 144.349 166.365 144.333L164.341 144.198C164.096 144.181 163.877 144.349 163.833 144.593L163.546 146.201C163.508 146.417 163.329 146.575 163.113 146.59C162.258 146.639 161.418 146.824 160.621 147.131C160.434 147.208 160.217 147.152 160.086 146.995L158.904 145.588C158.745 145.399 158.47 145.361 158.264 145.497L156.582 146.621C156.379 146.756 156.317 147.023 156.433 147.232L156.478 147.314L157.376 148.945C157.472 149.12 157.45 149.331 157.321 149.484L157.32 149.487C157.011 149.851 156.73 150.249 156.481 150.678C156.349 150.906 156.231 151.138 156.121 151.375C156.047 151.541 155.885 151.647 155.704 151.65L153.871 151.682C153.62 151.686 153.413 151.882 153.397 152.131L153.262 154.144C153.258 154.202 153.267 154.257 153.281 154.309C153.33 154.476 153.472 154.609 153.65 154.642L155.009 154.881C155.175 154.912 155.312 155.03 155.369 155.185C155.384 155.225 155.393 155.269 155.397 155.315C155.467 156.409 155.755 157.476 156.244 158.46C156.329 158.625 156.301 158.824 156.184 158.966C156.167 158.985 156.148 159.004 156.127 159.022L154.861 160.083C154.678 160.237 154.639 160.503 154.772 160.704L154.797 160.744L155.896 162.388C156.036 162.591 156.308 162.656 156.526 162.535ZM166.826 151.735C167.055 151.971 167.272 152.236 167.47 152.535C167.846 153.104 168.125 154.132 168.08 154.815C168.075 154.887 168.069 154.96 168.062 155.032C167.613 159.406 162.262 160.782 159.759 157.089C159.434 156.605 159.183 155.81 159.128 155.143C159.117 154.988 159.114 154.84 159.125 154.708C159.171 154.088 159.312 153.527 159.531 153.026C160.783 150.176 164.522 149.395 166.826 151.735Z" fill="#FBFDFF"/>
</g>
<g opacity="0.7">
<path d="M175.303 147.77L176.479 147.371C176.577 147.339 176.685 147.363 176.759 147.437C176.853 147.53 176.951 147.62 177.053 147.706C177.243 147.867 177.441 148.011 177.648 148.135C177.744 148.192 177.795 148.302 177.777 148.412L177.573 149.693C177.549 149.829 177.637 149.962 177.773 149.995L178.925 150.281C179.055 150.313 179.188 150.243 179.235 150.118L179.648 148.997C179.686 148.887 179.793 148.816 179.913 148.821C180.418 148.842 180.926 148.783 181.416 148.645C181.534 148.612 181.663 148.666 181.725 148.772L182.086 149.403C182.156 149.522 182.305 149.573 182.433 149.517L183.511 149.042C183.533 149.032 183.554 149.021 183.571 149.007C183.658 148.939 183.695 148.819 183.657 148.711L183.36 147.833L183.287 147.619C183.452 147.473 183.609 147.311 183.756 147.138C183.952 146.904 184.123 146.657 184.268 146.403C184.323 146.306 184.432 146.252 184.541 146.271L185.573 146.435C185.715 146.457 185.85 146.369 185.883 146.23L186.103 145.35L186.166 145.098C186.2 144.96 186.125 144.818 185.993 144.77L185.055 144.425C184.945 144.386 184.873 144.282 184.877 144.169C184.883 143.829 184.852 143.488 184.786 143.155C184.782 143.126 184.776 143.099 184.77 143.07C184.767 143.061 184.766 143.052 184.765 143.042C184.751 142.934 184.806 142.83 184.902 142.774L185.926 142.186C185.939 142.18 185.95 142.172 185.959 142.164C186.055 142.089 186.09 141.955 186.041 141.841L185.569 140.767C185.512 140.637 185.366 140.573 185.229 140.618L184.003 141.036C183.899 141.072 183.785 141.039 183.712 140.956C183.554 140.774 183.378 140.602 183.186 140.44C183.084 140.354 182.981 140.274 182.874 140.198C182.788 140.137 182.744 140.031 182.761 139.927L182.957 138.695C182.979 138.56 182.893 138.429 182.757 138.394L181.618 138.112C181.48 138.077 181.339 138.151 181.289 138.286L180.962 139.173C180.917 139.292 180.799 139.364 180.675 139.351C180.184 139.293 179.686 139.313 179.2 139.407C179.086 139.432 178.968 139.378 178.909 139.276L178.378 138.354C178.307 138.23 178.153 138.181 178.023 138.237L176.951 138.706C176.822 138.763 176.758 138.909 176.805 139.04L176.822 139.092L177.168 140.112C177.205 140.221 177.171 140.339 177.082 140.413L177.081 140.414C176.869 140.591 176.667 140.789 176.483 141.009C176.384 141.125 176.293 141.246 176.206 141.37C176.147 141.457 176.044 141.501 175.94 141.484L174.892 141.316C174.748 141.292 174.611 141.383 174.577 141.523L174.296 142.657C174.289 142.689 174.287 142.722 174.29 142.752C174.301 142.852 174.368 142.943 174.467 142.98L175.217 143.253C175.307 143.288 175.375 143.369 175.391 143.462C175.395 143.487 175.396 143.512 175.394 143.538C175.322 144.169 175.379 144.807 175.557 145.416C175.589 145.519 175.552 145.63 175.471 145.698C175.46 145.708 175.446 145.717 175.433 145.724L174.603 146.201C174.483 146.269 174.434 146.418 174.489 146.546L174.5 146.57L174.96 147.619C175.017 147.752 175.166 147.815 175.303 147.77ZM182.268 142.659C182.375 142.816 182.471 142.989 182.553 143.18C182.711 143.542 182.765 144.157 182.669 144.54C182.659 144.582 182.648 144.621 182.637 144.662C181.936 147.108 178.748 147.35 177.697 144.992C177.561 144.684 177.498 144.205 177.535 143.819C177.545 143.73 177.558 143.645 177.578 143.571C177.666 143.223 177.804 142.917 177.98 142.654C178.983 141.158 181.193 141.093 182.268 142.659Z" fill="#FBFDFF"/>
</g>
<g opacity="0.7">
<path d="M178.752 179.105L181.801 177.626C182.057 177.505 182.357 177.537 182.581 177.709C182.866 177.929 183.161 178.139 183.468 178.338C184.038 178.709 184.623 179.03 185.222 179.296C185.502 179.421 185.679 179.698 185.667 180.003L185.55 183.541C185.534 183.918 185.814 184.246 186.195 184.291L189.411 184.678C189.776 184.721 190.11 184.484 190.195 184.129L190.933 180.955C190.998 180.644 191.265 180.417 191.59 180.39C192.964 180.277 194.319 179.945 195.6 179.406C195.91 179.276 196.276 179.378 196.476 179.644L197.668 181.23C197.897 181.528 198.317 181.615 198.646 181.424L201.405 179.773C201.462 179.74 201.513 179.702 201.556 179.655C201.77 179.442 201.83 179.105 201.69 178.825L200.587 176.549L200.316 175.995C200.712 175.542 201.083 175.052 201.42 174.535C201.873 173.837 202.253 173.11 202.557 172.373C202.674 172.092 202.948 171.909 203.253 171.922L206.105 172.019C206.495 172.03 206.831 171.745 206.874 171.359L207.17 168.903L207.252 168.2C207.299 167.815 207.048 167.454 206.672 167.369L204.017 166.752C203.709 166.684 203.478 166.428 203.449 166.119C203.35 165.195 203.153 164.283 202.859 163.405C202.84 163.327 202.814 163.257 202.788 163.183C202.777 163.159 202.772 163.133 202.767 163.107C202.695 162.818 202.808 162.516 203.047 162.337L205.619 160.397C205.649 160.377 205.675 160.35 205.7 160.326C205.933 160.089 205.983 159.715 205.81 159.423L204.167 156.672C203.968 156.341 203.551 156.216 203.2 156.384L200.02 157.929C199.752 158.062 199.431 158.013 199.209 157.812C198.717 157.374 198.184 156.966 197.611 156.594C197.307 156.396 196.997 156.213 196.684 156.045C196.429 155.906 196.273 155.637 196.284 155.35L196.396 151.95C196.41 151.575 196.132 151.25 195.756 151.204L192.574 150.826C192.189 150.779 191.83 151.026 191.74 151.409L191.156 153.922C191.078 154.259 190.784 154.495 190.44 154.501C189.089 154.51 187.748 154.733 186.466 155.152C186.165 155.257 185.827 155.152 185.633 154.893L183.883 152.577C183.649 152.266 183.217 152.184 182.882 152.381L180.138 154.015C179.808 154.21 179.686 154.629 179.854 154.968L179.917 155.102L181.201 157.747C181.339 158.031 181.286 158.362 181.071 158.592L181.069 158.594C180.552 159.144 180.075 159.747 179.649 160.404C179.422 160.754 179.216 161.11 179.023 161.475C178.893 161.729 178.629 161.884 178.344 161.875L175.448 161.776C175.052 161.761 174.71 162.055 174.665 162.444L174.286 165.61C174.276 165.701 174.284 165.789 174.301 165.871C174.366 166.138 174.579 166.36 174.858 166.426L176.98 166.914C177.24 166.976 177.448 167.173 177.524 167.421C177.543 167.486 177.554 167.556 177.557 167.627C177.578 169.359 177.945 171.066 178.636 172.656C178.758 172.924 178.695 173.237 178.5 173.449C178.471 173.479 178.439 173.507 178.405 173.533L176.322 175.102C176.019 175.329 175.937 175.747 176.13 176.075L176.168 176.139L177.767 178.82C177.976 179.152 178.398 179.276 178.752 179.105ZM195.878 162.913C196.219 163.302 196.54 163.74 196.828 164.226C197.375 165.154 197.73 166.8 197.602 167.87C197.589 167.986 197.573 168.099 197.557 168.212C196.491 175.074 187.94 176.807 184.295 170.778C183.821 169.99 183.49 168.713 183.458 167.657C183.454 167.412 183.461 167.178 183.489 166.972C183.611 165.998 183.88 165.123 184.267 164.352C186.476 159.96 192.436 159.035 195.878 162.913Z" fill="#FBFDFF"/>
</g>
<path d="M131.013 64.9474C131.013 64.9474 128.261 64.8884 128.167 67.5753H133.952C133.952 67.5753 134.558 65.5712 136.332 66.2613V64.9474H131.013Z" fill="#F44336"/>
<path d="M131.013 64.9473C131.013 64.9473 135.911 65.4139 136.098 69.6087C136.285 73.8035 136.098 82.1932 136.098 82.1932L139.829 80.7945L142.815 82.1932V69.4221C142.815 69.4221 142.535 65.6006 138.523 64.9473H131.013Z" fill="#FF7043"/>
<path d="M204.718 67.5782H194.412C193.698 67.0771 192.354 65.983 191.075 64.1177C190.829 63.7591 190.587 63.3735 190.351 62.9572C189.03 60.6191 201.26 66.0186 204.718 67.5782Z" fill="#233862"/>
<path d="M198.365 90.4853C198.641 90.8058 198.674 91.1619 198.533 91.5413C198.533 91.5426 198.532 91.545 198.531 91.5462C198.271 92.2474 197.423 93.0272 196.44 93.8057C196.314 93.9052 196.203 93.9961 196.105 94.0808C196.08 94.1029 196.054 94.125 196.03 94.1471C196.011 94.1643 195.991 94.1827 195.973 94.1987C195.055 95.0325 195.396 95.2265 193.747 96.9199C191.865 98.8491 190.579 98.8749 190.214 98.6944C189.906 98.5409 190.542 97.5155 191.247 96.3636C191.281 96.3084 191.314 96.2519 191.349 96.1954C191.442 96.0419 191.535 95.8872 191.629 95.7325C192.455 94.3448 192.25 93.6903 192.071 91.615C191.926 89.929 189.515 82.184 189.515 82.184L193.099 81.5934C193.099 81.5934 194.134 87.7542 195.315 88.7096C195.947 89.2192 196.657 89.2303 197.266 89.6097C197.309 89.6355 197.351 89.6625 197.392 89.6907C197.735 89.9241 198.087 90.1648 198.365 90.4853Z" fill="#FFDEDD"/>
<path d="M198.364 90.4844C198.641 90.8049 198.674 91.1611 198.533 91.5405C198.533 91.5417 198.532 91.5442 198.53 91.5454C198.213 92.2466 197.387 93.0215 196.436 93.7976C196.312 93.8995 196.202 93.9928 196.104 94.08C196.078 94.1021 196.052 94.1242 196.029 94.1463C196.009 94.1635 195.99 94.1819 195.971 94.1979C195.053 95.0317 195.395 95.2257 193.745 96.9191C191.863 98.8483 190.578 98.8741 190.213 98.6936C189.904 98.5401 190.541 97.5147 191.245 96.3628C191.61 96.2327 193.304 95.5585 194.592 93.9351C195.727 92.5094 196.49 90.6723 197.263 89.6101C197.306 89.6359 197.348 89.6629 197.39 89.6912C197.735 89.9232 198.087 90.1639 198.364 90.4844Z" fill="#FF7043"/>
<path d="M169.515 88.0467C169.286 89.1495 167.712 88.9542 165.955 88.5122C164.199 88.0701 164.613 88.5834 162.11 88.2887C159.608 87.9939 158.856 87.0558 158.782 86.6837C158.715 86.3533 159.954 86.2453 161.282 86.1016C161.449 86.0844 161.616 86.0648 161.785 86.0451C163.284 85.8683 164.389 84.9092 165.756 84.1258C167.05 83.3828 168.996 80.335 168.996 80.335L172.429 80.6309C172.429 80.6309 170.608 83.3534 169.902 84.5371C169.487 85.2334 169.503 86.1581 169.548 86.8728C169.574 87.2608 169.596 87.6587 169.515 88.0467Z" fill="#FFDEDD"/>
<path d="M165.955 88.511C164.199 88.0689 164.613 88.5822 162.11 88.2875C159.608 87.9928 158.856 87.0546 158.782 86.6825C158.715 86.3522 159.954 86.2441 161.282 86.1005L161.294 86.1263C161.294 86.1263 162.789 87.2007 164.874 87.2658C166.572 87.3186 168.375 86.8458 169.549 86.8729C169.573 87.2609 169.596 87.6588 169.515 88.0468C169.286 89.1483 167.712 88.9531 165.955 88.511Z" fill="#FF7043"/>
<path d="M194.484 84.9339C194.484 84.9339 194.245 85.0886 193.888 85.2863C193.463 85.5197 192.87 85.8119 192.323 85.9654C191.738 86.1287 191.141 86.1705 190.712 86.1754C190.34 86.1779 190.095 86.1533 190.095 86.1533L185.982 74.8521L185.238 72.8087L184.448 70.634L184.173 69.8775L182.833 66.1972C182.833 66.1972 186.106 57.8125 189.445 61.8096C189.85 62.2959 190.231 63.0057 190.588 63.8751C190.831 64.4682 191.062 65.1362 191.284 65.8607C191.448 66.4047 191.608 66.9794 191.762 67.5775C192.177 69.2046 192.546 71.0036 192.868 72.8087C193.941 78.8382 194.484 84.9339 194.484 84.9339Z" fill="#233862"/>
<path d="M216.449 66.585C216.263 67.0528 215.936 67.3783 215.497 67.5796H200.316C196.663 66.8244 193.171 65.1556 191.076 64.1192C190.903 64.032 190.741 63.9509 190.588 63.8773C189.873 63.5224 189.38 63.2805 189.179 63.2387C187.909 62.9747 187.257 65.0402 186.182 67.5809C185.962 68.0979 185.727 68.6333 185.464 69.1748C185.276 69.5604 184.923 70.0602 184.447 70.6373C184.359 70.7442 184.268 70.8522 184.172 70.964C180.481 75.2705 170.98 83.2906 170.98 83.2906C170.98 83.2906 170.868 83.2906 170.687 83.2869C170.106 83.2758 168.81 83.223 168.191 82.9848C167.834 82.8473 167.569 82.695 167.382 82.5648C167.109 82.3708 166.997 82.2198 166.997 82.2198C166.997 82.2198 178.367 60.0103 184.255 53.96V53.9588C184.341 53.8704 184.424 53.7869 184.508 53.707C185.151 53.0795 185.721 52.6657 186.195 52.5159C188.201 51.8847 201.176 52.5883 201.176 52.5883L201.591 51.9154L202.284 51.8663L202.403 51.8577L202.981 51.8159H202.982L203.78 51.7595L204.965 51.6759L208.172 51.4475L208.687 51.4107L214.615 50.9895C214.615 50.9895 214.885 51.5986 215.25 52.6092C215.393 53.0034 215.55 53.4578 215.711 53.9612C216.767 57.2682 218.002 62.6628 216.449 66.585Z" fill="#5C6BC0"/>
<path d="M220.379 28.9116C217.417 26.3844 215.303 25.7594 215.009 21.7598C214.849 19.5887 211.931 12.405 206.995 13.0337C206.582 13.0865 206.166 13.1233 205.751 13.1062C205.174 13.084 204.223 13.1602 203.242 13.7349C200.866 15.125 196.489 27.9771 199.439 32.4937C199.968 33.3041 200.733 33.8469 201.792 34.0053C201.916 34.0753 202.042 34.1465 202.173 34.219H202.174C202.705 34.5174 203.288 34.844 203.905 35.194C207.393 37.1588 211.959 39.756 214.298 41.0699H214.3C214.441 41.1498 214.574 41.2247 214.699 41.2947C214.971 41.4457 215.201 41.5734 215.379 41.6717C215.653 41.8215 215.813 41.905 215.825 41.905C215.825 41.905 216.427 42.1371 217.272 42.3114C218.448 42.5558 220.095 42.6933 221.242 41.943C221.696 41.6471 222.121 41.2799 222.499 40.855C224.874 38.205 225.5 33.2771 220.379 28.9116Z" fill="#2A2E33"/>
<path d="M205.694 31.8629C205.674 31.8764 207.97 32.677 209.514 32.0065C210.965 31.3778 212.079 29.0066 212.058 29.0041C211.399 28.9685 210.681 28.3889 210.15 24.6116L209.869 24.7098L205.143 26.3713C205.143 26.3713 205.473 27.8854 205.685 29.3258C205.862 30.5354 205.953 31.6934 205.694 31.8629Z" fill="#FFDEDD"/>
<path opacity="0.3" d="M205.143 26.3722C205.143 26.3722 205.344 27.4332 205.623 28.9485C208.335 28.4806 209.477 26.1696 209.869 24.7095L205.143 26.3722Z" fill="#FF7043"/>
<path d="M204.429 27.8663C204.429 27.8663 210.886 27.0473 210.313 23.0379C209.74 19.0285 210.187 16.2225 206.041 16.5762C201.895 16.9298 201.314 18.5741 201.18 19.9581C201.044 21.3432 202.734 27.9756 204.429 27.8663Z" fill="#FFDEDD"/>
<path d="M201.43 17.7648C201.43 17.7648 205.534 21.3493 208.34 21.6551C211.146 21.9621 212.217 21.0681 212.217 21.0681C212.217 21.0681 210.571 19.6829 209.59 17.4603C209.301 16.8045 208.684 16.3526 207.97 16.2863C205.965 16.0997 202.165 15.994 201.43 17.7648Z" fill="#2A2E33"/>
<path d="M204.014 17.4648C204.014 17.4648 202.623 18.7898 202.181 19.7759C201.754 20.7276 201.612 23.0117 201.94 23.9204C201.94 23.9204 199.817 19.7243 201.05 17.7018C202.357 15.5578 204.014 17.4648 204.014 17.4648Z" fill="#2A2E33"/>
<path d="M200.195 41.3174C200.298 54.3635 200.175 51.6362 201.595 52.8838C201.936 53.1847 202.903 53.3689 204.176 53.4622C208.178 53.7557 215.22 53.1466 215.493 52.4086C216.434 49.8568 215.788 49.0586 216.587 45.1475C216.67 44.7312 216.772 44.2817 216.893 43.7918C217.554 41.1074 218.186 40.1962 215.938 35.8589C213.899 31.9306 211.773 28.7391 211.58 28.852C206.104 32.0473 205.684 29.326 205.684 29.326C205.684 29.326 200.144 34.9539 200.195 41.3174Z" fill="#FF7043"/>
<path d="M194.485 84.9331C194.485 84.9331 194.245 85.0879 193.888 85.2856C193.463 85.5189 192.871 85.8111 192.324 85.9646C191.739 86.128 191.141 86.1697 190.712 86.1746C190.34 86.1771 190.095 86.1525 190.095 86.1525L185.982 74.8513L187.187 72.808L190.272 67.5767L191.284 65.86C191.449 66.404 191.608 66.9787 191.762 67.5767C192.177 69.2038 192.546 71.0028 192.868 72.808C193.941 78.8374 194.485 84.9331 194.485 84.9331Z" fill="#2B478B"/>
<path d="M205.682 29.3259C205.682 29.3259 200.065 30.2371 199.389 32.6452C198.713 35.0545 194.735 49.2157 194.735 49.2157C194.735 49.2157 197.585 49.7474 198.911 48.4408C200.238 47.1343 203.582 36.2592 203.582 36.2592L205.682 29.3259Z" fill="#FF7043"/>
<path d="M204.176 53.4615C208.178 53.755 215.22 53.146 215.493 52.4079C216.435 49.8562 215.788 49.058 216.587 45.1468L214.694 39.7007C214.694 39.7007 214.971 45.7522 213.174 47.3314C211.379 48.9094 205.841 50.351 204.963 51.6748C204.54 52.3097 204.261 52.9482 204.176 53.4615Z" fill="#F44336"/>
<path d="M208.782 50.9479C208.782 50.9479 204.839 50.0417 204.198 50.3867C203.558 50.733 201.992 51.9966 201.794 52.4387C201.596 52.8808 203.215 52.112 203.741 51.9745C204.081 51.8861 204.974 52.2029 205.416 52.354C207.276 52.9876 208.42 52.6769 208.42 52.6769L208.782 50.9479Z" fill="#FFDEDD"/>
<path d="M211.584 28.8491C211.584 28.8491 216.885 29.2126 218.703 31.784C221.262 35.4041 226.281 50.7872 223.328 52.8134C220.003 55.095 208.264 53.3107 208.264 53.3107C208.264 53.3107 207.885 51.4822 208.436 50.6017C208.986 49.7225 217.838 48.3582 218.249 47.953C218.66 47.5477 213.205 39.9673 213.213 38.7443C213.221 37.5224 211.584 28.8491 211.584 28.8491Z" fill="#FF7043"/>
<path d="M203.998 51.4851C203.998 51.4851 203.164 52.5461 202.891 52.6713C202.619 52.7966 202.443 52.7634 202.443 52.7634L203.008 51.7651L203.998 51.4851Z" fill="#FFDEDD"/>
<path d="M204.197 50.3896L201.783 51.5402C201.783 51.5402 201.884 51.7085 202.18 51.6974C202.476 51.6864 203.226 51.4187 203.226 51.4187L204.197 50.3896Z" fill="#FFDEDD"/>
<path d="M203.407 53.8L184.373 53.6662L178.747 39.4006L197.752 39.5345L203.407 53.8Z" fill="#798599"/>
<path d="M184.152 53.1104L209.287 53.2884L209.284 53.8422L184.372 53.6666L184.152 53.1104Z" fill="#222429"/>
<path d="M189.229 46.5881C189.089 46.0871 189.381 45.6843 189.882 45.6868C190.382 45.6905 190.902 46.0994 191.041 46.6004C191.181 47.1014 190.888 47.5042 190.388 47.5017C189.888 47.4981 189.368 47.0891 189.229 46.5881Z" fill="white"/>
<path d="M60.2837 205.541H137.184C142.533 205.541 146.868 201.209 146.868 195.866V195.462C146.868 190.118 142.532 185.787 137.184 185.787H60.2837C54.9344 185.787 50.5991 190.119 50.5991 195.462V195.866C50.5979 201.21 54.9344 205.541 60.2837 205.541Z" fill="#2B478B"/>
<path d="M103.866 193.038L103.797 197.356C103.735 201.175 106.786 204.321 110.609 204.382L161.719 205.198L161.732 204.337C158.864 202.847 156.929 199.83 156.984 196.383L157.008 194.864C157.064 191.416 159.096 188.464 162.009 187.065V187.048L110.899 186.232C107.075 186.171 103.927 189.219 103.866 193.038Z" fill="#F8FAFD"/>
<path d="M163.056 205.542H109.212C105.739 205.542 103.018 201.199 103.018 195.657C103.018 190.115 105.738 185.773 109.212 185.773H163.056C163.504 185.773 163.866 186.136 163.866 186.583C163.866 187.03 163.504 187.392 163.056 187.392H109.212C106.733 187.392 104.638 191.178 104.638 195.659C104.638 200.14 106.733 203.925 109.212 203.925H163.056C163.504 203.925 163.866 204.288 163.866 204.735C163.866 205.182 163.504 205.542 163.056 205.542Z" fill="#1B3770"/>
<path d="M157.919 191.041H119.04V191.158H157.919V191.041Z" fill="#E1E5EB"/>
<path d="M157.261 192.841H139.683V192.958H157.261V192.841Z" fill="#E1E5EB"/>
<path d="M157.261 198.976H126.596V199.093H157.261V198.976Z" fill="#E1E5EB"/>
<path d="M129.098 191.099C129.098 191.099 130.729 191.781 130.924 194.083C131.118 196.385 130.924 197.612 130.924 197.612L128.954 196.677L126.966 197.612V194.013C126.966 194.013 126.893 191.099 124.179 191.099H129.098Z" fill="#FF7043"/>
<path d="M106.019 113.631C106.019 113.631 110.025 112.311 113.104 116.012C116.183 119.713 120.696 124.714 119.524 126.128C118.353 127.543 118.119 128.71 119.8 129.618C121.479 130.527 122.366 131.732 119.893 135.509C118.279 137.975 117.935 134.692 113.035 134.855C108.135 135.017 104.387 132.547 102.749 133.904C96.5647 139.028 97.4644 113.492 106.019 113.631Z" fill="#222429"/>
<path d="M104.489 132.526C104.489 132.526 93.2288 137.847 91.0618 137.753C88.8948 137.658 74.918 133.106 74.918 133.106L75.2584 135.401C75.2584 135.401 85.5613 141.321 89.164 141.658C92.7101 141.988 104.837 138.479 106.007 137.737C107.177 136.995 107.89 133.277 104.489 132.526Z" fill="#FACAB7"/>
<path d="M103.087 137.739C104.135 138.466 105.449 139.065 107.1 139.445C113.285 140.873 115.656 135.649 116.546 132.065C115.703 131.582 114.909 131.476 114.451 131.421C114.003 131.368 113.534 131.334 113.144 131.314C112.449 130.783 111.414 128.608 111.186 125.231L110.895 125.308L106.02 126.642C106.02 126.642 106.243 128.19 106.353 129.653C106.438 130.799 106.451 131.893 106.234 132.16C105.854 132.243 105.625 132.297 105.625 132.297C105.625 132.297 105.625 132.298 105.623 132.302C105.556 132.408 104.143 134.733 103.087 137.739Z" fill="#FFDEDD"/>
<path opacity="0.3" d="M106.019 126.643C106.019 126.643 106.243 128.191 106.352 129.654C109.114 129.378 110.396 126.751 110.895 125.31L106.019 126.643Z" fill="#ED985F"/>
<path d="M105.195 128.099C105.195 128.099 111.75 127.738 111.462 123.662C111.175 119.588 111.826 116.797 107.629 116.854C103.431 116.913 102.728 118.526 102.493 119.908C102.258 121.292 103.483 128.088 105.195 128.099Z" fill="#FFDEDD"/>
<path d="M102.525 117.63C103.45 116.332 104.234 116.546 104.689 116.883C108.127 114.661 110.641 117.403 110.641 117.403C111.289 120.295 113.52 121.819 113.52 121.819C113.52 121.819 112.379 122.64 109.577 122.13C108.721 121.974 107.927 121.432 107.238 120.754C108.485 122.538 110.097 123.774 110.097 123.774C106.702 122.491 105.054 118.019 104.888 117.546C104.514 117.933 103.781 118.769 103.596 119.55C103.344 120.611 102.257 122.27 101.629 122.242C101.63 122.241 101.14 119.576 102.525 117.63Z" fill="#222429"/>
<path d="M102.572 137.425C102.218 140.581 102.744 141.973 106.021 149.263C108.789 155.423 105.647 160.97 105.647 160.97C105.647 160.97 112.382 166.38 117.217 168.473C119.904 169.639 122.006 169.777 122.039 167.396C122.076 164.702 120.809 161.304 119.747 158.137C118.83 155.406 118.064 152.846 118.414 151.057C119.007 148.033 120.936 135.955 119.007 132.067C118.313 130.67 115.593 130.544 112.609 130.667C111.68 131.265 108.141 133.53 106.687 133.247C106.671 133.245 106.644 133.237 106.606 133.229C105.921 133.057 105.921 132.649 106.233 132.162C106.234 132.16 104.89 132.175 103.087 132.665C101.034 133.224 99.0869 134.745 99.0869 134.745C99.0869 134.745 100.494 136.548 102.572 137.425Z" fill="white"/>
<path d="M104.838 175.205C103.952 175.105 103.153 174.62 102.658 173.878C102.579 173.761 102.496 173.634 102.406 173.499C100.55 170.693 99.8282 162.1 95.6552 152.944C94.6387 150.715 90.9893 150.315 89.9949 147.795C89.9949 147.795 87.5464 139.629 94.6817 139.387C101.818 139.146 113.794 162.111 113.983 164.519C114.166 166.852 118.702 176.768 104.838 175.205Z" fill="#F44336"/>
<path d="M76.4741 175.018H86.6319C86.6319 175.018 87.0117 173.4 86.3443 172.298C85.7543 171.324 85.9805 170.768 86.4168 169.963C85.9571 170.15 85.361 170.322 84.7058 170.284C84.1994 170.255 83.6647 170.025 83.1952 169.754C82.7576 170.251 80.8856 172.371 80.3017 172.791C79.638 173.268 76.6782 173.098 76.4741 175.018Z" fill="black"/>
<path d="M89.7627 141.749C89.1506 146.33 86.7623 160.789 82.55 167.843C81.1918 170.117 85.972 171.392 85.9978 171.386C86.6394 171.219 87.7076 170.197 88.1992 169.754C91.62 166.674 98.5635 157.953 98.5635 150.962C98.5635 147.553 98.6237 141.042 96.1421 139.387C94.6142 138.367 90.0061 139.931 89.7627 141.749Z" fill="#F44336"/>
<path d="M96.7086 147.844C97.7042 150.363 100.501 150.055 101.517 152.284C101.56 152.377 101.602 152.473 101.645 152.567C102.167 153.723 102.659 154.879 103.126 156.023C104.098 158.41 105.546 163.405 106.633 167.451C107.372 170.197 107.944 172.507 108.088 173.267C108.312 174.436 108.695 175.336 108.695 175.336C124.254 177.734 122.292 167.024 121.438 164.521C120.66 162.234 107.1 138.626 99.9634 138.868C92.8281 139.109 96.7086 147.844 96.7086 147.844Z" fill="#FF7043"/>
<path d="M83.9307 175.018H94.0884C94.0884 175.018 94.4683 173.4 93.8008 172.298C93.2108 171.324 93.437 170.768 93.8733 169.963C93.4136 170.15 92.8175 170.322 92.1623 170.284C91.6559 170.255 91.1213 170.025 90.6517 169.754C90.2141 170.251 88.3421 172.371 87.7583 172.791C87.0945 173.268 84.1347 173.098 83.9307 175.018Z" fill="#2A2E33"/>
<path d="M101.645 152.568C102.167 153.725 102.659 154.88 103.126 156.025C104.098 158.412 105.546 163.406 106.633 167.452C106.642 167.469 106.651 167.485 106.66 167.503C110.705 161.201 104.876 149.262 104.876 149.262C103.488 149.899 102.422 151.081 101.645 152.568Z" fill="#F44336"/>
<path d="M95.6917 141.424C95.0795 146.004 94.2191 160.788 90.0056 167.843C88.6473 170.117 93.4276 171.392 93.4534 171.386C94.095 171.219 95.1631 170.197 95.6548 169.754C99.0756 166.674 106.019 157.953 106.019 150.962C106.019 147.553 102.014 141.316 99.5328 139.661C98.0049 138.64 95.9338 139.604 95.6917 141.424Z" fill="#FF7043"/>
<path d="M73.1221 127.701L75.2276 123.905L76.8808 128.514L86.7707 137.517L77.096 139.488L73.1221 127.701Z" fill="#2196F3"/>
<path d="M84.8424 130.233L88.702 142.009L77.095 139.489L73.1211 127.701L84.8424 130.233Z" fill="#2196F3"/>
<path d="M84.3962 129.958L73.598 127.536L73.1211 127.703L84.3175 130.121L84.3962 129.958Z" fill="#E1E5EB"/>
<path d="M84.3961 129.955L84.5251 130.164L84.3174 130.118L84.3961 129.955Z" fill="#EAC5A4"/>
<path d="M73.1211 127.702L75.3987 124.092L76.8872 128.272L73.598 127.535L73.1211 127.702Z" fill="#CFD4DC"/>
<path d="M81.3886 132.279C81.7549 132.209 82.5403 131.913 83.3356 131.694C83.0983 131.51 82.8341 131.284 82.7603 131.052C82.619 130.604 82.5243 130.46 82.9963 130.602C83.4695 130.744 85.124 131.503 85.124 131.503C85.124 131.503 85.1203 131.504 85.1203 131.505C86.0606 131.779 86.9259 133.106 86.9259 133.106C86.9259 133.106 98.5636 137.193 99.9637 137.263C102.129 137.371 116.546 132.067 116.546 132.067C119.949 132.818 119.185 136.994 118.015 137.736C116.845 138.478 106.471 142.247 100.323 142.319C97.2091 142.354 85.8812 135.081 85.8812 135.081C85.8812 135.081 84.5573 134.477 83.5162 134.666C82.4764 134.855 80.0648 134.666 79.5436 133.816C79.0249 132.964 80.774 132.397 81.3886 132.279Z" fill="#FFDEDD"/>
<path d="M109.118 134.682C109.118 134.682 110.408 138.76 114.836 139.687C114.836 139.687 122.149 137.436 118.508 132.459C118.508 132.459 114.908 129.787 109.118 134.682Z" fill="white"/>
<path d="M73.8325 132.584C73.83 132.472 73.8423 132.36 73.8718 132.253C73.8718 132.253 74.9154 130.605 75.2571 130.538C76.2982 130.333 76.2982 131.701 76.0769 132.585C75.9233 133.2 75.6984 134.089 75.3825 134.408L75.825 135.72C73.7059 134.855 73.8325 132.584 73.8325 132.584Z" fill="#FFDEDD"/>
<path d="M117.217 168.473C119.904 169.638 122.006 169.777 122.039 167.396C122.076 164.702 120.809 161.304 119.747 158.137C119.747 158.137 118.284 159.145 115.135 156.838C112.65 155.019 115.783 164.419 117.217 168.473Z" fill="#FF7043"/>
<path d="M26.7314 200.447C26.7314 200.659 26.7437 200.871 26.7708 201.076C26.8507 201.735 27.0547 202.357 27.3583 202.915C27.5968 203.351 27.8955 203.749 28.2445 204.097C29.1812 205.031 30.4718 205.608 31.8988 205.608H104.573C107.427 205.608 109.742 203.297 109.742 200.446C109.742 199.02 109.164 197.729 108.227 196.795C107.292 195.859 106 195.282 104.573 195.282H31.8976C29.0447 195.283 26.7314 197.594 26.7314 200.447Z" fill="#2196F3"/>
<path d="M32.2743 194.348H57.1918C57.6282 194.348 57.9846 193.991 57.9846 193.555C57.9846 193.12 57.6282 192.763 57.1918 192.763H32.2743C31.8379 192.763 31.4814 193.12 31.4814 193.555C31.4814 193.991 31.8379 194.348 32.2743 194.348Z" fill="#1976D2"/>
<path d="M33.6506 195.282H36.3511V194.348H33.6506V195.282Z" fill="#1565C0"/>
<path d="M27.3584 202.915C27.5969 203.351 27.8955 203.749 28.2446 204.096C29.1812 205.031 30.4719 205.608 31.8989 205.608H47.293V202.915H27.3584Z" fill="#1976D2"/>
<path d="M119.361 198.933V201.957C119.361 202.289 119.317 202.611 119.233 202.915C118.813 204.467 117.394 205.608 115.708 205.608H40.0051C38.3187 205.608 36.899 204.467 36.4799 202.915C36.3975 202.611 36.3521 202.289 36.3521 201.957V198.933C36.3521 196.917 37.9868 195.282 40.0051 195.282H115.708C117.726 195.282 119.361 196.917 119.361 198.933Z" fill="#64B5F6"/>
<path d="M119.233 202.915C118.812 204.467 117.394 205.608 115.708 205.608H40.0047C38.3183 205.608 36.8986 204.467 36.4795 202.915H119.233Z" fill="#42A5F5"/>
<path d="M111.843 200.464C111.843 202.068 112.427 203.501 113.346 204.45C113.367 204.471 113.387 204.492 113.407 204.513C114.118 205.22 115.02 205.644 116.001 205.644C117.534 205.644 121.332 203.334 123.686 201.8C124.858 201.035 125.673 200.463 125.673 200.463C125.673 200.463 124.858 199.891 123.686 199.127C121.332 197.592 117.534 195.282 116.001 195.282C115.557 195.282 115.131 195.369 114.729 195.528C114.053 195.799 113.451 196.28 112.976 196.909C112.452 197.599 112.08 198.47 111.924 199.436C111.923 199.447 111.92 199.458 111.92 199.47C111.87 199.791 111.843 200.124 111.843 200.464Z" fill="#CDE0FB"/>
<path d="M111.842 200.464C111.842 202.068 112.426 203.501 113.346 204.45L124.997 200.445L111.92 199.469C111.869 199.791 111.842 200.124 111.842 200.464Z" fill="#A6C7ED"/>
<path d="M112.976 196.911L124.599 200.082L114.727 195.53C114.052 195.801 113.45 196.282 112.976 196.911Z" fill="#E3F0FF"/>
<path d="M122.927 200.466C122.927 201.082 123.243 201.608 123.686 201.803C124.858 201.038 125.673 200.466 125.673 200.466C125.673 200.466 124.858 199.894 123.686 199.13C123.243 199.323 122.927 199.848 122.927 200.466Z" fill="#2E3552"/>
<path d="M245.681 127.285C245.681 127.285 245.328 126.493 245.1 126.117C244.871 125.741 243.895 124.642 243.729 124.892C243.563 125.141 242.898 126.816 243.251 127.285C243.604 127.754 243.228 128.571 244.984 129.066L245.681 127.285Z" fill="#FFDEDD"/>
<path d="M265.194 122.279C265.194 122.279 256.205 129.774 252.701 129.08C249.96 128.538 245.755 127.097 245.755 127.097L244.914 129.246C244.914 129.246 248.686 134.358 252.618 134.391C258.765 134.444 263.307 131.733 263.307 131.733L265.194 122.279Z" fill="#CFD4DC"/>
<path d="M280.957 201.342C280.957 201.342 280.696 205.547 279.881 205.607C279.773 205.615 275.751 205.615 275.751 205.615L270.617 205.586C270.617 205.586 270.65 204.351 272.151 204.089C273.652 203.827 276.164 202.774 277.073 200.792C278.03 198.707 280.957 201.342 280.957 201.342Z" fill="black"/>
<path d="M281.252 201.634C281.252 201.634 279.691 202.156 278.473 202.156C277.114 202.156 275.879 201.786 275.879 201.786C275.879 201.786 275.585 198.947 273.967 192.692C273.119 189.413 271.908 185.197 270.186 179.96C265.425 165.483 263.975 157.013 263.844 156.212C263.836 156.17 263.834 156.149 263.834 156.149L263.85 156.142L278.491 149.719C278.491 149.719 276.681 169.672 278.99 177.329C279.313 178.4 279.589 179.648 279.828 180.999C281.286 189.318 281.252 201.634 281.252 201.634Z" fill="#2A2E33"/>
<path d="M273.968 192.692C273.12 189.413 271.909 185.197 270.187 179.96C265.425 165.483 263.976 157.013 263.845 156.212C263.846 156.188 263.847 156.165 263.851 156.142L278.491 149.719C278.491 149.719 276.682 169.672 278.99 177.329C279.315 178.4 273.968 192.692 273.968 192.692Z" fill="black"/>
<path d="M269.522 201.342C269.522 201.342 269.262 205.547 268.447 205.607C268.339 205.615 264.317 205.615 264.317 205.615L259.183 205.586C259.183 205.586 259.216 204.351 260.717 204.089C262.217 203.827 264.73 202.774 265.638 200.792C266.595 198.707 269.522 201.342 269.522 201.342Z" fill="black"/>
<path d="M261.22 150.191C261.22 150.191 261.029 163.121 263.269 178.995C265.508 194.871 264.749 201.609 264.749 201.609C264.749 201.609 266.286 202.107 266.908 202.158C268.49 202.286 270.112 201.787 270.112 201.787C270.112 201.787 273.316 185.906 272.398 177.96C271.478 170.014 276.787 150.695 276.787 150.695L261.22 150.191Z" fill="#2A2E33"/>
<path d="M271.603 119.935L268.745 121.807L266.142 121.072C265.666 120.394 265.539 119.086 265.533 117.954C265.526 116.83 265.635 115.877 265.635 115.877L269.491 114.177L270.93 113.543C270.927 113.565 270.818 114.723 270.802 114.893C270.533 117.895 271.603 119.935 271.603 119.935Z" fill="#FFDEDD"/>
<path d="M261.155 153.783C264.712 157.214 278.175 156.637 279.005 152.857C279.833 149.076 278.1 120.674 272.023 118.891C270.762 118.52 264.021 120.697 264.021 120.697C264.021 120.697 262.963 123.461 262.269 126.981C262.135 127.666 261.742 134.923 261.447 141.714C261.309 144.89 261.194 147.965 261.135 150.214C261.081 152.323 261.078 153.708 261.155 153.783Z" fill="#E1E5EB"/>
<path opacity="0.3" d="M270.514 114.944C269.731 116.265 266.987 117.422 265.533 117.951C265.526 116.827 265.635 115.874 265.635 115.874L269.491 114.174C270.343 114.164 270.861 114.354 270.514 114.944Z" fill="#FF7043"/>
<path d="M264.18 115.64C264.18 115.64 270.392 117.577 271.54 113.693C272.687 109.809 274.262 107.444 270.344 106.042C266.427 104.641 265.214 105.896 264.516 107.098C263.816 108.303 262.593 115.037 264.18 115.64Z" fill="#FFDEDD"/>
<path d="M264.759 106.726C264.759 106.726 265.155 111.245 266.09 111.05C267.025 110.854 268.055 110.433 267.919 111.796C267.783 113.158 268.829 115.494 270.178 115.489C273.072 115.476 276.216 108.059 275.423 106.653C273.138 102.595 261.456 101.776 264.759 106.726Z" fill="#222429"/>
<path d="M265.673 118.991C265.753 118.958 270.299 116.92 270.83 117.096C271.361 117.272 272.023 118.892 272.023 118.892L264.02 120.7C264.021 120.7 264.651 119.421 265.673 118.991Z" fill="#CFD4DC"/>
<path d="M237.379 140.985L262.856 164.949C263.355 165.419 263.985 165.568 264.254 165.282L265.115 164.369C265.385 164.082 265.197 163.463 264.698 162.994L239.221 139.03C238.722 138.559 238.092 138.411 237.822 138.697L236.962 139.609C236.693 139.897 236.88 140.515 237.379 140.985Z" fill="#1565C0"/>
<path d="M251.676 154.435L262.855 164.95C263.354 165.42 263.985 165.569 264.254 165.283L265.114 164.37C265.385 164.083 265.197 163.464 264.698 162.995L253.518 152.48L251.676 154.435Z" fill="#2196F3"/>
<path d="M238.675 112.445C231.119 104.42 218.482 104.037 210.451 111.587C210.344 111.686 210.239 111.787 210.137 111.889C202.408 119.469 202.132 131.866 209.589 139.785C217.146 147.809 229.783 148.194 237.815 140.645C240.445 138.173 242.256 135.157 243.235 131.936C245.248 125.322 243.757 117.843 238.675 112.445ZM236.734 139.499C232.059 143.894 225.691 145.369 219.878 143.994C216.494 143.194 213.299 141.427 210.736 138.707C203.776 131.315 204.13 119.688 211.529 112.735C214.252 110.174 217.549 108.606 220.978 108.013C226.862 106.995 233.129 108.857 237.525 113.527C244.489 120.917 244.132 132.545 236.734 139.499Z" fill="#1565C0"/>
<g opacity="0.5">
<path opacity="0.5" d="M210.738 138.706C213.3 141.427 216.496 143.193 219.88 143.995C225.692 145.369 232.06 143.893 236.736 139.499C244.134 132.546 244.488 120.917 237.527 113.526C233.129 108.856 226.863 106.995 220.98 108.013C217.551 108.605 214.253 110.174 211.53 112.734C204.132 119.686 203.777 131.316 210.738 138.706Z" fill="#B3CFF9"/>
</g>
<path d="M261.135 150.218C275.173 140.224 274.006 126.888 274.006 126.888C268.875 129.779 263.784 136.172 261.447 141.716C261.311 144.893 261.194 147.967 261.135 150.218Z" fill="#CFD4DC"/>
<path d="M247.28 145.665C246.291 145.436 245.626 144.688 245.487 144.558C245.487 144.558 245.064 144.586 245.556 145.486C245.596 145.561 245.689 145.755 245.757 145.892C245.786 145.948 245.746 146.012 245.684 146.017C245.112 146.06 244.538 145.834 243.438 146.064C243.286 146.096 243.243 146.459 243.247 146.614C243.257 146.875 243.239 147.17 243.544 147.572C243.721 147.805 244.216 148.057 245.317 148.5C245.738 148.668 246.937 148.542 248.062 148.155L248.961 147.74L248.682 146.071L248.455 146.118C248.099 146.194 247.654 145.757 247.28 145.665Z" fill="#FFDEDD"/>
<path d="M269.65 120.699C269.65 120.699 282.264 123.098 265.939 141.346C263.328 144.265 249.223 148.065 249.223 148.065C249.223 148.065 247.792 146.849 248.513 145.864C248.513 145.864 258.225 138.818 260.362 137.698C261.324 137.195 264.093 126.452 265.66 123.865C267.227 121.279 269.65 120.699 269.65 120.699Z" fill="#E1E5EB"/>
<path d="M245.339 127.506C245.339 127.506 244.926 126.719 244.846 126.303C244.765 125.888 244.246 124.676 244.032 124.462C243.946 124.376 243.663 124.487 243.63 124.854C243.615 125.013 243.694 125.304 243.833 125.651C244.059 126.214 244.021 126.979 244.1 127.235C244.295 127.87 245.339 127.506 245.339 127.506Z" fill="#FFDEDD"/>
<path d="M45.6793 185.785H106.724C109.708 185.785 112.125 183.37 112.125 180.389C112.125 177.409 109.708 174.994 106.724 174.994H45.6793C42.6961 174.994 40.2783 177.409 40.2783 180.389C40.2783 183.37 42.6973 185.785 45.6793 185.785Z" fill="#699DEE"/>
<path d="M80.0337 178.948L79.9821 181.303C79.9366 183.386 82.213 185.103 85.0659 185.136L123.209 185.581L123.219 185.111C121.079 184.299 119.635 182.653 119.675 180.773L119.694 179.944C119.734 178.063 121.251 176.453 123.426 175.69V175.68L85.2823 175.236C82.4294 175.203 80.0792 176.864 80.0337 178.948Z" fill="#F8FAFD"/>
<path d="M124.207 185.771H84.022C81.4297 185.771 79.4004 183.402 79.4004 180.379C79.4004 177.355 81.431 174.987 84.022 174.987H124.206C124.539 174.987 124.811 175.184 124.811 175.428C124.811 175.671 124.54 175.868 124.206 175.868H84.022C82.1722 175.868 80.6087 177.934 80.6087 180.378C80.6087 182.821 82.1722 184.887 84.022 184.887H124.206C124.539 184.887 124.811 185.084 124.811 185.328C124.811 185.573 124.54 185.771 124.207 185.771Z" fill="#4B87DD"/>
<path d="M120.373 177.857H91.3574V177.931H120.373V177.857Z" fill="#E1E5EB"/>
<path d="M119.882 178.838H106.763V178.913H119.882V178.838Z" fill="#E1E5EB"/>
<path d="M119.882 182.185H96.9966V182.26H119.882V182.185Z" fill="#E1E5EB"/>
</svg>
