<svg width="16" height="16" viewBox="0 0 16 16" fill="none" xmlns="http://www.w3.org/2000/svg">
<path d="M15.9688 7.99999C15.9688 9.57909 15.5 11.1147 14.6133 12.441C14.4928 12.6213 14.2948 12.7187 14.0931 12.7187C13.9738 12.7187 13.853 12.6847 13.7463 12.6133C13.4594 12.4215 13.3823 12.0333 13.5741 11.7463C14.323 10.6263 14.7188 9.33093 14.7188 7.99999C14.7188 7.4281 14.6472 6.8601 14.5061 6.31201C14.42 5.97778 14.6213 5.63696 14.9556 5.5509C15.29 5.46496 15.6306 5.66613 15.7167 6.00036C15.8839 6.65026 15.9688 7.32299 15.9688 7.99999ZM11.4605 13.7779C10.4106 14.4138 9.20325 14.75 7.96875 14.75C4.24683 14.75 1.21875 11.7219 1.21875 7.99999C1.21875 4.27807 4.24683 1.25 7.96875 1.25C9.3468 1.25 10.6719 1.66235 11.8009 2.4425C12.0848 2.63867 12.4741 2.5675 12.6704 2.28357C12.8666 1.99963 12.7955 1.61035 12.5115 1.41406C11.1726 0.489013 9.60181 0 7.96875 0C5.83191 0 3.82288 0.832153 2.31189 2.34314C0.800903 3.85412 -0.03125 5.86316 -0.03125 7.99999C-0.03125 10.1368 0.800903 12.1459 2.31189 13.6569C3.82288 15.1678 5.83191 16 7.96875 16C9.43164 16 10.863 15.6013 12.1082 14.847C12.4034 14.6682 12.4978 14.2839 12.319 13.9886C12.14 13.6934 11.7557 13.5991 11.4605 13.7779ZM8.02905 9.81225C7.93005 9.81616 7.83765 9.781 7.76587 9.71264L4.49255 6.609C4.24207 6.37146 3.84644 6.38195 3.60901 6.63244C3.37146 6.88293 3.38196 7.27856 3.63245 7.51599L6.90515 10.6191C7.2074 10.9065 7.59839 11.0625 8.0127 11.0625C8.03491 11.0625 8.05713 11.062 8.07935 11.0611C8.51819 11.0434 8.92127 10.8535 9.21423 10.5262C9.22168 10.5181 9.22876 10.5096 9.23572 10.501L15.8308 2.29785C16.0471 2.02881 16.0044 1.63537 15.7354 1.41919C15.4664 1.20288 15.0729 1.2456 14.8566 1.51465L8.27442 9.70178C8.20972 9.76928 8.12305 9.80847 8.02905 9.81225Z" fill="#4CAF50"/>
</svg>
