<svg width="24" height="24" viewBox="0 0 24 24" fill="none" xmlns="http://www.w3.org/2000/svg">
<path d="M4.21055 23.0625C4.21055 23.5803 4.62947 24 5.14622 24L14.9707 24C16.2606 24 17.31 22.9486 17.31 21.6562L17.31 19.5937C17.31 18.3014 16.2606 17.25 14.9708 17.25L1.87134 17.25L1.87134 10.5L7.48537 10.5L7.48537 13.5L5.14617 13.5C4.62942 13.5 4.2105 13.9197 4.2105 14.4375C4.2105 14.9552 4.62942 15.375 5.14617 15.375L21.6608 15.375C22.9507 15.375 24 14.3236 24 13.0312L24 10.9688C24 9.67642 22.9507 8.62498 21.6608 8.62498L1.87134 8.62498L1.87134 1.875L7.48537 1.875L7.48537 4.87499L5.14617 4.87499C4.62942 4.87499 4.2105 5.29473 4.2105 5.81248C4.2105 6.33024 4.62942 6.74998 5.14617 6.74998L11.6959 6.74998C12.9857 6.74998 14.0351 5.69859 14.0351 4.40621L14.0351 2.34377C14.0351 1.05144 12.9858 -4.81447e-07 11.6959 -5.37828e-07L0.935673 -1.00817e-06C0.418922 -1.03076e-06 -1.83474e-08 0.419739 -4.09794e-08 0.937498L-1.00809e-06 23.0625C-1.03073e-06 23.5803 0.418921 24 0.935672 24C1.45242 24 1.87134 23.5803 1.87134 23.0625L1.87134 19.125L7.48537 19.125L7.48537 22.125L5.14617 22.125C4.62942 22.125 4.21055 22.5447 4.21055 23.0625ZM21.6608 10.5C21.9187 10.5 22.1287 10.7103 22.1287 10.9688L22.1287 13.0312C22.1287 13.2897 21.9188 13.5 21.6608 13.5L9.35672 13.5L9.35672 10.5L21.6608 10.5L21.6608 10.5ZM11.6959 1.875C11.9539 1.875 12.1637 2.08527 12.1637 2.34372L12.1637 4.40621C12.1637 4.66467 11.9539 4.87499 11.6959 4.87499L9.35672 4.87499L9.35672 1.875L11.6959 1.875ZM9.35672 19.125L14.9707 19.125C15.2287 19.125 15.4386 19.3353 15.4386 19.5937L15.4386 21.6562C15.4386 21.9147 15.2287 22.125 14.9707 22.125L9.35672 22.125L9.35672 19.125Z" fill="#222429"/>
</svg>
