<svg width="12" height="12" viewBox="0 0 12 12" fill="none" xmlns="http://www.w3.org/2000/svg">
<g clip-path="url(#clip0)">
<path fill-rule="evenodd" clip-rule="evenodd" d="M7.48034 0.887704L11.5888 5.00626C12.1367 5.55416 12.1367 6.44635 11.5884 6.99467L7.48037 11.1128C7.38878 11.2046 7.26861 11.2505 7.14847 11.2505C7.02871 11.2505 6.90889 11.2049 6.81739 11.1136C6.63411 10.9308 6.63376 10.634 6.81657 10.4507L10.925 6.33214C11.1082 6.14898 11.1082 5.85158 10.9254 5.66881L6.81657 1.54981C6.63374 1.36653 6.63411 1.06972 6.81739 0.886884C7.0007 0.704071 7.29749 0.704399 7.48034 0.887704ZM0.468774 5.5332L8.97701 5.5332C9.23592 5.5332 9.44578 5.74306 9.44578 6.00198C9.44578 6.26089 9.23592 6.47075 8.97701 6.47075L0.468774 6.47075C0.20986 6.47075 4.81775e-07 6.26087 4.59142e-07 6.00198C4.36509e-07 5.74309 0.20986 5.5332 0.468774 5.5332Z" fill="white"/>
</g>
<defs>
<clipPath id="clip0">
<rect width="12" height="12" fill="white" transform="translate(12 12) rotate(180)"/>
</clipPath>
</defs>
</svg>
