<svg width="7" height="12" viewBox="0 0 7 12" fill="none" xmlns="http://www.w3.org/2000/svg">
<path d="M3.01419 11.8402C3.11534 11.9425 3.25251 12 3.39558 12C3.53861 12 3.67582 11.9425 3.77693 11.8402L6.47364 9.11295C6.68427 8.89996 6.68427 8.55458 6.47364 8.34156C6.26301 8.12858 5.9215 8.12858 5.7109 8.34156L3.93492 10.1377V0.545455C3.93492 0.244218 3.69344 0 3.39558 0C3.09772 0 2.85624 0.244218 2.85624 0.545455V10.1377L1.08026 8.34156C0.869662 8.12855 0.528186 8.12855 0.317519 8.34156C0.106888 8.55455 0.106888 8.89993 0.317519 9.11295L3.01419 11.8402Z" fill="#1E88E5"/>
</svg>
