<svg width="7" height="12" viewBox="0 0 7 12" fill="none" xmlns="http://www.w3.org/2000/svg">
<path d="M3.24063 11.8402C3.34178 11.9425 3.47895 12 3.62202 12C3.76505 12 3.90226 11.9425 4.00337 11.8402L6.70008 9.11295C6.91071 8.89996 6.91071 8.55458 6.70008 8.34156C6.48945 8.12858 6.14794 8.12858 5.93734 8.34156L4.16136 10.1377V0.545455C4.16136 0.244218 3.91988 0 3.62202 0C3.32416 0 3.08268 0.244218 3.08268 0.545455V10.1377L1.3067 8.34156C1.0961 8.12855 0.754627 8.12855 0.54396 8.34156C0.333329 8.55455 0.333329 8.89993 0.54396 9.11295L3.24063 11.8402Z" fill="#B4BBC6"/>
</svg>
