<svg width="12" height="12" viewBox="0 0 12 12" fill="none" xmlns="http://www.w3.org/2000/svg">
<path fill-rule="evenodd" clip-rule="evenodd" d="M7.48083 0.888682L11.5893 5.00724C12.1372 5.55514 12.1372 6.44733 11.5889 6.99565L7.48086 11.1138C7.38926 11.2056 7.2691 11.2515 7.14896 11.2515C7.02919 11.2515 6.90938 11.2059 6.81788 11.1146C6.6346 10.9318 6.63425 10.635 6.81706 10.4517L10.9255 6.33312C11.1087 6.14996 11.1087 5.85256 10.9259 5.66979L6.81706 1.55079C6.63422 1.36751 6.6346 1.0707 6.81788 0.887861C7.00119 0.705049 7.29797 0.705377 7.48083 0.888682ZM0.469261 5.53418L8.9775 5.53418C9.23641 5.53418 9.44627 5.74404 9.44627 6.00295C9.44627 6.26187 9.23641 6.47173 8.9775 6.47173L0.469261 6.47173C0.210347 6.47173 0.000487799 6.26184 0.000487822 6.00295C0.000487845 5.74406 0.210347 5.53418 0.469261 5.53418Z" fill="#798599"/>
</svg>
