<svg width="60" height="60" viewBox="0 0 60 60" fill="none" xmlns="http://www.w3.org/2000/svg">
<circle cx="30" cy="30" r="30" fill="#E1E5EB"/>
<path d="M34.3125 23.1562C35.0891 23.1562 35.7188 23.7858 35.7188 24.5625C35.6447 26.4278 32.98 26.4273 32.9062 24.5625C32.9062 23.7858 33.5358 23.1562 34.3125 23.1562ZM40.125 29.8125V21.75C40.125 20.7161 39.2839 19.875 38.25 19.875H21.75C20.7161 19.875 19.875 20.7161 19.875 21.75V30.0664L23.3364 26.605C24.433 25.5084 26.2173 25.5084 27.3139 26.605L32.3032 31.5943L33.355 30.5425C34.4516 29.4459 36.2359 29.4459 37.3325 30.5425L41.7255 34.9354C41.9012 35.1112 42 35.3497 42 35.5983V38.25C42 40.3177 40.3177 42 38.25 42H21.75C19.6823 42 18 40.3177 18 38.25V21.75C18 19.6823 19.6823 18 21.75 18H38.25C40.3177 18 42 19.6823 42 21.75V29.8125C41.9505 31.0564 40.1741 31.0554 40.125 29.8125ZM19.875 32.718V38.25C19.875 39.2839 20.7161 40.125 21.75 40.125H38.25C39.2839 40.125 40.125 39.2839 40.125 38.25V35.9867L36.0067 31.8683C35.6412 31.5028 35.0464 31.5028 34.6809 31.8683L30.0409 36.5083C29.6749 36.8744 29.0813 36.8744 28.7151 36.5083C28.349 36.1421 28.349 35.5485 28.7151 35.1825L30.9774 32.9202L25.988 27.9308C25.6391 27.5671 25.0112 27.5671 24.6623 27.9308L19.875 32.718Z" fill="white"/>
</svg>
