<svg width="16" height="15" viewBox="0 0 16 15" fill="none" xmlns="http://www.w3.org/2000/svg">
<path fill-rule="evenodd" clip-rule="evenodd" d="M6.02572 14.8144L0.547813 9.32303C-0.182718 8.5925 -0.182718 7.40291 0.548345 6.67182L6.02569 1.18097C6.14781 1.05857 6.30803 0.997349 6.46822 0.997349C6.62791 0.997349 6.78766 1.05816 6.90966 1.17985C7.15403 1.42363 7.1545 1.81938 6.91075 2.06375L1.43284 7.55519C1.18863 7.79941 1.18863 8.19594 1.43228 8.43963L6.91075 13.9316C7.15453 14.176 7.15403 14.5718 6.90966 14.8155C6.66525 15.0593 6.26953 15.0588 6.02572 14.8144ZM15.3745 8.62044L4.03017 8.62044C3.68495 8.62044 3.40514 8.34063 3.40514 7.99541C3.40514 7.65019 3.68495 7.37038 4.03017 7.37038L15.3745 7.37038C15.7197 7.37038 15.9995 7.65022 15.9995 7.99541C15.9995 8.3406 15.7197 8.62044 15.3745 8.62044Z" fill="#2196F3"/>
</svg>
