<svg width="358" height="310" viewBox="0 0 358 310" fill="none" xmlns="http://www.w3.org/2000/svg">
<g clip-path="url(#clip0)">
<path opacity="0.4" d="M125.739 221.303H341.414C348.756 221.303 354.709 215.364 354.709 208.04V13.2625C354.709 5.93865 348.756 0 341.414 0H125.739C118.394 0 112.444 5.93865 112.444 13.2625V208.04C112.444 215.368 118.394 221.303 125.739 221.303Z" fill="#E1E5EB"/>
<path d="M308.488 87.5974C322.754 82.5082 331.518 68.9052 331.085 54.5713C330.981 51.1007 330.337 47.5842 329.102 44.1404C325.354 33.698 317.019 26.2134 307.169 23.137C300.341 21.0056 292.793 20.9942 285.535 23.5808C284.814 23.8372 284.105 24.1166 283.41 24.4188C280.269 25.7811 277.427 27.568 274.926 29.6879C264.443 38.5844 260.013 53.343 264.918 67.0379C271.263 84.7122 290.764 93.9148 308.488 87.5974ZM272.954 64.168C269.272 53.9016 272.594 42.8356 280.453 36.166C282.329 34.5742 284.458 33.235 286.817 32.2133C287.334 31.9876 287.868 31.7771 288.408 31.5858C293.847 29.6458 299.509 29.6573 304.63 31.2529C312.013 33.5602 318.266 39.1736 321.073 47.0026C322.002 49.5854 322.481 52.2218 322.562 54.8238C322.888 65.5685 316.317 75.7698 305.619 79.5848C292.329 84.3258 277.707 77.4228 272.954 64.168Z" fill="#64B5F6"/>
<path d="M304.626 31.2525L307.169 23.1328C317.019 26.2093 325.354 33.6976 329.102 44.1362C330.337 47.5838 330.977 51.0965 331.085 54.5671L322.562 54.8197C322.481 52.2177 322.002 49.5851 321.074 46.9984C318.266 39.1695 312.014 33.5599 304.626 31.2525Z" fill="#1565C0"/>
<path d="M286.816 32.2132L283.414 24.411C284.104 24.1126 284.818 23.8332 285.539 23.573C292.796 20.9864 300.349 20.9978 307.173 23.1292L304.63 31.2489C299.513 29.6533 293.847 29.6418 288.408 31.5818C287.867 31.7808 287.334 31.9912 286.816 32.2132Z" fill="#2196F3"/>
<path d="M274.93 29.6792C277.427 27.5555 280.269 25.7685 283.414 24.4102L286.817 32.2123C284.462 33.2301 282.329 34.5732 280.453 36.165L274.93 29.6792Z" fill="#2196F3"/>
<path d="M156.457 176.457H168.282V136.046H156.457V176.457Z" fill="#2196F3"/>
<path d="M174.035 176.461H185.864V147.384H174.035V176.461Z" fill="#2196F3"/>
<path d="M139.402 176.457H151.228V117.319H139.402V176.457Z" fill="#2196F3"/>
<path d="M179.447 33.9259H145.815C143.69 33.9259 141.972 32.2079 141.972 30.0918C141.972 27.972 143.69 26.2539 145.815 26.2539H179.447C181.572 26.2539 183.29 27.972 183.29 30.0918C183.294 32.2079 181.572 33.9259 179.447 33.9259Z" fill="#1565C0"/>
<path d="M179.447 47.3049H145.815C143.69 47.3049 141.972 45.5869 141.972 43.4708C141.972 41.351 143.69 39.6367 145.815 39.6367H179.447C181.572 39.6367 183.29 41.3548 183.29 43.4708C183.294 45.5869 181.572 47.3049 179.447 47.3049Z" fill="#2196F3"/>
<path d="M179.447 60.6878H145.815C143.69 60.6878 141.972 58.9697 141.972 56.8536C141.972 54.7338 143.69 53.0195 145.815 53.0195H179.447C181.572 53.0195 183.29 54.7338 183.29 56.8536C183.294 58.9697 181.572 60.6878 179.447 60.6878Z" fill="#42A5F5"/>
<path d="M240.332 40.5553H259.568V39.8206H240.635L230.508 29.7188H218.104V30.4534H230.201L240.332 40.5553Z" fill="#64B5F6"/>
<path d="M222.101 74.08H246.856L254.877 66.0789L254.355 65.5547L246.55 73.3453H222.101V74.08Z" fill="#64B5F6"/>
<path d="M203.016 37.7383H228.677V34.5968H203.016V37.7383Z" fill="#1565C0"/>
<path d="M215.847 69.7656H236.502V66.6241H215.847V69.7656Z" fill="#1565C0"/>
<path d="M251.24 188.723H291.922V186.316H251.24V188.723Z" fill="#DCD0C8"/>
<path d="M286.472 194.992H282.904V307.998H286.472V194.992Z" fill="#798599"/>
<path d="M229.324 189.074H257.604V185.63H229.324V189.074Z" fill="#C6BBB5"/>
<path d="M238.11 188.727H248.819V156.278H238.11V188.727Z" fill="#2A2E33"/>
<path d="M149.829 194.996L306.515 194.996V188.767L149.829 188.767V194.996Z" fill="black"/>
<path d="M336.585 151.061C336.585 151.061 338.299 175.034 333.601 177.904C330.659 179.702 318.933 185.763 319.278 186.9C319.627 188.036 325.898 197.017 325.898 197.017C325.898 197.017 348.426 182.216 349.154 177.552C349.864 172.995 348.046 142.448 344.951 141.04C342.63 139.988 341.406 140.856 338.483 143.022C334.387 146.064 336.585 151.061 336.585 151.061Z" fill="#FF7043"/>
<path d="M308.869 289.602C308.869 289.602 309.571 294.454 309.655 295.181C309.744 295.911 317.45 294.752 317.45 294.752L318.075 288.978C318.075 288.978 309.832 288.917 308.869 289.602Z" fill="#454971"/>
<path d="M309.575 294.564C309.575 294.564 307.131 297.487 304.772 298.761C302.41 300.035 298.701 300.54 297.304 301.861C296.295 302.813 293.633 306.911 303.441 306.831C313.249 306.747 317.975 307.409 319.026 305.836C320.077 304.264 317.503 294.238 317.503 294.238C317.503 294.238 315.187 295.069 309.575 294.564Z" fill="#2A2E33"/>
<path d="M259.499 289.645C259.499 289.645 260.201 294.497 260.289 295.224C260.377 295.954 268.083 294.795 268.083 294.795L268.708 289.021C268.708 289.021 260.466 288.96 259.499 289.645Z" fill="#454971"/>
<path d="M260.209 294.61C260.209 294.61 257.769 297.534 255.406 298.808C253.043 300.082 244.356 301.131 242.959 302.447C241.951 303.4 240.274 307.234 254.071 306.87C263.876 306.618 268.605 307.452 269.66 305.879C270.711 304.31 268.137 294.281 268.137 294.281C268.137 294.281 265.951 295.173 260.209 294.61Z" fill="#2A2E33"/>
<path d="M333.721 205.809C333.721 205.809 305.708 210.538 299.379 211.529C293.054 212.52 258.744 221.038 254.455 223.632C251.042 225.699 256.247 275.308 257.463 294.238H270.976L271.954 237.461C288.171 237.863 299.74 233.677 311.55 235.467C323.357 237.258 333.203 239.799 340.706 229.758C340.706 229.755 340.986 208.001 333.721 205.809Z" fill="#2A2E33"/>
<path d="M306.11 294.281L319.278 293.47L320.563 237.458C327.544 237.63 329.938 237.19 335.584 236.505L346.216 211.852C336.899 213.711 307.042 221.223 303.061 223.629C299.647 225.699 304.894 275.352 306.11 294.281Z" fill="#2A2E33"/>
<path d="M320.829 101.056C320.829 101.056 310.56 98.2245 306.64 106.18C302.724 114.131 304.5 129.207 309.674 130.627C314.852 132.047 322.294 130.413 324.442 125.461C326.59 120.514 328.304 113.477 327.79 108.923C327.273 104.366 323.552 102.143 320.829 101.056Z" fill="#FFDEDD"/>
<path d="M312.358 129.035C312.358 129.035 312.47 135.085 311.802 136.374C311.131 137.664 326.102 137.338 326.102 137.338C326.102 137.338 323.743 130.076 325.081 123.888C326.405 117.766 312.358 129.035 312.358 129.035Z" fill="#FFDEDD"/>
<path d="M325.888 121.6C325.888 121.6 325.09 123.223 321.216 122.963C317.342 122.702 312.228 118.038 310.587 117.621C308.941 117.204 308.845 116.27 308.845 116.27L307.975 117.812L306.291 118.068C306.291 118.068 307.434 113.396 304.941 111.747C302.444 110.102 306.064 96.8508 318.699 100.046C318.699 100.046 328.342 101.806 328.469 107.178C328.592 112.551 327.759 118.753 325.888 121.6Z" fill="#2A2E33"/>
<path d="M311.013 136.22C311.013 136.22 311.055 133.756 312.175 133.519C313.295 133.282 323.939 131.824 325.312 132.36L325.903 135.612C325.903 135.612 323.256 137.238 311.013 136.22Z" fill="white"/>
<path d="M307.933 115.169C308.221 113.149 310.522 110.83 311.842 113.975C313.157 117.121 310.952 121.701 309.475 121.456C307.994 121.211 307.546 117.909 307.933 115.169Z" fill="#FFDEDD"/>
<path d="M266.419 165.328C266.423 165.324 266.43 165.324 266.438 165.324C266.361 165.359 266.35 165.362 266.419 165.328Z" fill="#363957"/>
<path d="M323.82 102.498C323.82 102.498 336.34 101.909 326.007 121.408L323.82 102.498Z" fill="#2A2E33"/>
<path d="M351.721 300.925L350.789 303.542L311.435 291.374L313.318 286.082L351.721 300.925Z" fill="#222429"/>
<path d="M310.082 289.516H314.555V246.832H310.082V289.516Z" fill="#222429"/>
<path d="M299.13 247.074H325.512V244.556H299.13V247.074Z" fill="#5D5955"/>
<path d="M272.57 300.922L273.502 303.539L312.857 291.371L311.131 285.746L272.57 300.922Z" fill="#222429"/>
<path d="M300.299 303.256V306.298L312.857 291.371L311.131 285.746L300.299 303.256Z" fill="#222429"/>
<path d="M268.893 304.564C268.893 306.588 270.542 308.234 272.571 308.234C274.6 308.234 276.249 306.592 276.249 304.564C276.249 302.536 274.604 300.895 272.571 300.895C270.542 300.895 268.893 302.536 268.893 304.564Z" fill="#798599"/>
<path d="M299.988 304.564C299.988 306.588 301.634 308.234 303.667 308.234C305.696 308.234 307.345 306.592 307.345 304.564C307.345 302.536 305.7 300.895 303.667 300.895C301.634 300.895 299.988 302.536 299.988 304.564Z" fill="#798599"/>
<path d="M348.043 304.564C348.043 306.588 349.692 308.234 351.721 308.234C353.754 308.234 355.4 306.592 355.4 304.564C355.4 302.536 353.754 300.895 351.721 300.895C349.689 300.895 348.043 302.536 348.043 304.564Z" fill="#798599"/>
<path d="M285.141 244.559H339.148C341.495 244.559 343.394 242.661 343.394 240.323V239.271C343.394 236.933 341.492 235.035 339.148 235.035H285.141C282.793 235.035 280.895 236.933 280.895 239.271V240.323C280.895 242.661 282.797 244.559 285.141 244.559Z" fill="#2196F3"/>
<path d="M169.881 308H173.444V194.994H169.881V308Z" fill="#798599"/>
<path d="M201.468 171.905H285.463C287.803 171.905 289.701 170.014 289.701 167.68V111.056C289.701 108.722 287.806 106.832 285.467 106.832H201.468C199.128 106.832 197.229 108.722 197.229 111.056V167.676C197.229 170.014 199.128 171.905 201.468 171.905Z" fill="#2A2E33"/>
<path d="M203.853 161.711H283.079C284.736 161.711 286.079 160.368 286.079 158.711V113.348C286.079 111.692 284.736 110.348 283.079 110.348H203.853C202.196 110.348 200.853 111.692 200.853 113.348V158.711C200.853 160.368 202.196 161.711 203.853 161.711Z" fill="white"/>
<path d="M224.321 188.849V187.69C224.321 187.69 225.955 180.484 237.497 180.484C249.042 180.484 248.809 188.845 248.809 188.845H224.321V188.849Z" fill="#42A5F5"/>
<path d="M248.947 181.558C248.947 181.558 246.438 181.363 245.522 180.808C244.601 180.257 239.104 176.568 237.816 177.157C236.523 177.747 227.935 180.375 228.23 181.627C228.529 182.882 229.323 182.759 229.929 182.537C230.535 182.315 236.776 181.007 237.325 181.229C237.325 181.229 231.195 183.459 231.172 185.086C231.149 186.716 232.453 187.11 233.036 187.726C233.619 188.342 234.317 189.869 235.894 189.984C237.474 190.102 245.18 187.428 246.764 187.305C248.352 187.183 251.287 187.401 251.486 187.144C251.686 186.892 248.947 181.558 248.947 181.558Z" fill="#FFDEDD"/>
<path d="M294.603 139.635C302.6 138.231 311.016 136.218 311.016 136.218L325.906 135.613C325.906 135.613 339.573 138.617 344.954 141.039C345.465 141.273 345.468 153.203 346.868 156.334L342.407 165.724C342.407 165.724 339.83 184.328 339.293 192.601C339.047 196.4 339.987 229.312 339.987 229.312C339.987 229.312 338.648 229.97 328.484 231.087C318.323 232.204 292.93 230.685 292.765 229.488C292.608 228.29 297.687 184.898 297.909 182.648C298.254 179.2 296.912 163.263 296.912 163.263C294.998 165.831 290.115 177.417 285.029 182.931C282.037 186.172 267.216 188.162 264.419 188.254C258.34 188.457 247.247 189.666 246.921 189.076C246.664 188.721 245.954 179.254 246.652 179.021C247.262 178.818 267.86 177.635 273.138 174.846C275.067 173.824 280.84 161.27 280.84 161.27C280.84 161.27 290.192 141.613 294.603 139.635Z" fill="#FF7043"/>
<path d="M323.049 228.36H349.846C354.349 228.36 358 224.717 358 220.224V176.94C358 172.444 354.349 168.801 349.842 168.801H323.049C318.546 168.801 314.895 172.444 314.895 176.936V220.221C314.898 224.717 318.546 228.36 323.049 228.36Z" fill="#2196F3"/>
<path d="M322.531 242.189C328.887 242.189 334.042 240.057 337.855 235.86C346.47 226.37 344.924 209.687 344.851 208.983C344.721 207.666 343.547 206.706 342.228 206.836C340.908 206.97 339.949 208.137 340.076 209.453C340.095 209.645 341.468 224.767 334.288 232.661C331.384 235.852 327.537 237.406 322.531 237.406C321.208 237.406 320.134 238.477 320.134 239.797C320.138 241.117 321.208 242.189 322.531 242.189Z" fill="#222429"/>
<path d="M255.678 117.154H279.429C279.763 117.154 280.036 116.883 280.036 116.55V115.046C280.036 114.713 279.763 114.441 279.429 114.441H255.678C255.341 114.441 255.072 114.713 255.072 115.046V116.546C255.072 116.883 255.345 117.154 255.678 117.154Z" fill="#64B5F6"/>
<path d="M255.674 122.975H279.425C279.759 122.975 280.031 122.703 280.031 122.37V120.87C280.031 120.537 279.759 120.262 279.421 120.262H255.674C255.337 120.262 255.068 120.533 255.068 120.87V122.37C255.072 122.703 255.341 122.975 255.674 122.975Z" fill="#64B5F6"/>
<path d="M257.113 157.618H277.991C279.118 157.618 280.031 156.707 280.031 155.578V128.969C280.031 127.844 279.118 126.934 277.991 126.934H257.113C255.985 126.934 255.068 127.844 255.068 128.973V155.582C255.072 156.707 255.985 157.618 257.113 157.618Z" fill="#64B5F6"/>
<path d="M208.806 157.619H246.799C248.586 157.619 250.032 156.176 250.032 154.393V117.663C250.032 115.88 248.586 114.438 246.799 114.438H208.81C207.022 114.438 205.576 115.88 205.576 117.663V154.393C205.572 156.176 207.022 157.619 208.806 157.619Z" fill="#64B5F6"/>
<path d="M514.775 309.782H-299.478C-299.919 309.782 -300.258 309.41 -300.258 309.004C-300.258 308.565 -299.885 308.227 -299.478 308.227H514.775C515.215 308.227 515.555 308.598 515.555 309.004C515.588 309.41 515.215 309.782 514.775 309.782Z" fill="#E1E5EB"/>
<g opacity="0.4">
<path d="M8.36956 182.097H99.1919C103.814 182.097 107.561 178.359 107.561 173.748V8.34932C107.561 3.73844 103.814 0 99.1919 0H8.36956C3.74751 0 0 3.73844 0 8.34932V173.748C0 178.359 3.74751 182.097 8.36956 182.097Z" fill="#E1E5EB"/>
</g>
<path d="M100.067 108.777H99.5986V168.975H100.067V108.777Z" fill="#1565C0"/>
<path d="M77.1945 108.777H76.7227V168.975H77.1945V108.777Z" fill="#1565C0"/>
<path d="M54.3137 108.777H53.8457V168.975H54.3137V108.777Z" fill="#1565C0"/>
<path d="M31.4415 108.777H30.9697V168.975H31.4415V108.777Z" fill="#1565C0"/>
<path d="M8.56555 108.777H8.09375V168.975H8.56555V108.777Z" fill="#1565C0"/>
<path d="M99.8361 144.566C99.8361 144.566 90.5153 152.395 81.5052 143.12C72.495 133.844 62.1041 130.745 52.9175 138.558C43.7309 146.368 40.156 135.65 30.9695 126.861C21.7829 118.075 21.9286 113.078 8.32715 113.078V168.975H99.8323V144.566H99.8361Z" fill="#2196F3"/>
<path d="M71.2725 105.957H76.957V103.764H71.2725V105.957Z" fill="#2196F3"/>
<path d="M92.3355 105.957H100.068V103.764H92.3355V105.957Z" fill="#2196F3"/>
<path d="M47.0751 105.957H54.0791V103.764H47.0751V105.957Z" fill="#2196F3"/>
<path d="M24.4374 105.957H31.4414V103.764H24.4374V105.957Z" fill="#2196F3"/>
<path d="M8.32806 105.957H15.3359V103.764H8.32806V105.957Z" fill="#2196F3"/>
<path d="M12.3281 68.0407H42.9181V64.1836H12.3281V68.0407Z" fill="#2196F3"/>
<path d="M15.1016 84.5796H43.1829V80.7188H15.1016V84.5796Z" fill="#2196F3"/>
<path d="M18.8877 76.4898H43.1832V72.6289H18.8877V76.4898Z" fill="#2196F3"/>
<path d="M70.3438 58.6739C70.3438 61.6203 72.7372 64.008 75.6907 64.008C78.6442 64.008 81.0377 61.6203 81.0377 58.6739C81.0377 55.7276 78.6442 53.3398 75.6907 53.3398C72.7372 53.3398 70.3438 55.7276 70.3438 58.6739Z" fill="#1976D2"/>
<path d="M66.0439 76.0718V86.2195C68.9975 87.5588 72.2847 88.305 75.7368 88.305C79.1967 88.305 82.4801 87.5588 85.4336 86.2195V76.0718C85.4336 70.7339 81.0954 66.4023 75.7368 66.4023C70.3822 66.3985 66.0439 70.7301 66.0439 76.0718Z" fill="#1976D2"/>
<path d="M65.7831 86.796C57.1949 82.9007 51.6484 74.3065 51.6484 64.901C51.6484 51.65 62.4537 40.8633 75.7407 40.8633C89.0276 40.8633 99.8367 51.6462 99.8367 64.901C99.8367 74.3065 94.2864 82.9007 85.702 86.796C82.5682 88.2156 79.2158 88.9388 75.7407 88.9388C72.2655 88.935 68.9131 88.2156 65.7831 86.796ZM52.9181 64.901C52.9181 73.8129 58.173 81.9517 66.3086 85.6404C69.2736 86.9873 72.4458 87.6684 75.7368 87.6684C79.0317 87.6684 82.2039 86.9873 85.1689 85.6404C93.3006 81.9517 98.5594 73.8129 98.5594 64.901C98.5594 52.3465 88.3218 42.1337 75.7368 42.1337C63.1556 42.1337 52.9181 52.3465 52.9181 64.901Z" fill="#1976D2"/>
<path d="M13.3789 40.2245C13.3789 32.2157 19.9111 25.7031 27.9355 25.7031C35.9598 25.7031 42.4921 32.2157 42.4921 40.2245C42.4921 48.2294 35.9598 54.7459 27.9355 54.7459C19.9111 54.7459 13.3789 48.2294 13.3789 40.2245ZM16.2941 40.2245C16.2941 46.6262 21.5145 51.8378 27.9355 51.8378C34.3565 51.8378 39.5769 46.6262 39.5769 40.2245C39.5769 33.8229 34.3565 28.6112 27.9355 28.6112C21.5183 28.6112 16.2941 33.819 16.2941 40.2245Z" fill="#2196F3"/>
<path d="M54.8974 14.7695L76.8301 14.7695V11.2798L54.8974 11.2798V14.7695Z" fill="#2196F3"/>
<path d="M54.8965 23.7617L73.5957 23.7617V20.272L54.8965 20.272V23.7617Z" fill="#2196F3"/>
<path d="M54.8946 32.7539L84.9629 32.7539V29.2642L54.8946 29.2642V32.7539Z" fill="#2196F3"/>
<path d="M70.3933 301.108C70.3933 301.108 75.7186 307.247 74.989 308.219C74.2595 309.191 68.6558 309.329 65.2485 308.219C61.8412 307.108 61.7585 299.914 60.2128 296.822C59.5659 295.53 60.9499 291.71 62.8943 291.433C64.8386 291.155 66.9522 291.97 66.9522 291.97C66.9522 291.97 64.9364 296.323 70.3933 301.108Z" fill="#2A2E33"/>
<path d="M66.9863 291.922C66.9863 291.922 68.107 294.535 68.517 297.031C68.8554 299.101 72.3116 303.498 72.1499 304.053C71.9882 304.608 67.6031 305.111 65.8167 303.68C64.0303 302.248 62.8833 298.08 62.4884 295.584C62.1198 293.261 61.6572 292.117 61.6572 292.117C61.6572 292.117 65.2827 290.392 66.9863 291.922Z" fill="#FFDEDD"/>
<path d="M24.0335 301.192C24.0335 301.192 29.1671 307.241 28.4375 308.214C27.7079 309.188 22.1042 309.327 18.6969 308.214C15.2896 307.102 15.2069 299.894 13.665 296.798C13.0181 295.503 14.4021 291.677 16.3427 291.398C18.287 291.12 20.5661 291.995 20.5661 291.995C20.5661 291.995 18.5728 296.399 24.0335 301.192Z" fill="#2A2E33"/>
<path d="M20.563 291.998C20.563 291.998 20.9692 294.851 21.6198 296.869C22.2704 298.887 25.7604 303.483 25.595 304.039C25.4332 304.595 21.0481 305.099 19.2655 303.665C17.4791 302.231 16.0989 298.071 15.9372 295.555C15.7755 293.04 16.3433 291.399 16.3433 291.399C16.3433 291.399 18.8556 290.465 20.563 291.998Z" fill="#FFDEDD"/>
<path d="M46.2179 170.288C46.2179 170.288 50.7873 192.492 51.8366 198.084C52.8858 203.677 55.8268 230.75 56.1427 235.353C56.4586 239.959 60.9114 257.304 60.7008 258.945C60.4902 260.59 67.3048 293.62 67.3048 293.62C67.3048 293.62 64.9769 295.577 62.5248 293.797C61.2612 292.883 47.5756 262.878 47.5756 254.655C47.5756 243.289 39.5274 228.458 38.4894 225.914C28.843 202.295 30.7422 195.077 29.4823 193.542C28.2224 192.006 28.1134 194.49 27.38 197.885C26.6466 201.283 25.0709 230.663 24.1269 234.389C23.1829 238.115 23.9163 250.718 23.3898 257.078C22.8633 263.435 20.5579 292.194 20.5579 292.194C20.5579 292.194 18.7715 295.114 16.2705 292.269C15.7328 291.66 11.9494 260.236 11.8403 252.671C11.735 245.111 11.6222 234.679 11.4191 231.409C9.47851 200.064 4.70228 195.589 12.2277 173.404C26.3232 131.872 46.2179 170.288 46.2179 170.288Z" fill="#FFDEDD"/>
<path d="M15.5229 164.08C15.5229 164.08 2.50291 183.111 8.11029 223.59C8.11029 223.59 38.9941 227.978 55.5417 218.517C55.5417 218.517 48.7008 176.778 46.2186 170.282C43.7403 163.79 15.5229 164.08 15.5229 164.08Z" fill="#2A2E33"/>
<path d="M60.0332 296.012V306.403H61.0074V298.371L60.0332 296.012Z" fill="#3A3D5D"/>
<path d="M13.5186 296.012V306.403H14.4926V298.371L13.5186 296.012Z" fill="#3A3D5D"/>
<path d="M30.9611 79.696C30.9611 79.696 39.6786 88.4834 36.7113 99.8035C33.7403 111.124 28.9678 111.188 23.7064 106.318C18.4488 101.448 15.3537 96.3261 14.6579 90.636C13.9622 84.9458 22.9994 71.8532 30.9611 79.696Z" fill="#FFDEDD"/>
<path d="M32.6691 117.447C32.6691 117.447 31.3754 114.489 30.469 111.155C30.3111 110.564 30.1606 109.966 30.0365 109.371C29.5928 107.271 29.4085 105.205 29.8899 103.79C31.2776 99.6805 21.1685 102.526 21.1685 102.526C21.1685 102.526 23.1279 113.402 21.1685 117.071C19.2091 120.736 32.6691 117.447 32.6691 117.447Z" fill="#FFDEDD"/>
<path d="M1.91301 152.723C2.07849 154.085 8.44931 153.803 15.2451 153.107C15.2489 153.133 15.2564 153.16 15.2639 153.186C15.4106 153.788 15.5384 154.322 15.6325 154.695C15.734 155.105 15.8205 155.542 15.9032 156.001C16.584 159.888 16.5313 165.368 15.2338 170.064C15.2338 170.064 32.3606 176.451 43.0413 170.633C43.0413 170.633 41.9055 161.337 43.6092 155.327C45.3166 149.321 54.226 128.389 54.226 128.389C54.226 128.389 47.7686 119.045 42.8382 117.336C37.9115 115.628 31.5558 114.57 31.5558 114.57L22.3192 114.909C22.3192 114.909 14.6283 116.915 12.9059 117.457C9.82953 118.431 8.64111 119.451 7.04653 122.631C4.85397 127.001 1.16461 146.581 1.91301 152.723ZM11.6272 142.427C11.6272 142.427 12.4659 144.293 13.2218 146.397C12.6088 146.453 12.0258 146.457 11.7513 146.495C9.3143 146.863 11.1458 143.77 11.6272 142.427Z" fill="white"/>
<path d="M28.1178 86.0216C28.1178 86.0216 23.947 93.6084 21.3558 96.3293C18.7646 99.0502 19.0692 101.207 19.0692 101.207C19.0692 101.207 8.97145 88.7424 16.1772 81.2158C23.3791 73.6891 32.6683 76.7261 35.3874 83.3007C38.1027 89.879 37.1099 97.9099 37.1099 97.9099C37.1099 97.9099 37.0271 90.1951 28.1178 86.0216Z" fill="#FF7043"/>
<path d="M25.3654 78.0757C25.3654 78.0757 26.3733 72.5173 17.667 70.3119C8.96444 68.1029 5.05319 78.1397 6.12502 84.2626C7.19686 90.3856 14.6433 105.913 10.6042 107.938C6.5688 109.955 4.98926 105.601 4.98926 105.601C4.98926 105.601 6.24913 113.24 11.864 111.472C17.4789 109.703 16.723 97.2913 15.8768 92.3425C15.0306 87.3937 25.3654 78.0757 25.3654 78.0757Z" fill="#FF7043"/>
<path opacity="0.3" d="M22.5635 105.219C22.5973 105.298 24.7974 110.371 30.4687 111.157C30.3108 110.566 30.1603 109.968 30.0362 109.373C30.0362 109.373 26.926 109.998 22.5635 105.219Z" fill="#F44336"/>
<path d="M11.7471 142.499C11.7471 142.499 12.1645 143.376 13.304 146.83C14.4624 137.129 13.8569 132.078 13.8569 132.078C13.7328 137.264 11.7471 142.499 11.7471 142.499Z" fill="#C8BCB6"/>
<path d="M24.0111 76.9071C24.0111 76.9071 17.8321 78.0963 14.752 83.1316C14.752 83.1316 15.3762 78.5742 18.4526 77.2571C21.5252 75.9437 24.0111 76.9071 24.0111 76.9071Z" fill="white"/>
<path d="M15.2598 153.185C15.4064 153.787 15.5343 154.321 15.6283 154.694C15.7299 155.104 15.8164 155.541 15.8991 156C19.7276 153.919 22.473 152.289 22.473 152.289C21.4425 152.519 15.2598 153.185 15.2598 153.185Z" fill="#C8BCB6"/>
<path d="M21.7959 115.047L32.6684 123.917L31.5477 114.573C31.5477 114.569 25.207 113.203 21.7959 115.047Z" fill="#FFDEDD"/>
<path d="M29.524 122.409L32.668 123.918L21.9873 113.32L29.524 122.409Z" fill="#E1E5EB"/>
<path d="M14.6203 152.419C16.1171 158.625 10.5774 172.595 10.5774 172.595L21.5515 176.027C23.131 176.52 24.7933 175.553 25.143 173.934C26.6098 167.1 30.0584 150.278 30.4684 140.926C30.9911 128.993 22.3111 114.914 22.3111 114.914C6.87675 117.563 11.1077 140.926 11.1077 140.926C11.1077 140.926 11.668 142.398 12.4164 144.697C12.4164 144.697 12.4164 144.697 12.4164 144.701C12.6045 145.277 12.8038 145.909 13.0106 146.579C13.5409 148.302 14.1088 150.308 14.6203 152.419Z" fill="#2A2E33"/>
<path d="M32.6424 115.078L32.4506 114.57C32.4506 114.57 40.3558 115.771 44.3686 117.78C48.3851 119.79 56.076 130.162 56.076 130.162L46.0158 143.446C46.0045 153.656 47.6593 171.814 47.6593 171.814L43.0598 174.468C41.8225 175.179 40.2768 174.306 40.2505 172.879C40.1189 165.977 39.8105 149.581 39.6488 141.64C39.4419 131.43 32.1572 114.913 32.1572 114.913C32.3227 114.962 32.4844 115.022 32.6424 115.078Z" fill="#2A2E33"/>
<path d="M46.9717 162.959C46.9717 162.959 39.3898 163.256 38.209 162.959C37.0281 162.661 29.1604 159.248 28.6866 155.876C28.2127 152.504 46.9717 158.902 46.9717 158.902V162.959Z" fill="#FFDEDD"/>
<path d="M23.4434 152.422L54.2181 148.816L40.3144 160.136L23.4434 152.422Z" fill="#2196F3"/>
<path d="M40.3144 160.137L23.4434 154.379V152.422L40.8823 158.018L40.3144 160.137Z" fill="#1565C0"/>
<path d="M32.3834 146.764C32.3834 146.764 34.9295 146.764 36.3548 146.474C37.4605 146.252 40.2022 146.561 40.9017 147.182C41.6012 147.799 43.8201 152.119 44.2413 152.379C44.6625 152.642 44.0269 153.252 43.286 152.947C43.286 152.947 42.6091 154.836 40.9393 154.129C39.2657 153.421 38.1337 151.875 37.2537 151.604C36.3774 151.333 31.2815 149.963 31.2815 149.963C31.2815 149.963 31.0671 146.305 32.3834 146.764Z" fill="#FFDEDD"/>
<path d="M30.9688 112.844L36.8281 122.128L39.6525 123.915L33.0635 114.669L30.9688 112.844Z" fill="white"/>
<path d="M36.8281 122.128L32.6686 123.915L31.5479 114.567L30.9688 112.844L36.8281 122.128Z" fill="#E1E5EB"/>
<path d="M46.0459 158.612C46.0459 158.612 46.3618 162.533 46.0459 163.354C46.0459 163.354 65.023 161.453 66.7943 158.8C68.5657 156.143 68.5017 152.918 68.5017 152.918L46.0459 158.612Z" fill="#2A2E33"/>
<path d="M40.3145 160.134L49.2878 126.742L83.4134 123.141L74.0603 153.872L40.3145 160.134Z" fill="#1565C0"/>
<path d="M21.9883 113.32L29.525 122.409L25.4031 126.089L20.9541 115.21L21.9883 113.32Z" fill="white"/>
<path d="M12.165 143.927C12.165 143.927 12.417 144.694 12.417 144.698C12.6051 145.274 12.8044 145.906 13.0112 146.576C14.4667 147.035 27.0729 146.109 27.0729 146.109C27.0729 146.109 16.5276 143.633 12.165 143.927Z" fill="black"/>
<path d="M12.8944 146.326C14.9253 146.171 18.2498 145.953 20.9764 145.946C25.2111 145.927 32.4544 146.397 32.4544 146.397L31.5894 150.928C31.5894 150.928 18.7575 153.013 11.7511 153.506C11.7511 153.506 2.5033 154.571 1.81884 153.186C1.13061 151.805 2.04448 142.943 3.55257 134.953C5.0569 126.967 6.60259 122.365 8.44163 119.9C10.2807 117.431 19.9986 115.508 19.9986 115.508L11.7549 142.498C11.7549 142.498 10.574 144.907 10.6342 145.946C10.653 146.262 10.8711 146.409 11.1682 146.465C11.3751 146.45 11.8301 146.409 12.4582 146.36L12.8944 146.326Z" fill="#2A2E33"/>
</g>
<defs>
<clipPath id="clip0">
<rect width="358" height="310" fill="white"/>
</clipPath>
</defs>
</svg>
