<svg width="24" height="24" viewBox="0 0 24 24" fill="none" xmlns="http://www.w3.org/2000/svg">
<path d="M13.3259 12L23.7254 1.60046C24.0916 1.23432 24.0916 0.640698 23.7254 0.274605C23.3593 -0.0914881 22.7657 -0.091535 22.3996 0.274605L12 10.6742L1.60046 0.274605C1.23432 -0.091535 0.640698 -0.091535 0.274605 0.274605C-0.0914881 0.640745 -0.091535 1.23437 0.274605 1.60046L10.6741 12L0.274605 22.3996C-0.091535 22.7657 -0.091535 23.3593 0.274605 23.7254C0.457651 23.9085 0.697604 24 0.937557 24C1.17751 24 1.41742 23.9085 1.60051 23.7254L12 13.3259L22.3995 23.7254C22.5826 23.9085 22.8225 24 23.0625 24C23.3024 24 23.5423 23.9085 23.7254 23.7254C24.0916 23.3593 24.0916 22.7657 23.7254 22.3996L13.3259 12Z" fill="#222429"/>
</svg>
