<svg width="84" height="84" viewBox="0 0 84 84" fill="none" xmlns="http://www.w3.org/2000/svg">
<path d="M41.8334 16.5703C35.5009 16.5703 30.349 21.6287 30.349 27.847V32.403C26.3692 32.9644 23.2969 36.3911 23.2969 40.5234V59.2266C23.2969 61.0389 24.7657 62.5078 26.5781 62.5078H57.0938C58.9061 62.5078 60.375 61.0389 60.375 59.2266V40.5234C60.375 36.3892 57.3001 32.9612 53.3177 32.4017V27.847C53.3177 21.6287 48.1658 16.5703 41.8334 16.5703ZM41.8334 23.1328C44.5468 23.1328 46.7552 25.2477 46.7552 27.847V32.3203H36.9115V27.847C36.9115 25.2477 39.1193 23.1328 41.8334 23.1328ZM53.8125 40.5234V55.9453H29.8594V40.5234C29.8594 39.6185 30.5951 38.8828 31.5 38.8828H52.1719C53.0768 38.8828 53.8125 39.6185 53.8125 40.5234ZM45.1172 47.4141C45.1172 49.2264 43.6483 50.6953 41.8359 50.6953C40.0236 50.6953 38.5547 49.2264 38.5547 47.4141C38.5547 45.6017 40.0236 44.1328 41.8359 44.1328C43.6483 44.1328 45.1172 45.6017 45.1172 47.4141ZM84 42C84 50.2903 81.5391 58.3531 76.8838 65.3161C75.877 66.8221 73.839 67.2272 72.3323 66.2204C70.8257 65.2129 70.4213 63.175 71.4281 61.6689C75.3598 55.7883 77.4375 48.9874 77.4375 42C77.4375 22.4599 61.5401 6.5625 42 6.5625C22.4599 6.5625 6.5625 22.4599 6.5625 42C6.5625 61.5401 22.4599 77.4375 42 77.4375C48.4811 77.4375 54.8206 75.6725 60.3321 72.3343C61.8817 71.3954 63.8998 71.8908 64.8387 73.441C65.7775 74.9907 65.2821 77.0081 63.7319 77.947C57.195 81.9069 49.6802 84 42 84C30.7816 84 20.2342 79.6312 12.3015 71.6985C4.3688 63.7658 0 53.2184 0 42C0 30.7816 4.3688 20.2342 12.3015 12.3015C20.2342 4.3688 30.7816 0 42 0C53.2184 0 63.7658 4.3688 71.6985 12.3015C79.6312 20.2342 84 30.7816 84 42Z" fill="#F44336"/>
</svg>
