<svg width="24" height="24" viewBox="0 0 24 24" fill="none" xmlns="http://www.w3.org/2000/svg">
<path d="M11.2737 22.1192H3.77562C3.25882 22.1192 2.83836 21.6987 2.83836 21.1819C2.83836 20.6651 3.25882 20.2446 3.77562 20.2446H9.96149C10.4791 20.2446 10.8988 19.825 10.8988 19.3074C10.8988 18.7897 10.4791 18.3701 9.96149 18.3701H6.58738V4.68624C6.58738 4.1686 6.16775 3.74898 5.65011 3.74898C5.13247 3.74898 4.71284 4.1686 4.71284 4.68624V18.3701H3.77562C3.44708 18.3701 3.13175 18.4273 2.83836 18.5313V2.81176C2.83836 2.29496 3.25882 1.87449 3.77562 1.87449H19.2872V11.9031C19.2872 12.4207 19.7068 12.8404 20.2244 12.8404C20.7421 12.8404 21.1617 12.4207 21.1617 11.9031V0.937267C21.1617 0.419626 20.7421 0 20.2244 0H3.77562C2.22523 0 0.963867 1.26136 0.963867 2.81176V21.1819C0.963867 22.7323 2.22523 23.9937 3.77562 23.9937H11.2737C11.7913 23.9937 12.2109 23.574 12.2109 23.0564C12.2109 22.5388 11.7913 22.1192 11.2737 22.1192Z" fill="#222429"/>
<path d="M22.9916 18.0514C22.8819 17.7097 22.5867 17.4606 22.2313 17.41L19.887 17.0761L18.8389 14.9555C18.6809 14.6359 18.3552 14.4336 17.9987 14.4336C17.6422 14.4336 17.3165 14.636 17.1585 14.9555L16.1103 17.0761L13.7661 17.41C13.4107 17.4606 13.1155 17.7097 13.0058 18.0514C12.8961 18.3932 12.9912 18.7676 13.2508 19.0155L14.9357 20.6254L14.5227 22.888C14.4587 23.2386 14.599 23.595 14.8847 23.808C15.1704 24.0208 15.5521 24.0533 15.8697 23.8917L18.0015 22.807L20.179 23.9003C20.312 23.9671 20.456 24 20.5995 24C20.8009 24 21.0011 23.935 21.1675 23.8083C21.4524 23.5913 21.5888 23.2309 21.5188 22.8797L21.0687 20.6187L22.7467 19.0155C23.0062 18.7676 23.1013 18.3932 22.9916 18.0514ZM19.4015 19.6191C19.1696 19.8406 19.0671 20.1653 19.1297 20.4798L19.3058 21.3644L18.4193 20.9193C18.2869 20.8528 18.1428 20.8196 17.9987 20.8196C17.8529 20.8196 17.7072 20.8537 17.5736 20.9215L16.7066 21.3627L16.8704 20.4651C16.9271 20.1549 16.8239 19.8369 16.5959 19.6191L15.9413 18.9936L16.8638 18.8623C17.1699 18.8187 17.4348 18.6269 17.5718 18.3497L17.9988 17.486L18.4257 18.3497C18.5627 18.6269 18.8277 18.8187 19.1338 18.8623L20.0563 18.9936L19.4015 19.6191Z" fill="#222429"/>
</svg>
