<svg width="24" height="14" viewBox="0 0 24 14" fill="none" xmlns="http://www.w3.org/2000/svg">
<g clip-path="url(#clip0)">
<path fill-rule="evenodd" clip-rule="evenodd" d="M4.46813 0H0L5.08443 7L0 14H4.46813L9.55256 7L4.46813 0Z" fill="#FE5000"/>
<path d="M10.1179 3.15039H12.2235L13.867 5.75039L15.5618 3.15039H17.5648L14.8942 7.00039L17.8216 11.3004H15.6132L13.8156 8.45039L11.9154 11.3004H9.86108L12.7885 7.00039L10.1179 3.15039Z" fill="black"/>
<path d="M20.2357 4.45039L19.9275 6.25039C20.1329 6.05039 20.3897 5.85039 20.6465 5.80039C20.9033 5.70039 21.2115 5.65039 21.5196 5.65039C21.9305 5.65039 22.29 5.70039 22.5981 5.85039C22.9063 6.00039 23.1631 6.20039 23.3685 6.45039C23.5739 6.70039 23.728 7.00039 23.8821 7.30039C23.9848 7.65039 24.0361 8.00039 24.0361 8.35039C24.0361 8.75039 23.9334 9.15039 23.7794 9.50039C23.6253 9.85039 23.3685 10.1504 23.1117 10.4004C22.8549 10.6504 22.4954 10.8504 22.1359 11.0004C21.7764 11.1504 21.3655 11.2004 20.9547 11.2004C20.5438 11.2004 20.1843 11.1504 19.8248 11.0504C19.4653 10.9504 19.1571 10.8004 18.849 10.6004C18.5922 10.4004 18.3354 10.1004 18.1813 9.80039C18.0273 9.50039 17.9246 9.10039 17.9246 8.70039H19.568C19.6194 9.05039 19.7221 9.35039 19.9789 9.55039C20.2357 9.75039 20.5438 9.90039 20.9033 9.90039C21.1087 9.90039 21.3142 9.85039 21.4683 9.75039C21.6223 9.65039 21.7764 9.55039 21.9305 9.40039C22.0332 9.25039 22.1359 9.10039 22.1873 8.90039C22.2386 8.70039 22.29 8.50039 22.29 8.35039C22.29 8.15039 22.2386 7.95039 22.1873 7.75039C22.1359 7.55039 22.0332 7.40039 21.9305 7.25039C21.8278 7.10039 21.6737 7.00039 21.4683 6.95039C21.3142 6.85039 21.1087 6.85039 20.852 6.85039C20.5438 6.85039 20.3384 6.90039 20.1329 7.00039C19.9275 7.10039 19.7734 7.25039 19.6194 7.50039H18.13L19.0031 3.15039H23.6253V4.50039H20.2357" fill="black"/>
</g>
<defs>
<clipPath id="clip0">
<rect width="24" height="14" fill="white"/>
</clipPath>
</defs>
</svg>
