<svg width="24" height="24" viewBox="0 0 24 24" fill="none" xmlns="http://www.w3.org/2000/svg">
<g clip-path="url(#clip0)">
<path d="M24 11.5312V12.4688C24 14.0197 22.7384 15.2812 21.1875 15.2812H20.7153C20.5911 15.2812 20.4785 15.3594 20.4285 15.4805L20.4221 15.4962C20.371 15.6193 20.395 15.7546 20.4829 15.8425C20.8489 16.2085 20.8489 16.8021 20.4829 17.1683C20.1167 17.5344 19.5233 17.5345 19.157 17.1683C18.5305 16.5417 18.3472 15.6037 18.6899 14.7786L18.6956 14.7645C19.0364 13.9396 19.829 13.4062 20.7153 13.4062H21.1875C21.7044 13.4062 22.125 12.9857 22.125 12.4688V11.5312C22.125 11.0143 21.7044 10.5938 21.1875 10.5938H20.7153C19.829 10.5938 19.0364 10.0604 18.6954 9.23511L18.6898 9.22137C18.3472 8.3963 18.5305 7.45825 19.157 6.83167L19.491 6.49786C19.8565 6.13239 19.8565 5.53766 19.491 5.172L18.828 4.50916C18.6509 4.33209 18.4155 4.2345 18.1652 4.2345C17.9147 4.2345 17.6792 4.33209 17.5023 4.50916L17.1683 4.84296C16.5417 5.46954 15.6037 5.65302 14.7786 5.31024L14.7647 5.30438C13.9396 4.96362 13.4062 4.17096 13.4062 3.28473V2.8125C13.4062 2.29559 12.9857 1.875 12.4688 1.875H11.5312C11.0143 1.875 10.5938 2.29559 10.5938 2.8125V3.28473C10.5938 4.17096 10.0604 4.96362 9.23511 5.30438L9.22321 5.30933C8.39612 5.65283 7.45825 5.46936 6.83167 4.84296L6.49768 4.50897C6.3208 4.33191 6.08533 4.2345 5.83484 4.2345C5.58453 4.2345 5.34906 4.33191 5.172 4.50897L4.50897 5.172C4.14349 5.53748 4.14349 6.1322 4.50897 6.49786L4.84296 6.83167C5.46954 7.45825 5.65283 8.3963 5.31006 9.22156L5.30438 9.23547C4.96362 10.0604 4.17096 10.5938 3.28473 10.5938H2.8125C2.29559 10.5938 1.875 11.0143 1.875 11.5312V12.4688C1.875 12.9857 2.29559 13.4062 2.8125 13.4062H3.28473C4.17078 13.4062 4.96362 13.9396 5.30438 14.7649L5.31079 14.7801C5.65283 15.6037 5.46936 16.5417 4.84277 17.1683L4.50897 17.5021C4.33191 17.6792 4.2345 17.9147 4.2345 18.1652C4.2345 18.4155 4.33191 18.6509 4.50897 18.828L5.172 19.4908C5.53748 19.8565 6.1322 19.8565 6.49768 19.4908L6.83167 19.157C7.45807 18.5305 8.39612 18.3472 9.22137 18.6899L9.23529 18.6956C10.0604 19.0364 10.5938 19.829 10.5938 20.7153V21.1875C10.5938 21.7044 11.0143 22.125 11.5312 22.125H12.4688C12.9857 22.125 13.4062 21.7044 13.4062 21.1875V20.7153C13.4062 19.829 13.9396 19.0364 14.7649 18.6956L14.7768 18.6907C15.6037 18.3472 16.5417 18.5305 17.1683 19.157L17.5021 19.4908C17.8678 19.8565 18.4625 19.8565 18.828 19.4908C19.1942 19.1248 19.7877 19.1248 20.1539 19.4908C20.5199 19.8571 20.5199 20.4507 20.1539 20.8167C19.0573 21.9133 17.2729 21.9133 16.1763 20.8167L15.8425 20.4829C15.7546 20.395 15.6193 20.3708 15.4977 20.4214L15.4808 20.4285C15.3594 20.4785 15.2812 20.5911 15.2812 20.7153V21.1875C15.2812 22.7384 14.0195 24 12.4688 24H11.5312C9.98035 24 8.71875 22.7384 8.71875 21.1875V20.7153C8.71875 20.5911 8.64056 20.4785 8.51953 20.4285L8.50049 20.4207C8.38055 20.3708 8.24542 20.395 8.15753 20.4829L7.82355 20.8167C6.72711 21.9133 4.94275 21.9133 3.84613 20.8167L3.18329 20.1539C2.6521 19.6225 2.3595 18.9163 2.3595 18.1652C2.3595 17.4139 2.6521 16.7076 3.18329 16.1763L3.51709 15.8425C3.60498 15.7546 3.62915 15.6193 3.57861 15.4977L3.57166 15.4808C3.52148 15.3594 3.40887 15.2812 3.28473 15.2812H2.8125C1.2616 15.2812 0 14.0197 0 12.4688V11.5312C0 9.98053 1.2616 8.71875 2.8125 8.71875H3.28473C3.40887 8.71875 3.52148 8.64056 3.57147 8.51953L3.57843 8.5025C3.62915 8.38074 3.60498 8.24542 3.51709 8.15753L3.18329 7.82373C2.08667 6.72711 2.08667 4.94293 3.18329 3.84631L3.84613 3.18329C4.3775 2.6521 5.08374 2.3595 5.83484 2.3595C6.58612 2.3595 7.29236 2.6521 7.82373 3.18329L8.15753 3.51709C8.24542 3.60498 8.38074 3.62915 8.50232 3.57861L8.51917 3.57147C8.64056 3.52148 8.71875 3.40887 8.71875 3.28473V2.8125C8.71875 1.2616 9.98053 0 11.5312 0H12.4688C14.0197 0 15.2812 1.2616 15.2812 2.8125V3.28473C15.2812 3.40887 15.3594 3.52148 15.4805 3.57147L15.4995 3.57935C15.6194 3.62915 15.7548 3.60498 15.8425 3.51709L16.1765 3.18329C16.7076 2.65192 17.4139 2.3595 18.1652 2.3595C18.9163 2.3595 19.6227 2.65192 20.1539 3.18329L20.8167 3.84613C21.9133 4.94275 21.9133 6.72711 20.8167 7.82355L20.4829 8.15753C20.395 8.24524 20.3708 8.38055 20.4214 8.50232L20.4283 8.51917C20.4785 8.64038 20.5911 8.71875 20.7153 8.71875H21.1875C22.7384 8.71875 24 9.98035 24 11.5312Z" fill="#222429"/>
<path d="M12.5023 12.9875C13.8819 12.9875 14.9961 11.871 14.9961 10.4938C14.9961 9.11869 13.8774 8 12.5023 8H9.99189C9.86246 8 9.75752 8.10494 9.75752 8.23438V11.5146H9.23877C9.10933 11.5146 9.00439 11.6195 9.00439 11.749V12.7531C9.00439 12.8826 9.10933 12.9875 9.23877 12.9875H9.75752V13.5229H9.23877C9.10933 13.5229 9.00439 13.6279 9.00439 13.7573V14.7615C9.00439 14.8909 9.10933 14.9958 9.23877 14.9958H9.75752V15.7656C9.75752 15.8951 9.86246 16 9.99189 16H10.9961C11.1255 16 11.2304 15.8951 11.2304 15.7656V14.9958H12.7533C12.8828 14.9958 12.9877 14.8909 12.9877 14.7615V13.7573C12.9877 13.6278 12.8828 13.5229 12.7533 13.5229H11.2304V12.9875H12.5023ZM11.2304 9.47292H12.5023C13.0652 9.47292 13.5231 9.93088 13.5231 10.4938C13.5231 11.0566 13.0652 11.5146 12.5023 11.5146H11.2304V9.47292Z" fill="#222429"/>
</g>
<defs>
<clipPath id="clip0">
<rect width="24" height="24" fill="white"/>
</clipPath>
</defs>
</svg>
