<svg width="24" height="24" viewBox="0 0 24 24" fill="none" xmlns="http://www.w3.org/2000/svg">
<rect x="0.5" y="0.5" width="23" height="23" rx="3.5" fill="white" stroke="#B4BBC6"/>
<path d="M17.4547 13.6363C17.1534 13.6363 16.9092 13.8806 16.9092 14.1818V16.1376L13.4768 12.7052C13.2638 12.4922 12.9184 12.4922 12.7054 12.7052C12.4924 12.9182 12.4924 13.2635 12.7054 13.4766L16.1378 16.9089L14.1819 16.9091C13.8807 16.9091 13.6365 17.1533 13.6365 17.4546C13.6365 17.7558 13.8808 18 14.182 18L17.4547 17.9998C17.7559 17.9998 18.0001 17.7555 18.0001 17.4543V14.1818C18.0001 13.8806 17.7559 13.6363 17.4547 13.6363Z" fill="#B4BBC6"/>
<path d="M6.54545 10.3636C6.84669 10.3636 7.09091 10.1194 7.09091 9.81818V7.86236L10.5233 11.2948C10.6299 11.4013 10.7695 11.4546 10.909 11.4546C11.0486 11.4546 11.1882 11.4013 11.2947 11.2948C11.5077 11.0818 11.5077 10.7364 11.2947 10.5234L7.86236 7.09105L9.81822 7.09091C10.1195 7.09091 10.3637 6.84665 10.3636 6.54542C10.3636 6.24418 10.1194 6 9.81815 6L6.54542 6.00022C6.24418 6.00022 6 6.24444 6 6.54567V9.81818C6 10.1194 6.24422 10.3636 6.54545 10.3636Z" fill="#B4BBC6"/>
<path d="M10.5234 12.7053L7.09105 16.1377L7.09091 14.1818C7.09091 13.8806 6.84665 13.6364 6.54542 13.6364C6.24418 13.6364 6 13.8806 6 14.1819L6.00022 17.4546C6.00022 17.7559 6.24444 18 6.54567 18H9.81818C10.1194 18 10.3636 17.7558 10.3636 17.4546C10.3636 17.1533 10.1194 16.9091 9.81818 16.9091H7.86236L11.2948 13.4767C11.5078 13.2637 11.5078 12.9183 11.2948 12.7053C11.0818 12.4923 10.7364 12.4923 10.5234 12.7053Z" fill="#B4BBC6"/>
<path d="M13.0909 11.4544C13.2305 11.4544 13.3701 11.4012 13.4766 11.2947L16.9089 7.86229L16.9091 9.81822C16.9091 10.1195 17.1533 10.3637 17.4546 10.3636C17.7558 10.3636 18 10.1194 18 9.81815L17.9998 6.54542C17.9997 6.24418 17.7555 6 17.4543 6H14.1818C13.8806 6 13.6363 6.24422 13.6363 6.54545C13.6363 6.84669 13.8806 7.09091 14.1818 7.09091H16.1376L12.7052 10.5233C12.4922 10.7363 12.4922 11.0817 12.7052 11.2947C12.8117 11.4012 12.9513 11.4544 13.0909 11.4544Z" fill="#B4BBC6"/>
</svg>
