<svg width="29" height="28" viewBox="0 0 29 28" fill="none" xmlns="http://www.w3.org/2000/svg">
<ellipse cx="14.7982" cy="14" rx="13.9386" ry="14" fill="#EFF1F5"/>
<g clip-path="url(#clip0)">
<path d="M17.3181 19.0625H10.2243C9.96698 19.0625 9.75761 18.8522 9.75761 18.5938V17.7266C9.75761 17.1872 9.9874 16.6753 10.388 16.3217C10.8595 15.9055 12.2334 14.9375 14.7979 14.9375C16.7021 14.9375 18.2514 13.3814 18.2514 11.4688C18.2514 9.55603 16.7021 8 14.7979 8C12.8937 8 11.3444 9.55603 11.3444 11.4688C11.3444 12.5869 11.874 13.583 12.6943 14.2177C11.1932 14.5492 10.2595 15.1871 9.77192 15.6175C9.16968 16.1489 8.82422 16.9177 8.82422 17.7266V18.5938C8.82422 19.3692 9.45225 20 10.2243 20H17.3181C17.5758 20 17.7847 19.7902 17.7847 19.5312C17.7847 19.2723 17.5758 19.0625 17.3181 19.0625ZM12.2778 11.4688C12.2778 10.073 13.4083 8.9375 14.7979 8.9375C16.1875 8.9375 17.3181 10.073 17.3181 11.4688C17.3181 12.8645 16.1875 14 14.7979 14C13.4083 14 12.2778 12.8645 12.2778 11.4688ZM19.6515 19.5312C19.6515 19.7902 19.4426 20 19.1848 20C18.9271 20 18.7181 19.7902 18.7181 19.5312C18.7181 19.2723 18.9271 19.0625 19.1848 19.0625C19.4426 19.0625 19.6515 19.2723 19.6515 19.5312ZM19.6868 17.5044C19.6667 17.5111 19.6515 17.5362 19.6515 17.5629V17.8906C19.6515 18.1495 19.4426 18.3594 19.1848 18.3594C18.9271 18.3594 18.7181 18.1495 18.7181 17.8906V17.5629C18.7181 17.1307 18.9889 16.7499 19.3917 16.615C19.6653 16.5234 19.8487 16.2566 19.8377 15.9662C19.8249 15.626 19.5494 15.3494 19.2107 15.3364C19.0308 15.3296 18.8608 15.3945 18.7318 15.5193C18.6026 15.6442 18.5315 15.8122 18.5315 15.9922C18.5315 16.2511 18.3225 16.4609 18.0648 16.4609C17.807 16.4609 17.5981 16.2511 17.5981 15.9922C17.5981 15.555 17.7708 15.1472 18.0845 14.8439C18.3979 14.5408 18.8105 14.3831 19.2462 14.3996C20.0696 14.431 20.7391 15.1035 20.7704 15.9306C20.797 16.6347 20.3515 17.2819 19.6868 17.5044Z" fill="#97A5BC"/>
</g>
<defs>
<clipPath id="clip0">
<rect width="11.9474" height="12" fill="white" transform="translate(8.82422 8)"/>
</clipPath>
</defs>
</svg>
