<svg width="954" height="511" viewBox="0 0 954 511" fill="none" xmlns="http://www.w3.org/2000/svg">
<g clip-path="url(#clip0)">
<path d="M851.006 174.558C813.495 142.532 768.275 -50.5008 613.346 50.0425C533.286 101.994 398.276 5.45838 286.582 38.8202C183.969 69.4336 174.086 170.359 184.008 203.224C204.08 269.642 141.65 279.529 83.7612 308.043C-7.05962 352.818 59.7204 510.084 145.504 510.847C231.288 511.611 751.027 509.359 751.027 509.359C751.027 509.359 875.658 509.664 927.479 440.879C983.269 366.827 947.894 257.237 851.006 174.558Z" fill="#FBFDFF"/>
<path d="M887.775 55.8066H698.193C691.566 55.8066 686.193 61.1792 686.193 67.8066V402.77C686.193 409.398 691.566 414.77 698.193 414.77H887.775C894.402 414.77 899.775 409.398 899.775 402.77V67.8066C899.775 61.1792 894.402 55.8066 887.775 55.8066Z" fill="#E1E5EB"/>
<path d="M873.77 75.8457H712.77C706.143 75.8457 700.77 81.2183 700.77 87.8457V188.895C700.77 195.522 706.143 200.895 712.77 200.895H873.77C880.397 200.895 885.77 195.522 885.77 188.895V87.8457C885.77 81.2183 880.397 75.8457 873.77 75.8457Z" fill="white"/>
<path d="M870.565 318.195H795.272C788.645 318.195 783.272 323.568 783.272 330.195V372.957C783.272 379.584 788.645 384.957 795.272 384.957H870.565C877.192 384.957 882.565 379.584 882.565 372.957V330.195C882.565 323.568 877.192 318.195 870.565 318.195Z" fill="#FBFDFF"/>
<path d="M708.402 150.268C708.402 144.213 712.928 139.149 718.98 139.347C729.918 139.705 747.077 142.258 759.308 153.524C778.617 171.312 814.563 155.09 829.026 153.524C851.635 151.057 869.847 157.449 877.56 165.327C879.175 166.977 879.779 169.296 879.779 171.604V183.246C879.779 189.873 874.406 195.246 867.779 195.246H720.402C713.775 195.246 708.402 189.873 708.402 183.246V150.268Z" fill="#EF5350"/>
<path d="M734.198 137.703V96.6307C734.198 96.2619 733.899 95.9629 733.531 95.9629C733.162 95.9629 732.863 96.2619 732.863 96.6307V137.703C732.863 138.072 733.162 138.371 733.531 138.371C733.899 138.371 734.198 138.072 734.198 137.703Z" fill="#CFD4DC"/>
<path d="M786.134 155.873V114.801C786.134 114.432 785.835 114.133 785.467 114.133C785.098 114.133 784.799 114.432 784.799 114.801V155.873C784.799 156.242 785.098 156.541 785.467 156.541C785.835 156.541 786.134 156.242 786.134 155.873Z" fill="#CFD4DC"/>
<path d="M839.749 146.291V105.219C839.749 104.85 839.45 104.551 839.081 104.551C838.713 104.551 838.414 104.85 838.414 105.219V146.291C838.414 146.66 838.713 146.959 839.081 146.959C839.45 146.959 839.749 146.66 839.749 146.291Z" fill="#CFD4DC"/>
<path d="M748.966 102.452H738.816C738.205 102.452 737.709 101.956 737.709 101.345C737.709 100.735 738.205 100.238 738.816 100.238H748.966C749.577 100.238 750.073 100.735 750.073 101.345C750.073 101.956 749.577 102.452 748.966 102.452Z" fill="#CFD4DC"/>
<path d="M748.966 106.423H738.816C738.205 106.423 737.709 105.927 737.709 105.316C737.709 104.705 738.205 104.209 738.816 104.209H748.966C749.577 104.209 750.073 104.705 750.073 105.316C750.073 105.927 749.577 106.423 748.966 106.423Z" fill="#CFD4DC"/>
<path d="M800.139 124.095H789.988C789.378 124.095 788.882 123.599 788.882 122.988C788.882 122.377 789.378 121.881 789.988 121.881H800.139C800.75 121.881 801.246 122.377 801.246 122.988C801.246 123.599 800.75 124.095 800.139 124.095Z" fill="#CFD4DC"/>
<path d="M800.139 127.95H789.988C789.378 127.95 788.882 127.454 788.882 126.843C788.882 126.233 789.378 125.736 789.988 125.736H800.139C800.75 125.736 801.246 126.233 801.246 126.843C801.246 127.454 800.75 127.95 800.139 127.95Z" fill="#CFD4DC"/>
<path d="M854.632 108.064H844.481C843.87 108.064 843.374 107.567 843.374 106.957C843.374 106.346 843.87 105.85 844.481 105.85H854.632C855.242 105.85 855.738 106.346 855.738 106.957C855.738 107.567 855.242 108.064 854.632 108.064Z" fill="#CFD4DC"/>
<path d="M854.632 111.956H844.481C843.87 111.956 843.374 111.46 843.374 110.849C843.374 110.238 843.87 109.742 844.481 109.742H854.632C855.242 109.742 855.738 110.238 855.738 110.849C855.738 111.46 855.242 111.956 854.632 111.956Z" fill="#CFD4DC"/>
<path d="M885.535 235.781C887.152 225.813 880.385 216.421 870.42 214.803C860.455 213.186 851.066 219.955 849.449 229.922C847.832 239.89 854.599 249.282 864.563 250.9C874.528 252.518 883.917 245.748 885.535 235.781Z" fill="white"/>
<path d="M884.206 232.844C884.206 242.082 876.726 249.563 867.491 249.563C867.37 249.563 867.25 249.562 867.129 249.559C860.489 249.417 859.85 241.186 864.336 236.288C866.363 234.075 867.491 231.164 867.491 228.163C867.491 221.536 873.496 215.894 878.483 220.259C881.99 223.329 884.206 227.838 884.206 232.844Z" fill="#26C6DA"/>
<path d="M861.119 229.905H855.128C854.861 229.905 854.632 229.676 854.632 229.408C854.632 229.141 854.861 228.912 855.128 228.912H861.119C861.386 228.912 861.615 229.141 861.615 229.408C861.615 229.676 861.386 229.905 861.119 229.905Z" fill="#CFD4DC"/>
<path d="M803.879 232.845C803.879 222.767 812.045 214.561 822.157 214.561C832.232 214.561 840.436 222.729 840.436 232.845C840.436 242.922 832.27 251.129 822.157 251.129C812.045 251.129 803.879 242.96 803.879 232.845Z" fill="white"/>
<path d="M832.918 231.857C828.264 232.284 825.929 237.696 828.797 241.386C830.799 243.963 830.341 247.803 827.229 248.786C825.626 249.292 823.92 249.563 822.157 249.563C812.923 249.563 805.443 242.082 805.443 232.844C805.443 223.607 812.923 216.125 822.157 216.125C828.802 216.125 834.556 220.021 837.245 225.654C838.65 228.597 836.166 231.558 832.918 231.857Z" fill="#26A69A"/>
<path d="M835.017 237.006H830.858C830.591 237.006 830.362 236.777 830.362 236.51C830.362 236.243 830.591 236.014 830.858 236.014H835.017C835.284 236.014 835.513 236.243 835.513 236.51C835.513 236.777 835.284 237.006 835.017 237.006Z" fill="#CFD4DC"/>
<path d="M849.213 283.194C849.213 273.117 857.379 264.91 867.492 264.91C877.604 264.91 885.77 273.079 885.77 283.194C885.77 293.271 877.604 301.478 867.492 301.478C857.379 301.478 849.213 293.271 849.213 283.194Z" fill="white"/>
<path d="M884.206 283.194C884.206 292.431 876.726 299.913 867.492 299.913C867.371 299.913 867.25 299.911 867.129 299.909C860.489 299.766 859.85 291.535 864.336 286.638C866.364 284.425 867.492 281.514 867.492 278.513C867.492 271.886 873.497 266.237 878.487 270.599C881.992 273.663 884.206 278.169 884.206 283.194Z" fill="#D4E157"/>
<path d="M861.119 280.256H855.128C854.861 280.256 854.632 280.027 854.632 279.76C854.632 279.493 854.861 279.264 855.128 279.264H861.119C861.386 279.264 861.615 279.493 861.615 279.76C861.615 280.027 861.386 280.256 861.119 280.256Z" fill="#CFD4DC"/>
<path d="M803.879 283.194C803.879 273.117 812.045 264.91 822.157 264.91C832.232 264.91 840.436 273.079 840.436 283.194C840.436 293.271 832.27 301.478 822.157 301.478C812.045 301.478 803.879 293.271 803.879 283.194Z" fill="white"/>
<path d="M832.918 282.206C836.166 281.908 838.65 278.947 837.245 276.003C834.556 270.371 828.802 266.475 822.157 266.475C812.923 266.475 805.443 273.956 805.443 283.194C805.443 292.431 812.923 299.913 822.157 299.913C823.932 299.913 825.636 299.643 827.231 299.139C830.343 298.158 830.799 294.312 828.797 291.736C825.929 288.046 828.264 282.633 832.918 282.206Z" fill="#9CCC65"/>
<path d="M835.017 287.317H830.858C830.591 287.317 830.362 287.088 830.362 286.82C830.362 286.553 830.591 286.324 830.858 286.324H835.017C835.284 286.324 835.513 286.553 835.513 286.82C835.513 287.088 835.284 287.317 835.017 287.317Z" fill="#CFD4DC"/>
<path d="M813.117 362.175C805.921 356.432 798.436 357.809 793.785 359.686C790.705 360.929 789.148 364.13 789.148 367.452C789.148 373.277 793.871 378 799.696 378H864.039C870.667 378 876.039 372.627 876.039 366V349.393C876.039 342.647 870.379 337.313 864.09 339.753C843.721 347.655 822.838 369.875 813.117 362.175Z" fill="#2196F3"/>
<path d="M790.142 330.644H830.606C831.163 330.644 831.6 330.207 831.6 329.65C831.6 329.094 831.163 328.656 830.606 328.656H790.142C789.585 328.656 789.148 329.094 789.148 329.65C789.148 330.167 789.585 330.644 790.142 330.644Z" fill="#CFD4DC"/>
<path d="M790.142 335.496H830.606C831.163 335.496 831.6 335.059 831.6 334.502C831.6 333.945 831.163 333.508 830.606 333.508H790.142C789.585 333.508 789.148 333.945 789.148 334.502C789.148 335.059 789.585 335.496 790.142 335.496Z" fill="#CFD4DC"/>
<path d="M789.943 340.067H816.734C817.171 340.067 817.529 339.71 817.529 339.272V338.914C817.529 338.477 817.171 338.119 816.734 338.119H789.943C789.506 338.119 789.148 338.477 789.148 338.914V339.272C789.148 339.71 789.506 340.067 789.943 340.067Z" fill="#CFD4DC"/>
<path d="M626.857 0H382.628C369.373 0 358.628 10.7452 358.628 24V416.841C358.628 430.096 369.373 440.841 382.628 440.841H626.857C640.112 440.841 650.857 430.096 650.857 416.841V24C650.857 10.7452 640.112 0 626.857 0Z" fill="#E1E5EB"/>
<path d="M598.161 24.6582H410.866C397.611 24.6582 386.866 35.4034 386.866 48.6582V262.972C386.866 276.227 397.611 286.972 410.866 286.972H598.161C611.416 286.972 622.161 276.227 622.161 262.972V48.6582C622.161 35.4034 611.416 24.6582 598.161 24.6582Z" fill="white"/>
<path d="M391.865 370.797C391.865 347.436 410.793 328.465 434.185 328.465C457.539 328.465 476.504 347.398 476.504 370.797C476.504 394.158 457.577 413.129 434.185 413.129C410.831 413.129 391.865 394.196 391.865 370.797Z" fill="#F3F9FF"/>
<path d="M469.941 370.798C469.941 351.025 453.914 335.031 434.185 335.031C414.418 335.031 398.429 351.063 398.429 370.798C398.429 390.571 414.456 406.564 434.185 406.564C439.51 406.564 444.559 405.396 449.089 403.313C453.065 401.484 453.711 396.417 451.059 392.937C446.22 386.587 452.766 377.885 460.225 380.729C464.308 382.286 468.98 380.245 469.587 375.919C469.821 374.248 469.941 372.537 469.941 370.798Z" fill="#2196F3"/>
<path d="M536.034 370.797C536.034 347.436 554.961 328.465 578.353 328.465C601.707 328.465 620.673 347.398 620.673 370.797C620.673 394.158 601.745 413.129 578.353 413.129C554.999 413.129 536.034 394.196 536.034 370.797Z" fill="#F3F9FF"/>
<path d="M578.353 335.031C558.586 335.031 542.597 351.063 542.597 370.798C542.597 372.833 542.768 374.828 543.095 376.77C545.094 388.64 559.834 389.045 568.409 380.596C574.467 374.627 583.451 372.742 591.397 375.773L599.604 378.903C606.335 381.47 614.109 378.001 614.109 370.798C614.147 351.063 598.12 335.031 578.353 335.031Z" fill="#FF7043"/>
<path d="M573.125 352.627H557.9C557.289 352.627 556.793 353.123 556.793 353.734C556.793 354.345 557.289 354.803 557.9 354.803H573.125C573.736 354.803 574.232 354.306 574.232 353.734C574.232 353.123 573.736 352.627 573.125 352.627Z" fill="white"/>
<path d="M573.125 356.102H557.9C557.289 356.102 556.793 356.598 556.793 357.208C556.793 357.819 557.289 358.277 557.9 358.277H573.125C573.736 358.277 574.232 357.781 574.232 357.208C574.232 356.56 573.736 356.102 573.125 356.102Z" fill="white"/>
<path d="M564.196 359.537H557.9C557.289 359.537 556.793 360.033 556.793 360.606C556.793 361.217 557.289 361.713 557.9 361.713H564.196C564.807 361.713 565.264 361.217 565.264 360.606C565.303 360.033 564.807 359.537 564.196 359.537Z" fill="white"/>
<path d="M428.652 352.627H413.426C412.815 352.627 412.357 353.123 412.357 353.734C412.357 354.345 412.853 354.803 413.426 354.803H428.652C429.262 354.803 429.758 354.306 429.758 353.734C429.758 353.123 429.262 352.627 428.652 352.627Z" fill="white"/>
<path d="M428.652 356.102H413.426C412.815 356.102 412.357 356.598 412.357 357.208C412.357 357.819 412.853 358.277 413.426 358.277H428.652C429.262 358.277 429.758 357.781 429.758 357.208C429.758 356.56 429.262 356.102 428.652 356.102Z" fill="white"/>
<path d="M419.722 359.537H413.426C412.815 359.537 412.357 360.033 412.357 360.606C412.357 361.217 412.853 361.713 413.426 361.713H419.722C420.333 361.713 420.829 361.217 420.829 360.606C420.829 360.033 420.333 359.537 419.722 359.537Z" fill="white"/>
<path d="M421.744 266.151V125.37C421.744 121.524 418.626 118.406 414.78 118.406C410.934 118.406 407.816 121.524 407.816 125.37V266.151C407.816 269.997 410.934 273.115 414.78 273.115C418.626 273.115 421.744 269.997 421.744 266.151Z" fill="#2196F3"/>
<path d="M463.551 266.152V82.2375C463.551 78.3913 460.433 75.2734 456.587 75.2734C452.741 75.2734 449.623 78.3913 449.623 82.2375V266.152C449.623 269.998 452.741 273.116 456.587 273.116C460.433 273.116 463.551 269.998 463.551 266.152Z" fill="#2196F3"/>
<path d="M507.433 266.151V162.778C507.433 158.932 504.316 155.814 500.469 155.814C496.623 155.814 493.505 158.932 493.505 162.778V266.151C493.505 269.997 496.623 273.115 500.469 273.115C504.316 273.115 507.433 269.997 507.433 266.151Z" fill="#2196F3"/>
<path d="M551.653 266.153V108.654C551.653 104.807 548.535 101.689 544.689 101.689C540.843 101.689 537.725 104.807 537.725 108.654V266.153C537.725 269.999 540.843 273.117 544.689 273.117C548.535 273.117 551.653 269.999 551.653 266.153Z" fill="#2196F3"/>
<path d="M593 266.152V185.759C593 181.913 589.882 178.795 586.036 178.795C582.19 178.795 579.072 181.913 579.072 185.759V266.152C579.072 269.998 582.19 273.116 586.036 273.116C589.882 273.116 593 269.998 593 266.152Z" fill="#2196F3"/>
<path d="M559.731 79.3965H538.705C537.522 79.3965 536.53 80.3889 536.53 81.5722C536.53 82.7556 537.522 83.748 538.705 83.748H559.731C560.914 83.748 561.906 82.7556 561.906 81.5722C561.906 80.3889 560.914 79.3965 559.731 79.3965Z" fill="#CFD4DC"/>
<path d="M543.475 87.2988H538.705C537.522 87.2988 536.53 88.2913 536.53 89.4746C536.53 90.6579 537.522 91.6504 538.705 91.6504H543.475C544.658 91.6504 545.65 90.6579 545.65 89.4746C545.65 88.2913 544.696 87.2988 543.475 87.2988Z" fill="#CFD4DC"/>
<path d="M473.07 45.6914H452.044C450.861 45.6914 449.868 46.6839 449.868 47.8672C449.868 49.0505 450.861 50.0429 452.044 50.0429H473.07C474.253 50.0429 475.245 49.0505 475.245 47.8672C475.245 46.6839 474.291 45.6914 473.07 45.6914Z" fill="#CFD4DC"/>
<path d="M456.852 53.6309H452.082C450.899 53.6309 449.906 54.6233 449.906 55.8066C449.906 56.9899 450.899 57.9824 452.082 57.9824H456.852C458.035 57.9824 459.027 56.9899 459.027 55.8066C459.027 54.5851 458.035 53.6309 456.852 53.6309Z" fill="#CFD4DC"/>
<path d="M431.201 91H410.175C408.992 91 408 91.9925 408 93.1758C408 94.3591 408.992 95.3515 410.175 95.3515H431.201C432.384 95.3515 433.376 94.3591 433.376 93.1758C433.376 91.9925 432.422 91 431.201 91Z" fill="#CFD4DC"/>
<path d="M414.983 98.9395H410.213C409.03 98.9395 408.038 99.9319 408.038 101.115C408.038 102.299 409.03 103.291 410.213 103.291H414.983C416.166 103.291 417.158 102.299 417.158 101.115C417.158 99.8937 416.166 98.9395 414.983 98.9395Z" fill="#CFD4DC"/>
<path d="M515.809 132.723H494.783C493.6 132.723 492.608 133.715 492.608 134.898C492.608 136.082 493.6 137.074 494.783 137.074H515.809C516.992 137.074 517.984 136.082 517.984 134.898C517.984 133.715 516.992 132.723 515.809 132.723Z" fill="#CFD4DC"/>
<path d="M499.591 140.662H494.821C493.638 140.662 492.646 141.655 492.646 142.838C492.646 144.021 493.638 145.014 494.821 145.014H499.591C500.774 145.014 501.766 144.021 501.766 142.838C501.766 141.616 500.774 140.662 499.591 140.662Z" fill="#CFD4DC"/>
<path d="M602.394 155.816H581.368C580.185 155.816 579.193 156.809 579.193 157.992C579.193 159.176 580.185 160.168 581.368 160.168H602.394C603.577 160.168 604.569 159.176 604.569 157.992C604.569 156.809 603.615 155.816 602.394 155.816Z" fill="#CFD4DC"/>
<path d="M586.176 163.756H581.406C580.223 163.756 579.231 164.748 579.231 165.932C579.231 167.115 580.223 168.107 581.406 168.107H586.176C587.359 168.107 588.351 167.115 588.351 165.932C588.351 164.71 587.359 163.756 586.176 163.756Z" fill="#CFD4DC"/>
<path d="M314.154 167.113H124.572C117.945 167.113 112.572 172.486 112.572 179.113V275.391C112.572 282.019 117.945 287.391 124.572 287.391H314.154C320.781 287.391 326.154 282.019 326.154 275.391V179.113C326.154 172.486 320.781 167.113 314.154 167.113Z" fill="#E1E5EB"/>
<path d="M198.261 251.852C213.343 236.766 213.343 212.308 198.261 197.222C183.18 182.137 158.729 182.137 143.648 197.222C128.567 212.308 128.567 236.766 143.648 251.852C158.729 266.938 183.18 266.938 198.261 251.852Z" fill="white"/>
<path d="M302.151 202.955H238.157C235.829 202.955 233.959 204.864 233.959 207.154C233.959 209.482 235.867 211.353 238.157 211.353H302.151C304.479 211.353 306.349 209.444 306.349 207.154C306.349 204.864 304.441 202.955 302.151 202.955Z" fill="#F3F9FF"/>
<path d="M302.151 220.322H238.157C235.829 220.322 233.959 222.231 233.959 224.521C233.959 226.85 235.867 228.72 238.157 228.72H302.151C304.479 228.72 306.349 226.811 306.349 224.521C306.349 222.193 304.441 220.322 302.151 220.322Z" fill="#F3F9FF"/>
<path d="M302.151 237.691H238.157C235.829 237.691 233.959 239.6 233.959 241.89C233.959 244.219 235.867 246.089 238.157 246.089H302.151C304.479 246.089 306.349 244.181 306.349 241.89C306.349 239.562 304.441 237.691 302.151 237.691Z" fill="#F3F9FF"/>
<path d="M137.632 212.178C135.423 218.426 140.993 223.951 147.621 223.951H158.957C165.584 223.951 170.957 218.579 170.957 211.951V200.59C170.957 193.953 165.417 188.38 159.165 190.606C149.135 194.176 141.181 202.141 137.632 212.178Z" fill="#EF5350"/>
<path d="M204.326 236.871C206.53 230.62 200.959 225.096 194.331 225.096H170.957H147.583C140.955 225.096 135.384 230.62 137.588 236.871C142.438 250.625 155.546 260.481 170.957 260.481C186.368 260.481 199.476 250.625 204.326 236.871Z" fill="#FFCA28"/>
<path d="M164.851 205.781H145.657C144.55 205.781 143.672 206.659 143.672 207.766C143.672 208.873 144.55 209.751 145.657 209.751H164.851C165.958 209.751 166.836 208.873 166.836 207.766C166.836 206.697 165.958 205.781 164.851 205.781Z" fill="white"/>
<path d="M150.045 212.996H145.657C144.55 212.996 143.672 213.874 143.672 214.981C143.672 216.088 144.55 216.966 145.657 216.966H150.045C151.152 216.966 152.029 216.088 152.029 214.981C152.029 213.912 151.152 212.996 150.045 212.996Z" fill="white"/>
<path d="M193.357 233.762H174.163C173.056 233.762 172.178 234.64 172.178 235.747C172.178 236.854 173.056 237.732 174.163 237.732H193.357C194.464 237.732 195.341 236.854 195.341 235.747C195.341 234.64 194.464 233.762 193.357 233.762Z" fill="white"/>
<path d="M178.551 240.977H174.163C173.056 240.977 172.178 241.855 172.178 242.961C172.178 244.068 173.056 244.946 174.163 244.946H178.551C179.658 244.946 180.535 244.068 180.535 242.961C180.535 241.893 179.619 240.977 178.551 240.977Z" fill="white"/>
<path d="M109.945 309C103.318 309 97.9451 314.373 97.9451 321V419.988C97.9451 426.616 103.318 431.988 109.945 431.988H299.527C306.154 431.988 311.527 426.616 311.527 419.988V321C311.527 314.373 306.154 309 299.527 309H109.945Z" fill="#E1E5EB"/>
<path d="M190.967 383.825C200.421 364.7 192.587 341.53 173.469 332.073C154.35 322.615 131.187 330.452 121.732 349.576C112.278 368.7 120.112 391.87 139.23 401.328C158.349 410.785 181.512 402.949 190.967 383.825Z" fill="white"/>
<path d="M223.53 353.546H287.486C289.814 353.546 291.684 351.638 291.684 349.347C291.684 347.019 289.776 345.148 287.486 345.148H223.53C221.202 345.148 219.332 347.057 219.332 349.347C219.294 351.676 221.202 353.546 223.53 353.546Z" fill="#F3F9FF"/>
<path d="M287.486 362.479H223.53C221.202 362.479 219.332 364.387 219.332 366.677C219.332 369.006 221.24 370.876 223.53 370.876H287.486C289.814 370.876 291.684 368.968 291.684 366.677C291.722 364.387 289.814 362.479 287.486 362.479Z" fill="#F3F9FF"/>
<path d="M287.486 379.846H223.53C221.202 379.846 219.332 381.754 219.332 384.045C219.332 386.373 221.24 388.243 223.53 388.243H287.486C289.814 388.243 291.684 386.335 291.684 384.045C291.722 381.754 289.814 379.846 287.486 379.846Z" fill="#F3F9FF"/>
<path d="M159.816 372.809C157.641 369.389 153.886 367.297 149.832 367.249L121.452 366.912C121.2 366.909 120.994 367.112 120.994 367.364C120.994 386.908 136.83 402.749 156.368 402.749C159.117 402.749 161.789 402.436 164.354 401.841C170.8 400.347 172.46 392.695 168.91 387.111L159.816 372.809Z" fill="#2196F3"/>
<path d="M157.627 378.473H138.433C137.326 378.473 136.448 379.351 136.448 380.458C136.448 381.565 137.326 382.443 138.433 382.443H157.627C158.734 382.443 159.612 381.565 159.612 380.458C159.612 379.351 158.734 378.473 157.627 378.473Z" fill="white"/>
<path d="M142.821 385.688H138.433C137.326 385.688 136.448 386.565 136.448 387.672C136.448 388.779 137.326 389.657 138.433 389.657H142.821C143.928 389.657 144.806 388.779 144.806 387.672C144.806 386.604 143.928 385.688 142.821 385.688Z" fill="white"/>
<path d="M299.118 35.9199H109.537C102.909 35.9199 97.5369 41.2925 97.5369 47.9199V135.38C97.5369 142.008 102.909 147.38 109.537 147.38H299.118C305.746 147.38 311.118 142.008 311.118 135.38V47.9199C311.118 41.2925 305.746 35.9199 299.118 35.9199Z" fill="#E1E5EB"/>
<path d="M167.707 130.079C188.018 123.568 199.206 101.819 192.697 81.5023C186.187 61.1855 164.445 49.994 144.134 56.5052C123.824 63.0165 112.635 84.7649 119.145 105.082C125.654 125.398 147.396 136.59 167.707 130.079Z" fill="white"/>
<path d="M155.922 57.9453C136.384 57.9453 120.547 73.7864 120.547 93.292C120.547 102.344 123.944 110.594 129.524 116.842C133.961 121.81 141.515 119.551 144.709 113.706C144.911 113.337 145.113 112.966 145.316 112.596C149.876 104.258 161.853 104.32 166.354 112.69L166.989 113.869C170.128 119.707 177.624 121.986 182.086 117.084C187.802 110.806 191.296 102.455 191.296 93.292C191.296 73.7864 175.46 57.9453 155.922 57.9453Z" fill="#2196F3"/>
<path d="M287.078 71.7246H223.122C220.794 71.7246 218.924 73.6332 218.924 75.9235C218.924 78.2519 220.832 80.1223 223.122 80.1223H287.116C289.444 80.1223 291.314 78.2137 291.314 75.9235C291.314 73.6332 289.406 71.7246 287.078 71.7246Z" fill="white"/>
<path d="M287.078 89.0918H223.122C220.794 89.0918 218.924 91.0004 218.924 93.2906C218.924 95.6191 220.832 97.4895 223.122 97.4895H287.116C289.444 97.4895 291.314 95.5809 291.314 93.2906C291.314 91.0004 289.406 89.0918 287.078 89.0918Z" fill="white"/>
<path d="M287.078 106.461H223.122C220.794 106.461 218.924 108.37 218.924 110.66C218.924 112.988 220.832 114.859 223.122 114.859H287.116C289.444 114.859 291.314 112.95 291.314 110.66C291.314 108.331 289.406 106.461 287.078 106.461Z" fill="white"/>
<path d="M157.219 76.4199H138.025C136.918 76.4199 136.04 77.2979 136.04 78.4048C136.04 79.5118 136.918 80.3898 138.025 80.3898H157.219C158.326 80.3898 159.203 79.5118 159.203 78.4048C159.203 77.2979 158.326 76.4199 157.219 76.4199Z" fill="white"/>
<path d="M142.413 83.6348H138.025C136.918 83.6348 136.04 84.5127 136.04 85.6197C136.04 86.7266 136.918 87.6046 138.025 87.6046H142.413C143.52 87.6046 144.397 86.7266 144.397 85.6197C144.397 84.5509 143.52 83.6348 142.413 83.6348Z" fill="white"/>
<path d="M360.65 228.418C360.65 228.418 385.569 254.145 386.752 263.841C387.935 273.537 374.884 288.729 374.884 288.729L360.65 228.418Z" fill="white"/>
<path d="M350.004 495.312C350.004 495.312 349.164 508.977 346.493 509.168C346.149 509.206 333.06 509.206 333.06 509.206L316.385 509.091C316.385 509.091 316.499 505.083 321.383 504.206C326.268 503.366 334.434 499.93 337.373 493.479C340.463 486.761 350.004 495.312 350.004 495.312Z" fill="black"/>
<path d="M387.133 495.312C387.133 495.312 386.294 508.977 383.623 509.168C383.279 509.206 370.19 509.206 370.19 509.206L353.476 509.13C353.476 509.13 353.629 505.083 358.513 504.206C363.398 503.366 371.564 499.93 374.502 493.479C377.631 486.761 387.133 495.312 387.133 495.312Z" fill="black"/>
<path d="M331.534 348.656C331.534 348.656 335.884 376.559 352.179 426.106C368.435 475.652 370.686 497.105 370.686 497.105C370.686 497.105 375.075 497.754 379.73 497.754C382.669 497.754 388.125 496.608 388.125 496.608C388.125 496.608 388.278 442.481 380.761 417.556C373.243 392.63 379.158 327.738 379.158 327.738L331.534 348.656Z" fill="black"/>
<path d="M323.024 329.266C323.024 329.266 322.414 371.33 329.664 422.938C336.953 474.584 334.472 496.494 334.472 496.494C334.472 496.494 340.464 497.563 342.562 497.64C344.814 497.716 351.873 497.067 351.873 497.067C351.873 497.067 362.291 445.421 359.315 419.579C356.338 393.737 373.586 330.907 373.586 330.907L323.024 329.266Z" fill="#222429"/>
<path d="M356.758 230.86L348.554 236.929L336.686 234.41C336.838 233.341 337.64 228.837 338.365 224.753C338.403 224.524 338.441 224.257 338.479 224.028C339.09 220.554 339.624 217.577 339.624 217.577L350.729 212.042L354.85 209.98C354.85 210.057 354.545 213.836 354.468 214.37C353.667 224.218 356.758 230.86 356.758 230.86Z" fill="#FFDEDD"/>
<path d="M337.487 227.807C337.754 227.692 353.629 222.997 355.384 223.57C357.101 224.142 358.132 227.463 358.132 227.463L332.145 233.342C332.106 233.342 334.167 229.181 337.487 227.807Z" fill="#EFF1F5"/>
<path d="M380.302 334.457C377.593 346.748 332.755 348.199 321.231 337.052C319.933 335.793 319.857 329.876 320.353 321.898C321.307 306.325 324.436 282.849 324.551 270.863C324.627 265.061 325.39 259.145 326.459 253.801C328.71 242.349 332.144 233.379 332.144 233.379C332.144 233.379 354.048 226.279 358.131 227.501C377.86 233.265 382.974 322.166 380.302 334.457Z" fill="white"/>
<path d="M320.315 321.899C321.269 306.325 324.398 282.85 324.513 270.864C324.589 265.062 325.352 259.145 326.421 253.801L339.586 251.473C339.624 251.473 352.484 304.073 320.315 321.899Z" fill="#EFF1F5"/>
<path d="M327.451 300.14C327.451 300.14 328.367 302.278 326.459 303.728C324.589 305.179 323.368 307.507 323.788 309.225C324.207 310.943 328.367 313.729 329.779 313.271C331.229 312.813 334.129 310.561 333.824 309.683C333.518 308.767 335.77 301.782 332.297 299.072C328.786 296.4 327.451 300.14 327.451 300.14Z" fill="#FFDEDD"/>
<path d="M342.181 230.211C342.181 230.211 329.321 232.616 319.094 247.693C308.867 262.771 302.113 273.993 304.021 279.452C305.891 284.872 323.101 303.767 326.077 303.767C329.054 303.767 333.824 301.63 334.091 296.744C334.091 296.744 321.994 278.612 324.36 275.864C325.39 274.719 340.082 262.771 342.181 268.153C345.615 277.085 342.181 230.211 342.181 230.211Z" fill="white"/>
<path opacity="0.3" d="M353.629 214.636C351.186 219.293 342.104 223.339 338.326 224.828C338.365 224.599 338.403 224.332 338.441 224.103C339.051 220.629 339.586 217.652 339.586 217.652L350.69 212.117C353.132 212.079 354.621 212.728 353.629 214.636Z" fill="#FF7043"/>
<path d="M335.999 217.921C335.999 217.921 352.407 223.036 355.46 212.768C358.475 202.5 362.634 196.239 352.293 192.537C341.952 188.834 338.746 192.155 336.876 195.323C335.045 198.492 331.839 216.318 335.999 217.921Z" fill="#FFDEDD"/>
<path d="M337.525 194.33C337.525 194.33 338.555 206.278 341.036 205.781C343.516 205.247 345.768 204.865 345.386 208.492C345.043 212.08 341.608 216.24 349.202 216.889C356.834 217.538 367.786 197.88 365.687 194.139C359.696 183.413 328.825 181.237 337.525 194.33Z" fill="#2A2E33"/>
<path d="M41.938 472.219L46.937 493.289L54.4163 493.251L54.7216 472.219H41.938Z" fill="#FFDEDD"/>
<path d="M104.94 473.134L119.135 493.289L124.707 486.151L116.121 470.348L104.94 473.134Z" fill="#FFDEDD"/>
<path d="M67.963 195.515C65.3681 194.026 62.2771 193.873 60.102 194.026C60.6744 193.453 61.7429 193.224 61.7429 193.224C60.4073 193.034 57.3926 194.37 57.3926 194.37C38.6942 187.155 35.7559 214.677 36.1757 221.09C36.5573 227.502 29.8793 229.564 20.1866 234.602C1.64088 244.183 0 257.085 0 257.085C0.15264 257.161 0.30528 257.276 0.45792 257.39C1.37376 255.825 3.28176 252.886 4.88448 252.466C4.80816 252.619 3.01464 256.513 2.32776 258.726C7.78464 262.887 18.0497 272.125 25.1856 278.652C25.1474 277.392 25.1856 275.56 25.6817 274.606L26.5594 279.912C30.3754 283.423 33.0084 285.904 33.0084 285.904C32.5505 280.751 56.3623 253.459 68.8025 245.29C71.8171 240.824 72.9238 232.961 73.0001 232.35C72.4658 238.61 71.3974 242.084 70.4434 244.069C80.9374 234.335 74.7936 199.408 67.963 195.515Z" fill="black"/>
<path d="M68.0391 245.672C68.1154 245.71 62.048 248.84 57.4688 247.619C53.1948 246.435 50.371 240.862 50.4473 240.862C52.279 240.519 52.7751 238 52.7369 227.273L53.5764 227.426L67.3904 230.174C67.3904 230.174 67.0851 234.526 67.0851 238.61C67.0469 242.046 67.2377 245.29 68.0391 245.672Z" fill="#FFDEDD"/>
<path d="M52.3938 200.019C52.3938 200.019 59.2244 192.767 67.7723 199.637C67.7723 199.637 62.8115 198.76 52.3938 200.019Z" fill="#FF7043"/>
<path opacity="0.3" d="M67.3525 230.137C67.3525 230.137 67.0472 234.489 67.0472 238.573C59.3007 238.344 55.2176 231.282 53.5386 227.389L67.3525 230.137Z" fill="#FF7043"/>
<path d="M52.1267 225.9C52.1267 225.9 48.0817 219.488 47.0895 214.029C46.4027 210.136 48.387 195.631 62.9259 197.73C62.9259 197.73 67.1617 198.15 71.1303 200.822C74.2976 202.959 78.8387 207.578 73.7634 220.213L72.4278 224.488L52.1267 225.9Z" fill="black"/>
<path d="M122.417 480.618L115.09 480.847L107.153 481.076C107.153 481.076 88.8364 460.692 78.5713 427.979C78.3424 427.216 78.0752 426.452 77.8081 425.689C72.1986 409.275 60.5216 388.701 54.3779 370.073C53.3857 367.096 52.508 364.309 51.7448 361.676C51.4777 360.836 51.2488 359.996 51.0198 359.194C46.4788 343.468 45.1813 333.123 43.9602 322.092L88.3021 322.435C88.3403 322.474 95.5144 397.824 122.417 480.618Z" fill="#FF7043"/>
<path d="M82.1586 296.973C82.0441 318.082 85.2495 327.129 85.2495 327.129C85.2495 327.129 66.2458 336.786 43.6933 329.686C43.4262 329.61 24.9949 325.411 24.9949 325.411C25.3765 324.571 28.7346 310.333 29.1162 309.532C33.8862 299.302 37.5114 294.798 38.0456 291.668C39.0759 285.789 39.1141 279.72 38.5798 273.994C37.2061 258.802 33.123 246.206 33.123 246.206C39.2667 244.793 45.1815 242.427 51.5924 240.022C53.0806 241.854 57.3927 243.724 61.3232 243.61C65.8261 243.495 67.238 241.625 67.0472 239.449C71.8554 242.121 75.6332 244.641 75.6332 244.641C79.7163 251.702 87.9589 258.573 88.5694 269.452C88.7221 272.124 82.1586 296.401 82.1586 296.973Z" fill="#FBFDFF"/>
<path d="M43.9986 299.342C42.0525 302.09 38.3509 318.771 29.1162 320.871C33.8862 308.999 37.5114 303.77 38.0456 300.105C39.076 293.273 39.1141 286.211 38.5799 279.569C41.6708 274.149 43.9986 270.408 43.9986 270.408C44.2276 269.53 48.9213 255.063 50.4095 268.003C51.8977 280.943 46.1737 296.25 43.9986 299.342Z" fill="#F2564B"/>
<path d="M69.9474 234.029C69.9474 234.029 51.6687 234.334 51.6306 222.921C51.6306 211.508 49.2647 203.873 60.9416 203.224C72.6186 202.537 74.9082 206.889 75.824 210.706C76.7399 214.485 74.7174 233.647 69.9474 234.029Z" fill="#FFDEDD"/>
<path d="M75.2897 204.37C72.4659 200.934 70.3289 201.698 69.1459 202.728C65.1773 196.812 52.6608 205.362 52.6608 205.362C51.4397 213.531 45.5249 218.226 45.5249 218.226C45.5249 218.226 48.8448 220.287 56.5531 218.302C62.6206 216.737 67.009 208.149 68.5735 204.522C69.6802 205.477 71.9698 207.729 72.6567 209.905C73.5725 212.806 73.9922 218.799 75.7094 218.569C75.7476 218.608 79.5255 209.485 75.2897 204.37Z" fill="black"/>
<path d="M46.7078 492.105C46.7078 492.105 47.3184 496.266 45.7538 500.732C45.7538 500.732 44.5327 506.305 50.0277 506.42C55.5227 506.534 56.8583 506 56.2478 502.564C55.6372 499.129 54.4543 493.212 54.4543 493.212L46.7078 492.105Z" fill="#FFDEDD"/>
<path d="M56.7437 509.169H45.3338C44.7233 506.229 45.7154 500.733 45.7154 500.733C51.9355 506.688 55.8278 500.58 55.8278 500.58C56.8582 503.138 56.7437 509.169 56.7437 509.169Z" fill="black"/>
<path d="M137.948 503.404C137.948 503.404 127.798 491.876 124.707 486.15L117.151 490.006L134.018 505.847L137.948 505.312V503.404Z" fill="#FFDEDD"/>
<path d="M144.168 509.13H130.087C128.866 508.023 127.683 505.771 126.233 502.831C125.394 501.152 123.562 500.198 121.654 499.701V509.168H118.754L116.045 499.129C114.251 495.77 115.587 492.678 116.846 490.006C118.296 490.006 122.57 491.075 130.049 499.663C132.53 502.488 135.239 503.48 137.91 503.404C137.948 503.442 137.987 503.442 138.025 503.48C142.299 505.427 143.71 507.832 144.168 509.13Z" fill="black"/>
<path d="M143.482 252.962C143.482 252.962 131.461 259.68 127.187 261.627C125.661 262.314 122.913 263.612 120.09 264.909C118.372 265.711 116.655 266.513 115.167 267.238C112.648 268.421 109.634 267.772 107.84 265.673C101.353 258.077 84.5245 241.625 67.1235 239.564L67.0472 239.525C67.0472 239.525 67.0472 239.525 67.0472 239.564C67.0472 239.564 67.0472 239.564 67.009 239.564L67.1235 239.754C68.1157 242.197 77.6175 265.978 77.9228 271.017C78.2281 276.323 79.1821 357.589 79.1821 357.589C79.1821 357.589 78.5715 361.33 85.7074 359.765C92.8815 358.2 94.7513 356.635 94.7513 356.635C94.7513 356.635 87.9207 306.516 89.7524 289.072C90.134 285.636 89.7905 281.819 89.0273 277.849C99.5977 284.262 112.076 287.125 112.076 287.125C112.076 287.125 116.731 285.102 123.944 280.598C126.997 278.727 130.507 275.712 133.98 272.544C138.177 268.688 145.39 259.413 145.39 259.413L143.482 252.962Z" fill="#FF7043"/>
<path d="M115.09 480.845L107.153 481.074C107.153 481.074 88.8363 460.69 78.5713 427.978C78.3423 427.214 78.0752 426.451 77.8081 425.687C72.1986 409.274 60.5216 388.699 54.3779 370.072C53.3857 367.094 52.508 364.308 51.7448 361.674C51.4777 360.834 51.2487 359.994 51.0198 359.193L57.5451 354.23C57.5451 354.23 77.1594 385.989 83.2268 415.877C88.5311 441.834 109.634 473.096 115.09 480.845Z" fill="#F44336"/>
<path d="M58.2702 418.663C58.3847 433.206 57.6597 466.606 55.7517 480.462H48.7302C44.8379 480.462 42.9299 480.424 42.9299 480.424C38.1981 456.376 34.8018 436.489 32.3596 419.312C30.3371 405.227 28.5436 393.165 27.1698 382.782C25.7961 372.323 24.8039 363.582 24.4605 356.176C24.4223 354.993 24.3842 353.886 24.346 352.779C24.3078 351.672 24.3078 350.603 24.346 349.573L62.6586 345.832C62.1244 371.292 58.1939 410.227 58.2702 418.663Z" fill="#FF7043"/>
<path d="M48.7302 480.464C44.8379 480.464 42.9299 480.426 42.9299 480.426C38.1981 456.378 34.8018 436.49 32.3596 419.313C30.3371 405.228 28.5436 393.166 27.1698 382.783C25.796 372.324 24.8039 363.583 24.4604 356.178L38.5033 364.461C38.5033 364.461 29.5357 367.629 32.9701 391.601C36.3664 415.572 43.9602 477.066 48.7302 480.464Z" fill="#F44336"/>
<path d="M50.5238 355.949C50.5238 355.949 47.8144 365.721 38.5034 364.461C29.1542 363.201 15.8745 357.628 15.8745 357.628C15.8745 357.628 19.8813 345.032 24.8421 328.427C30.8332 308.349 38.2744 282.507 41.7852 266.208C42.7773 261.627 43.426 257.81 43.6932 255.1L51.5923 240.061C51.5923 240.061 62.964 266.017 63.6127 272.544C64.2232 279.034 50.5238 355.949 50.5238 355.949Z" fill="#FF7043"/>
<path d="M83.8756 279.798C79.3727 280.37 77.6555 282.775 77.1213 285.981C76.816 287.737 75.9383 289.455 75.1751 290.638C70.7104 290.867 60.0256 291.44 51.0961 292.012L50.3711 303.769C57.736 302.853 66.7799 300.983 77.1594 297.433C77.9608 297.28 78.9529 296.784 80.2122 295.791C86.6612 290.524 90.3246 281.668 90.3246 280.408C90.3246 279.149 88.3785 279.187 83.8756 279.798Z" fill="#FFDEDD"/>
<path d="M50.104 286.211C49.6843 296.784 47.2039 317.359 24.9948 328.352C24.9184 328.39 24.8803 328.428 24.804 328.428C30.7951 308.35 38.2363 282.508 41.747 266.209C45.8683 272.278 50.333 280.371 50.104 286.211Z" fill="#F44336"/>
<path d="M51.5922 240.023C51.5922 240.023 32.5885 241.359 28.0475 251.551C23.4683 261.705 22.0182 295.563 27.8567 305.525C27.8567 305.525 35.8703 307.816 49.9895 305.144C50.1803 305.106 50.3329 305.067 50.5237 305.029C50.5237 305.029 55.0266 293.96 50.9817 291.784C50.9817 291.784 39.0376 292.395 40.2969 288.463C41.518 284.531 51.5922 240.023 51.5922 240.023Z" fill="#FF7043"/>
<path d="M156.341 244.947C146.115 243.649 143.558 252.925 143.558 252.925L145.466 259.299C148.633 259.719 151.381 258.917 153.899 255.291C156.456 251.665 157.143 253.039 158.746 250.329C160.959 246.703 157.524 245.328 156.341 244.947Z" fill="#FFDEDD"/>
<path d="M127.187 261.589C125.661 262.276 122.913 263.574 120.089 264.871C121.616 267.543 123.486 272.429 123.982 280.484C127.034 278.613 130.965 275.445 134.285 272.162C139.665 266.895 145.389 259.298 145.389 259.298L143.481 252.924C143.481 252.962 131.461 259.642 127.187 261.589Z" fill="#FFDEDD"/>
<path d="M669.212 335.641C669.212 335.641 661.961 337.511 657.344 336.099C652.727 334.725 644.789 336.977 643.492 338.694C642.195 340.374 642.691 341.061 644.98 341.634C647.27 342.206 655.36 345.68 660.664 343.657C665.968 341.672 672.913 341.595 672.913 341.595L669.212 335.641Z" fill="#FFDEDD"/>
<path d="M731.985 272.505C731.985 272.505 723.819 330.525 710.31 335.717C703.632 338.274 674.173 344.076 665.434 344.687C665.434 344.687 663.297 342.969 663.831 335.908C663.831 335.908 694.703 324.571 699.091 318.387C705.617 309.226 695.046 280.903 703.212 272.276C711.455 263.687 725.231 259.985 731.985 272.505Z" fill="#1976D2"/>
<path d="M730.955 496.114V483.479H750.874C751.408 483.479 751.866 483.021 751.866 482.487V480.464C751.866 479.929 751.408 479.471 750.874 479.471H730.955V407.442C730.955 405.419 729.314 403.777 727.291 403.777H723.361C721.338 403.777 719.698 405.419 719.698 407.442V479.471H699.778C699.244 479.471 698.786 479.929 698.786 480.464V482.487C698.786 483.021 699.244 483.479 699.778 483.479H719.698V496.114C705.273 497.221 693.749 502.374 690.505 509.092H760.147C756.904 502.374 745.341 497.183 730.955 496.114Z" fill="#2A2E33"/>
<path d="M729.237 394.769C726.872 398.815 724.086 402.594 721.262 406.182C712.485 417.252 702.945 426.374 701.266 435.039C700.923 436.757 700.427 438.627 699.74 440.574C699.053 442.559 698.175 444.62 697.183 446.796C693.443 454.889 687.91 463.935 682.339 472.18C672.723 486.418 663.679 498.289 663.679 498.289L647.117 497.564C647.766 495.885 655.016 476.226 664.671 452.216C668.601 442.445 672.761 432.1 676.806 422.061C677.34 420.725 677.874 419.389 678.408 418.091C679.63 415.038 680.851 412.022 682.034 409.083C691.116 386.524 698.328 368.545 698.328 368.545C698.328 368.545 734.618 354.803 738.358 363.697C741.525 371.064 738.968 378.24 729.237 394.769Z" fill="black"/>
<path d="M663.183 495.274C663.183 495.274 662.343 508.939 659.672 509.13C659.328 509.168 646.24 509.168 646.24 509.168L629.564 509.053C629.564 509.053 629.678 505.045 634.563 504.168C639.447 503.328 647.613 499.892 650.552 493.441C653.681 486.685 663.183 495.274 663.183 495.274Z" fill="black"/>
<g filter="url(#filter0_d)">
<path d="M701.572 456.186C701.572 456.186 713.096 463.591 711.989 465.996C711.837 466.301 705.464 477.714 705.464 477.714L697.259 492.219C697.259 492.219 693.787 490.158 695.428 485.501C697.069 480.844 698.061 472.027 693.863 466.301C689.437 460.308 701.572 456.186 701.572 456.186Z" fill="black"/>
</g>
<path d="M685.964 362.018C685.964 362.018 640.439 390.379 635.326 409.465C630.25 428.55 695.924 469.203 695.924 469.203C695.924 469.203 703.136 462.828 704.395 458.171C704.395 458.171 674.707 422.595 668.258 414.618C664.289 409.732 726.719 397.67 734.351 385.798C741.983 373.927 739.235 363.964 739.235 363.964L685.964 362.018Z" fill="#2A2E33"/>
<path d="M771.9 398.471H678.713C676.844 398.471 675.317 399.998 675.317 401.868V420.496C675.317 422.366 676.844 423.893 678.713 423.893H771.9C773.77 423.893 775.296 422.366 775.296 420.496V401.868C775.296 399.959 773.77 398.471 771.9 398.471Z" fill="#2196F3"/>
<path d="M707.028 262.582C702.564 265.368 700.083 268.88 700.083 268.88C710.997 271.705 729.085 261.589 729.085 261.589C729.085 261.589 722.063 256.856 719.469 246.511C719.354 245.977 719.201 245.443 719.125 244.908C718.782 243.152 718.591 241.282 718.553 239.221L713.554 243.725L705.235 251.207C705.235 251.207 705.426 254.298 706.456 259.642C706.57 260.52 706.799 261.513 707.028 262.582Z" fill="#FFDEDD"/>
<path d="M740.571 314.073C739.006 335.106 741.639 367.055 739.846 372.59C738.319 377.361 720.308 374.537 713.363 372.933C710.806 372.361 707.677 371.483 704.433 370.49C695.428 367.704 685.659 363.734 684.59 360.795C684.552 360.68 684.514 360.566 684.476 360.451C684.361 360.031 684.399 359.612 684.476 359.23C684.819 357.741 686.193 356.1 686.345 352.359C686.536 348.198 686.498 343.312 686.651 338.045C686.651 337.434 686.651 336.823 686.727 336.212V335.983C686.727 335.869 686.727 335.754 686.727 335.64C686.88 329.762 687.185 323.578 687.528 317.47C687.757 313.615 688.024 309.836 688.33 306.172C689.131 296.743 690.161 288.384 691.573 283.078C693.863 274.451 698.9 268.802 703.479 264.679L706.799 261.817C710.501 262.618 714.889 262.084 718.82 260.213C723.093 258.19 724.582 256.702 725.345 257.274C735.305 264.947 742.441 288.346 740.571 314.073Z" fill="#2196F3"/>
<path d="M704.51 370.53C695.504 367.744 685.735 363.774 684.667 360.835C684.629 360.72 684.59 360.606 684.552 360.491C684.552 360.071 684.552 359.652 684.552 359.27C684.896 357.781 686.269 356.14 686.422 352.399C686.613 348.238 686.575 343.352 686.727 338.085C686.727 337.474 686.727 336.863 686.804 336.253V336.023C686.804 335.909 686.804 335.794 686.804 335.68L720.766 320.297C720.804 320.297 722.75 347.666 704.51 370.53Z" fill="#1976D2"/>
<path opacity="0.3" d="M705.159 251.168C705.159 251.168 705.349 254.26 706.38 259.604C714.508 256.97 718.209 249.603 719.431 246.511C719.774 245.633 719.927 245.099 719.927 245.099C719.927 245.099 719.621 245.022 719.049 244.908C717.904 244.679 715.767 244.221 713.439 243.725L705.159 251.168Z" fill="#FF7043"/>
<path d="M701.877 251.054C701.877 251.054 719.774 253.077 720.842 241.931C721.911 230.785 724.963 223.533 713.592 221.777C702.22 220.021 699.587 224.067 698.328 227.693C697.03 231.32 697.259 250.253 701.877 251.054Z" fill="#FFDEDD"/>
<path d="M720.766 242.694C720.766 242.694 719.621 227.883 703.365 226.356C692.222 225.288 698.442 215.707 699.625 214.18C699.625 214.18 708.173 215.363 716.912 216.814C735.267 219.829 722.56 240.403 720.766 242.694Z" fill="#2A2E33"/>
<path d="M620.878 309.223L619.318 309.73L632.626 350.719L634.187 350.212L620.878 309.223Z" fill="#2A2E33"/>
<path d="M677.821 347.038L632.61 348.004L632.668 350.713L677.879 349.748L677.821 347.038Z" fill="#2A2E33"/>
<path d="M672.951 344.572C672.951 344.572 665.93 347.244 661.198 346.366C656.466 345.488 648.796 348.657 647.728 350.451C646.659 352.283 647.193 352.894 649.521 353.199C651.849 353.543 660.282 356.062 665.358 353.504C670.433 350.947 677.302 350.107 677.302 350.107L672.951 344.572Z" fill="#FFDEDD"/>
<path d="M728.398 274.909C728.398 274.909 726.681 333.464 713.821 340.144C707.486 343.427 678.828 352.474 670.242 354C670.242 354 667.914 352.512 667.685 345.45C667.685 345.45 697.107 330.792 700.808 324.15C706.303 314.302 692.642 287.315 699.854 277.849C706.99 268.382 720.308 263.191 728.398 274.909Z" fill="#2196F3"/>
<path d="M926.22 510.961H9.61645C9.12037 510.961 8.73877 510.541 8.73877 510.083C8.73877 509.587 9.15853 509.205 9.61645 509.205H926.22C926.716 509.205 927.097 509.625 927.097 510.083C927.135 510.541 926.716 510.961 926.22 510.961Z" fill="#E1E5EB"/>
</g>
<defs>
<filter id="filter0_d" x="688.892" y="456.186" width="27.1726" height="44.0338" filterUnits="userSpaceOnUse" color-interpolation-filters="sRGB">
<feFlood flood-opacity="0" result="BackgroundImageFix"/>
<feColorMatrix in="SourceAlpha" type="matrix" values="0 0 0 0 0 0 0 0 0 0 0 0 0 0 0 0 0 0 127 0"/>
<feOffset dy="4"/>
<feGaussianBlur stdDeviation="2"/>
<feColorMatrix type="matrix" values="0 0 0 0 0 0 0 0 0 0 0 0 0 0 0 0 0 0 0.25 0"/>
<feBlend mode="normal" in2="BackgroundImageFix" result="effect1_dropShadow"/>
<feBlend mode="normal" in="SourceGraphic" in2="effect1_dropShadow" result="shape"/>
</filter>
<clipPath id="clip0">
<rect width="954" height="511" fill="white"/>
</clipPath>
</defs>
</svg>
