<svg width="268" height="80" viewBox="0 0 268 80" fill="none" xmlns="http://www.w3.org/2000/svg">
<path d="M108.5 36.3136V0H135.609V8.08087H118.184V15.0552H131.286V23.002H118.184V36.3136H108.5Z" fill="black"/>
<path d="M149.448 0V36.3136H139.764V0H149.448Z" fill="black"/>
<path d="M178.13 20.1184V0H187.01V36.3136H179.269L163.788 14.8205V36.3136H154.909V0H164.124L178.13 20.1184Z" fill="black"/>
<path d="M224.706 17.1693L238.478 36.3153H227.152L218.842 24.7472L210.633 36.3153H199.977L213.749 17.7728L201.016 0.0351562H212.342L219.579 10.2285L226.817 0.0351562H237.473L224.706 17.1693Z" fill="black"/>
<path d="M265.018 8.51676H249.638C249.537 10.0592 249.168 11.9704 248.9 13.3452C250.14 12.3728 252.084 11.568 255.233 11.568C263.543 11.568 267.699 17.0335 267.699 24.142C267.699 32.2229 261.835 36.9842 253.927 36.9842C244.41 36.9842 239.417 31.9211 239.686 23.572L248.967 24.2091C249.034 27.3274 250.911 29.1046 253.927 29.1046C256.842 29.1046 258.819 27.2604 258.819 24.142C258.819 21.3255 257.177 18.9113 253.994 18.9113C251.715 18.9113 250.408 19.8166 249.504 21.2249L240.222 20.5207C241.059 15.5582 242.4 6.00198 242.567 0H265.051V8.51676H265.018Z" fill="black"/>
<path d="M112.453 79.4392H108.533V50.4688H118.92C125.991 50.4688 130.045 53.8553 130.045 59.522C130.045 65.2222 125.991 68.6088 118.92 68.6088H112.42V79.4392H112.453ZM118.853 65.3899C123.846 65.3899 126.259 63.311 126.259 59.5555C126.259 55.8336 123.846 53.7547 118.853 53.7547H112.453V65.3899H118.853Z" fill="black"/>
<path d="M147.637 80.0005C139.293 80.0005 133.429 73.8979 133.429 64.9787C133.429 56.0596 139.293 49.957 147.637 49.957C155.947 49.957 161.845 56.0596 161.845 64.9787C161.845 73.8644 155.947 80.0005 147.637 80.0005ZM147.637 53.3436C141.471 53.3436 137.45 57.9038 137.45 64.9787C137.45 72.0537 141.438 76.6139 147.637 76.6139C153.803 76.6139 157.757 72.0537 157.757 64.9787C157.757 57.8703 153.803 53.3436 147.637 53.3436Z" fill="black"/>
<path d="M185.636 79.4392C185.1 78.668 184.664 76.5556 184.463 73.1354C184.296 69.9165 182.788 67.7705 178.867 67.7705H170.792V79.4392H166.938V50.4688H178.566C185.837 50.4688 189.322 53.8553 189.322 59.0191C189.322 63.4786 186.34 65.8258 182.821 66.2281C186.306 66.9323 188.015 69.0782 188.283 72.4648C188.652 76.6897 188.786 78.3327 189.724 79.4057H185.636V79.4392ZM178.331 64.5851C183.19 64.5851 185.368 62.741 185.368 59.1532C185.368 55.8336 183.19 53.7212 178.331 53.7212H170.792V64.5851H178.331Z" fill="black"/>
<path d="M202.626 79.4392V53.7883H192.238V50.4688H217.135V53.7883H206.546V79.4392H202.626Z" fill="black"/>
<path d="M231.978 50.5023L243.907 79.4392H239.718L236.267 70.9224H223.232L219.881 79.4392H216.028L227.689 50.4688H231.978V50.5023ZM224.472 67.7705H234.994L229.766 54.8948H229.599L224.472 67.7705Z" fill="black"/>
<path d="M252.05 50.5023V76.1532H268V79.4392H248.096V50.4688H252.05V50.5023Z" fill="black"/>
<path d="M0 0H23.791L49.5589 39.6667L23.791 79.3334H0L23.791 39.6667L0 0Z" fill="url(#paint0_linear)"/>
<path d="M73.3502 0H49.5592L23.7913 39.6667L49.5592 79.3334H73.3502L49.5592 39.6667L73.3502 0Z" fill="#FE5000"/>
<path d="M101.028 43.7617L79.3147 79.3712L78.3095 77.8288L68.0559 60.7953L79.2142 43.7617H101.028Z" fill="#FE5000"/>
<path d="M79.2475 39.5661L67.3855 19.8166L79.3145 0L101.028 39.5661H79.2475Z" fill="#FE5000"/>
<defs>
<linearGradient id="paint0_linear" x1="9.23726" y1="39.663" x2="58.5016" y2="39.663" gradientUnits="userSpaceOnUse">
<stop offset="0.2806" stop-color="#FE5000"/>
<stop offset="0.5412" stop-color="#E63F0B"/>
<stop offset="0.7992" stop-color="#DD3B08"/>
<stop offset="1" stop-color="#CB3100"/>
</linearGradient>
</defs>
</svg>
