<svg width="12" height="12" viewBox="0 0 12 12" fill="none" xmlns="http://www.w3.org/2000/svg">
<path d="M0.46875 6.46875L5.53125 6.46875L5.53125 11.5312C5.53125 11.7901 5.74111 12 6 12C6.25889 12 6.46875 11.7901 6.46875 11.5312L6.46875 6.46875L11.5313 6.46875C11.7901 6.46875 12 6.25889 12 6C12 5.74111 11.7901 5.53125 11.5313 5.53125L6.46875 5.53125L6.46875 0.46875C6.46875 0.209859 6.25889 4.51771e-07 6 4.29138e-07C5.74111 4.06505e-07 5.53125 0.209859 5.53125 0.46875L5.53125 5.53125L0.46875 5.53125C0.209859 5.53125 -4.06505e-07 5.74111 -4.29138e-07 6C-4.51771e-07 6.25889 0.209859 6.46875 0.46875 6.46875Z" fill="#798599"/>
</svg>
