<svg width="24" height="24" viewBox="0 0 24 24" fill="none" xmlns="http://www.w3.org/2000/svg">
<path d="M11.1142 17.1562V12.9367H6.89541C6.37763 12.9367 5.95791 12.5169 5.95791 11.9992C5.95791 11.4814 6.37763 11.0617 6.89541 11.0617H11.1142V6.79688C11.1142 6.27909 11.5339 5.85938 12.0517 5.85938C12.5694 5.85938 12.9892 6.27909 12.9892 6.79688V11.0617H17.2079C17.7257 11.0617 18.1454 11.4814 18.1454 11.9992C18.1454 12.5169 17.7257 12.9367 17.2079 12.9367H12.9892V17.1562C12.9892 17.674 12.5694 18.0938 12.0517 18.0938C11.5339 18.0938 11.1142 17.674 11.1142 17.1562ZM23.0625 16.4531C23.5803 16.4531 24 16.0334 24 15.5156V3.75C24 1.68225 22.3177 0 20.25 0H3.75C1.68225 0 0 1.68225 0 3.75V20.25C0 22.3177 1.68225 24 3.75 24H20.25C22.3177 24 24 22.3177 24 20.25C24 19.7322 23.5803 19.3125 23.0625 19.3125C22.5447 19.3125 22.125 19.7322 22.125 20.25C22.125 21.2839 21.2839 22.125 20.25 22.125H3.75C2.71613 22.125 1.875 21.2839 1.875 20.25V3.75C1.875 2.71613 2.71613 1.875 3.75 1.875H20.25C21.2839 1.875 22.125 2.71613 22.125 3.75V15.5156C22.125 16.0334 22.5447 16.4531 23.0625 16.4531Z" fill="#CFD4DC"/>
</svg>
