<svg width="24" height="24" viewBox="0 0 24 24" fill="none" xmlns="http://www.w3.org/2000/svg">
<path d="M11.9531 18.7969C11.4353 18.7969 11.0156 18.3772 11.0156 17.8594C11.0156 17.3416 11.4353 16.9219 11.9531 16.9219C12.4709 16.9219 12.8906 17.3416 12.8906 17.8594C12.8906 18.3772 12.4709 18.7969 11.9531 18.7969ZM12.8906 14.5781V13.3193C14.7034 12.8807 15.9593 11.2361 15.8877 9.37628C15.8099 7.35114 14.1484 5.70447 12.1051 5.62793C11.0134 5.58655 9.98254 5.97766 9.20325 6.72821C8.43732 7.46594 8.01562 8.45581 8.01562 9.51562C8.01562 10.0334 8.4353 10.4531 8.95312 10.4531C9.47095 10.4531 9.89062 10.0334 9.89062 9.51562C9.89062 8.96997 10.1083 8.45966 10.5038 8.0788C10.9129 7.68494 11.4562 7.48004 12.0348 7.50146C13.1043 7.54175 13.9737 8.39685 14.0142 9.44843C14.0517 10.4284 13.3753 11.2943 12.4054 11.5071C11.5871 11.6867 11.0156 12.3939 11.0156 13.227V14.5781C11.0156 15.0959 11.4353 15.5156 11.9531 15.5156C12.4709 15.5156 12.8906 15.0959 12.8906 14.5781ZM18.2091 22.2706C18.652 22.0023 18.7936 21.4259 18.5253 20.9832C18.2569 20.5402 17.6805 20.3987 17.2377 20.6669C15.663 21.6207 13.8517 22.125 12 22.125C6.41711 22.125 1.875 17.5829 1.875 12C1.875 6.41711 6.41711 1.875 12 1.875C17.5829 1.875 22.125 6.41711 22.125 12C22.125 13.9964 21.5314 15.9395 20.4082 17.6197C20.1204 18.05 20.2361 18.6323 20.6664 18.9201C21.0969 19.2079 21.6791 19.0922 21.9668 18.6617C23.2971 16.6723 24 14.3687 24 12C24 8.79474 22.7518 5.78119 20.4853 3.51471C18.2188 1.24823 15.2053 0 12 0C8.79474 0 5.78119 1.24823 3.51471 3.51471C1.24823 5.78119 0 8.79474 0 12C0 15.2053 1.24823 18.2188 3.51471 20.4853C5.78119 22.7518 8.79474 24 12 24C14.1943 24 16.3414 23.402 18.2091 22.2706Z" fill="#222429"/>
</svg>
