<svg width="12" height="12" viewBox="0 0 12 12" fill="none" xmlns="http://www.w3.org/2000/svg">
<path d="M7.07813 0C4.36421 0 2.15625 2.20795 2.15625 4.92188C2.15625 6.11588 2.58361 7.21193 3.29342 8.06512L0.138425 11.1987C-0.0452551 11.3811 -0.0462629 11.6779 0.136151 11.8616C0.227792 11.9538 0.348261 12 0.468753 12C0.588167 12 0.707628 11.9546 0.799057 11.8638L3.95836 8.72602C4.80816 9.42417 5.89507 9.84375 7.07813 9.84375C7.92249 9.84375 8.75569 9.62618 9.4876 9.21455C9.71325 9.08766 9.79329 8.80186 9.66638 8.5762C9.53949 8.35057 9.25369 8.27048 9.02803 8.39742C8.43614 8.7303 7.76187 8.90625 7.07813 8.90625C4.88114 8.90625 3.09375 7.11886 3.09375 4.92188C3.09375 2.72489 4.88114 0.9375 7.07813 0.9375C9.27511 0.9375 11.0625 2.72489 11.0625 4.92188C11.0625 5.61401 10.8824 6.29552 10.5418 6.89276C10.4135 7.11764 10.4918 7.40391 10.7167 7.53218C10.9416 7.66043 11.2279 7.58213 11.3561 7.35727C11.7773 6.61875 12 5.77662 12 4.92188C12 2.20795 9.79205 0 7.07813 0Z" fill="#919DA8"/>
</svg>
