<svg width="13" height="12" viewBox="0 0 13 12" fill="none" xmlns="http://www.w3.org/2000/svg">
<g clip-path="url(#clip0)">
<path d="M3.24063 11.8402C3.34178 11.9425 3.47895 12 3.62202 12C3.76505 12 3.90226 11.9425 4.00337 11.8402L6.70008 9.11295C6.91071 8.89996 6.91071 8.55458 6.70008 8.34156C6.48945 8.12858 6.14794 8.12858 5.93734 8.34156L4.16136 10.1377V0.545455C4.16136 0.244218 3.91988 0 3.62202 0C3.32416 0 3.08268 0.244218 3.08268 0.545455V10.1377L1.3067 8.34156C1.0961 8.12855 0.754627 8.12855 0.54396 8.34156C0.333329 8.55455 0.333329 8.89993 0.54396 9.11295L3.24063 11.8402Z" fill="#B4BBC6"/>
<path d="M8.63373 0.159768L5.93703 2.88704C5.7264 3.10002 5.7264 3.4454 5.93703 3.65842C6.14762 3.8714 6.48913 3.8714 6.69976 3.65842L8.47578 1.86228V11.4545C8.47578 11.7558 8.71726 12 9.01512 12C9.31298 12 9.55446 11.7558 9.55446 11.4545V1.86228L11.3305 3.65842C11.4358 3.7649 11.5738 3.81817 11.7118 3.81817C11.8499 3.81817 11.9879 3.7649 12.0932 3.65839C12.3038 3.4454 12.3038 3.10002 12.0932 2.887L9.39651 0.159732C9.18587 -0.05325 8.84436 -0.05325 8.63373 0.159768Z" fill="#B4BBC6"/>
</g>
<defs>
<clipPath id="clip0">
<rect width="11.8655" height="12" fill="white" transform="translate(0.385742)"/>
</clipPath>
</defs>
</svg>
