<svg width="24" height="19" viewBox="0 0 24 19" fill="none" xmlns="http://www.w3.org/2000/svg">
<path d="M19.0287 18.9979C18.8511 18.9992 18.6774 18.9453 18.5317 18.8436L10.2965 13.0678C10.1946 12.996 10.1096 12.9028 10.0475 12.7948C9.98529 12.6867 9.94745 12.5664 9.93656 12.4422C9.92502 12.3167 9.9413 12.1902 9.98426 12.0717C10.0272 11.9532 10.0958 11.8456 10.1851 11.7567L12.4303 9.47722L8.58259 11.8852L10.2965 15.8186L10.7874 15.5043C10.9477 15.3429 11.1654 15.2518 11.3928 15.251C11.6202 15.2502 11.8386 15.3398 12 15.5C12.1614 15.6602 12.2525 15.878 12.2533 16.1054C12.2541 16.3328 12.1645 16.5512 12.0043 16.7126L10.5536 17.9181C10.4548 18.0179 10.3329 18.0919 10.1988 18.1336C10.0647 18.1753 9.92241 18.1833 9.78444 18.1571C9.64647 18.1309 9.51707 18.0711 9.40761 17.9831C9.29816 17.8951 9.21201 17.7816 9.15674 17.6525L6.68018 11.8767C6.60089 11.6878 6.59187 11.4768 6.65476 11.2819C6.71764 11.0869 6.84826 10.921 7.02295 10.814L17.7519 4.20702C17.9308 4.09688 18.144 4.05632 18.3509 4.09304C18.5577 4.12977 18.7439 4.24122 18.874 4.40621C19.0041 4.57121 19.069 4.77825 19.0565 4.98799C19.0439 5.19773 18.9548 5.39555 18.8059 5.54385L12.1046 12.2451L18.4803 16.7184L21.9081 2.15035L3.2524 9.09159L4.416 9.5C4.52688 9.53722 4.62896 9.59674 4.71596 9.6749C4.80297 9.75306 4.87305 9.84821 4.9219 9.95447C4.97075 10.0607 4.99733 10.1759 5 10.2928C5.00267 10.4097 4.98138 10.526 4.93744 10.6343C4.8935 10.7427 4.82784 10.841 4.7445 10.923C4.66116 11.0051 4.5619 11.0692 4.45285 11.1115C4.34379 11.1537 4.22724 11.1732 4.11037 11.1687C3.9935 11.1642 3.87879 11.1358 3.77329 11.0853L0.55303 9.86284C0.390441 9.80117 0.250461 9.6915 0.151682 9.54838C0.0529028 9.40527 0 9.23549 0 9.0616C0 8.88771 0.0529028 8.71793 0.151682 8.57482C0.250461 8.4317 0.390441 8.32203 0.55303 8.26036L22.8507 0.0508425C22.995 -0.00122202 23.1507 -0.0135791 23.3014 0.0150615C23.4522 0.043702 23.5925 0.11229 23.7076 0.213662C23.8268 0.318003 23.9147 0.45332 23.9616 0.60459C24.0085 0.755861 24.0125 0.917168 23.9733 1.07061L19.86 18.338C19.8282 18.4753 19.7632 18.6026 19.6705 18.7088C19.5778 18.8149 19.4604 18.8965 19.3287 18.9464C19.2322 18.9802 19.1309 18.9975 19.0287 18.9979Z" fill="black"/>
</svg>
