<svg width="12" height="12" viewBox="0 0 12 12" fill="none" xmlns="http://www.w3.org/2000/svg">
<path d="M11.0625 1.94531L8.22656 1.94531V1.40625C8.22656 0.630844 7.59572 0 6.82031 0L5.17969 0C4.40428 0 3.77344 0.630844 3.77344 1.40625L3.77344 1.94531L0.9375 1.94531C0.678609 1.94531 0.46875 2.15517 0.46875 2.41406C0.46875 2.67295 0.678609 2.88281 0.9375 2.88281H1.42294L1.9942 10.2888C1.99437 10.2909 1.99455 10.2931 1.99474 10.2953C2.0373 10.7622 2.25148 11.1935 2.59779 11.5097C2.9441 11.8259 3.39307 12 3.86198 12L8.13802 12C9.11459 12 9.91732 11.2727 10.0053 10.3082C10.0288 10.0504 9.83883 9.82233 9.58102 9.79882C9.32295 9.77531 9.09513 9.96525 9.07163 10.2231C9.02801 10.7016 8.62664 11.0625 8.13802 11.0625L3.86198 11.0625C3.37502 11.0625 2.97429 10.6976 2.92863 10.2131L2.36323 2.88281L9.63677 2.88281L9.23641 8.07333C9.21652 8.33144 9.40962 8.55682 9.66774 8.57674C9.68002 8.57768 9.69218 8.57815 9.7043 8.57815C9.94681 8.57815 10.1522 8.39126 10.1711 8.14542L10.5771 2.88281H11.0625C11.3214 2.88281 11.5313 2.67295 11.5313 2.41406C11.5313 2.15517 11.3214 1.94531 11.0625 1.94531ZM7.28906 1.94531L4.71094 1.94531V1.40625C4.71094 1.14778 4.92122 0.9375 5.17969 0.9375L6.82031 0.9375C7.07878 0.9375 7.28906 1.14778 7.28906 1.40625V1.94531Z" fill="#F44336"/>
<path d="M3.87017 3.82079C3.61154 3.83209 3.41103 4.0509 3.42233 4.30956L3.6567 9.67517C3.6677 9.92685 3.87519 10.1235 4.12466 10.1235C4.13155 10.1235 4.13851 10.1233 4.14547 10.123C4.4041 10.1117 4.60461 9.89291 4.59331 9.63425L4.35894 4.26861C4.34764 4.01 4.12841 3.80917 3.87017 3.82079Z" fill="#F44336"/>
<path d="M7.64108 4.26861L7.4067 9.63425C7.39541 9.89288 7.59592 10.1117 7.85455 10.123C7.86151 10.1233 7.86845 10.1235 7.87536 10.1235C8.12481 10.1235 8.33232 9.92684 8.34331 9.67517L8.57769 4.30955C8.58898 4.05092 8.38848 3.83208 8.12984 3.82079C7.87163 3.80923 7.65238 4.00997 7.64108 4.26861Z" fill="#F44336"/>
<path d="M5.53125 4.28906L5.53125 9.65468C5.53125 9.91357 5.74111 10.1234 6 10.1234C6.25889 10.1234 6.46875 9.91357 6.46875 9.65468L6.46875 4.28906C6.46875 4.03017 6.25889 3.82031 6 3.82031C5.74111 3.82031 5.53125 4.03017 5.53125 4.28906Z" fill="#F44336"/>
</svg>
