<svg width="24" height="24" viewBox="0 0 24 24" fill="none" xmlns="http://www.w3.org/2000/svg">
<path d="M23.7129 10.2004L21.6563 8.21897V2.43826C21.6563 1.92054 21.2366 1.50079 20.7188 1.50079H16.969C16.4512 1.50079 16.0315 1.92054 16.0315 2.43826V2.77973L13.9494 0.747298C13.9401 0.738204 13.9306 0.729298 13.9209 0.72058C12.8543 -0.237185 11.2425 -0.24056 10.1719 0.712705C10.1631 0.720533 10.1545 0.728455 10.146 0.736611L0.28903 10.1992C-0.31681 10.7817 0.0982079 11.8124 0.938274 11.813H2.34448V20.2502C2.34448 22.3179 4.02667 24.0001 6.09435 24.0001H9.46924C9.98701 24.0001 10.4067 23.5804 10.4067 23.0626V16.3597H13.6879V23.0626C13.6879 23.5804 14.1076 24.0001 14.6253 24.0001H17.9065C19.9741 24.0001 21.6563 22.3179 21.6563 20.2502C21.6563 19.7324 21.2366 19.3127 20.7189 19.3127C20.2011 19.3127 19.7814 19.7324 19.7814 20.2502C19.7814 21.2841 18.9403 22.1252 17.9065 22.1252H15.5628V15.4222C15.5628 14.9045 15.1431 14.4848 14.6253 14.4848H9.46924C8.95148 14.4848 8.53177 14.9045 8.53177 15.4222V22.1252H6.09435C5.06051 22.1252 4.21942 21.2841 4.21942 20.2502V11.813H19.7814V15.5629C19.8309 16.8067 21.6073 16.8058 21.6563 15.5629V11.813H23.0625C23.4449 11.813 23.7889 11.5808 23.932 11.2262C24.075 10.8715 23.9883 10.4657 23.7129 10.2004ZM3.26849 9.93801L11.4296 2.10339C11.7824 1.7989 12.3043 1.7997 12.6561 2.10494L16.3142 5.67576C16.584 5.93923 16.9855 6.01522 17.333 5.86888C17.6805 5.72245 17.9065 5.38205 17.9065 5.00495V3.37573H19.7814V8.61758C19.7814 8.87229 19.885 9.11599 20.0685 9.2927L20.7383 9.93801H3.26849Z" fill="#2A2E33"/>
</svg>
